<mxfile host="app.diagrams.net" modified="2022-03-09T18:15:44.299Z" agent="5.0 (Windows NT 10.0; Win64; x64) AppleWebKit/537.36 (KHTML, like Gecko) Chrome/99.0.4844.51 Safari/537.36" etag="EQ8JQrYLpfCVDqWad0R7" version="17.0.0" type="github">
  <diagram id="fodR142t3LQC5FbwyXNy" name="Page-1">
    <mxGraphModel dx="1422" dy="796" grid="1" gridSize="10" guides="1" tooltips="1" connect="1" arrows="1" fold="1" page="1" pageScale="1" pageWidth="850" pageHeight="1100" math="0" shadow="0">
      <root>
        <mxCell id="0" />
        <mxCell id="1" parent="0" />
        <mxCell id="t08y1QO3zHGYFeZgEVLe-1" value="" style="whiteSpace=wrap;html=1;aspect=fixed;" vertex="1" parent="1">
          <mxGeometry x="70" y="180" width="560" height="560" as="geometry" />
        </mxCell>
        <mxCell id="t08y1QO3zHGYFeZgEVLe-2" value="" style="rounded=1;whiteSpace=wrap;html=1;" vertex="1" parent="1">
          <mxGeometry x="230" y="200" width="220" height="100" as="geometry" />
        </mxCell>
        <mxCell id="t08y1QO3zHGYFeZgEVLe-3" value="NodePort Service PORT:80" style="rounded=0;whiteSpace=wrap;html=1;" vertex="1" parent="1">
          <mxGeometry x="230" y="230" width="220" height="20" as="geometry" />
        </mxCell>
        <mxCell id="t08y1QO3zHGYFeZgEVLe-4" value="" style="sketch=0;html=1;dashed=0;whitespace=wrap;fillColor=#2875E2;strokeColor=#ffffff;points=[[0.005,0.63,0],[0.1,0.2,0],[0.9,0.2,0],[0.5,0,0],[0.995,0.63,0],[0.72,0.99,0],[0.5,1,0],[0.28,0.99,0]];shape=mxgraph.kubernetes.icon;prIcon=pod" vertex="1" parent="1">
          <mxGeometry x="250" y="250" width="50" height="48" as="geometry" />
        </mxCell>
        <mxCell id="t08y1QO3zHGYFeZgEVLe-5" value="" style="sketch=0;html=1;dashed=0;whitespace=wrap;fillColor=#2875E2;strokeColor=#ffffff;points=[[0.005,0.63,0],[0.1,0.2,0],[0.9,0.2,0],[0.5,0,0],[0.995,0.63,0],[0.72,0.99,0],[0.5,1,0],[0.28,0.99,0]];shape=mxgraph.kubernetes.icon;prIcon=pod" vertex="1" parent="1">
          <mxGeometry x="370" y="250" width="50" height="48" as="geometry" />
        </mxCell>
        <mxCell id="t08y1QO3zHGYFeZgEVLe-6" value="" style="rounded=1;whiteSpace=wrap;html=1;" vertex="1" parent="1">
          <mxGeometry x="230" y="330" width="220" height="100" as="geometry" />
        </mxCell>
        <mxCell id="t08y1QO3zHGYFeZgEVLe-7" value="ClusterIP Servie" style="rounded=0;whiteSpace=wrap;html=1;" vertex="1" parent="1">
          <mxGeometry x="230" y="360" width="220" height="20" as="geometry" />
        </mxCell>
        <mxCell id="t08y1QO3zHGYFeZgEVLe-8" value="" style="sketch=0;html=1;dashed=0;whitespace=wrap;fillColor=#2875E2;strokeColor=#ffffff;points=[[0.005,0.63,0],[0.1,0.2,0],[0.9,0.2,0],[0.5,0,0],[0.995,0.63,0],[0.72,0.99,0],[0.5,1,0],[0.28,0.99,0]];shape=mxgraph.kubernetes.icon;prIcon=pod" vertex="1" parent="1">
          <mxGeometry x="260" y="382" width="50" height="48" as="geometry" />
        </mxCell>
        <mxCell id="t08y1QO3zHGYFeZgEVLe-9" value="" style="sketch=0;html=1;dashed=0;whitespace=wrap;fillColor=#2875E2;strokeColor=#ffffff;points=[[0.005,0.63,0],[0.1,0.2,0],[0.9,0.2,0],[0.5,0,0],[0.995,0.63,0],[0.72,0.99,0],[0.5,1,0],[0.28,0.99,0]];shape=mxgraph.kubernetes.icon;prIcon=pod" vertex="1" parent="1">
          <mxGeometry x="360" y="382" width="50" height="48" as="geometry" />
        </mxCell>
        <mxCell id="t08y1QO3zHGYFeZgEVLe-10" value="NGINX" style="rounded=0;whiteSpace=wrap;html=1;" vertex="1" parent="1">
          <mxGeometry x="240" y="200" width="200" height="20" as="geometry" />
        </mxCell>
        <mxCell id="t08y1QO3zHGYFeZgEVLe-11" value="KONG API GATEWAY" style="rounded=0;whiteSpace=wrap;html=1;" vertex="1" parent="1">
          <mxGeometry x="240" y="330" width="200" height="20" as="geometry" />
        </mxCell>
        <mxCell id="t08y1QO3zHGYFeZgEVLe-22" value="" style="sketch=0;html=1;dashed=0;whitespace=wrap;fillColor=#2875E2;strokeColor=#ffffff;points=[[0.005,0.63,0],[0.1,0.2,0],[0.9,0.2,0],[0.5,0,0],[0.995,0.63,0],[0.72,0.99,0],[0.5,1,0],[0.28,0.99,0]];shape=mxgraph.kubernetes.icon;prIcon=svc" vertex="1" parent="1">
          <mxGeometry x="400" y="355" width="50" height="30" as="geometry" />
        </mxCell>
        <mxCell id="t08y1QO3zHGYFeZgEVLe-23" value="" style="sketch=0;html=1;dashed=0;whitespace=wrap;fillColor=#2875E2;strokeColor=#ffffff;points=[[0.005,0.63,0],[0.1,0.2,0],[0.9,0.2,0],[0.5,0,0],[0.995,0.63,0],[0.72,0.99,0],[0.5,1,0],[0.28,0.99,0]];shape=mxgraph.kubernetes.icon;prIcon=svc" vertex="1" parent="1">
          <mxGeometry x="400" y="225" width="50" height="30" as="geometry" />
        </mxCell>
        <mxCell id="t08y1QO3zHGYFeZgEVLe-26" value="" style="group" vertex="1" connectable="0" parent="1">
          <mxGeometry x="100" y="550" width="220" height="100" as="geometry" />
        </mxCell>
        <mxCell id="t08y1QO3zHGYFeZgEVLe-12" value="" style="rounded=1;whiteSpace=wrap;html=1;" vertex="1" parent="t08y1QO3zHGYFeZgEVLe-26">
          <mxGeometry width="220" height="100" as="geometry" />
        </mxCell>
        <mxCell id="t08y1QO3zHGYFeZgEVLe-13" value="ClusterIP Servie" style="rounded=0;whiteSpace=wrap;html=1;" vertex="1" parent="t08y1QO3zHGYFeZgEVLe-26">
          <mxGeometry y="30" width="220" height="20" as="geometry" />
        </mxCell>
        <mxCell id="t08y1QO3zHGYFeZgEVLe-14" value="" style="sketch=0;html=1;dashed=0;whitespace=wrap;fillColor=#2875E2;strokeColor=#ffffff;points=[[0.005,0.63,0],[0.1,0.2,0],[0.9,0.2,0],[0.5,0,0],[0.995,0.63,0],[0.72,0.99,0],[0.5,1,0],[0.28,0.99,0]];shape=mxgraph.kubernetes.icon;prIcon=pod" vertex="1" parent="t08y1QO3zHGYFeZgEVLe-26">
          <mxGeometry x="30" y="52" width="50" height="48" as="geometry" />
        </mxCell>
        <mxCell id="t08y1QO3zHGYFeZgEVLe-15" value="" style="sketch=0;html=1;dashed=0;whitespace=wrap;fillColor=#2875E2;strokeColor=#ffffff;points=[[0.005,0.63,0],[0.1,0.2,0],[0.9,0.2,0],[0.5,0,0],[0.995,0.63,0],[0.72,0.99,0],[0.5,1,0],[0.28,0.99,0]];shape=mxgraph.kubernetes.icon;prIcon=pod" vertex="1" parent="t08y1QO3zHGYFeZgEVLe-26">
          <mxGeometry x="130" y="52" width="50" height="48" as="geometry" />
        </mxCell>
        <mxCell id="t08y1QO3zHGYFeZgEVLe-16" value="APPLICATION 1" style="rounded=0;whiteSpace=wrap;html=1;" vertex="1" parent="t08y1QO3zHGYFeZgEVLe-26">
          <mxGeometry x="10" width="200" height="20" as="geometry" />
        </mxCell>
        <mxCell id="t08y1QO3zHGYFeZgEVLe-24" value="" style="sketch=0;html=1;dashed=0;whitespace=wrap;fillColor=#2875E2;strokeColor=#ffffff;points=[[0.005,0.63,0],[0.1,0.2,0],[0.9,0.2,0],[0.5,0,0],[0.995,0.63,0],[0.72,0.99,0],[0.5,1,0],[0.28,0.99,0]];shape=mxgraph.kubernetes.icon;prIcon=svc" vertex="1" parent="t08y1QO3zHGYFeZgEVLe-26">
          <mxGeometry x="170" y="25" width="50" height="30" as="geometry" />
        </mxCell>
        <mxCell id="t08y1QO3zHGYFeZgEVLe-27" value="" style="group" vertex="1" connectable="0" parent="1">
          <mxGeometry x="370" y="550" width="220" height="100" as="geometry" />
        </mxCell>
        <mxCell id="t08y1QO3zHGYFeZgEVLe-17" value="" style="rounded=1;whiteSpace=wrap;html=1;" vertex="1" parent="t08y1QO3zHGYFeZgEVLe-27">
          <mxGeometry width="220" height="100" as="geometry" />
        </mxCell>
        <mxCell id="t08y1QO3zHGYFeZgEVLe-18" value="ClusterIP Servie" style="rounded=0;whiteSpace=wrap;html=1;" vertex="1" parent="t08y1QO3zHGYFeZgEVLe-27">
          <mxGeometry y="30" width="220" height="20" as="geometry" />
        </mxCell>
        <mxCell id="t08y1QO3zHGYFeZgEVLe-19" value="" style="sketch=0;html=1;dashed=0;whitespace=wrap;fillColor=#2875E2;strokeColor=#ffffff;points=[[0.005,0.63,0],[0.1,0.2,0],[0.9,0.2,0],[0.5,0,0],[0.995,0.63,0],[0.72,0.99,0],[0.5,1,0],[0.28,0.99,0]];shape=mxgraph.kubernetes.icon;prIcon=pod" vertex="1" parent="t08y1QO3zHGYFeZgEVLe-27">
          <mxGeometry x="30" y="52" width="50" height="48" as="geometry" />
        </mxCell>
        <mxCell id="t08y1QO3zHGYFeZgEVLe-20" value="" style="sketch=0;html=1;dashed=0;whitespace=wrap;fillColor=#2875E2;strokeColor=#ffffff;points=[[0.005,0.63,0],[0.1,0.2,0],[0.9,0.2,0],[0.5,0,0],[0.995,0.63,0],[0.72,0.99,0],[0.5,1,0],[0.28,0.99,0]];shape=mxgraph.kubernetes.icon;prIcon=pod" vertex="1" parent="t08y1QO3zHGYFeZgEVLe-27">
          <mxGeometry x="130" y="52" width="50" height="48" as="geometry" />
        </mxCell>
        <mxCell id="t08y1QO3zHGYFeZgEVLe-21" value="APPLICATION 2" style="rounded=0;whiteSpace=wrap;html=1;" vertex="1" parent="t08y1QO3zHGYFeZgEVLe-27">
          <mxGeometry x="10" width="200" height="20" as="geometry" />
        </mxCell>
        <mxCell id="t08y1QO3zHGYFeZgEVLe-25" value="" style="sketch=0;html=1;dashed=0;whitespace=wrap;fillColor=#2875E2;strokeColor=#ffffff;points=[[0.005,0.63,0],[0.1,0.2,0],[0.9,0.2,0],[0.5,0,0],[0.995,0.63,0],[0.72,0.99,0],[0.5,1,0],[0.28,0.99,0]];shape=mxgraph.kubernetes.icon;prIcon=svc" vertex="1" parent="t08y1QO3zHGYFeZgEVLe-27">
          <mxGeometry x="170" y="25" width="50" height="30" as="geometry" />
        </mxCell>
        <mxCell id="t08y1QO3zHGYFeZgEVLe-29" value="Worker Node(192.168.10.10:80)" style="rounded=0;whiteSpace=wrap;html=1;" vertex="1" parent="1">
          <mxGeometry x="70" y="150" width="170" height="30" as="geometry" />
        </mxCell>
        <mxCell id="t08y1QO3zHGYFeZgEVLe-30" value="F5 loadbalacer" style="rounded=1;whiteSpace=wrap;html=1;" vertex="1" parent="1">
          <mxGeometry x="280" y="40" width="120" height="60" as="geometry" />
        </mxCell>
        <mxCell id="t08y1QO3zHGYFeZgEVLe-32" value="" style="endArrow=classic;html=1;rounded=0;exitX=0.5;exitY=1;exitDx=0;exitDy=0;entryX=0.5;entryY=0;entryDx=0;entryDy=0;" edge="1" parent="1" source="t08y1QO3zHGYFeZgEVLe-30" target="t08y1QO3zHGYFeZgEVLe-29">
          <mxGeometry width="50" height="50" relative="1" as="geometry">
            <mxPoint x="690" y="430" as="sourcePoint" />
            <mxPoint x="740" y="380" as="targetPoint" />
          </mxGeometry>
        </mxCell>
        <mxCell id="t08y1QO3zHGYFeZgEVLe-33" value="" style="endArrow=classic;html=1;rounded=0;exitX=0.157;exitY=0.004;exitDx=0;exitDy=0;exitPerimeter=0;entryX=0;entryY=0.5;entryDx=0;entryDy=0;" edge="1" parent="1" source="t08y1QO3zHGYFeZgEVLe-1" target="t08y1QO3zHGYFeZgEVLe-3">
          <mxGeometry width="50" height="50" relative="1" as="geometry">
            <mxPoint x="690" y="430" as="sourcePoint" />
            <mxPoint x="740" y="380" as="targetPoint" />
          </mxGeometry>
        </mxCell>
        <mxCell id="t08y1QO3zHGYFeZgEVLe-34" value="" style="endArrow=classic;html=1;rounded=0;exitX=1;exitY=0.5;exitDx=0;exitDy=0;" edge="1" parent="1" source="t08y1QO3zHGYFeZgEVLe-3">
          <mxGeometry width="50" height="50" relative="1" as="geometry">
            <mxPoint x="690" y="430" as="sourcePoint" />
            <mxPoint x="450" y="360" as="targetPoint" />
            <Array as="points">
              <mxPoint x="540" y="240" />
            </Array>
          </mxGeometry>
        </mxCell>
        <mxCell id="t08y1QO3zHGYFeZgEVLe-35" value="" style="endArrow=classic;html=1;rounded=0;exitX=0.5;exitY=1;exitDx=0;exitDy=0;entryX=1;entryY=0.25;entryDx=0;entryDy=0;" edge="1" parent="1" source="t08y1QO3zHGYFeZgEVLe-6" target="t08y1QO3zHGYFeZgEVLe-13">
          <mxGeometry width="50" height="50" relative="1" as="geometry">
            <mxPoint x="690" y="430" as="sourcePoint" />
            <mxPoint x="740" y="380" as="targetPoint" />
          </mxGeometry>
        </mxCell>
        <mxCell id="t08y1QO3zHGYFeZgEVLe-36" value="" style="endArrow=classic;html=1;rounded=0;exitX=0.5;exitY=1;exitDx=0;exitDy=0;entryX=0;entryY=0;entryDx=0;entryDy=0;" edge="1" parent="1" source="t08y1QO3zHGYFeZgEVLe-6" target="t08y1QO3zHGYFeZgEVLe-18">
          <mxGeometry width="50" height="50" relative="1" as="geometry">
            <mxPoint x="350" y="440" as="sourcePoint" />
            <mxPoint x="330" y="595" as="targetPoint" />
          </mxGeometry>
        </mxCell>
        <mxCell id="t08y1QO3zHGYFeZgEVLe-41" style="edgeStyle=orthogonalEdgeStyle;shape=flexArrow;rounded=0;orthogonalLoop=1;jettySize=auto;html=1;exitX=0;exitY=0.5;exitDx=0;exitDy=0;exitPerimeter=0;" edge="1" parent="1" source="t08y1QO3zHGYFeZgEVLe-39">
          <mxGeometry relative="1" as="geometry">
            <mxPoint x="420" y="60" as="targetPoint" />
          </mxGeometry>
        </mxCell>
        <mxCell id="t08y1QO3zHGYFeZgEVLe-39" value="subdomains (sub1.ttx.com, sub2.ttx.com) hit the F5 lb, which redirect traffic to any of one worker nodes of current k8s clusters on port 80&amp;nbsp;" style="shape=note2;boundedLbl=1;whiteSpace=wrap;html=1;size=12;verticalAlign=top;align=center;fillColor=#fff2cc;strokeColor=#d6b656;" vertex="1" parent="1">
          <mxGeometry x="490" y="30" width="260" height="60" as="geometry" />
        </mxCell>
        <mxCell id="t08y1QO3zHGYFeZgEVLe-42" style="edgeStyle=orthogonalEdgeStyle;shape=flexArrow;rounded=0;orthogonalLoop=1;jettySize=auto;html=1;exitX=0;exitY=0.5;exitDx=0;exitDy=0;exitPerimeter=0;entryX=1.005;entryY=0.09;entryDx=0;entryDy=0;entryPerimeter=0;" edge="1" parent="1" source="t08y1QO3zHGYFeZgEVLe-40" target="t08y1QO3zHGYFeZgEVLe-2">
          <mxGeometry relative="1" as="geometry" />
        </mxCell>
        <mxCell id="t08y1QO3zHGYFeZgEVLe-40" value="on k8s clusters we have NGINX deployed as daemonset, and using the node port service." style="shape=note2;boundedLbl=1;whiteSpace=wrap;html=1;size=12;verticalAlign=top;align=center;fillColor=#fff2cc;strokeColor=#d6b656;" vertex="1" parent="1">
          <mxGeometry x="680" y="170" width="260" height="60" as="geometry" />
        </mxCell>
        <mxCell id="t08y1QO3zHGYFeZgEVLe-43" value="" style="shape=image;verticalLabelPosition=bottom;labelBackgroundColor=default;verticalAlign=top;aspect=fixed;imageAspect=0;image=data:image/png,iVBORw0KGgoAAAANSUhEUgAAAnwAAAH7CAYAAABWsEKrAAAAAXNSR0IArs4c6QAAAARnQU1BAACxjwv8YQUAAAAJcEhZcwAAFiUAABYlAUlSJPAAAP+lSURBVHhe7J0HfBf1/f9fd/fdOzshJCgg4GirdUZQCdaJ1tE2tkCr/XUF2tpWiy22dFmlLa3/WltA2zoBNe4quICAEuPeA5AhCQGyk+9ed/d/f+77veTy5ZsBCdPPM493vnf3uc+4z63XfabgcrlUZEGYNAdLl0xGXfUsLNqQ2kUQpuOW2rnAwkrMW5HV22GNOf2bSUJOL2SQgKD9WiXtByr9GVHU3nU1vSwIQtpXX3r3zObKtirppTSCmF4YGmLG/oqaEd5eIoq94SnK4GGJUvb0ysk9/YqUBSwvDdkHLbnprKEs1GxPejcyd92/MRwjehjs3DBj50aDfvWQ9PNmdM/8ZbBlPZzssOPPdOtd17KwNzgNcY/9U7CtFJv2PzuptGRDYJnLoRxiOThQ/vZFMmyQ0976PdVpDJcHkgq7ftIrGZj6ccgWvH5e+/jI8K9dh/Rr3Gq8VjkczmeT/lXDuLL0goGJY1COJjRuSa8fxgjJPR+AibQNF/a47fdlYnxLsCSkjT2PU8ZeDCkbSVRSTEZjqdxfsJAzTZaVrNaTB1nozRNm7BWd+usfPTb6n/rRYP7pfxbrZdAX4iDu/Qu9oUL+WRhpS92YxrQaTYfF2deEtLDX8ivDGCoJD2ac/jHm8HAY9iWRBf08avRcDr0RpeJkd4nu2LNTD/sjXRwO59Cn3xI+xqQ5y7CkqjS9lqKmurKnxO9IJbOkb29K+IxCb6AHq/G5nflANqKHsWcJXzrSHvqLTN/en3uvtBgguXswUAnf3oTTg8GTXsKXDVUhR00Qp9dTPxp9c7HvmhFVZQKo/1T2cUmfAPZfD1F/6faIKO1/P/RcBCy/+t9Tz0PjC72/I2B5kyrhY/v3nocU6TT1c/H1lBB9xkv6UoIolZdZYc79ny4wzZyZg4PlqNxPgMYSvgGi7IGdQ81HlgjZtZ2N1HWVCp1dAoYoORzOZ4QBBd9nAUHIEFJpTGrqRSojU1ilUGS5R/CZxexhaAzpwdr/Tvp7e3DBx+j/VKpqMr3UF1EwpZcG8r0nuuBTSajo/vYQGUN+qdCOmV4zBJmA3nQyVPQejzHePiUgfRKQmV8ZKl73R2H1iTnzmIi+cfSy557Z0cVGD1qJa4r0q5xI/erCbk90gZhd8GWD5RMXfCn2OAdEnzPPnAc4oYe84DO49R5rKnTNP1d8HM5njs+84DPCxEv/9BUcGkI/RX9pjM9U4wtGe7GwXO/3mWvYN312hiv4GNlE334VfGnUQaqnBVb6lbHLUAVftjh7X2bGE5Bx/jLyQhioTWI/x2V8aertNYfyIs0UG0Ja8BljUUigMrGXKfjEfj5QGKmK4FTY/SVDq0YnuODr//j7KSRLkT7P2QSfjmC4XqKiQ/u1qRHt14guAPdnCV/f6zEVOhd8HM5nk8zigc8ccjLWY4qS6LFssI4HRmOPzEwT6UGqm/FvJDip8Pj0EqGS2DTaPiCQCDK+YDKPpb9UT/SMTy/RPiSUmPhjJknZS0OHQkKJwDWqPL3GXkokdchkVdIsSS8po+01TODpdiBhSc0w9sLtTxzvLUpQ0ozBPgooxzTb12viswL76Mr82x/Y1aBm+nnpOT8HiN5rbf8cH4fDOXw46IKP9QZetnZtj82Z1J/M2D9IJmuPZSKYzAYjASLQw3OQ0qpMQpGoZkY0CTjEL+xQcix+9N91eGn5z2Bt3Q5BDWe14aC/DoyWDXPVXDx67xxEdm5Ob9mTPKdXMyMCCTdmmVT8+J94adXjeHHVo3h50XcQ2P0RVDHYx/YWk9OXXto74olAeoluCoOI1SwtZB1WW48x9JdpNvHGSgk1U/e0A4k/5uwx+9euw9onrsEEkYShMAlzlq3Fgukjd78J0xdg7bI5mJRxbev3+Nq0LZszKe1y+OIzJeAlkyTTHibS8yKTyj+/g9Wv/A3fMOdr60z0mUigMxvqR9vX/t+r+PuPc2ByRSDJFFdyTzucmb7g4F4b+yt+dp9luy9GmsM9/QeLI/H51B/7XfANdBH2Dv1SiZlTp2JWdQ0mL7kF00fwwjrQDxFJlPrYcEjCrv2eVJoSGO8GW7TfoeIcNRGX/eUFzJ1xvrbOSvSMtrd0x3tFcQzxrMYIRMKwiGbNjGSKvtV33IyTL56DeQ+9nd6yJ4LoTy8dejhGTcCX//IMfv6NqektvSKQCfpslo2razbiseeeR9O7q/Cf2Wdr20StJEhBsasE333oIzz51JPY8eYz+NcPeuM678aH8Xrdatyz4mk8/+I6NH+0Ckt+eFralSAR4bH4e+xgoA3ltKQKDQsrMZXucWYzF21Iu6bQXihZHras05i+PZv7YLC4FwzgN2g9GX9ZsRrPbt2MVS/egxdevBtXT+q9L3ICx+L7Dz6MBze9g7XrnsZrN38p7UJCWjZrpihJzQbCPepz6aV9Rz7jp5hx7F/w8L8jiDan0igVluOk2Stx5Ze7tfW/L3sUv57m1JYz6fkmYddmenEkGKnnK3sXzKiox/LFG9NbhsbBjv9Q4XBP/8FiKM+nI4mDWsI3ez7L6N5x/tQNi3BTTTlmzJ6orR+KmKIypFhSM1NC6DGzmDKBXrJGGy5eVyN+cPkUTP2/RYjn5aS3Do3mTW9qvxflNWq/WWEiLJvtQUrMFZpU5Ls82nI2/AE/1GSyx8wK5QvrWWvAAqtmvniHZtusJ2jbE1Gxx4yMuOjLUq1rlrK/KI1EY3KPiTAjunObtv3CnJ3a796SO+Y7uP/1DzFu6WhcevnlKDrjy7jmnjeQtDs0s5V+B394ZgXK7ynHlV/9Ksac+WX86O56CBarZu93JrGh5ruYffV0TD37fOQcNx3/96936UxZe8xIc3cBqZzc9NoBQhvKqR7rV6bXDehf1mXL+3/YNtVU97jt7cP44ltSY4Yyf5X0MYmq+X1qEBbc/Td4n7oWU0aX4IwzvoY/Pyig+nfXYmyORXOf9fj/cPaaW3D52HE4Y/I5uL/sH3joB9mfTQOJvmjTJqy/4XRcePqNuFPeiYCYupf2hmNPrUDiofexRlag5LgQtksIBJpQdlQSl0jHaPu8JaY+EPvlAJcu7w0Tp00Gau7Fiiyl5QeC/Rn/opl07c5chA378dgO9/QfNAZ4Ph2JiOzryPglnfm1ZPz6ZpZZ+tafux7m3AqgtGpJ7z4LpmvurPqnqmHhHgM4b9zegNKycem11Bdcj99lc9JbU7C4F0zv+xWvP9AHi58x+oY1uPsrRTjzN3fgyef+h6dXP4cH5p2juUkVN+APD6/D946LwhpLfUFHTvo6/vPGY/jZcUHErWIfi5EEYKbTaToWP7v1Htzy7a/gzoYEnlt3j2bf+lzvPgXBMfjpo4/h2feb8NGKWjz/4nW40mqBPRikL48Ein/xHDauvA9PPPI8Vt18ueZHtOf02HV/fxI///pM/GbTY1i3dh3Zi7jxqJC236nX3oG33/8QPz/LA/OMe/BS/auoq7kdq2/5uubeA6ui1i2DE5whXP7bGtz90g68tPYVtP7h9LRLihNdUVT98VHc+2IjXnxuNcJLf5N2oZdcwRTMu/MB/OKb5+PWzQG8uG65Zt/+3OAvHYtT0fqkjA2cgOseeRbPftiFD59fg2dXfRdfDvtRGJYgTf0W/vDU8/jeib3hxU7+Ju5+/j5cd2IEyuTb8Orff4afLKvD4peX4bbz5+C3/6Pjr30Ws49NVTmXO4K49A+P498vbUftmmfgf+AX2nZGIucszP/n4/h1VRX+8PFyunZexhrK418enRKfJ1/7L7xYX4cbzsqD7ZtLUVf/GuoeWYLn//J/mvtACAk6v2Tn/ObHKFw8Ddevcmvbo22t2q/OZQvnofTuS3HDupTQ7+7o1H6HyonOTlzx+0dx17odWLtqDTr+/IW0i5GJfe7hzCYVWjWtfu+QZT4fjPdnLbvZ9oKLr65i4zztt0HcV8yb2hM2+5isayrF5GkpwWbLmab9dnW8ivHx1LbHX7oHGwp8mLpzEnyf/xUm5N+EJ2pSYj7XPQH/umMRcs45BydbUiX3xyUvxcx/3o+l61/BB3T9//v5erzy8mr89fQuzf1PDzyBB19dj5WrHuqxK1GA0bINKn0w6PbP1fV44sHZmh+W+5kWdJ6I704X8QzdR87ODjgoLfYzf4Dalc/jp1+KY+wvarD2lbWY9nkHLpq3FuuvPZF87Yk+uqORvTm/zIb6fN8bWCkLuxTq1uxZOtXf83+o8Q92fIz+4h/o/aKT+f5jpjeTML5Xs+XLQOHrH0PG9KbyYsEe7+DDPf0DMdj5y0y/MeyhHP9njjfeeEN948kb1FPcbtV9yg3qk288qd5wiltlvXdvePIN9ckbTtGWmZ1yw5Pavvr6YO7Mrrq97z66sX1vv4ridF+l3s7SkLarWBrSYTC/b9x+VY+fzHUW/xuG9GrxG9yZ9Rc/sxOvXaa+/GGj+tHjN6kVzgLVefJ16jNvL1N/erZX9ZiPV2997h31keumqHlWqC6PVz3150+pL/77MnpGF6gOtyer5bhdqjUHmt3wyFvq5tc2qX+9wqGKZkmtmL9c/fjJ36pfLC5W3RT/b55+V336xnNUh13U7KRfvKiufvgX6oSCMsoXa49V/Oh/6utLvq1683L62I8ff0GtffsB9Xufy1dzPCXq5J8tUt/4+0VqXp5Ztdhtml2x+D31id9XqDaTpJk3N0+zPnnhzG4X/fN99d0/X6mW5uRohq/9Q337ybnq2a5RqtVjU89b/K767r+q1FF5ds3Ovu1Vde3fLlF9dpdmNz7yrrr5jU/Uf3zFo3otTvXs+feqHzzxY9Xnyuljp1y7Un3l719TzWZRLXCX9Ni8lW+qj/78FNXkhGan/+p59c0Hvq1O89pUh+cL6q21deqyueeoJodZs8nXPqq++ffzVcFC4cy6S13/+ivq7TNz1G/95RP17dcfUv947rnqdU9/pN72Nad23Jfe/rH6+t9mqUU+p2bn/OM1dd1fL1PdHo9mv3qiTt3ywQvqtV8YrVpcherJP/mn+vL/u1B1O3099pUlH6hP3TRFdVksmkneQs0cTmdWszscqjO/RLW6vqLe9vIy9Qc//7P67PrHNNuw4SX1+i+MUm35BarHdaX6r9ceVmf/apG65tVV6vtvblY3bH5OnX0K6PzR+Sc757rV6jO/vUwtyHepNsrHTJv2j3r1zT9foBZ5TZrha7errz82Xz3JZafr6pT0/fOGdh+y/HBfdTut365eRc+C3vXe+yvTMu9Hbf/0s0S7Fw33tdFY+Kn7nsK+gcXR62aMi4XR3727t6Y/Z/RjZVZ5w7PqxneeUn92hkjX4Sz1zro31btunKDCAdXzjb+rH9Y9qF5TNl4tLHJo5rlwnrry3dvU77tzNP/nLl6jvrbg26rJBNXpmKz+dsUH6nM/m6wW5rpV2Kx9zFVRrT5W9w/1Snex6qH9XU5Pj/1gxavq6qeuUytd5XSN5O9hZ/9spVq/5BuqyUL3gcHcvjPV7z65XP3pqcWq/eTr1Zdrl6jfLaAwbcWqk+7fTHPR9ddjLE8GOb/6M1pf1853+vwatw33HGV7bjPLvL4y1/Vt/cU/2PHp1l/8g71fMtOT+T7UbV/DN76PM9/NRjvc09+fDXb+MtOrxZ+hT/pLn7ZseO4YTX/+HYkmoqkG1bMWp4prN25HQ1oIMoU+ubRvm4CNi5ejvnSyppIHcx8I1mCclUCzGTtYtUs5feWzKpcm1Kf3oK8L+mqZUtGEmnt7y1pX3kv7VEzRVDwLg1FvqBJmpYMoHzOkxqVWsxVJemqat92J7838Mz4QYxA+asRW2UGfwnYo4mb8/t/Po7xyCsYoNojCsZh6VhneqV0FG6uuFWh/1tuOombDMEgKbVOSiCoKfbOLsMdPgSCa8PytFfjNU4DNbMOGfz6M54tPw7njVahjf4DTRq3F0n+8BTbzhWz2YMsd/8F7Y07HFeMTSFCYiipRmFaKgBKs+KEkw5BjIlQlAiFKX/miEx/85Vos3xijMCL4qCmE5NETMVa0wixIkGCFPRmHEovBRMdrtlhoOQQ5ztLO8iyVb3pRgioKdNwCmKskTce0MzbhkQfWIBEDuqMxSKIZUTWJuBCEWf4yzj1tMx66+3nEk1Z0JxTU3/MYuqechwsdlB5xAhKSgmf+dgpu+B8dj0nCh/96FC+WVmLOCVbKpzBiQhwxM+UdpcNE7mwoligdh9/UhfAx36Lr6zU8euensNBlKpm8lH/3Yf2Y6Tj9ODMgf4o/LHkNE6eeiRNlEU7TiZgybRxeebUeokmg/EvAvuMB3PVEAh+17EDi1Rrc/nYXhGQE5UdPojAvxVkVG/DY8hWQFTOCcgIv3/UIpX8aLjHFICYnIUHX0cqbZ+A/H3VrFaSbd0Ygkt9J9iSdjyRkOv22eBTJcBgUKVSLDRZBhlVlZb2sPIWMXRuUvWzoDcpVymcLGxuF9hPJy1h8Z8z7uGTqlfjK+d/CGX/5GF//9zx8JZpIN+kvx/+VvIaLplyIKWedjDNv2Y7/W3wrzk2EtOrypBzAqMsW4Nnn6rCu9gWsW/ptHEdxm6QE+T4f55+5E4899CpF50QgIcJCaZToupUMQ9zUG6dJXLme7sByjEnXWl48pYIeDzdlHWidlSpk3p9GNiya2VOVyu7rhZW91ba91U6lqCpb37O9cmE9qjLa8PYpvRlGw3H2nKmgZ52eXHZvvvXPy3HKnxvwlUV1WLPmOgi3T8PsfzbRvU6K7+l1eFH6Ir54VguScRmx7uNwzY+nozhO1yidP1E8AZPKrXjj9SdgpSSJ4kasqNsMb/kobcAgm2CFU7TATc+YHMlJ1xhdQRLdk2qQnju0g8SeYezakPHfmefiK1fdibfQTedOobTFoAhhugeTdN2NwZlnl+DNF1fQPW2B1WaH1eokc9G1dRSOLduNpg8SdL/JCHbswusJme5hdv8plCiydOm9lmss73QjBjq/DHYOe64NYuX63ufzSJF6F5SiPqNOLdv1ZXz+D4XBjo/Rf/wDv1+Y+5hycjf4W1PX1Kd2aiCG8v5KNXFiLRFuwS3zWWn4nsdyuKd/IAZ8/gymTwZJ39CeT0ceYnJbKzYKZnpBktBJPoU/XnwNFm8KkHAoRd6m19Fod8OaY0fQksCxgQBqO0SMOcqNxPgC5G96B9vFfBIrNgRNQZwQ6MDrERNOODqXnjFBeIIiHPTw2a2SBKKP3qg9iCC96D3RcSgIdmNz4Hh4Rr2Pute3wzd+Ekq2fYwmeolG6KUZnXQsjsmR8LPbWvHQqy9j/UtP4qU/zcZ4jMJxn3fQAywKr2hHxCbBHnTRAzSIQKwZYQs9DEUvgtYgHMEIHNFOdJs6aVsJFNbImh6YYZEOlVSMK+lEcsd2vEZpNdFj2iKswvwzq3HfG1GYSYAEX3gGrxV8AWecJsM59hR8ybQWDzxIL1Mfvfgpz+xf/D7+++JKPFr7PFatXoPX37obF8gRJAISYkqIXvIeTWyFHWHYKX9zzC746YPfFG2GdOIJ8L73CnZG7BAcLiSTfhSFmrCtsxwnHkXpke2aZIibEnSWoHWAiFNYCuWNqt2wEix0LAkSmCEr5YcSRyhCLxWzBbakl/KDidE4axiHWJTSS9sFEn1gRhc0ewUIk37Yp3fSutpbcCldFFZ6QSgTxmACdmLTFpnyi9Ig0bmkPDLTcSeZ72PpZaOOwZVLVuHZ1auwbk0d6v/9NZRKR5GgstFLR6QXF6WB0meySvRCVBBP2CFTupNJyhs6HkklCZQg4WSjVySlyULnjo2vZ07Q/seMRvGn27CJiSfRQQKTXmTKBjS1HgU2eotI+SCvfAX1RWdg2udIyE6oxJnCctz9NEgIUzwkdFUSvhIbb07008vRhHCC4qNjYwPqJI4tw0SU4St3vIBn11D6a19G/X+qMMp0FMrGUnj04mWtDaFEIdI5Y+lSRBudUwvUGMll0m6iiUQXC54EJx0QhapASlJ6SfzTwVMe/QjLXnwRtevWYQ3L33U348uUJ0KC9aomP2ILHrn3SdhsLrY75IdX4xWxHKWTSFCwh6a4Gw/f8yidMhtk8pdg7sI4jJ9opbxQ8e5/Z2Hy2afhnHMm49zKqbi1cQbuXP4jTFLYuR2DY+n8bf6E7iUSFSKJD/rEoWOgqFPP4wHRXwgN2/tWE/WgtX1pQH/OQyNDMGYITv2hrNvChiosWTq754WiVxv1CMJ+qotY1dRcJh5uSn/YEioJ9gv/vB611yu4/Zzzcc65f0b056tRd/MlcNDJUNUXcMOP/oMx163B8y/UYfX6+bDd9z800vUbk+j+UD5A21YrTqs8HwKJLwhHYdrpo9G8axviJApTwo1dNyp9OMTpfqaPL5OinVfRRPvTNcLcZFpnl3+SnX/6U+g+Zh+QJva5QGlMXnINvio+gHueInHI7mGFPozovrnklrVYvfo6nKOcjV+89BzWL56F3DGX4r+r/oRLSSiK9JEkMEv/ZZ7zQc8vkZm/e1tlPyQuvhpV6BXiPWjXF30QLKntjX9JFW3pvT4GYijHp9Ff/IOgqhvA9EPFlIu1dRYfE15NIzzv6MbFN1HqKuivBjdl65BxuKe/HwY9f+PKUNrUiL6p3YLGplIMUbN+JhGdtm4kJT+9uGS46OXYFjKT8JHg2LkVobIZKA/sRLCxlV6ULryWZ0eFYyeaaR/XtgaEjr4c5QI94Lra6H1XilfyRuGLwm5sCsQQsNmwk8ILdTShYIwF3l0hmNsKkWceje6iD2Ee7UfODh/OKJHxzjutSPid2LS5CevH5mBCKIENr7+GD7uK8d8f2HDZGZ/HBaefi1O+dBGOv+Bn+N2HzTDFJUSTCZgdJGgcdrDBOCzW0aRgFSTsSZQIPrS4vOiiFz1y82HzNyDhCCDub0OhxQ6zJTUgqk4wmR7axEQiiR7Cgppq8P7sywW4/PwyeL52OcIP/RrvmygmvxtqxIFo/TLMO38Gqi+6ChfQF8KZJ34bawU77OY9h2XQOSm4HR+1k8Db+BqSJ34LLl+q563V5sAnDh/G5dH3xq6Uf1GWKDmpBuRG5ETfxvj9IZpTLzdPcWooCHq/0AuDXjhSKnz2BcZ6R/e+VOcN+HUzkd2BOlppML1Eq3u/jFI2s/+vuL0RCVsa0VS653zOZaW9czmr6gqsr0+1y9IaLdetGXrD4n1J/14ylPwd7OG0Nw8vrQQmS57p9Dl/Q6R8KG/XNPsS/nCObyj5y8Qe6QQ6z71f+gwmZmYwEVh9o+aHXUs3sq/9ihk9NRR9w5+JxfSBUFq/vm8cFXNTYqR2idYmeaR7+GmlHFmua9Y+USudYDU09OyprmlixRlZ82AgBjq/rFMda2Op5y8rgR1p+ju+kbo/B7t++41/qOzn8z9x9nwtXO1j55aUODNyuKd/MPo9f0N4P3D2RAzF2ukLNAmLzQq3aIYcd8AmWdD+3oeobSnAZdd9EVanCbn0Ffr1H83DKZ278erL29G2qRbrOkbhK7+4AN6CAhSIIcyYfQ2O292AtbW74bIWAAUmNERa4MsdgzL7sci3KHCQVgnu3IjtJCo/DRVBSrTBGRmH079E8WAHvvjFE/FezT/hLXoHb7/aiYvmfhdJswCLrwx2bxDoaIZbzkXc64RNVJAbpYd1IokwpS/usiIuizDH4mhrC0CI56C9S4LvqDIUjbKj1JREsdVLoo+EoiXVK9PW1jvUSYxEl9Fs0iasv3MVdl78byyasA3/eWHPXnBt/qhmRhK2MJxy37HoGOfdcjNyPliH+m0mEnyv4pHtHvzwZxemXYGrr/0dTvzkZbz5+uDjz8WEj9JLQHE4DGs01ZA8k827Iyib1DtQ8lBhL7u6poqeHtOs8axxXuWJWKmJraqrh34Ts0b6e7ww+0GPf76hx/bFtyxBRVMdjG2TWTUP6305f3LDXg1JoIvFvUl/NrY0NqF0cqoDwN6gx18xI9VYnzFx9oye49Pztz/3bMyeUcHqaLSH/2DnLxtatWf9cu2FykoAtCqeqquzlprtS/hGBjv+bBiPbyik0rSn2NPQBEVvJw6NcakXSLYPEhZWLev0e2OqKCVV5di3KmjqvBWa296iNTzPUl2dEqUDDLWRTq/O3pTODHZ+2fGV0enUS1jY+i1ZSvj29fpnDHR8Q70/+4t/sONjDJq/AzCS578/Utdvg3bNrbxxIepJnBnHzTzc089g6Uh1quhbOj/U589g7wdOX8SYcwKSAVpIJtESCMDjs8JP6qlQeAV/+u41CJ1/N5768COsf3AZ5p31Eq67+la8Ey6A3b4VN1/9TVjP/CtWvfkqVjz8CL59wbv46fdvQ0usGDbWm7Ijiq1L/4aHC3+HBe/cif88+yvU/rYSXyz6KUr8p8F31uN49MMr8ddnnsUP409g2wlfxa3Hvo17XylAV3An3v7NQ7gl7zw8sr4dLz72GJbedQNeuvUb8Lo6EE364Uh0oaHTAYdFhGqzwBHZilDCgq5ABNYvyBiFMHb89Td413EvHli1Gg/d9y88/5dp6LAVYZdWJgh0lpRov/2RaLlf+5UbX9J+95Zpf3gGr38cxHPrnsVVm2Zj8o9rYM8bDWvXVvxr5k/QOW0BXnlrJ966/1F87+LH8avvLsO7IQtiBcfj3zVPY9WaVbhh9gWIfH4O1q15Ec/f8tV0yEB+e0d6KUWuKzVMyIZO+tpP8+m//4j/ev6Fd158Aasf+hPW3vy1tMvgLNYaYCzRqnVqZzSiOuMLf+WN1agpT30h9lhGb66Kub1VMnOxsM9DRe9hpQmF9Jem0f/iWQvRYGjDNbfc0N40TerGL0Vpw9CEpBFWSjJY+geDVTvWoGqf/GvxG/wumVzXc3zM+nNnsCqPzB5qk+uq++TvYOePMdD5YcdWXVOOubW9+xh7yQ0l/IEY7vENhFGgGKsFmbEXiF6ix9Kvb2dVlnUkDvXryNhDVDu+ylRpIIP5vzcjbzTby+tnIFip9WAfSKUN27VrZRxTZ3vJQOdXyx86n/r1UUtqt3Eh5VcGw7n+Bzu+odyfA8U/2PU7lPztD/ZBNtj5H+z5NhCpD4wK1C80lECnz4cumg739A/GoM+fft4PnP4RckxQFUch4rEwiT03ulp3weLKRSCm4nNyAZocmxARvIgkAjBZTFDCTljjnTCjCCWSDxtzSE6Tuy0YhFeS0AUX4tYOqK6jIW3fgVyvB92RdthoX1FyQow2IeixoeLq/+C7Obfh2j9uQ9IeRaw7iLhkg90RhS84Dp2jmiB0JuFSreiWIkhGFeTaC9AWa8XR8jFoRyf8thjcdlZN64KZtXGy58IjNCEU8cJhz0GgYwcsPjMSMrnFzJBFF8qdLUgkzYhqjZn2JG7OSy/18s2a1fjComMx+4XeWRyyzY3JsMmiVsKnxE/BTx77LwrumY5fPtErwIyMVuxotWWfxo2R6KfUTrKkBmJm7YCyoWY/NNYMrxd57x8SewN7Yc9eukQbY83Y8Ht/wB5MByIeDkeHla6kBo3vLT3URKZWDLjntai9AEk0LqQX0lBe0KmwZqAxW+nkEcDBPr7hxr+353+kOdzTzzk4iEnPJMgRAZKaRBuJtpJcC0KxBJyqnyRVEEnSFFFzN6wSqfyuOEodPkTcVsQ97QhDRU6HHVI8DJm2N8txFDqtUKMuoK0FVrsIb3cX4vnldDGRd0crct0SEkET1q17DUVfmo9ZE9rgGZWkfSow7w8/gT1gJmXShdymPMQtIixeCxIhBQVJEkAkNMvNR2ObbztkIap1CAmErPBRnLD54Io1ISa4ECXRFVZ2wOF0oqQriaipEE6rAvhouVtFR8SCeFLNagn/zh5jTPjpElyz4U48+GJqrLSRwGRyabbbIkFWbD3G2XtYG619abTM4QyLjOpUDa2NavY2RFp1dMP2IZfGsBKReSPYnvRQ42Af37Dj38vzP9Ic7unnHBwEyTFKtcpB2MwKEoIKC1lUsSBm60KybTTszh0QcQziyicQIiaMKhbQ3VaCQH4DkrvL4XU0QJZLERabyN2O0pI42nd5INtlJG1+iIEcFNg70R0qRSKvCaJ4FMz+Jjgio9BRXYVVsy9CWbcNO52j8NKCyfjlS60oanbB4gqg0abA6hegukbDpu6EGpDgMzsRkCIIWhzIUbsRDUuUdgtaSZjabN0kLL2wBkX45TBy7EWwWax0LJ+gLUAHy4Y0iZfA62xHJJEqHTP3KfYiUZlIjYI/4brHcdc3Up0j5l9RhbUNfeerFRzZO2YMVsJntqY6UKhy33Z/DEnsu01VetsMJuOpdHkcqYGGQ8m+nU400iV+xhI+T7pzip9EuRFpH6oB9ob9XcKXaoyfqsZi7VD2pVqDwxkOxmtQh3UyYC/hVAkK61WahnWoGOE2UpyDy0Dn/3DgcE8/Z+8R3LlONRwJwSpa4KTz3Bo2w+MSIUcDEJyFCKoB5ER8SEgdcAhOtFg74IlbyT0G0VOAQDICZ9BCyrEDeQ43ttsDsAYKkBQ6YJPMMJMI6VJdcJij8ERiCCasSOb6kExGkYwmYFM8MDl2Qu52wOkOoy1hh8lJ+yTjyAmriLtZT18bkNOBnNB4dLo2ozxgx07JCYvYBosJiFsKkWz3w+axI56IQjCbIMoCkmwyc7UDcfE4WBPboIRMMDsCIN0KSzJ7iVoiHtN+k1YvSnNFNO7uwAWl7iELPgsckM1929bFo3u2WWAlfJlkE3xSWpDGIlkEol61q8OGemBDsRjw2H0kbvesfmYT+3M4HA6Hw/lsIMCZqxaJHWjGUbBGd8Nn8qHdFIcnGEHY54ZTaUEgOho+EjFS0oNWNQrZ1QW74iB1FIEYMcNG4igkMCEVhVW1wpLIoW0KQl0hOFwhtJutUGMuOG0kxhJx2JMWiJKKZpsHuZ1+WFwKIkkTum158HVRPO4g4jErAo44nO0i8uBEgzdEojKJ0qANu0UnicleAcYmq9fRJ6mXJQVWEn2suCtEIchCAwqYuzoau6wB+BLJlIcsxAwD0xoR1ezt7WQ2/pqaXQDCEoBZ7W37F0pP09af4FOTveH0N9l+NhSB/BkEn8WUXdCqbGwWggs+DofD4XA+O4iwhRAyFSA/thPuQhIckQiS5hC6chQowSA6ZA9y7B1oEW0IJDqQlLpQ0OFAOJkPVVGRcJvRFY/BYbPDFBfhk2MkNkKQnS2wYTTa7CWQOmMYJ5PYCYcgIYFO0YKwnERedxvtl4/d3SRUHBGY23ch4S1GJxvNXiiGO6JA9VqxU0iQELVBJY0XRJTkWECTLZmmwwRgmM1EEHSgUxUoxja4mV+1DK3iDhSzMVyYQMpmg2A1mzQzIrFBdAWZxGRiT4vt37Z5rL0iszhrbEkIgkWzhMwFHYfD4XA4nBSSFPP+zi51IByRYbK54MuxIxL1IxF3wiwFkYxYEbLHYfFHEPcUwOmIw233wBYJIOz2IR7vAkjkOQSXNn1XRzyOHCtg7jbhzLsexG9z38UrW2Q0xAM4Ou8oiIEwuh0CfFIMUdGOgKjCaiuEKdmBIlb9GPbDZLcgT1ARofDDtF0gwedRvTBJFnTHoiggwRVlMyiwAjDN9NHktf8aNmcezEoYkViQhGgCYSEHcVcYY+GhONk4NE7aX0Qw2kliiYnUtDATJG0aLGZMQkWCJBzjCsxs6BdyM6fbx8lZSsjYCPkMCx2TRAlh1p3wIJqQYJMpzmQCLocLdsqnOInlTMwqSUeKN9P23BOUFyJEyoN4SudpsI63LE4dhdKzp9Ghkz9jqSiHw+FwOJwjG9ErdECWzfDlsaFXgtjVEQXpKjhJeKGkHE7FAimc1OYzlU2dcPvjaCAB5kQA8bYwbCSAnIUOtAVFuBGGVJiPzogb7bnFKA9YICfaEIyFkF9UiK0dn2CnbMfoWA6JJxPCJPqgyoiFWbUnG4akg8SQBEskCUFuRairmzYCHo8dzWEB3mQYOa4CBMIeqCSqFEEh048kVZXLBJtm3bthV8MwQYKd9b3wlUCI0zKJ2U5TIYWvaua25GqmTVlENlQkyo9ME+mYhookJPcwWTCoNwMSHZdAYRtNVuh8ZAwt4xLpPGFPy0TuZziX/kiNx5R92ioOh8PhcDiHPiKbC9RudaCzM4KI1QtHhJWGeSG7nFAa2miXIEyWSQh6EjDHomiWvSht6cJOawFKc4KI2kohB23wuWNo7Y5CbGmGSY3DEvgU3bEyFPoEdEpdaKfwXZYyFNg9iMYbEO2ywpcQcbSchCdfQbtoRovTjEQ8gEieig6pCC5ziNROLhIhM3JzZK30UA61wWRWSMaxqegFiKqhpE2kLayTAyv9k1R0RvORLCjQSsGssU+RZ45jS6wAHuwmcUeCL4vtT5KShDCbW5dMK47TbciwfTMthQuUD0wAZtowYGOHrV27DKgb+SmVOBwOh8PhHDhEv5RDwkiAV4xD9JVj8t/fxRPf+yJEMYSxCRdu+Oh9PLb5eTQ+8hKW1f0Z37efQDLDg0R3JyI3f4z1lyZxyQ+X499PPol3P6xD7dWfh99sh99qg1nYDMk9Fie7JBKFEzD9H8vxwKu/xVfzHQgUAqOPsqBywUrc+lwtap98CPG7rsfnfScgupPEl78To+Z9gJe/rODc6x7E8kcex9ubX8H9130eXU5WbkeJJ72jibS0UGMlfEz+sarXYM6ZuL7mSdw2uRT3dqvY9MxKPPLCWvzxpCD8rO9FuANFv1iBu79mxWm/vgM1zy3T7OHv905DVhYowk2rHsfL23fio6dXoX7ttbjEkSoFNFlEzdQLf437HlmHZ9atw873nsfi75yuuTPKC5K45v89iIdf34JVa+sQePD3aZcUx+ESzHn8YSx/ewteWbVes3nnjkm7AmOE6aimY7jv7W1Yv2Y12RrcfHERYgG/5j7W58dVtzxC56UBa8i986H52nadieJ0fP+xR/HAuxT+Ggqf7FcXDL10b/YMNuTJLCzent7QD1oJYJapoTgcDofD4RwaiBNsYeSrfrTYy6B0fIJIJIimja/ClnsWvvrYqzju3yfjyuPHo2zWpbh18Vn4/r/PwXhbN0pGj4Xzo6ch/qIevz1+G267fCpO/8F9iM+8B788I4AcKY6Q7EBXKIIPu124/kna3nE7vnH8L7AkEkZhsw3HfPc5/FX5G+aePQVf+uaPcG7HZfhTtQX2Mg/cheWwffQU1F/W4xeTNuIvF56Nk6++E+GrFuG6E1tgUdlg0ST0ZAWqQka/Mq2rAmtrB7jaOtFc4sRlP1uK974jYOzZ38J/H2pG5R1zcA7sCOSWwt7+ESZd/zT+ddR2/PLcS3DZL99Gw2V/xa9LU0OgXPrYXais/yMuOMGLz196Kn6+9Fxcc8d3cJySmodXnXob3v6hB2/8+hKcffb58H7uUlzz3w/Qrbg0GzV/BX4j/gfXn1uKKy85F+dtvgAv/+ZSzS+j/fpp+GrDHfjWCaMw5ZyTccLpV+IPL7QhQeEzS/54Or6+7UnMOr4MU6ZM0exPa3cjvyg1CHT5r1bit+I9+Pm5o3HZxefigs3n46XfXqS5MVqv/xKu2PEfzPhCMSqmnYTPn345fvVYUdp1cBbN3LuJ2DkcDofD4RyaiKPDY+D++WN46caxKG2NovALYfjlUkjFJ6Fy3Md4+m4/kq0yjrYn8MpjC7BmzFkYdeHR6OzYhgIhD74N/8LVP5uNzaHT0fX2Bmy1mdAqlqAzPhZqdCfYmHg/X74a13/8LZx0+3uI5QdQGHEgWDwNk08XccMzTyC3Kwy5JYw1D90HnHMNvh3rwu5wI8Si0cjdfQ9+PPdn+CRxIqJvfwxBtUE1jdZK90RZhchK95joY2IvLU5Yuz6TvRjmzZvw3P3HUrrHwlLQgPvv+zdei5yF8ROKYZGjEEUFod2P4Iqf/QqtytEIffACQmIMO8rHIjJ+Bq4YG8Dtt7+IQIB1AinGqv/8P7w16jQce7yApJKDEz/nxTurHsHKHSFYENeqsiU5DkdShdN5Kc4d58Bd9z+BRHcA7REVa579B949YwKuMbsRNFvhbfwcQqdNwTciQJfLhpLCZogmGSYhTukLI2/7BHSeOQGzYlEEfSJ8uUlEY0kkujwwW6fj7Eku3PnACsQCIXTHZC389yj8b1pIaFvMFP7xiJxWgW+G6DjdTpQU7IbH3gVTP8PO7CuLZk7F1JmLhjypPYfD4XA4nAOLGLFaUeX+EB9bK1DkrYAp511EdzQiMGY8HB/9B9vNo+EpLMC29hAmN6vYlPDiUoFVKTohCDkIfNSFDV0WhO3vwimvw3XTTsPyF5tR2L0DpqJT4ai6EdMd72FRzceQApugxsogSxFY8sthH7Mb3/tVG+56/WVseu9hfDh/LsbbRiNy8mjkmKxATID8bgs+6bCgw7OFZMqrmDXlZNz5cjNCioQOlxlRqwiLIEG0OWBKAPYuP0wUvqh0wiucCjNtW2NphhI7CuMRRNzqQIm4HYrYjYhgh/x+J7YEXWiwN8Oh1uLmK6/Eves+hnL0RIib78Wn8ijkFo9Ba2g3Tg/E8G53MY5xtcLvteLSk45C8JO38VbMDU8iTMmlY5JtcNs6YM0fA89xQVxzy6dY+vLrqHtvLd791V9xhuV4RE9uBeLdCK47C9f99xJcs/Z9vFT7IO64/jKMCtkQM9vRZY7j9dfOwM/uPQXfX/0x3ly9HPdefynEIIlbUrviqLGwndyCb/7tE9z38keof6sOm278Nc4yjUf0JIXyjkT045Pxq/9ejK+/9gHq19yFpTecC18kAsHaO4MHh8PhcDicIx/x6HMuwFENtfjAcSJGT/DiXNmBD/1xuDZuQfuomchP7IK/ZScsigdve5w4CdvxTlBAKNENVYhAyuuEak0iFBdhspmQULxQLDEE7DIiO0lYLb4Wlz0exoX3r8Rfi7xQvRRu2I1A06toTxah7vuFqDrtNBx74sU4/kuXYdylP8fdtdsgs8khLBaYTH4oJgGRuBkuknyqvRBWEkOOcBKeuAAHCbpkIoFokswsIWCTEFTiaIMF1qI47DvLYJeiiJlasMN8NMYWvoP3P3LT8eTBavfB5ehGUgrQsQgUvoQ2ElxWyQTXru0IlH4d5YGdCNGyIHnwar4Lpzt3oiVuR0GbBS1HnYSoMxfjw01oN8k4WiKROyqG5lApQttewdb20bjvO8fg8qmn4ozJp+Bz503CqRfdgAdeE/E56xh0NRbh7X+cgJ/P/CHOOuEm3HPxt/G/Oy5ALLITEyw+yE0C3r3tDMz99rU444Q7cOd538Sqf34VbXFK0+btaN1VgmdnFuFbk4/DyWedg7EXnYexl92If7/ZjuOL7Nje5cQr/zoZC778XVx43O9x50U34q5/fh1dsd2ps8/hcDgcDuczgfi5c86Ba8dr+Mfqd/CTGd+F3P4utrfY0bZ1C9Z3HIWrf1aJEk8p8iQLLrt2Ho5pbsJrtW2wec0Q1Q6ELAEINkAV7ZAsLiTFHIg2FTkkwoI5DkCwomXxT3HN/R5M++91qCbR5hlXiOLgZtQ91IXzv3MNulXAZTahwNcGwRcASvNgkayQYyF0BTvAJsxQYIVVkSBbPFp1rl9S4E9EkSAx6PLlwG1zQYzJMMVUeEVaduUjHBMRLkgg0U0Cz5rA12/5CeLLa/Esheu0FEBORhGMtkMW4zBb7HBLDshxNwlKGzrf/wC1u/Nx+fWnwub2oYAE4dev/SU+17ELr7/hR2t4Bx6/ayW+dM0PMdFuQtI3EYocRrTTj9Lcbsqv5/HuMztx/rXVCITsJFAlFHsDMEkhhJxHY0dgO1o8bRhn+Rw2dq8Hit7Epr9Y0b6zA247sCMURkJwoVApxLvNLyJe/gy2LPLBFulCwSgSqubVeO3Znaj8yVfQQaLXHXVR+Cp8QhKw5aJhl4JuT4gEuxcftr6CaMEH2LrID0n1I8faO/PHSMCHbeFwOBwO59BGnHK+H397rRu5q7uw7RQTjok58bE/AY/zbfzp+1cjUnknnn7vPbxUsxzXTX0J133n79ik5MJlcyJHCkO0T0AkqEAQZHS3dcPtNSEeAXbChjNHJ7GNhOKxioCtd5+KS184BV96cAPuOWEzVEsLNi1+DAuPOx/Lt7Xj+XXPYumd8/DGDVfj2J1JKCTovMkOJLwTEQvHIAlRNIci8NnMCEUFmPO9sDsdSMoyOoJ+EodxeJ0uOEwWJNoC8HVuhSQFcGb1rXilvQOrnl6LH330e1zxz2dgLxmPuBqEJ7YbMedYJIOAJKto7g7C7bOiOxxHifAG/kRiNHzhXVj58Ueoe+Qh/PKsOlw76y94L+6B7fN2NN81A996tQS/euJ1PHXfIny6qRWPfOsiBDqDaLQCH/39Kdw15kyse203Xn/6Fdxz79/x+p++iTJlCzqlqVj8CG177XdYse5jrH35ftRe9ipmL3kHiU4fIkWn4eHnHsU99bfhybUf4MUX6rHy/Jcx58/b0dooQQq0onnBKvx9wjfw0Ed+PPfic/jPg7/GG3+ehXK5AwHzyfjXfa9jzeancf+bDahZvxQvfOkjzJ6/Cqq/K336B2b6Aibk1qJ2bgWtVWBuba22ninstjew/xWYcrG2yuFwOBwO5xBD8Dihukxl2BlthGQp1AZXzgsn0CkUY7xixqeWRghqPkxKGyxmEkOxfMDaBFvShXBOKUqaNiLodiOZjCPX7kFTdyt8vtEIS12ItwaRo/oQyrFCCbXBYbXAqiZJbCUgxoBOEme2qBNRqwKHEscYwYSPHQFYLC6owSgSltEoDnyKuNOLGIKwenzo2NGJ4sJj0d6yEWYkYTabIDpckCUzokoScjIMSzwGIe9LmPfv30K8+wL89elC+G2fsqlmMT5uwmZ7UhvDL2kejfz2RsiOAoQTEbh8Xvhbm+Bw+RBM2nG8bMVO+6eImkoRJgkriVYSY16Y1WbkyqPgldqxW7YhPpqOIdEBqTkKOdcNVyKAfLkILXIrCVIFSS8bPiYfzqAHfuFTeG25gM2PMInUhJoDk78TObDC7i5BQ7wVR/tEbE/6UBTpwi5bHNZOEzxSSKsu70I3vD47JLuAjogKRAGXA3BGRNhDVnwqdcBuHwPB3ACTqMKf8ABJP6x07K7YKLSLIo7Ok9AaaU9fAsNn0pxlWFJVioWVlbxXL4fD4XA4hyCiQqKrM9oOT8wK2UVCJWJGl0MkYdZF4sQPUlqISW0wWQsQ9cdQYnNobeqUsAp7rBOSeSwSURU2m4hgF4kyN2mQQBTxmIw8Sw66nDIKo2Hkg8SHGoFHJNFjdSFudgF5MnJy2Lhw3RDdKjZZoxgXOhrOLlEr4cuRO6DmHo94lAQiZHR0dcIpqQhELVC8TthcHpiddkSUGELdXRASMeQ5HTiatttCTVAENkyLDZ3qp7BFJJSSiOvMEeE2uZBUVHjizUi6x4G8azN9tAcDKMo1IRiPkgD1o5NEFpunIii2wi6MgtARpeP3IuG1QPZ2U3pl+JnYbG3DqPYo8knYeelwkslj0BZ1I5xnh5f2Zdk4mtIft7ajnP66nX6YW0sorx1w2pxwFTrQ6YyhAe1wWUMkmgMwt3dCjAdgl0aRu5PSUowuewz5TmjiNNZEok80o9TiRDgUgexW8Kk3gnJxLJ2rFriD5WAFeSazDYWxQhLHHoTKBVhdO7AtMMjAekNEmDQHy9auJbHXwMUeh8PhcDiHMEJx/hfUaNu76PJI8CQLkDDthix7EHeTSmnORa6pAzF1HKKeLZADJJo8ZiTbcxCzRxE1hWBLkACSwrBZzRBCQJctBlNcRL7NhQ4SeIJbgGWnGWG5jQQaSCgCAXchChJxtJqSJIaicPqKYRF3wB8Eiq0+NAsxEngK7HGFhGERJIUplygCMQVm2QmrpQyLVi3CsY4cWCwi2v0dcCdNKCzKR6B1JxpXr8cPbroLFz1xN77w76n41VtlwO5GdKvHwCrtorCDiIpWWOMxJKVc2NQ4zGYzQqoCG8XNxmWOmKNQugrgcrUhET8GgmUTzGE7fF6BBGgJmsUtgHU8HMHNcEQ9iJDwFC1tSAqFcIZ2a+0Ad+WYYWkmNWkdDVdyh1bVLdhs6Ba6NYHJpnwL0fGYbJSfkR0kzER43cXYTSk0J5KIWSnvEyoEdQwSymaUUMLMPjuC0UJE5e0Iu7ywtiShOt1wCLsRD7jgtrjQykJImiEW50PuVlFiUbGDxK2Nzk+ptxhbhA5KjyV1BXA4HA6HwzniEaySSfU4c9GdDCCejGAMXNhlIeETDMOUV4AOOQRLtwdWx27kKLloEDvghQ1JRSSBE4HFLsEfkCFH7Mi12NAmibCZ2xGL23BcVMaHuaTyoh0oThQhZBIQTrL5cuNIOIDCFhOaSnNgavIibt0MjzAect5mmHcCQZMVLocFopn1/JURjpCQlGUkrGUgzUXCMgxHSwckmwQhx07iLISgHCdBZsJEwYZXk0CuTMJNDCLcacYYcwLbfRKlZSx80Z0IqE44bEFI5hiilE6T4IRFVdERVZHrTSDYlYQl14cIZNg6HJBczcgn8bmVhFOx2Y1uyQq1vQsKCd2kaoPi6UQu5VPEGoBbcaPdaoGnM4hIvoJEsACyqwk53Z9DIPd9jG0GNuW5YI754CbxlYiFSWwXoyl/N+zhPEANIUaCV7FYUCKZEKJ4HOpY7C7YCiRsKImb0WVJwN5lQ5iOSSEhp7jbkdf5BTQXv4ucNqDTRicXbuQpEQTiJAqlMYg7t2NUVx7abAlYBMOUdBwOh8PhcI5ohHzJqcY8VgRMUbj9MnJiMexye2Ey+2GLkFCxBEmAmBAX4nCR0OiWAjDFc2C1xxBLemCOdiJJysrbIWCXNx8ItyJHTkJWnJBykwiEY7BEC2CytMJrKsKuUBTJwjBTbPC6FSRDVoQTQVgtHngTbehiJU8OERaRgpLNKIqI2FnQTQoGKIWEGAk6dDoQdyQQS8ShqgJEExtIWESC4oUqQpIkWEngBYIiiixhtKMEBeJO+IWxcCrt6LB3wxYlIToAbJo2HX1AZyPMXR/s2Tjos9GfvmzcpiOKYlb/DLa/orCOMEKP6Rj3y0a2uLL5ybYfh8PhcDicIxMxmp8LdAsoiscRccTQ4CuCPUCCiIRXSApDDquwsHZpJgvicoRklQWSVUAQJA4jLYg78xAmMSa7EnB0tMCWOxYw07rVhM52EUnSYD6bTJus6Ii3w5wXRU6HCjciiIVCFLZMejIOJRQhMclmyPBCtfugkMi0iCrapW44SR+W5o5DlyMHSrsFkbw4kgr5I7GnCyImoCRBhCioYFImYJEw3pUDczhHS29LnNKRJ6AjnNCqNoeCUYgZlxmZIkpPR+YyI3PfoWAMQ497X8LhcDgcDofDkcRQ4HdhwQWLEEBYNSPfakfC5YA5YEPEFkUxicD2qABXQkEsfwLyIwkE7H44EnGEFNYzVqFQ8qAk/Miz+RCJhGFyueCVzPBbonAqOQiG2xEUZThH58LWpUKxOEkIhhBJOmF1sdI4N+zxLsjOIrjtMYRCCVI8AYiyD1ESgQUhH3aZd8McDwJ2JxSbGXI0SaKQBBCJIlaiJ5EUJa2nmUgHxnrwsinixPh2mKJ5uHPzasw+58vIDdfjtd2jgcTgvVQzBVY2waULM12cZf4aMbplumf6YwJ2X8gMtz+Guh+Hw+FwOJzDH1Fx2EhkkapKAi6vF20dHVDb2xBKysiRFWyPqHBZBHjMuYgGP4VodpG4S8AlWpB0UAhWC0yKAIeTglDDcJqtUGIqOimcYmsMUiSOeGEOvLlmdDV3QInkoYv8RC15KJ4wDlXX34M53zgWolAIOdwMRbGhSPRDNpdBIlEpiUl02iSYkgqs9gLkknBUZRJrIokmiUQeCRchXfrFJIxI68xMaiG8yfdhso7Clx95B6bbvo/zrjgfi1dsQ6ztQ+3gB0IXd+xXt2zrDC0NLF4SaUYhpS9n82Nc1sn0O5B/DofD4XA4nKEiesQoLEIr/J5cBHeGUGrzId8lkNBKICGrMDmPJYEXRjRphRNB7LTGtSFcmoKq1mauWInDkZtEe9yJjiSJLv9uKKqf/JUh3AX4fXYg0IlYMIFRMolGbwts3R1wowOdH29DoCAPZzhkBG0ybCYbWm0uRCIkHsVdEBJdkJUYImhHgkSfO1iI7k4/RsXHwiSaNRMESRtfT1GTJIhkEn+KZjlyA1rFfPi9J6A09ATWvd0AxKKIqwF4XEProZopsAYSXNmE3mBwAcfhcDgcDudAIF50Uy3ue/UdrHjyTqjPLoBkKsH2qBlF512AWx5djQUlcZiSJnTbgoiedTXueOiPmH30BPjy7Di7yIWv/PE5/GP1i3jx2RqEHr0exaO/gEBcRHzUWPzwgTdx66Uzcd8Hj+Ppta/ikSdrsbAoiqgthpN/8RSeff0d/Pjk0bD/8HZ8uLoea5++HW9fOxGWvCJALsC4vCtw2/KnsPb1D/Fh7VO4ve5P+O2s07G9YytMgqgZG0BZK/2SU71OVdJaClTIchEURxtMoSB8SQ+kpIyAIwm3ww4lHNP2HYxM4TaQkMsm3vRtzJ9uOsb9s4WrHdMA/jkcDofD4XCGivgb3z34wZQKfHfGj3HuRyfjoR/mkyhyIrx2A7baSzD6yly0sRKzzk5MO2YmJrRvweO73kdXJ+CsfhLX4WZ89+xTccmV1fhy43TcMUtFucsGbG3DrtJR+ML/nYoNl/0UX7pyOm55uBaTZ0/FUaS3Prr1csw86xTc8cY2RO6ajdPPPwcnXXIDTrr9bbR3JzE+3o7WH1ViSusKTD17Aqad8FVcNeWbuH7pq3BbSBAqJIDYAZAIYsboEXsqG8MuHwgAUq4TJogI+MPwRCwIiCrsLqe2/0AYRVZ/pqOLM6OIMy4zMvfPxOjOYL10ORwOh8PhcEYCccndNdrwJq0d7Vjzv+VQT7sKJxSHELc3Y/3DK5E49Zu42OKEPH4SjjmxDW8+9D/ETDkQi87FFZ+T8PunnkZBexhiVxTP/O8+tH35m7jS1A3Zk4C05W1svuufePSD7bAEIngPHnR7R8HhKEJItqBTcCMGH2m3MKRQGEgEYEpE4BNDCCcTKG48EbunfwE/7SxC92grTM4uWHOBLk8MKhNETPSRdsoUYTKJvkD4Q7hc5yLWOBqNX3wUBZ8UwxwZBZ/iwE6pQ9tvKGQKscHIJv6yhZFN9BkxhpF5fBwOh8PhcDh7g3j1go34T+37qH3rVTT+9oewjU3ijOJcCLFWvPPvdxEp9CAvFkdX7kU48aQmND/+KbaobpR4TkTu2Gb87g+N+McHq7D6lUfw/i/+iqPtE2GZYIM9YcZY1zj4xY3oQimsaggNrVshFk5EjmJGAGHkqDsgxxoQaQsi7iiEy2RHMhlFVLJjp60Q7S+ejZ/863hc/tIK1D+1FMt/OwveSB6KgyIsbOg9JQ5ZToB1aDVZzHQ0bEGC1eZAbt5Z+NZt38fazeeg6/TluE0NI1L8KYLJCInPcamjz0AXWZmla0bBlSm8dD+6ZWLcV2cwP9m2MfT9WfqM+2RLlxGj+0D7cTgcDofDOTIRV36vDN+rmIDJJ01G2SXnYepp8/H/XmuBIKmIe1qx5fUxGPvNGLwTp+DLD23Gn8qjKG/vwO62VdicOAr3f/8kzDznHFzypS/j8+d+Hp87+9u4+80ohKiACIk3yRZEzGFHDokMu300zIoK2angKFXEzqgDXXIZrMe4AP+nCFkjECMW5CkBOJNhNG0GNv/1bNw84wace9JteOS8n+CJ27+MXWoHVAqPyTJWhcsEkCzLkBMJJOMJJEigBlvqsOy6X+Hy8fdizEdv4bKjWtj40SjoNsPk/DR19Gl0IaXDBJG+rT8bDF1UZdt3MNE1XHdGZnozjcPhcDgczmcH8RvXfhvdshM5cRfyPDGMMvsBjxNKYBRU+//w12dX44wvfB1TPy9j0YqnULLNhR3uIEy2V/HyiyFMvW424jEfciHgKNduiKFuhKUJiHttcAhJ5MdJkCXjCCdVRF1mxGQVlmgEu4MiqZJcdHU0oyjnFJT6ZJSrtL9PREjIQ1iWkChwoCjmwVvNa9CR+yw++mM3vIIJxWWFSMgk8ki3sMGXdREjCCqktMULJMQjmyHnj4L0+hs4YVQx5F0ebLXE4VMK04e/pzDaH2QLWxdtzHR34zbdGEb//e3D0PfT9+VwOBwOh8NhiH8urcS9bzXhqWefxtL/3IwX/jQHYwJRxM0JYBegfPwYPpnwW/zf8TV4+Z0x2OWVkUsaw7bTiu4byU/haXjktU/w0KpnsPCJW1H/z+9htGkr4kIADsWPHZ12OC2AbDHDEd6M7piE1i4/CsfLmGDvwuaFf8GzrgW465VtuO+RP+DZ31Qi6RgHUTof//nvatS8fCfuX7Mdz7y6AnVV7+Ga3z0K/+YWsE65KhtsmVXjigJb0mbaMEmCZkr0eDhNFiSUVljczegI2GAzkydvBH5/i3bwRoG0v0RSf3EYhVomzE0f08+4n76eOd4fY3+ln8PhcDgczuGPgHyvWhgRIUUicJsEbBIicLhGkS7yoln8GIrTCrG5AIJvB+x+wOIDOpUCeMQwQh0hsP6ugtUBU8wBu+hFo3ULHA4fLF1mdNli8Dj8iHc7YRKTSDhy4MZuBMM2mM1WxAISkBtEfocZIXcY/uixcOZ8BK9oRUenGV53ELu7AckEis8LU0hEh8mMXLOAuDWhVeMyoSOIJHYUJqhS6wyrZEEo7IDVMwlfffDbmPSLn+EvGzsg54iIx4ohxvzavroxMgXWSKCHzTCGz351N2P8xt/B3BnMTXffG4xhcDgcDofDObIRC6Q4OsKdJLhUbLMBbutYCIkYkrYdEEOFKJZFuG1BKCKJvcJCdJG2sMoKTB1uJB3klp8LvxKGRGow6GvBCeYJSMpRxNQgbAjCHzDB67RAcHjhju9GQrIjoZjhSPhhFzqR22HDzjwHuhU31IJG2MNmhHfLcLOZN/wCinPGoVAcBX8shi5Ko9PcglZrM5KURlVJkuJhM28oWls+VWClfSQiyURThMTdbkQCLyPnwxkwnzsaYdo9J1CEcKhTO3gmeow20mQTYpkiLhv7IuA4HA6Hw+Fw+kNyxJy/i3lKIaht8PlFJJxRKNFuBFU3XLStOwjEnWZ4Sel1Wv1wqGaYEmZItBzxOkhQyVqxnxl+2IJxyEmRBKQZsoeEnhiHlDDBJEjojCeg2uJQBBuccYkEnhmizQUlx4T8cBv8yRjM4TgCUi4JRRHdJPCC7jiCnUE4xBwELW3IiUdRZHegPeaGmAymhREzEmtMtCEl9gTRDCVugS05CoWxNqzuasIP/vRPfOeab6Ks6W58sDMHsWREywBd6I206DOKtsHC1t37E3rZ/GeuM7/6tky3bAxlHw6Hw+FwOEcGgjXXpcaDbqjWXbAmJsBu2wQxJqLTZYWnNYmAswgWUxscyShicilkazvcJOqCliicXRKibhtCfvJfshOu4FgEnVtRFvJgZ8wKi9QKK2mwuK0AyfYAbF4rErEoYJaghsKQcosQSjZD6C6C1d0Fe8CHiKsdlmQSoiigy+JAocMKdUcHYiiHv7QBtp12uEhgRoQWiCQkVdpPYR03YKJlWk8dFlTJAguJxFjMjoQ/hjyrGTm5xWiL7UCwW4LNzsZ16YsuuPoTXkYGE0ys5zDbJ9t+evi6m/5rjD/TTUffh7XjY8v9+Rls4Gbmn8PhcDgczmcDySaaf2eWYrCoFhIBAciyGUnBBHOCRJOFfhGFpEqQBQspiShERUScNIYgm5Bgwk1RYTZHYY6ZSXQEtd+IqpBITJDwMEGhEEQ2Vp6ZRJDMhJyoda5IuJLwdUhIKh6otgAKlSha8kLwhEkomcdAjsQg23OQUFoQT0oI2c0oaWciUEDU2gGzXYUYFmERbAibBEpTFB4Sf6YIiR6TGW4SPYG4Ey5bF7y+MrSGupAQHYhFu8hNRlSNU1qcUBJJmK0kRJNxEr0i7GoSSljQqoRDkhmeBKWR8iGKCKwUZoSEpDtBeSTKWgbqgouJLN0YJsUBxWSFnPQDvlxIwU4E43YUWIPooLwxB/Oh5JghiyrksJ8ErQejYwpaHEHyl6BwPYgpJoxKBtFC50S1xUjQWuGLxtDhkyHEZSh0fKOFbuwmsQuLE6rsgi/SgQ6XBIckI5j0wpXoopNMAllJUF6F6dxaISXiEEx7Cl4Oh8PhcDhHJqIuUHQyhYvR3bhtMMs2ODBDL5WyRBzY7bTA7myFnURfM+nJ0bE8dERtJJIaEHADro4uqH4rFJeCYrixq0iBgwSjT3UhlMyH1eRAnPXWTcpweT3oDEeRQ+LRrLQjSeE6Q174SdQ1d3TgGEFFrLMVVtq/w+WGRyALdyJhcaC7Kwm3OY5oJIhE3hhIFHdCzaV9BLQnw4jEwsj35tMvkGeOoUtOtQHMJvaYoGUWEeMIi2HELCpKOnYjYSqCs2QUxUFhyPkI5+0Cws1wdwdAuhAesk9zc+BL2lEUKQdi7STgBHwqy8gRI8gj/zF/ALutcZjbbXCLNsQoXz6h+PNJlBaLFsQibehwWpEfUEnQWpGj+uH3uNFN6/kkiOMiKXxvmSYGORwOh8PhfHbYo15PFy76cibZtmWDdaAwmgJBGzdPt5CUA0u4FaG4iwRaC5LdwC4SYccUjoYaV+GKmdDtDMEStSAeLMZu01Y4I0mY7E5YkyL5SSLhzEM8HqH1CIREArB7sC1hgp2OKt4BfHnxXXho1okoc3qxVZEwxjcafhJzllgSUbuCXW4JyWQXzPZ8JLpJBDnsKNzejBxSfFbZD5X8wSzDKiRgCkXp4J3o8tvgYIWdhnxi6OtaCaYkwV4gYHQgCERLsNVaCCHZDEvbVlidxQgqCbhjuSxotJtdCMvsmNvgCrZBspMgtnbBydpN2khh0vF2qTISrS2wWgRKkxsmOsZAVIbX30WZaUMbiVXWESXfKVESXeiUo3BS0sKSmY4jAdXsgI11bLGYEO/eDYFE7kgyZ9larF02B5OGeG1wOBwOh8M5sPQIvszSOKOYyWQgNx0mfNh+LFxW2mcs8WPbJaUTuTlOmIUkOmnzWBJjplgTPu0MQ7DbIcUD8IhHI5FLqshphTtEIlFMYAyJnw5FRr4YRlfHVvhYNawvF4GuMApIEMFdRALJhDzBAdFVghjFGYvuQIljDD5JbIGvjdSaNQdyVIAnybp5mCHGgoh4WHEnhWWx49N4C2RHEoG2nRS3CCeF39oVRC4pNJslH1LSs0ce6Mem/5q7yb8ClDvC8KoiIo58dBYfjZbkbuSr3XCSIg17c1CWkOEwh9BNwfltYeTH8xGIiIh1O9AtB2CKu+E0+eB3xGGVVLibFcg5SRxFQrnbpsBm8qIYJoSECIlHErIdHVB8DiRMDhKAZsq0JOWJAj8ddo7iQJLNRqKSOB4i0xesxbI5k9JrhyeaIF27ANOzXLfs+NauTRuJViOCMB0LdDey/vJBmDQHy9L+uejlcDgczqHIfmu5nymINJEnkbwym2G1koALkhbpUBGyR5GnCNgZisGVzINKYsvvVZB0FJDwicEmk5CLuRHIBYkfB3bFROQKIUTMXuSTSGv2TUAkEkKeTUKgIwB0NVE8HjQ4Yzhutwc5nia0KHnYkWSlZrkk2JJwhZsQJqFkFa0oUqJwWbsRU6wQEnaICUqHDwi7SzGKRBKU8Uh0B5GXY0GHHIUQ2tJzPLrp6OKWjQ/YHhAQLT4OncEYvKHdsMohuHdvhCw50arYKe5ilOwW0WgPkvh1w8EGGySBuF0m0ebqIsGWBxtpNTb0jRDqgtkB5LE88YVQHI2hwWXDqLgVCRJ9neEwoiRMx8iFAK3nxykvggkoLSSq3VbKt13otOWipUuGNx5EQoylUzwyLJo5FVNnLsKGtNg9VBCmLyChtgyoq09v6QsTe3PLa1BdWYnKymrUoAprF0xPuwIX3zIXWFiJqVOnorK6BqiajzmT9hR0s+dXoaE+exwcDofD4RwK9Ai+TOFihK1nbhsUlYJOGytHk0QzTKznrNkGs8mKsm/fi+b7LiRF40Ms4YXT1AppdAEu/+OLuO/HX0SI1k9JFGD+sxtx95sPI7r0dfyv/o842itht1QKta0Vyq0NWHGRH5f+/F+46/F1eP3VD1H3o2IEEz4IJLp2KI3oUifglMIy+ORWXPq39/DUmmW46osOWOK74fUmMfmm1Vj+6ntY9+IKJO/5KeKFRyPYQrppRxNcf2rBS5URXDF3MW57uha1b76Flb8sRpfFmzU/jIIP1iAmWz5C4JoncduzK/G/VavRueFtPDjzLFKuNmwvbkbIfSr+vPJ9LH/5ZbQ8sxavrluAC81BHNVhQqI8F3f/83ncceHluK3hKby++h3894lX8KMvFqNBjiPisuD6O+7En798Ce7YvhKbX3gVdz39Kq478XjIwQAkewJTSlyYdPML+N+6d7D+wTvgX3Mzjio5EYEkU7IpUqJoz1KsSXOWaetzK4DSqiW9+xgEkb5P5nYjqdK1XjOWsjG3BdP7lqJlCqpM/wum7ym4+mP2DKbXZmHx9vQGA6z0bkpFE2puWqwJVVXdgMU31aCpYkZPGlbMm4p5K1LnWd2wCHVNpZg8baK2rsPyoIqk4r3r0xuywKu8ORwOh3Ow2aOEL1Pc9bc8GCoJH/LAeoVopr3qaF0hMcSsO9qMZ9xj8aXuLnhznGiHBcFQM1QpjtDb70C0HINpK2pw1G1X4KrTvoBRX5mKGx6twN1/vRAT85LILxwDz4YnYPvFu/jDsbuw8GsVOPHauxGf9V/87gsNMIs2dAtRBCiej7fn4vrH3sJvgj/FqRfOxBObBRybzMXYea/ir8k7UHXO6bho+gxc0Xgebv95LgrGliA/fwys2x+F59fv48YTd+HmK8/AWd/+LyIz7sKvvpiamo3RX0mf1zsOa07+LV775k4884srcNmXZmDSsSfhxw+uBSQf3NES3Hjfv1F213m4csoXMOniCzDnmem4edEPIJcVY3RzHC96BVw09yK8+eWf4PgLp+DWJ1/FFV+rxBjRh2KpCFuKCvC16y/D2st/iPEXnIp/PLwWM756Nsq8+ZA64mj+ycP4s3gXvlp5Mr46azaq3j8Xd33XhkKnT0snE3u1c8tRU50qxWI2c9EGzW3Dopna+sJ6oKmmusd96rwVmjtD36e6pim9pS9M6Eyu6/XL9pu7dHbaNUXF3BloTMfP3KuuvjjtkhZTDQt7/DPTBdhQWDRzHlb0d81ePAUVaMD2jalVVi27dEkVLZWibFxqmxEmEMtKgQbdA8H8zCcvTDT2buVwOBwO59BDzBRxbF3fZvzN3GYUOtksE1bylUwmEYvFEIlE0LBtCyS7HUkTMOb6ZXh0zjGQWsZgwkl2yBEzLMXXoGLUI1j6wm6YJBkdphAaFvwba8Zfhi+N7UZHewJeOYDxWx7Ft6vn44NELpKffoQPYk7EQMIy4UC7Jw8T6bX+rUd/hK9/9Buc8cc3Ybcq6GoTscsxCeedZMLiZ57XjsnSEcbzD92LyOSv47T2XdgdjyNmbYd321JcMefX2CwXwrxhGz71Uzz+vqJYP17jcZubt+GqC6sQfvRmPLjbhWi8C5uVIsisA4utCWLO93HC0Y/gqSfjcAmd2CEBn/zpFqw66qs4b8xONIkKRjtFPHHz7/Gvj7ZilCJi3cdNGFV8DHw2CwIdQRxNx/y/3/wG93y0DUVCLlY27ob5GAeSFgm5+VNx+lQrHrzrSYiSGV1dnXjt/vuw48KvY5rcrqXx4ikVJOZuwqINvccyUjAxNLm0HssX90qhjYuXo750slaCJgipksT6hbN64t+4vQEoH9O3JKxiSta2dyNCUyO2TJyttb9jYq+uuhp12bWrVr1b0VSDe1emNxAXX62pvUHz71Ct8uZwOBzOZwcRIr1MyVT6YSZItMlE6oMwCplsomYgBEGFyMoPRRJHggKFzXdronDMJHhI5Jk/3IRgaRFK5Qqcl/Mudo+/FNMcNuwq3IpdH7rhOdGFkk3voSnpgGIpAKzAF9WteCvhxWmjyxB3iLCox6H1o9X4KGKBbJZg7V6DX55/Of7fO3ZY5DiKnOTvmq/gp44u3Pvkx/Ar22DvyEGu1QpL+RXIKd6Mr9y2FQ+vfR8r33wVm2/9Kr7gdGLSsV6YxAi8yrFItH2Mpm47lHgUduE5XHv++fjnBjecbOI4KYlEMgiTHEHcTMdJ2ekSzBByHRAcx2C8NYRN/gT8lLHjvV0wCyRcQ2YolB/JLxajdNtW7IQDoi2fMkzG0f521MVbcEKODT5BQkgSsNu7A654IaLBEFw5cXTHPTD5O2Hx2NHlzMcn7k9gp/AjIcCbq6I9KsOlRqAUnI2TSzrw05vfwv+eeRvr3/4IT91xPsY6cjH2WB+dn0kYU963xGpEGVeGUiao0qsMVV2BxqbsJWjZYCWI1TXlmFtbm6rS7afaeJ8prcISTehVYubUqSTcUqWbmbCSxrmG6l8GKx1l7f9uMghaDofD4XAOVbQSvkxjpXEjBQuPYaw7Ji0Ic1LCxo4YfGediZINT+Jd5XNwl7twdiCOD6I7kfzoYwRHz8Ix8TbEmptJD1nxUokPp5h2YtPOOELR3RSSAnsBm+bNgkA0DNUS1AYrFm0y5DwTkm+8gfaH/ogzHu3AZf/vVvytfDQSzhh2qlF0bnkb2xUPXr0qB9ecWo5zzqjEqC9dhqMr5uJvb4ahxBTIAoWldlC4QDRhgiWhIGZywSz5EY6GSBQCFosFScoumY01Q2I5KicQ7mhHq7IF8nGnQvGMxrjdbSTErKRZO+G0d0MJFsG98Q20FF8Eb3wHulpa4DYVYENOPqbYurCZRG2MTV4cz4Uz1kmCl80jYoFfcsNE7g4Su4HQbiihOEpVJ6xsjD8pjO5kFFYS77aEG6Ht7+NdORd3X1uGqnMnoPK0ClzwxYtw3pRf4ZYPoqkTQZSP6dsmbcTY0oim0rL0SopUtWgTGo0qcBD0amNmNeVzR070UfoY9Qsre0roUqWSfdPHxB6r6a2p7i2JZLDSUU0wpsVobaqxo7a+N+0MORwOh8M5EPToMNa1wmgjiVH06csWNYTOWCGOueBMeHe+gjvXbcbsb/4Q5o630JqQ0PHBZrzYVo6qX54Lt7sIBST4vv7dX2JS0w68uG47rB4BQrwLfsShmCm9rETRChJfbIq1BHz+LjSXeZDfCXQu/xW+8UguLrz9R/g/Eo3efAeK4i/jtbo2XHzdj7GLBJuLhJyjQERpfBfgLYbd5EYiEkBHoB0wSZBMVlhICCsmOwm+BIk7EnnxhFZNLZnMUGQgGAwjTgtOt4fCGIWaB5/F174xA8faKA02N5xsJ8WMMtmF3ZvexupmD2b+7Hjk+NhAysAVP5uP41tb8N6aXdp8wA7ZDUssjriQgEwCVBtk2hyh45QgyiT04iF4SJAm5TCbBIXS64WN0i3LnSiKvogX6t5Hxa++Cn+Eok3kwOUrQU4yDnvYR+dhA9bUNZFGuXrAKtMtjbTP5GnptaGT6uRQgfmzewVlqlq0Dmv2sVCMpXekYOlj7RMrZvS2KWRVtKX1y3sF4PQFWcUeg3XoMLYtrEw1dtR6/Ga2M0x1PMk+LAyHw+FwOAeCVBs+pfcFxdZ1UTYSsNI8hlH0CbQc9dTB8fZ5OPHCIG59OYSSVZ3YdLqCcSEbNgQFjHF8gN9/ewY6K2/HMxs34NWHH8b1Z7yIn179F2wWS+ByuOE2dSIhFSLQHYAkCYh2A54cGyL+JC1bMHmSDS/6wvhcGNh511dx+VMTMfP+VfjliS3YLW/Bxvl34E/FF+J/rzbixccex/2LF2DV374Dtxwl0RhHTqIDsnci4uEI6bs42qNxeB0igmwMZhJdVpENpSIgJiuwWewkqLxQJRWhNj/ymhsQv/2r+L9XxqB61ft46IUV2Lq5DbdfNQ2JRCtybe9hwXe+jdiX7sH/3v8Aqx+4Dz89p5aObyE2xkdBVMKwJ1uxO+mFz+0jgWuHx9+A9rAdTcEYHBS1M9mN7SHAZpcgmN3IC3ehO2HDdhKeAWUncOMaPJRzHR56vxur1j6ABx74IdbcfhkiHlKAxB5VpmSZY82xfbThStLuxhI2vQftkqpS1vtiD/fFsxaiwdDDVxsCZdbitOvAsCrnzB66SybXofpGQyO6QdDH2NNK31DRc5y68GKizXhsc7Gwp1MKK428RfMHVC3pzR+j/6HCmiay+Kf09kfhcDgcDueAItjtdk2JsbZ5rGRPF3x6O75M8TfUNnysPaCGQUzqsDBYdWkkESehFkahNAbdye1IiLlIyN3II89+qQDjSag1WnZBtY1CTNypDeYs+4vhMe1EwpSDoMuLkl2fIuyyQhYt8Jpz0NS5AzmuPMStUYS6gyhVfWg1JxFPKHDmyLB0RBF358Ah5aG9ezMU20S4nI2Qu5IYnUjiE5uCAmEMWuONEFxHYVSwEREScxHVT/5z0NbUibz88QjEd0IhYcVgs38IsCCejMNqSiLfbkYDCVFv8zZ0q17kuiyQE51ALAEppwj+QDPMpkIcLfuw1bOJ0p4LIRqAjfI8FHbQcXbAI45Cu9iKEncCoa4SyKYOhKR8OMNNEEnU2XxmtIZtKHS1IhryIRjzQ8zPhzvZglhnIVxeE6Ik+swhD2SXH8G4F0krqUS046iuMrS5UtPDcfY/qWrhUiysrOy/1zCHw+FwOPsR0lCpuV9NopQaGDlt+wutxI9EoEXoQonTDcHmQVfCj5yIAwlfEDmCBwFrPkzxVgRsJKgoKSHshEkpgCmg4KjcPHSagXAgBluyA1ZbAVSZwhNN6G6PwOoyQYnJiLQFkOcpQovDCthllFtDMLWwQY2PQtQeQ3soqpU2FpiDpIHCMCsyGiwKcuzj4Ec3xasgV+6Amnss4pE462+CtkAAHouAcMSKOPl1WpxwOzwwmWwQZAUiHZzFAngEGQUd22Dy5UHylJPYNMPndiPmAwLhZjjEHJKHMXQJCVgpP5KmTpikIiS6oyix25CwiFCVIEzJBHbFLCQirZBsJhRGd0OVchE1uxAJBSGpIbSoFticZspHH/Ii7YhTfikeO1oCSciKBWZzEbrYHMCCHw6lHaOFEnw6qrcNH2f/oc/AsaSqgYs9DofD4RxUBJfLpbISN0kQyYRUhw0SZIl0XexIlvDp1bsMR0RGS2EUucKJiO1+ByG7hNJkEZpyd8HZnYuwqx1qZy6czg4ko8dANn0CR9yFwmIzduxUkRSTECysJ20O4hYSb6wdnV9B0B6Fh0RQmBJQQGKvQ03Am/AhLH8KPwkfp6UI4UQIo0gH7rSa4AhZEHVaIMWaSRcm4BZJIEWbIbtssMcpH0wlEJNdUE1hBEhIWgQHiboy3PPUv3C8pwCUCuzoaIOXTWU2yof21q3Y/XIdrv7lP9HtKITHvwHssCM5DrjlMMK+CcjbtRs7i/1AYzlKvLsoPaPRLW6DGDdjlC+BREspQs4w+etExCzAEi+gEDrhUkXINhvicQuSiRilI4mQJQwriUIl4YFHVJDwBijzvUh0diPkYd4odpsLtmgQMTWJQkcJotFdkO0udho4HA6Hw+F8BtCqdJkQY6V7TPCpcmrOW4V1QSVGSvCxOFhYzD8L2R6T0Fxiga2zAzZ7HoKdJFxkGc5iNxKhdgTDJlKjFsRJ2HjDxSRQdpEYy8cuWzvcSRXRpFkrUXNYHQhFYkjISfisCukbK+0XhYwcEjldEGx2tEskrmJHw57oQsTeibxwLlRLB2JxO2weEe1+C8zuLrjkEoQVElZJAWEKgVWxCpKVjkVEOBKHEo0g4RiFfBKKbUoLfGE6SIsZSTJbTEFUCMJmiWF8UsHHqgQloiDgtcCqjIJZ7ISvQ0W31I1IrghnpwLZXYCgNQxbC8Wj+lHqLMFmaRc8shf+pAi3YIHJ0oyoVAQxEoBMQtZs60Kc0pu0CiQA7ZSfXQgkc5FvlxFIqLDa/IgHvTA5woh32wAvndugE0HHbuSGXOgqkmFiwpVEI4fD4XA4nM8Ggt1rVh2hBNqdJMP8LpSYgG6TGyIJE4ZR8OliTxduw0Ef+oWFky0stk2PW//V9zPub0yfkUy/OrpffTurzjZiTJeRzLiZgE0kEiB5rM0PzMYvZFOqMf8q7WMRJS0ObZ1+mWWGYYRty3TX/RnR98vcnm09W3j6b+ZxczgcDofDOXIRVftRiFol+CJjYPa4Ebb54XW0pZ2zowuI/YlRnOhk2zYcMoUTWx7o2JgbMyaW2L6sFFPfpvvTwmBu6XCNfoz7ZUP3o4WdXs5GpttA+3I4HA6Hw+GID9//ENbVzcOUeAvc8WaoJSbsYr0LtIrXvqZq9bT6+vAZSPwwsgmZvRU3xjj6W2ZhGsMdKF3MjZleZa2vG9FLCRnMjYk93fT9M/3oachMS3/0t+9Q/XM4HA6Hw/nsID3zyqO/a47ehl9+pR1r396Opq4QCvMTiIekfsVJan3kREVm+AxdtGSKF33fbH76g+2bub9xXY/DGLa+bExHtu36NpJZPdW3bF1Mb9eNiT0dtm78zUZ/bv1t19NjZKB4Boqbw+FwOBzOkYXYtbMDa4I1sBxjh9oSQZ7ogX+nSxMQunjJhu7enx0ODCSE2K9u+jExQaebcQ7ipCJDScpauz42liHr8WzMh8ww+0P3o/vjcDgcDofDGQlEh+pAsEVAh+yEV0zC7/cjKfYdh08XKftDiGQKoJESPAMJq4GOJ9s2Y1g9go8whqObseo20003I8aw2bJu+r7GbcbtmejuHA6Hw+FwOJmIUTbjxSYJnWVdiKuj2UxhKEn4SVTI5KyQiGDiove31w4MRhGzt4Im2/5DDcMoqpifTH9M9OmCTKdnOWN2EV2k6WEaw84kW1zZ0PfL3Heo/jkcDofD4Xx2EJWQDxXjkyiOfBejJ21DshBw5R+bdk7BBMRAImVfGUiY7KvbUDEeDwvPGGa2Y9X30fdLspI+bamvm6aLDbCwMi0To/99YV/9cTgcDofD+WygzbShLbDJ4mvnoqIpNcH9hizChMPhcDgcDodz+JGaWm3SHCxdUobllTfy+T45HA6Hw+FwjjBSY4WMK0NpUyO2aCscDofD4XA4nCOJkRlBmcPhcDgcDodzyMIFH4fD4XA4HM4Rjib4Jo4pBxq2844aHA6Hw+FwOEcgwhtvvKGpvJrqSizawAUfh8PhcDgczpFGz7AsHA6Hw+FwOJwjE96Gj8PhcDgcDucIhws+DofD4XA4nCMcccH0Q39aLjYLyIK1a7GW7HBIL4fD4XA4HM6hxKAlfNMXrMWyOZPSa3symPtIcPEtc1FeU42pU6di3gre5JDD4XA4HA5nbzgsqnTHlDehbs3G9BqHw+FwOBwOZ28Qbr/qFLVxxhJUlaY26MOzTJqzDEv0jUbqF2LqvBWDujPmLFuLsuULgblzUaFt2bfhX+YsWwbcNIsPG8PhcDgcDoezD2jj8NUvrNSqSjURV7a8R7AxWJXtjMZqzFy0Ib2lLwO5M8HHNGGf8CfXYerMRek9hgYXfBwOh8PhcDj7jqiLMcbG7Q1A+RhMEkauY0Sf8BcvR33pZMyZNPTwWYeNstIGbOc1uhwOh8PhcDj7xCHdho+VENbWTsH6yhuxgk/7xuFwOBwOh7NPHFjBN3EMyjH00rpFM6eisnI9ptQu3atSQQ6Hw+FwOBxOL4MKvi2NTSidPC29tieDuRu5+OoqlNav36vSOlVdAYqCw+FwOBwOh7OPDCr4NiyaiRpUaYMea7ZgetolxWDuFXNre9zmorcHL4fD4XA4HA7nwCC4XK791jguNSxLb6eNfYX30uVwOBwOh8PZdw6LgZe3N5Ri8rSJ6TUOh8PhcDgczt5wWAi+lffWAFVLsGwtn0uXw+FwOBwOZ2/Zr1W6HA6Hw+FwOJyDz2FRwsfhcDgcDofD2Xe44ONwOBwOh8M5wuGC7zMA6y29dtmcEZ0yj3P4wKYnXJAeGom3geVwOJzPJke84Ju+YC2WzZmUXuMcaHj+H3wuvmUuymuqMXXq1GEPkcThcDicwxNewvcZgE1RN3XmImzg8xF/JhlT3oS6NUOcz5DD4XA4RyQHVfCxqkZjFZMwfUFP1aMgTEq791ZHMcucU1errjS46+FNmrNMW59bAZRWLendxzATCNuHlT7p+zLLLI1iJVQ9filtmfRxJ5uerjbVjmXBnJ709R7Hsr2aF7i/8BmD5Y/xuDJnQBkqmfnLzHjO+kvfUPKf0V/+av6zpJntbzxH/eb/pDlYlpHX2bYNxFDyd7DrJzP/+qYv27Es0PYZifRzOBwOh6NzyJfwVcydCyys1KqjqmuaUDV/dtol9cKtaliouemmV1mxKd/Y+sJ6oCldnaVZxtRuTIwsmVyH6spKVFaz8f7m97xQ2QtYmw4u7XdhQ9UegnHK+lTaNHeKa+7S2b1t5SqqtJlG2PaKuTPQWF2NmqZSlI1LOQ/GQOEzQcwYKH/0PGDb9wV2/Mb8ZcGwvNTzeKD0DSX/B8rfjdsbgPIxWdsdNmxPlVYNmP8b16CO8to4YPfEaZNRWr98r2ZsGSh/GQNdP0zsTa7rPXbmn6WPoW5YhFmG/ZmYm1HRhJrqG7W5ppn7SKSfw+FwOBzGQRN8umAZjHp62eoCY+Pi5agvndy3hKNiSp9Sr72mqQbVsxanqjs3bgfJDA3W0H0KewHfuzK9JTUAdJMhPiZqjG2iVq4nxWGEwmbetzSSUqIX9eJ0rVr5mKHNGjJo+MSg+bOPsPMzppzCX997/GvqmlBqUKtDSV9/DJq/Wxqhy1Qm7FhJmJ4mnYHiV9UNWLy8HqWTp/UI5GmTS/scz0Do1+eg+dvf9UMCbnJpPZbrJ53I9M9E3U2a5rsFt8yvAmpu6iPmhpN+HZbPZaUNSGtkDofD4XxGOazb8LEXfnVNOebW1qaqzPal2rJhe0/bNlVdgXlTZ6ZeuhPHoBylqFqSDpusdkkVbSmHrtf0arked1Z/OSBvkJ2S/g0OasKkIIUfpLBTVjv3x7T9L2QBMj0stqz7eYjssoxtzNg25mbcNrCp6hvY3nAK6elUWIIQJMFxGZoae8PZM33X0fa+Jagkw9K/GQyWv0w8lZZhHCZiWlkDGsqm0RKjCY1btIXB83/lek1gaYVkE6dhMlICfETp7/oZV4bSpkakk5pmCxozSng3Lr6JUlVBfzW4ySAONYaRfiYQWQljbe0UrK9MlRpyOBwO57PL4SX4NJHQt7SCiT69yqymfO6+ib5saKU1rIqtt8owZekXOjFbK5XprbKrZHWKI8js+fSvBhR2yioXprb3CwkDVgA2oqU5pKFIS5FwAKoagJmL0tuJPdOXoA0fkhkF52/IsgjcjX+h/D1lwPzVIKFT1ngv1pPcmTZxXJ/SqsHynwmw9fWpalFWHYq6NcPruJLl+usXVkJJgjWTstJewcqYSJnIqs1ZdfaSWy5Ob00xnPSzEk7WWaeycj2m1C4dkVJfDodzKJPxjD0kLJa2pMHYM2woZvSTzfSw+7Ns6dkXO3I4aIKPvZBYM62KKamXHCutWTpICdnFV1ehtH59v6UVrMoxE1adyqrF9hb9ZVt1dd+XsE6qqqy3PRlbv2XQEr6hw2o1U+H3rt8yN7XcHxdfDcofUP6kNwwDFt8UOpyFlb2Cbuq8tCMx1PSR7qH8T68YYKeQ1cBWXZ1ZGpkyVX0IjU0/xpSr6zQFu3L9W5h89RSUN1GAxFDzPzUP83zMn9zQp3p1Xxjs+jOSaoNXgfmzU+WSjItvWYKKpjroHWZZx54lpKIX3rgSK29ciPqKuX06xDCGm352HbMWBRwOZyRgQmPP51X/xvYfjGz+9sUORVghALOowUJDNKOfbKaH3Z+NFId6Hg+dg1rCl2qzNVerlqtdUoblrBF7BhVze6v8tAb+hkb/mT0gtcbz9PI0wkoAa1DVu99elACumJcuNTTEoftnL9IbF9b3pK+2di4aF+6Z/n2FaQrSABR+bwlbY5YSPt2dGdNbRlE2Z1lq+5IqWkmX1K1dkHIbDBY/0xp0eD3hG/0PNX2ke1gh4B7+GSsorTXlBrcMd+2DoKIO61eSKFz5ezRU/BilDX8hwRWg+B+i+E+h+EvI31SKPz9r/uudH0obhibUMhno+huMxbMWosHQQ3lueaq9H4OJPVYFXb8w3UnDcD0ZRd9w08/hcLJhfInvjTGhsTew/bOFYzQO58AguFyuQ/ItwtogzV66ROvlamyYf3gzcjc3K1GbvRSUP6D8SW8cQVifBcp+1FUDizakt7FSPBJ2pHv2S5z7CyZ898wnJ1nf0jQjqetvIvn730G//tiHzXDugznLKANumtW3qpzDOaLhQoqzP3Clfw9PDutOG5z9SLahY9JtBI1t0A51Js0BWAHnnp0dWJWB8Ss701i7QxJKe3SAyWb7D9ZDuWovOmtkY3tD3+FdOJwjh2z3IzMOh5MJL+E7oIzcg2g4JXx6SV2/LQ7rU1XDTCxp1cEGagwlfocyxrSzdojGS2gox1954/4tQe0l+xfjpDkTKf0SLUmU/g+GVZ2rtY9dciot2dCwcMYRdD9xjnxYG7i9rUblcPYXh3cJ3yEr+I5M+Jcn53Dg8H6ocQ5H+LORczjABR9nyPCHGudIhAtEzt7An4OcwxUu+DhDhj/oOJ9VuCj8bMKfeZwjicP7OcY7bXAOebThZcj42MH7xnDzj/XYXmYYOmfZnLTDXsFe/AMZ58jg8DmvrJ2vfk0Pdbiqw4mDfXxHev4ejnDBx+EMwHR6UO2bwDky0Dq4LAEaFvYOwG2cbWXkyBQKKZu+IEj5n7n9wDF9wVptHmdONjLPy4E9N8OFjRHKrucsw7+OGAfz+XEgjm8ghhs/e/bQ7dcrGskyb0WWvz3ubFCFDIbrfqTBBR/nkGfRTHpwkPFh5PaNYeVfeiie9SM9B/GwyCY0jMamVeKMDOyiyZbHzDic/QcbJaGcxKL+ocmEYxWbzjMNE2tz6eFUXQlUkjFdaSxJHK77kQgXfAcZfTYM3TInAhnoC4QVmbOvR2PRuf41qVfDGb+Ism3b1/CHSp/wyYwzh7FjZ8dr/Iozpm0kqgQy85eZMY/7S58eN5utrbTKsE9GOvrLP81/ljSz/Y152F/8Qz1/AzFY/g2W/4PBwh/s+hjo/DP6u/6Hkv/9x8+mVQpS2EEKr1egCLS8lrZNEjK2rfWSjSU7kfynMmDSnJ/S+gKKfwvF/2da7jvTDoMNiG2cFYXNnrKWEjCJFU0QbAxFFh771f1nlhayEsSesDMzbwj08U82PR03Y86yOyh90+n8/oHcbiCbTefX6D5Wy58Fa1kepGzOpN68YTZnWYi29+av8d4ZCv2d36Fe3wLtb/S/t1k0HP/6/aGjhUXbjE0jhnP9Mvp7fjD6v75Hjsz0Z96fg+XfYPf3UNDSkJGv7DI2Tt3J2LgGaKJtLA7mzqb+rLkp9SHLRq1aTMtNtI1dP8N1N5ItfYcrXPAdRNiNXNXQ+wXDzDjmG7uZtOnS0m4Lad/MBwZ7mCyZnP5KqaYNtK5dsBsBNrWwcRrhibRcStv0uVyHFf4QYMc3Zb0h/HqKj77a2I2jv5fY1Gxs5g7mnvkFN9wqAXZ8xvytoWNvorD0PB4ofXrcbBvzo+9jnLpuoPzbyB5U9PWY7SGhP8QGir/f80f7DHUcxKHkH8v/Rjqv+n5VV6e26y+Z2iUUJ60bp9gzPtQHuj4GPL60e3/X/1Dyn9Ff/Pr1NRDsZVZLx19T3URhv0e2HjMXsQG3gxT/H2n9xxT/VRT/ubR8SsrmPaS5p+xcMiP0xsA9qUWNakrfLkrfHEpfJaXvCkpfC6UvlbjpCwrp+qmicKdqtrDhcbp+RmluvfQ/d+ukOUHK33S6yBbWn0L5G6D8JSGridqZdH4pvQuvI/ff0PldSPeXcSDx9wa8/wY6P0NhIP8qXcODPZ96z0+v/71pTjBc/4Mx3Ot3fz9/B4MJmcl1vfGz88/uT53B8m+w+3s4MAHGpvZk16d+P7OmJawYThtG9OLUOKrpqdS1jwU2MxSjjE0aMFz3IxQu+A42dNVl+yrq+QK5N72BWEnL7Aukz/70gKyelV5OX7wMdsOsoZu5lB4WOtNouX45PYzIbbjhDwX20DO+IFbSwyGTesM0bRsX0zqpi5F6oI0hwVVviFPLj7L0CjGU9PXHoPlnmI2EPRj1L2OWJp2B4mfzYiymc7XH+duLNA4Flv+6gDSKVP2FxV4ydAlog1frD/Y+4zYPcH0MKX8zr7e9ZRjX58VTyDu9QPZ9IPFuMqOAakmbvm0XRdBE6WM5SNs2NtIvvdVpmQmyKRVb6frZmt43SNfPJ3T9bKL80MNj1v+gw8O5v3RBPOj9N9zzM4D/gZ5PjOGen+Gf3yGwj/lzIJ6/A8EEzmQ618tTU3trZJ7/wfJvOM9PI/01OWHhV9L1WUVCjM3Vzj5M+gh2ypst9KBkpcL6NKDsI6KH4bqnOZKaFHHBdxBhF7T2VaWXnhi/7tJtp9jFrpes6KUtY5ga0KH3B7sQmTGRN5NeyD0v8PQNzB4g+g3e0xZrBMIfDBYnu5l6wmefsyNIZvjMjA/L7ZT2Cnpo6bAXShN756YZVvoGyz96OLO8Zx+L00hkNpDpX7761HSDxk/nqucFTcbejcOZYm2/MMD1MdjxDXj9D5V9vD7ZC5eJb2OV0X6hv/QN4f4b7Poe1vU7BIZ7fgbzP+DziRju+dnf53dY+TOE868xjOfvgNCDiZWmGmfJZOE30jZWwjWU+2N/X3+sBJSFyT42WRs7VhzaJ48ps5ZQnjGhljVfhut+BMIF3wGFjeHT1zYscmHq1JTVlJfSBc0eA+S2cRzd6xNQU+3ucddt0QbdP5MAZ6eX9zRVdWF9/eWYcrGbbvCvorT+q1hB2zT3jV+j8L82SPgnk52QXjba0JjNqofogaiXDLGvtQFJPwT1YvbBYNVC7EbVw9+j9IlBX8z6A4lVvxi/EPc6fUYojRRcn+oO3fo8OOiYykhkso9fNp0ta5eiH99A8esP+PX1dJanUTCs6qsutf1wYSj5y16aunsNnfx9En3DoHxMeuFAM4TrZ7Dre8Tvryzuwz0/A/nXr+8pF9MKEyC0nHn/Dvf87O/zu8/5M9Tnx/6ClB5rD2eEiTz2fDLOlT5Q/g3r+TkITEzOYCWglD/smmDXyo203NPGLp1GYw2F/tGgpX+47kcoXPAdQqypY2qErmhCVZvpYbgcVVezp2F/3EBWklrsh5Xrz0UFPVEvnvJN1Nz7XHorC/8ZCv8Xg4T/G7LjU4t9yBSAe5ogXEUPj6voC5HEprYO3DLIF+DFV2d/6O8LepWJsSrS2H5Gf7jpX7D9pW8LiTVjtZOO/rLS27xlon8tT2HuFAer7phMy+XpKoOhxs+qeVi7nfmUBmP1iw7zp3e66FMVdJAZ6vEZYVV8mfSX/4PB8t9Ywsse5ksN8ZO2SVUpUt4OlG8DxT9Q+IMx2PUzGPuSv4PdX4O5Zzs/e3P9ZfPP7guWh6z60Fi9yRjK+Rko/qH4H4i9Pb/Zjm9fnx9DZWj5z57BhWS9z2eVPurrmnIxf3Zuz7aLb3GjosmNNRvddH846XiclH9OCtdG7rqZNRME815ff/2RtVNEWhAb23hq1SUE+yBhH0OszWDFjNQ2hn79MgE3XHcjeseWfb2ODiX4TBsHEdbLr4pumh6aalA9azE2sKdBmj32oU+SqemGE6z335Ky5T3r/aGFQZ9imWEzRiL8/mC9FmtZN7U0NQtrUEU3GEvHRnqkzF76eYp7E7mwhvJRiruvKGM3Wp+0MTL2GQjWdm4JPfD7YPCvN0rWqaGvvVT6+pak9UnHYGk0uGuNstOik9VU3VJLD5h9jZ+eftmOW3vQsnBpmcVjfFkPln/MnU5vTzscLT0Z8WsvuiUkNjPCZmj5W5Y9XYyBjo8VIrFhF/qkj8Rw5rEz+sv/QeNPp53BvC+spvMxv28cmdcIa7OU2bC/v/gHC3+w9DH2OEeG8Adjr/PXmHa6bgZyZ+yRtiznZ6+uv4HOL/1mcxvs/AwUP2Mg/3ukjzHE8zsS1y9jjzQY3CfNMdP146B1ObUhCwJdBLfUfp2Ofwcd/410/L2R7/FsZxie7ym/c9NFDESW94/2DjAE0lRTTfmXUkSDP9+XDBi/Tn/vJ4FO3lI6ecYgaqorSZD1c4z9hT0MdwbrCc8Os54usHn9fQ0dJnDBxzkoCPQ0ZQ+EMlISQ7uJWAP2oaM/rFn7jJ4i+/TLgTX+zXJfH7Kwl4JRmHE4g6ELuv6um8HcP7uw0i4Opxdd9C6srOwjqA9HeJUu5zChtzpiSDbOSb8ZpNsoHU5tNFgJBSugOOQ6a3A4hyVZnhV9jMNJwUoYl61dS2Kv4YgQewwu+DhHJOoKATfVPImqJW9g7dqU1dJyXbUbvZ1S9tYOHEzosXYjrDpqYZZqIg6HMxDZ7l9mHM7QUDcswsypbIzMeUeE2GPwKl0OZ7/DbrFQapHD4YwArPOANbXI4XCGBBd8HM5nlr1rF8nhHHh4qRyHM1JwwcfhcIYIF4ic/QkXdxzO/uSgCj5jt+4jpVEkh/PZhotCzlDg4o7DOdAcEiV82jg3yD4GDofDOZLggvCzCRd4HM7B5pDopbuSDTlePgaT2OBQHA7nCIa9+IdqnMMTfi45nEMRPiwLh8M5RMkmHIzGempyDh7ZzgkzDodzKHJoCD424SCHw+HsFWxYjmyCI5tx9o5seZhpHA7ncOKQKeFrKp2MaWxGcw6HwxlxsgmWoRibMP5QhaUtW5pHwjgczpHGITMsS89EzlkmcOZwOBwOh8Ph7DuHhOBjc9YtXVKG5ZU38qFZOBwOh8PhcEaYQ6NKd1wZSpsacRjNac/hcDgcDodz2MB76XI4HA6Hw+Ec4XDBx+FwOBwOh3OEc0gIvoljyoGG7byjBofD4XA4HM5+4KAKPjaX7tq1a7GkqhQ1965Mb+VwOBwOh8PhjCSHzLAsHA6Hw+FwOJz9A2/Dx+FwOBwOh3OEwwUfh8PhcDgczhEOF3wHADaLyIK1a7X2igumC+mtHA6Hw+FwOAcG3obvADB9wVrMaKzGzEUb0ls4HA6Hw+FwDhy8hO8AMKa8CXVrNqbXOBwOh8PhcA4sB13wzVmWqurULbPKk5WO9bgvm5PemmLSnGVYNmeS9qvvw9YZbH7eZWuXYc6k3vCybdvX8DkcDofD4XAOFw6q4GNCqqphIaZOndpj81b01jAzMTYXve4LG6qwdsH0tGuK0qolWDK5DtWVlaisrgGq5qcE3cY1qGsqxeRpE9N7AhOnTUZpUx30wrZhhc/hcDgcDodzmHDwq3QrpmC6sKeAYh0dplQ09RmQeeW9NWjK3L+pBtWzFqeWN25P/RKqugFr6ppQOnlaegswbXIp6pcv1mb0GG74Q4XFU1bagO28RpfD4XA4HM5B4qB32mClfGymDY36hZg6b4W2yKpfly6pQtqlDzXVlVi0QU35LVve4ycTJrZuqZ2C9ZU3YuXE2RReGZbT8gom+EYg/MFg1dVVpfVYmI6Tw+FwOBwO52Bw0Ev4Niya2VOlWlM+t7dKdeN2NKBJE1+6u25MjA0FVV2B9fUVmHIxrYwrQ2n9+l7hNQLhD8aimVNRWbkeU2qX8mpgDofD4XA4B41Dqpcuq4LVSYm1UlRdzdTavrNyfT0qSPFdPKW8T/XtSIU/GCyext7D4nA4HA6HwzngHFTBl9lDV+sccWOvKFsxL13qZ9gns1PFYKgr5mlhzC3v7ayhMxLhczgcDofD4Rzq8IGXDwBzli0Dbpo1YlXFHA6Hw+FwOHvDIVWle6SyvaHv8DAcDofD4XA4BxIu+A4AbLgXVC3BsrV8Ll0Oh8PhcDgHHl6ly+FwOBwOh3OEw0v4OBwOh8PhcI5wuODjcDgcDofDOcLhgu8gwmbyGMpwMNrwNcvmYFKWKeg4vQjTF+xTPrFZV1j7Sv1cLJszKe0yPIZ6fjkcDofD2d9wwXcQ0WcZqa7ZfyMzT18wcgJmb2FT2y0wCClmmTOOsPT1uJNYO9Bo0+8tqULDwt4ZV2Yu2pB2HR5DOb8H8/xwOBwO57MDF3yHAWyKtqkzF2HDYTYf7+ylc1FeU90jpJjwqZo/O+2aEjtzy2tQXVmJyspq1KDqwJeETRyDctRjfe943xwOh8PhHHFwwXcIM5QqwczZSvRhX3S/cyuA0qolvftkhDNQCRsLe8H0vqV0Q50TmJWclZUCDdt7pzfZuKYOTaVlmC4ImvuUiibU3LRYE7KqugGLb6pBU8WMvZp32Jj+WnawGQy3BLGPfzKWdp1U/vSu702V8lDPD4NX6XM4HA5nuHDBdwgzWJUgEw1VDQt7StCYzVuRKgXU/S6sB5oMpWxT563Q3BlaCRt6/S9s2LOErWLuDDRWp6o7tRK6Ic49zOYQvpf2r5i7VBNwetUpau7FClZSefEUVKABuh5k7eiWMneUomxcattgZKa/kh2sgYGOTxdctRRnKaVkbm1tj+jSRR3bZ8r63qpeFvzcpbM14SUIw6uGHcr54XA4HA5npOCC73CnYkqfUqeh0lPCdm9vXSYbILopHZ4uaOoX9k4Jt3F7A1A+ZsglTUzUVC5sQNWSWtTWzgUWVvZtH9fUiC0TZ2sdJmqXTEZddTXqhticMVv6jQx2fLrgqqymbainpPUKO02QEmwfXUAzVq7vKygPFIdrlT6Hw+FwDh244DuMYYKkuqa8t3Sqn2rfrGht10o1MaaXbKVKu8oxZoRmgWMlbCmdx9roLQQltG8aS6uwRBN6TGzNxOLe2t/B0dLfW0K4ByNwfJm9d7NVGXM4HA6HczjABd9hjl5SxaymfO7QRd/G7SSXmlCTrq7ttZk9JXrDgYmlGayErfpGrcSMVfHeyErT9DZ6Wxq1/YwliJg4DZNLm9C4JbW6t0wcU55eIkbg+GbPZ1XQvdWtmVXGHA6Hw+EcLnDBdwSxJkt96JbGJpROnpZe64UJsPX1pUNuk7fXaIKrFJOnGYrTxpVpP6xUTt2wSGu/VjGjt9fuxVdXobR++ZAEGfNf11SBGbNT4bMOE0uqSrVlxkSsHNbxsSphY6cTrQ2ioYRvIjaC1XBXTEmFr7VB3IcSwP7Oj5FUx5wF+1R1z+FwOBwOg8+le5BgbeRmL10Cg0ZJUb+wp+E+e9HvlXtTDapnpXq9Gumzn8E/Y48w0u56+sqWV/a0Y2OiqnZGY9Y4sqF3xDAGz0rcjIJuoLQNRm9HD6CUHfvyMixJp4+xkWTZHnmcEUcqjDIsr0yVRBrRjtcg4moW1qBqBnrDnzi7N37WDrC6EXPnp9yzxs3IcoyD5YHW+YSSUb+w91xwOBwOh7M3cMHH4RzisN7CrPSStYXMFKUcDofD4QwFXqXL4RyisNJH1mlkSVUDF3scDofDGRa8hI/D4XA4HA7nCIcLPg6Hw+FwDOzatSu9lJ2SkpL0Eodz+MCrdDkcDofD4XCOcLjg43A4HA6HwznC4YKPw+FwOBwO5wiHCz4Oh8PhcDicIxwu+DgcDofD4XCOcLjgO8iwWRb0yfmZLZjed/osNstCj/uyOemtKdiAvMvmTNJ+9X3YOiM1htuy1Ly1abJt29fwB4PN1MGObcH06Vigh58RN6NP/Ibpw9gsF2sXzOnJn95wBk7/pP0w/ZiWhv0UNofD4XA4BwIu+A4iTEhVNSw0TOw/tc/UWdqUWuh1X9hQRSJoeto1RWnVEiyZXIfqykpUVtcAVfNTgmjjGtQ19Z3LduK0yShtqsOa1PSwwwt/iFTMnYHG6kotfM27YW5bdvxT1qfctPjrKzB36exeYVVRpU3tps25q4VTjRo6prJxKeds6V9yy8jODcyEK4fD4XA4hztc8B1sKqZknRSfTdY/paIJNfeuTG8BVt5bg6bM/Y3z527cjob0ZlXdgDV1qYn5mYBiwmXa5FLUL0/tO9zwh0r9wlk9c+du3E6+y8f0CLoNi2b2Ebgr15OyM0Jxs+RtaWyigJZjcVqolo+ZOPT0DxOWj4tmkqCcuWhI8wdzOBwOh3MowgXfQYQJnuqacsytrU1VSRpL1yaOQTlKUbUk7UZWu6SKtpSD9E4vDdt7hIiqrsC8qTN7Bdbi5agvLYNWIDZxGiaX1mO9ro9GIPzhok8d1hP/3Iq0yxDoN/0VfdN/gFApjzLNiARBMx0Fqmb9oZB/ZjqCJtpHTshyOBwO57MFF3wHGSb69CrJmvK5vaJPK01rQk26OrTXhi64mEBbX1+BKayWc1wZSuvX987HOgLhD5fZ86tACeiJu5LV3Q6VftM/9YClXydT3GWD7THQXuxGNN6MIok7ZhwOh8PhjARc8B1CsCpYnZRYK+3T5m1fYNWkFaT4Lp5S3qf6c6TC31dYlWxZKStATNXTsvVb9qKE70Cmf/b9NVj/8p9RIQfTW9IwoUfGZFlKmvUuMYylfbKqaKbTd09W4pey/khHlcFgMpLD4XA4nBRc8B0k9F6senUkM61zxI29omzFvHSpn2GfzE4Vg6GumKeFMbe8t7OGzkiEv69MxErcuJDE6NxUlWxt7Vw0LqxJuw6NA5X+xq25iEfOwJVfSW/Yg0z5Zlxm6O5Cr3BTaZ0std63KthovWieUoscDofD4ewlgsvl4m8RDmcAPv+9/2Hhdz/E/Wf8DkvVWHor0efOyRR5zLm3zC5VDtiLJPR6VmiRre0ZQoqetnvG+Az+U/Tnm8Ph7C27du1KL2WnpKQkvcThHD7wEj4OJ4PR3rD2a8/9Gx6oX435VU/j/jPnYYncDrNg00yjX42VEmMC3V666Uv7TKa+43A4HA5nL+AlfJy9RmtvVzsX/ba4q1+IqfNWpFcOPVj6//76PEzsVJGwqHDKKZPNVihmG9qe/A2+8ufHIcuCZopJgUrmIqHnEm0IywlElLgemkHGpZb0/4IokylQZFA4gKKItEyyz6RClFSYTSJMkoRkMg45maBfQTOTmbZbaD9W7cugO5TFouqqb4/SPcYwxCSHw+kDL+HjHIlwwcf5TBKULCjtjiDkVBB2OOH1WxAwxaG6AziRBN0bSRJcUQcckRjiUi7MVhtyxEa0KwoJw6MhJpp7q1ozYNtFUYSqyiTRSOkRTPSpqkT/2HaRBJ9M+wCSxIScTIKQLMna7bEwRZjNtC/Rtx1fKmwOh8PhcPYWXqXL+Wxi7kBLngOimou47EerqQ2loQ4gmsCGzgKYEhZYzAKSHhsEawhJtKMDDgiiC0J8JyxJM2Q1iUg0hLCNwqBfKe5F0mlCNB6EavFAlEMUURTBeAkkcxwlkkTiLoG4w07/TTBZgrAjACEswS7FEI06EXM7IJvySVTG6e5UIQpMDCZI+FlJK1ohKzFQsgi9X2+vaQIzbRwOh8PhGOGCj/OZZGzYAVNHDJFEK+wWLzy2PGzxkA4MWNDt6NT20UvXWKma0VjpHRCGaLJAcRagJN6CZF4JHGoIarCbRKEXals3ugttiMVFmC0S4oqCbrMNUbMTUxQKPxFA0DwJu2MuCskHl0lCfrEPXsg4OdkIOSYhGSdRmbBRfBZNMCqCnwQfCUZZr05OpXHPHr0cDofD4fSFCz7OIQubK3fZnP0zl+0ucwyyzwnFJELcrSIY7QYigCQL8Mi9VaeCQfRBTIk9SZKgSAokkwJL0oNdigUF4W50wQ8xTKJRsMFZUAbrrihKfZMgfeHb+Ouzb+Dl9WtRt+JWfO/rRcjz5iLZvB3wumAefwluve9tvPTSI9iw5iH8/odnQ45IsNsFJNQuKGqELAE1YYLF7EU0kaQUsarhVPUv+9UtdUvz25rD4XA4feFvBs5+ZX+KtuEQcdlRQMKuIOKEFQ54pDiQZwOsCmJWizYNWubNwUrR2HRoTFcpJhlRUwGcySAsVivMCTtiLhVe2k8iYdgqb4UgTkSD43T8+8bPYevis3DSCcfhnPN+gl89GkS71IY80wSYpZPw37+cj3fum4XKY07GhNN+gMseeAkOmxORRCdASbI5RdgstBB3IBqwwebwpRJEGEv4dONwOBwOJxMu+DifTeRSxPyt2OHqRMjehi5RxNjWYwAhgTxzvKeETxdQ7FdhHTZkWfsNSl5Yu4Kwm5qBWD6aY+0ocXjQmTsJo+K7aZ8oHOYQJF8zinxt2LIygjL3eCQFCQ0Utq1DhcvTAnNBGcryvXjrxfcg5Y9HQGiFvYtuSyUJq91J8boQDtsQjXVDkjq0Uj/jHLs6XOhxOBwOZyC44DvIZM62sWB6SmjosBKyHvdlc9JbU0yas0wrPWO/+j56aZowaQ6WrV2GOZN6w8u2bV/DHwzdD5strbRqSW8cGTNhZB7/9LTQykZq36Gnn+2/YPp0LDCEr/sVEptRXHAWrl/xMJ559328/8pKPLJqIf725UvQ1eyBJLBhUbRdNXTBl2SiDypyLN3wxc2YufJ9vPzuq4g8V49FT8/BBQERmyZMxOeCuejwk8f8ciSLbCQgnYhH2mm9HaOifgRyx6GpoxlmXwnMrjikboqjbTNsUgRO33iIZhNpPi/ZsVi+bB0ee/TvcDgBk6mNjHXKYLdurwkkJPXlVNUuh8PhcDi9cMF3EGGiqKphYZ+J/+et6FUZTMzMRa/7woaqPQQTE1PalGyVlaisrgGq5qdEzcY1qGsqxeRpE9N7AhOnTUZpU+8Ua8MKfxA2LJqZCrMeaKqp7onDOD4fE2ST63rdqmuaMHfp7LRrX9i+qbyaiUUbUnk0lPRXzJ2BxurKnvD1uXdPai9FYs53ccnmpzDtjGNwwRdnYOpFs/DdR5+GmJfqtMEwij6ZRJ9ekhYJF+Pbz7+D0x6agTPHF8NcVYF7Hzoff3v2UpS3b0PyB7ej/f0Xse3X8+DbYcWfHn8F/3n3CaxY90+c7DZhwtf/jsDHj2PV/5uCUFTAb5/fhcUff4oXnvwvTt61UesBLNhiUM0JhCJRKHEJPjvgsuZAkQN9SvT0ziR6qSSHw+FwOJlwwXewqZiStVSLDQ48paIJNff2zq278t4aNGXu31SD6lmLU8sbt6d+CVXdgDV1TSidPC29BZg2uRT1yxdjA4mF4YY/XFhp4+TSeixf3DvB78bFy1FfOnkPQdkj9gxicbD0s7mKGfULZ/UIxI3bG4DyMZhE7m8VNSG2IwdS5fH4RUcuuj0y/Llt8HokJCIebX9GZlWpLqxsJ3wPFa5n8cgD7yNmi2C0z4HHb/sX6vJPxQWlcWz93w04+qSJOO5P/0C3vAsLSBBeMGUGpp9wA9pbI9h03zXIP/YyTJv/EELybvzpihJcfcZROOu8n2FrwTGwO63wR9phcm/F1TMvxDe/cR1yrSci0umD1ZIao4/BxR6Hw+FwhgIXfAcRVgpWXVOOubW1qSpHY+nUxDEoRymqlqTdyGqXVNGWCozpLbQDGrZrAo6Zqq7ATEMJWEpAlaUEUFpgrdf10QiEPyzGlaG0qRFb0qsMFn5jUynKxqU3EKyEsaoUfYSdxlDT3x9BJ3avuRQ/vvVSVK15CbWr78CzP7sSUsgMl5UJKhOlR+/5SsLKJMFiscFksUIQLRBGl6K46TnstI2BL3c0dgTCODMaxwu7CnFqWQnEQAICrIiGmB8zOkMi1PAubcaMTdYieAQniTkg0hGBhAC5jUJXDHA4YtgRbEUyIsDSTakI5WKMN4F4UsFrO9+D4IoiwIb3yxiDj5kgMCGfMiZUB7LB4AKSw+Fwjiy44DvI6FWfzGrK5/aKvo3b0YAm1KSrI402VMHFBNT6+gpMYbWYTGDVr8cK/WU/AuEPiy2NaCIxaoSV2pWVNqHRoAJZdXDlwnoSdkv7lvwNM/3HukgYtYp491/H4Zf/9yOc8/l7sfzL16H2X99De6ADLIQeozwTlFQbPlVOmfnTBnQWfxPlgSaEd+6A2ZaDl4ssONX5CXaE4ohFu2DPdyCOTnRE/DCbBBSZSUxKKpJqVGvPJzlKkVTy0RaMwmYKoMhphU0hSWiKo1tpAuuYGwl9il2h/8/eeQDYUdWL+5ty5/a6fTeVXkVA0ECkqaBgRYwKiF0B9a/vaVRsz6cCKlaUJgiigBq69F5DaCqd0EnZZPveXqb+f3N3b3KzJhRF5Zn5wuHeO3PanLm78+05M+dsg+M59KY9JstlkvF+/xBekBcStpcicy9FCgMCAgIC/u8QCN+rCH8ItsWUrA2su+fs7+XqO5exQIzv4IVzNugle6XyfzGeWbXhsHILb/mpLB1cwDePWd8dd/AJi1nQdo9hC++q42jePtgmff9o/VcXVGraAH3eVtz9/C3UOq7isZ94JN1RBrbOIN6Fp244XOpLnyKyp8rryJN3cfN4lHctfi2JXIYOR+XwY77NzkNFlt4+TjJqSP4WhMvEs1ksz8YrNUjqOhgO0TCUqiF0I0s8laPhldCrDWJSjhpxSRoJKtEtGLC24JsX/Ibbl3+PXfMii+lJrMradfXaVGjWd/q1vVevte2l0VLegICAgID/6wTC92/Cv8ds6qnT9aH5cMTX1kvZVcdN9/q1xZn5UMKL4cuSn8fiOX8rUq9E/i+G34O5hEUbzf+0I09iZdsTvIvnTN0v6A8fz2Rq+NuXvlvWPcn8j9S/FN2FJZf+kd/dfSo33vckt991G9e8bSmf+t7jDC73H6+dwpc+f7JlVUSpGZrz8ykM8DzHf+T/Mbn/BVz20GPcdsE5fOmNV/LFT36LRwk1ewNDEtMoT2CXVEohnXRfjordmFo313QJqy6x0vM4ZZ28P1lzR4aqKfstl4Jept9ejZkq85dHXJThA3jboWl69ddQjYpIvggvJHb+PlHA6U8vQMv3/POxkXPyEnIICAgICHiVoCQSieD3dsBmRz2qkZqoMRGxiZo6PXEL09ySNdUVJLIGrqM3pU2Vnw5f+Jr65E71lPnCVJZ921shVoYnsUJdNLxRdDWGW+4nKTLoJZM4pSp2cj6G9QRxO8SQaRKKRwm7GhpxLGsYRe9BCY3SU0rwjFIkFY3guTqlbAe9hSpKZZT5/3UvJ370On63+7n8qaNB3hnBqISax7EpmlIndZ05NOtv94PriUROHdVLw89H0gUEBAQE/N8kEL6AzRLD0og0CqyNDZCMTVItR7EViy6tRtVwcBvGlNxNC5+PL4C+8vjCpDpx0oQp6Gsox0Ti7CRWfoTe9BwGWUlEPofrHpoSp+FM4EZDuEmDxkSRqB5DJ4quiySWoBw2SNDJaKKGXikT8qLyWSeT/THfXbYN3atu4EeLTuYO16Q0YTGbFJPhWrNOfy9+D99LFb52afSPffqdhOBXR0BAQMD/FQLhC3jZ+A9XnHDLYhZMf/4blm04hcqrEcVMYIWtpsxo4RxV82m6K6CloO7EaNhT+5o9Ypo/mfH0QxutbTmb2kiKZLyIZ+1A3XsMtRqiKxdhfCJGOF2nUqrSGU/gGlHGq5PiRxaKyGMoFCYd0hkpTdKvGVQSHViFMmXdJO5quLLf00U0rRIdRoZV1gRaQ2fATDJqKOiRGK49Pn0km6YlZ63Xlrg1XzfhehtIoOc//etr3YaRp/JrbQt+fQQEBAT8XyAQvoDNkrpSxtZi9CkhSpMFMsxldc9KqHXSVSvRMKbkzvPlToK/hq7tTi2r5n8OexqhVIai2SBeSNIIDZLVk6wNl4jXJf8GhDuyeLW8pEsTUi1SkraGQ0VkLuqaVPVeEjWXglolJfWJRhLUCg61pCJSGJK0RZJmSPZ340UgVFyNY0jlpRxtWsZeCL+eLdlr0Tymlyl8Pu3St6Hw+UyLpIRNZBsQEBAQ8G8meGgjYLMkLnYSU7LUrAK2MYfRjhUkC6IrtUkRMoNirIO44mCrccyIje6ESdZE+JI6Rs2jFFIJ12vyHkqxUexEB41Gg0g5IfIXIhKPoYj1+UO3McVEF9mr+LKFJrKn09lQ6S4WqRmOVMakaCUI5aVSORvLf6hDxC8Z0dEkbaKxGlOrE9dEJNMa3bUe/JXUKrqC4dQxjTpWpYGreVQadnN1Dr83sRyK4dgmHYpopghnOZRGbbiEleZEfn83fyuMUx8C2QsICAh49RIIX8BmiafkMGuDlGwdPT4mJpXCUNLNXjY9VKWnNMQQYVyRNqVoQKPEWHZ3MhWbuQOz0TWL0bJFSFMxMEUM5YcpEhPPqqLp0WYZM3vXfPx1eH1heq47zJjIY7w0TnfJZl46x+qsij4aJaUmSKYl/3yKyUSccclmy/EJdtvmg0TLDitTK9BECqUAcmoMS8QvTUjyNUgnPUJKRAQvRLo6ga538nxJJE+k0CgMoWZnURFZ9HvyNvbvn0WrZ7EpiwEBAQEB/3IC4XsV46+1+1KmG2lO73L+sc0lwwLW47dLawqXmdQUiwwiRug03Cp2xUFxYxDNE3aTxOwQGP4wbhVVBAx1C+Yd+gGu+ONXscbiOGUXLzGAUc9jStSMMk7F6GZWMomthKaGU6fdxp/Tr/3VcUXAxgwsKb8obph3NFY5K4nWSkSNOAlVo7sxGyM6Tr0wi89c/hQXXfoN1jx6CbVumFOPYopoxisqtXSdcD6NrddEJUuk7SS1WpEOkdCK1KNcKkK8Dybk0BJRGhODWJFUm+Jt+O+fReB5AQEBAf9eAuF7FdNahcNf9P/fxSEn3sr5x06tS/ufRLhYojY7Q089i6LGiUUtxjom6BUxmtQtRqI2SX9pM2K4sSKFkMPYiEdGD5HmeeIpnahqUlMVjJDWlLtaaYyRumhTpdwso9mjNf3qy54vgc3P8t6NR4k1PGbV0hh6J6orP4yZMLVchUm1zNPac7jMAzvNwYk1PBeepJDw0J43KFkONTNGT6LAkBhgb1ecsqNiSR21itQnqRIWqfNEWN2w2KjtEfOd1S5jRCJETamv/OhvLMxkn//5A3+47VFu+vPtPHniPrw+2tHc7jUfYGkPL2J0stu/JdAPrvMicQMCAgICXnEC4fsP4NQj9mO/I07d6ITFARvHSG6F8uwQIdYSZYB63IQGPBftIuOW0bR+SrkYveEqkXoIPVqm3JGjX28QbtRwnDiqOY7ZMQ/NdJBNdEucihEjpthSgv+jpSJeJJIjhuep4jwSFBErRRORrJCxRlkbK1D2xrHCGfrXvIaJ8SL+Ur5KpJewVSOaupdDDnoPR7zvF9RiKeLZNLM1h1g6yqCUqVWKrBgt482LM9dKsSY6ht7I8mzVn9zZlLrUSMYbDLox+RwiVJ4g4TVE7jb+r529v307397hRn50yOvZ/w3/xS+3PJ6ffPU103tfmOZk1W1BFykOCAgICPj3EQjfvxnlkBPXD9tKeDm9aS9lyNfvoVsX5/xjp7dOMTXkeQgntvZLaC1d1sp78QIYaFsN46WuZNE8rhOPXbeayPpyzt9gTdwN6ifhkOlhaWW7YzlfPre3x1TcE9fFeWlsu8GKJq2yJ+YOojuzecujd3PJ/Rcx/OsHWHrp9/g0ObyiRjHm8UZ3gkO+dQu/+PNyrrnx95QWz+LmR8ZwtpuDt/OHOOvCS/jcwHN0KlEstZeRfb/BNZefwVHb+Y/STs3bty6I7vk9fM05/ST4ktifew9fumIp1zywhvvvuJTzbvsKP/rALuTHqjQsk+2/cDqjN/6Wpdf9mht+8WEaIxMYboKH4ltS1RUuOessrr3lQf649GLuPOcyzl8+yg8+3EW+mCSR0lnQn+I9J1zPWdfeyfU3XEz+km8wd/4bGK5qUhu/Rn8bfMrlEOXkIXzxLb388efX8PDwCLH87fzie8t48k2H8cO+TDNei7NvuI9L/viZ6U9TbHDsEmzLmd4TEBAQEPDvIBC+fyO+FN2yeA5Ljt5/3cL/R5y6fHrvi/NiQ76+IC3mpHV5n7Ry0d8I24LFh7Nqunw/n9batK28T1oGg0uOXpfHy5pfb8EiZl+wfzOPqXKOZsngALO3nNrtS+XCO9cfux9v8XnHNO9F3PaJ0ziyuZbaN5uS5gvg4QsGpa2+xlUvoydzweLTm3Xw899fClh0+glNYewZ3YZPLrmKt/3oMN60y5vp/chr+coVO/OZ8w+np9shPjyI8tmlHB65ku/sO4tF+3+A5E+e47XbligtX0nor1fxsD6LhR/4EKurc4iWxnjbggHCKy7j949MzeHXCr5KNVFFNkX2/Hn93IjCys8ewKHP/Ib37NHJu7Z9H2986//jq797kI5Qljij/Pn0w5j95o/zvXMHiFQNtD6XRKhOSF8hVjbERz52Em/abws+vfBQ3nbKTXRc+TG+8Nsy85KT1IZsYp+7gu/xQz6x3wIOfu+xvGP4HZz5fpVsOio12vi/Fh17vZ6tTBHhB2uMx+dhb/9Jlpwxh4TWgbNw/a8NK7EdDw6Zzfd7aRuK4Ab4nt0eAgICAgL+pQTC92/k4IULRKa+y6nLX/mhWH9y5IW+IJ27fm3eq89dwuCChU3h8dfy9Vl20pHryn9ixUqYM/eVe/hjcAl+8c+sEiFddgGnTa/lO2futs1XXyqPu2r9sV99pxjfNP7wtLf8VL7bdL4TOOGbi+DvaKtlJ+2/voyr72QZc/CLH09uxcFbDHHVtQWolvCyBnf+5ocsi2/BW3piaNnX8bF3bMdV55zJ2AjNJ1u1+iArRO5C0SiNSo2rbrgObf5uHJCsUMwcwm59Dvcsux4jkmwW15Q9V3RvWvx8Wr188WqI+c8tYO079+Cj5Q7ys6qYXWtIRqVu4RAdVidRJ0SITirGAzwXjxAuwyrW0lvWiWlzqXlPkLYhn3wjZ37+dRz27fPZUQtRcG1yqQN4124Gv/zTFXRVHIwJkyuvOZ+xg47kjcpIU+426NuTU257NrZjosY9bEPnruqV3LvFUTz+wC386aK3c/d7v8Ttqzpo1As4ksANV9C9hznh0Ndz1PvPkHp0y7HZcoxTPYVN5LD9Q28ed/PYp0JAQEBAwL+WQPj+TfjCNXcOrFwxbUGvNNvOFbUZYNHpt6wbzrzl9EWyZUFTeF4NtIZt19XPHz+egS+FS6TOC+T/320Z4yuA/cY9CA+fywrm0zMwD0uEaJfROnco/WzdFcHaYR+6Q1fy0EiRuMSPp1M4k3NJh+vMFhmzY2WeuOBCBuftwrxtquRmb82esyNcc9YqCrLPsxxMX6VEfkLiN7qYT8gyiZgmmmsxqqk8fP/r+Nr3Z/G5O29h2fVXcOWnj5BGyZEKQSlsSNo0I3YBJTSLfqlpqaag+X5qWMSUp0S4+lDDc/nwV7/Bcz/7JE9ZW/GEWiTvVMjvuDvdc9fwmR8Mcdafb+D2uy/l8S98j86ObnaS711TQH0Rbf3zn6ZAwVN1kbgG0WiWbfg4V5y9Cz9/95Hyx8kifmLOI4lFX72DpGdQmwwTNrcnFm1QpMCfR56hWIpj1qvN/JtB/jWtb6qU9ds3El6MjcVdv81pBqTNp8KGtKf1Q0BAQMDmRiB8/2ZavV2vOE+sYCX+EOj6IdNW+Gf0KP49HNPstVs/XOwPuc7EH/ZdtPKk5nD06SdMDTe/EnQ/+ijlzAfpKDzM5KqnMZQ4j3ZG2TddYjASI17t4sHB+1BqEO2Yz+TKIgv3ahArpsjHbYyYTbgS4sorGrz77WE6P/U6Jn91FM/rO+AUurBdj4ghQhSL4qguroifKp9tEapiqcb2NQ3vKXj41IP59Me+wGt2/QXnvPcj3PGLQ6lMjtAojaBaloiije4WUfQOTFdFT4Qo2yG0Yojqlmsx33UU30nfy+LrxomNDUm5sENja6zlN7M6vwW/+chOvHPfN/CO/fZknzcOsNv+x3DCc+Hmk8J+8PGfz9VVDUMPEZM6JiJRhp65jUJ+R678n49x5vNLpU4GlsjlW9Mm95ZL1PUJ1IjFZP5BqspraDRgbqRMOBEhFuucynia5hQ1M3qNN7bt7xGxVj4z8wsELyAgIGBDAuH7N+F5y7l56SADiz78Mh9CeGl43lXcuWxg3T15fy/+cOzA3gdMf3rl8IecZw+s7+Fsrs87o4fPv8fx9EUrOelrV3P1105i2YLFm5xX76Vw8AmLWbDsgqbwFh5YybK1ERZ97i0kkwl6cfnI537ELuUnuef+1RRWnMlY7bt85n1b8Wx+Jd3v/hwXHLgLgzmFiqtRl3Omlu7ktouvofbms/lBejk3/DnFmP0Ydm4MzYj6syzjujZaOCRy5VGsV6lLPTqzvawxGtRjWebYfTz45M0Qu4znfiwSWBwhNtCB1bBFwyISXMLqBCMTKpZIZKNhNYeTk7pFPHsCF5zYxds/dRyKAentLHKFDIOpInP0e/jzPWPs/T9HUXZCxJWMyJgJxVGy1fRUgwituQL9V1/6wppORMSv786l/LSwil0P+xBvSG9JvLvOp477DoW7zuHsu8ZIRrpx47PoYxbfWfJHlj75PXYsOjRSw1jl/EYlrH1b+76/R85avXmKVHwqaM3g/0rzxGQ3lV97uQEBAQGbE8Fauv9m/B6s0xeJ+UzjPyDRenDDf7q0bdcUy05a9+DEi+33+Zs40/v9IeVjzpt6oKF1j1vzIZLDV3H0kadtMMXLBnnMyH9TtOclBXH67AvY/2vPNMvce+nUMU49tLJe8pactIRFh9NM88TBJzT3td+D14q/wX15L8Cmjt0nYzisNrfmgkvPZpst5pN6/n5K0Xv45Lt/x0hhFLXbYkg7lBvPP46UdxelIfjCLS6Xv6vKvod9ncmuHNWRMXLulhxz+YUsXH4cH/zeA1RKzxOqQTXdjWGJ1HlVHN0loYmRaRHKdRGVUgOnYxt+f+GJbJHRiNW2pZJ+nh2evYu3HX0hS9dOktyum5+deAE9vRUsYxb7qvcwVAzz6PIrOP4bp/FAdQ8+9a0/8KGDHqO/cxcKpb/QeLqO88x1LDrhV6yZhD1Dn2DWhYdx2Oy92LF6P5UVSwmtepwDJd9G3R+oljaVZvSDf1+hJiKkNaeNUTC9SbaPvJU3nPr/OOA1W2GUVtL/x3N5449+R2HrXWDkQbr9UxDKsPvRt/L9d6nc/ZMFfP7CJE5inLAVnsp/hly1BMwvz3/ffo9jS8Y2lWZDptY0Xh9/Kr9W8PP1aeU18zUgICBgcyMQvoDNkrKbYHsRsmEvTz3aQTU0JvKShbxFtlFmMpKjM1RgTE/BZJlELo5VyOMvfds7sBUr1hSYFxvnSX0u7zjvdvb59Wy+dm0fs8JVanaIId0iXChjapIgZZCwFCqOhRsKM1fJMFSvk2lUyPcm0AoecX0ShQwj5TzduX6cyTWkUr0MiWnaiV56vBJjbhLTmMS1cmxlqKx085jVCp2RKJVqDOIh2VfGsiySmS4a5dWEZXNafsLXOjnCTg9l7wl2qWV4MuL3NfqapDSDj+KLlTv168DV0lSVIYxyJ+G5UWr5lZi1KN1GDVPPkNfTdFXXNh/ymHfsPfzik3fw291P5veMYCaSIr1ivcJMwWrJW7vwtcvZxsSslWYDFL8H1O/V25jwKc2e1Wa0Gfm15xsQEBCwOaEZhvHt6fcBAZsNml2loeWYSBawQh5JZ4DwxBDd4e0ZyYwScauYTgJVU3E6FXrGbcoxhWg4xehYgbgIxlhvlu6jv8Ul7mV8/3dDPFcIE00VKCf6MRvjpP11emMxPMPAaLhYnoMe1hiQtCpJVGuCvB0lFqlRamQoqVXiIjJ514RYFxOmqFg0hFksitp4hKmT1hukdBHFvEK1u4RRi+M00sS9BkVNoZcGBg5WxV9Nw6LL6GVNvoQXqqE5Y3Qqs3k60UC3/Kdp/SdnpQz/qVlxqpZWuZ5LTUS405hDJaRhjazCSfcwK5onL7IorkayaJNJnsRX//xpPrTl7Zxw4IlcrI3iOFG6SmEaoampWl5IsGaKnB+3Fb85X+EmmIrj9/DJe2nJKVrltD5P9Rj6tNeh/X1AQEDA5kTQwxfwsmneb3fLYv72mdppXuKw79/LK1G+HSlTL2QIp02s+mzCyhNESlkS2TwFcza1mAjS6ChmStSi0gHpcXomIoyJdEW7ZjHv8F/xs49o7Ko8w1EHfIfrJ4qEs1W8dBpr7G2cd+2H2d3ooxzSWVmcoN8LkehPsnpyBaXb7ueD3zuXWuNZv6OKpNZFLTLKLDNBJa0xUk+QcBzK9VHi8TRmuUw0loR6CT0kGqc18MpR1GQNRPY0O8SkZtPZJdI3qBCScqJrhxlLi/xUdRJuF43YIOG6QSSaoVGr4RhtvWrTvwFaPWQ+VddCE+FMxgxM259IepyQMYtwUqSulKSo1onVGpK9ihVuoBYha8fp6JrN6kYB1S018/FpSVa74LXeb0z6fFo9gDP3+zTjNFczmcbzJa8Vppi6x2/TBOIXEBCwuREIX8BmSaPcIJXKYFETWUmJEA2RDHcx4gzT6ag0KllKfeNQ7iKlVqjYGo5VIhLL0chPoHVvQS76PCPDGjvmBnh65Hk0PUk9azBg7sYqbqFnXKUWjVGPRclVRMaUovzA2ezagL+afVSMCVK2yJu4S9rckdUdj0nNOuiqV/DcCA1lknpNJYxGWdGIGiEMI03DWC2SOkDUHsN0DELhLDVtLVrZIp0RL5zIYWdMkpMw1mkQGwtT613LnKHZPJ9eRWejk0ZIKiH4c/C1i1VrQpO4E6YULWKZUZJqlJ5yidWxOo7eJwI5SlmELNUwKEkLmg2HRGcKpV5ALzlUpQ1C1tRqI5uiNYzbTruEzRQ+/7W1f0r4LP/d1P424Wvu8z+3C6HQyqdFIHwBAQGbG8GQbsDmiWJS0TWSIn51rQyRCLZlYtuWyEAaNe0RHQmjGiJ7IeivxnDUFDWlQCTeJVY1AqZN2E2yOj9MOJIjK/uqkzWs6LOkylswGg/RUxkjppQoJjrwynnsaI7nRB4jToUOt0HeieMlokTjKqUC6NkCWqmTelKksiCSEktRjWToapRo4FAJ10SsZLOuS2SPNElC7hoRURdbDqNm9GFHChiKiqMlfSdCD1URc8N2FBqeIfsrqJ4InxNpDu2Ws2G6SiZ1Q8ozJXORIRWJY2xJxBgiLNK3WtolrcYwREYnIyqdtstYtIO0CGk8ZeLK8ZTCSbSqiJnrYYYh5KTJ2HmJb9Gw43RadYpxnUi1jKVbOKEE2UqUyWRFBNag27Gl7WqEJE+nufSuL2ktyfM3+EO+InOehubERDYdYpo/HJ6g05A2VnMYNRMtKumdVtqp4KdrD1N5BwQEBGw++L/5AgI2O+qhCDl/2DGchVQfyaqInVrBsHIiQybFSh591lbUKg2/DwzTv/+tq4uBeIqwUSTpuYRUFbfWQI0oaHWXYQuiyR4RyB5M5WlyeoaVcz1GGt2UJ0ZQ3flobp0tS2VqYQOX2cQ6TKy8zZrCStGSLZjfcKmba/Eckae+najVxAJ9YcOmb1YPs+MeEcnXUCepWHFMrc5IyCM1prPHzkfi1NaScFRsJUpVLZMo1ki5LlZSF3HV0dRks+6VcITOhuQdTsOoRSXRwCg1iHTNJaJ5NPQI9QkR2KL/S0LDSIcpO0UmpP5xEbe8bE1VxymGoozloSFeFZkoomYGcFWLaChEyR6mKGWnQilyRoLhSJRcWcQ2rBIJdWHXa+SNEbKqQmciw2g0ilHpohBb3+u4PkwN0TZ76vyVPNIJIkoFU05hV3weE8UQqS3kODurhPL5delarM8nEL2AgIDNk0D4/o34U7K0VpmYucbtqwl/epNbzz/2lVty7e/EXxv4/GOnloTz8ev1987L16VlGat6jCrDVCcqlCPQafeRErFR4pCMJ9n7PYex9Nabuei6W7hsyZdYsWalSM0k9UoV29Mpml2Q0EnFO4kbYj1Gl99RiHgRurqQ9577C360j3xOTJJ2XCJZm8Z4F26qU9J34RmrKE3MRlFqqLkInz/+J5x61AI6OjslUYp9DvskTzy6jCtuvZELzv4yz61cDf66tW5c5Etks2OYUGkex511L3dc8W3KD9+EK/7mWiqJUh1HxMhJ6QzaIbITNpFknO6aw7juz/AHRT0kQjkuvwWyFOsibJksVmESPZqWOkaZE1VJmjFGvDyK3UDcDs0LE3YMsuEQDX9aaEPqo3cTEY/qCHcSkoMPp2NYpaqIsE5N7cAaUShba/BEMB1NpDqRoO5UiEt804gQGw0xoa9Ct0ViNX+C6u5NyNn6YeDa5BB1kiSkTmY+wS8efoLLTvkl3zg0gzp75+lYGyeQvoCAgM2RQPj+jfjLhvkrTBy9ZHB6y7+emRL1asVfhu3wBcu44BVaXk2pVQgnwsS6Z6NGo01hqdeGcfJlERkIqQkuP+cM3vvOg/jZb68lWRcxCokUxQ0RlSSNaBcdc/r4yLd/zzEf3ArHyaE6o1QqHrPCNSbdB9je25rERBfdmkYh0cFkvMJAbAWr/DnwQmuoWT2kOsbodrYhutvRvH3BxfzyV89TK5QwNJXLf30y73jbgXzvjItJOSOEUgkpX/xKpCirxehcO5fhsMnc2RXuHS+xIraW1CTE6j0UJF6folMp62R0lVAkSdlcSTQeaw7RhisaJd3GjGmEFJtMPIRtu2hKmFJ5ArdUYrU63BRDcjEaYZqracwiSj4UF3nTUML21IMkuoFbkV8mqkpDxNCpV9ENg5yVEJlNiUwn0TQRTpHPKLbIo4IV6iaueGiqCGgkREwEOirinBb5DSlDfqkbsP6eO1/6JBidDHgllHqSfX97K8ZZn2LRoR/gjAvHqRQekfj+PX++2E3H/5sQEBAQsHkRCF/Ai3LqEfux3xGnbjAZ87+abQ/YG5acy1WvUB3GolWMhk51RYH5rspEMkIt5lJ2S6THXdy67zkNSkULO/katDFTrKPO8/Ua5ckEUXstY8ufpNid4/VJiRetE9XDVEUebUvEsPtgivZT5LU8Zslhq3InjojUiJRtJwqkXI1yaJjimgYaJtE951Nacj23GC4prUN+MEvEjWGG15RwEruRqJZBJO/5qorp5qmLfebtGCn9CY498N0c84kfYqX6iUUS1Luex2104Ih8RTtDmOoE5focEo0Qw5E6KbWE7SRxIxFyumSbqZAvR2hYYRKlKokORQSzG13JMpRR0PMlIsU6MXTM+QbJ0iQjdpi62WBOwiAUL+Gl5jHSEHGsNUQAxQNFIEPVCazIc2Ko49R0BSO/BZO1OB3lEE50BeX8IKZnUY8olG2dRKFf2r1Bd71TZG1q5Qxf9NavprFe4uaymkE1y2jn69i+dhZL77mXUkVn0opK3dPT6TYdAgICAjY3AuF7ldMcTm0N+0qYuQybv/pE+/6ZvXV+D177/lb61nCyv9DFwKLT18dpG1p+KUPOL1S/qSHXQzixbf+x2738i60/DcuHF8HSmzfWu7ftBnWYmf8Gx3/+sdNbwQuZvIYKR552IyfffzMj51zBPavO4o1z9mNC5MR/iDRqjxDPwnBewxDdQRGZ6eySfWG2/8IF3PjAg3xkmySxo09h+c33cdUfj+cvX9kBJZ3GKP6FfKFILr4Pn7rjIX56//cYvGUFX5qroZsemhQQN8LkukIU5vTxwzf1sHR4NrVxlfHYhJRRRhPJ00JhJioRUuEYVqGCGx8gHHFFoLp409fPpHDRr7jmkrO54hefwBxaw1DYIp/Yk67d3sD//u4avtZfxxJHKusNQq8/ijP/sJhFW2wJ5hp2jGgc8t1b+fUdf+ahmy8W4fw8sa75TEw6OB2v4eenX8PP3380P77nMh64/gauuOevHDgA/iw1sUiJBf0xDvzvCznn1ru5/A+nUL/8i+R6tiVfU+keDtMXP5xjrr6Y6/6ynKeuv5plV3+D735oP1aFx5rTyWzd+XZO+d31LL1zOctvu5lTlv2Qbx65O2v9ZU2mmZK89efUw2mGsVoSMmW6pC1Thk44XKdimXj5CHUR20DuAgICAjYkEL5XMb7I+MuQ+cO+raHfxecdM713SvZuWTyHJUfvvy5Oa1k2H1/YFt65ft9Jy2im9+/Faw0n+9v85dxacdrnr3uxIecXq5/PgsWHs2q6fv7+v2dt322POXzdGrgzWbB4anm4jeXvy95iTlpXv5NWLlonrlknTfX/XcDeS/bkkIN2ZuCQ9/L9iw7grJ/syFYxlYZZpOQ6NNQOOmM5xq0iqg122SWV9Xjsx+/jg6/fnV/e+RyVMz7DG97yZha+62vsdvJfGJkoEnez9Gy9K32f/RHmL7fnmEM/y8fOepC3LnoXs5wYih6lXGwwIVI394OfZoe/XsCPrryLTtWfgsVFI0pNpHOi6hBTbAqu/7CGHH/NxLFVQtXl3HDOIrZ729f5xYX9iGFCv0E6nyPUuIexP9/PcHhL9nzrTlh2lKg1wRv2OohtKo9xw3PPYaS6mPe1e/iWdyof330XDjj4/bx97Zv5w+fS7Jrrxls1zHPbz2WH923P2nd+lR0+cihfP/dq3vepdzLfAUukzvjcn/hu8jSOWfA63vupz3DIin34/UeT9KQGqBgqI1/em088cDYHvXY2++51NLse+kP+69xbme30Mj8v7fuFd/P6wcvZ+/U9vHX3d/P+hUfyX7+9l3Skp3mOZspaU/am7+2rdcwhPGyhqS5VV6Wqh5ljJ7AoUUv46aaGbltr7raHF5ujLyAgIOA/kUD4XqX496ztPbDhPWtPnHYBywb2XteLdfDCBSJr392oCPn4wta+5uzVd4rdvUK8WP38tXp9lp105Lr6PbFiJcyZ+7If/jhg7wGW3Xn19KcNaV9Xtz1/v1dw4YJBloiktLj63CUMLljY7IWcSCrUT/oGxzwpOwoJtspJXtd9n7X1OaQTIYyoR1G8oOGmCNk1zKhJVIdITaTPW4MXjjLSiKCFZ2O5FkZFIkfCaLUivUadfKJA4ZFnue+cXbnp9wsZXD3MXxsP4W69nQhkCdNfeSwNiWQ32+36bh5+4E9s7dVY2z1JtJJrzsPnRKMosaSUPy7y6WIoDVKeTV3Sxv2HJwpjDKVTFGLLGcrLvoKJJCNRkf3hMssuvpaJN7yXBaEQytwdeM3Wk/zlvIsYDWcpZ3blkG08fnTpFWxRlPaq1LjqyjNY+abDeOf4CKU5FkP338OT55/KRaseJTHssLLWiRbxp1qZhdG5F+/aTePbl17KnLJJdWSUq6/8NSMHHMEhXoV8UqR2xQDVt+zD16oxCpkG9eSz9PR6FOyKtGuW+KM7MvSOnflSpYO1XQW06BixDhjV/Tn2Nny4ol32XBFxKo+gRvaknp+Pu/DPpG7LUnB0OjIaNXVkXdwWrc/t2wICAgI2JwLhe7Wy5WwGBlfxzPRHH8+7ilWDA8ze0u/92I65c2Dlik0/xOBL2fmt4UwJt/jjt68UL1K/Vwq/F3MRS2jztpfGtnOZwwCLTr9l/fGfvki2LGDutpCtVHh8q/fx+Lk38/DypfzPFddw1dc+TS3+F5G2fhpKmLiawbMGSdieiFcY004zrpWwtBBFDTLhuohXBcdxqDhijHUNR9MYiZgoVZtk1/5oJfms3kl3qpNSsYtQ9xhZZaApHvFGF+W9P8ap4RM4/sIkqzoH6K/YhHBRlZr4oEJInyRDjqpWwDJjVMIVESOXUthF08JU7ZXotT6SMYeaF8eKTtKIpCjGhrnl7Fso9s1iS0uELDabLd5o8tDlCcqOSbhrIck5q/nsd4b5yX13cf39V7Lqv/+XbTL91F8XJTMWY/7sASa1pxh15tBIVFkxuJpOrZMuO4+S24fEtg2+/rURfnH39dz16LXc//XvMyvRR3Q7G0rPoS99L5845W2876Y/c9ONp7Hkvw8hXsqiRBOskfo/+ZcFfOPkfhZdfzu3Xf1bLvzSpwmXw81ezpARw/U0LMnKQ5djjaHK8Wp6hHAkSTZ9AMf8chHXPbMHz27/K85V6zRyNca0WcRr3et6B1uS1xzeVUX2FH+q6aCHLyAgYPMjEL5XK8+sYnBg9vSHKfxeq9kDg6xqs6w5vr1sgmO+uQjahmv398dvXyleYv3+UZq9mEtvfvkPjDyxgpUMbjDc3Qp+j+NkbWdO/v0n+eufvsDOc3bkg0ccyJH/VSYc84dEB7HtIp6Inu2ZIh1j2HoUx64TizgodYuuiaTIX5q8Fkef10HEWQ65PBTLzHG3wq2JoCkm6VQHVX9C4voQumo3HwaZsB0sr0Bo1iiHbvNlLrnhAhpeF3VJW6o2MKL+argikTUPy5/bL2KTys7CcS1U1cSU8u2GhefqKLomIlNGMXKYpklIFfHLV0RSI6ipNTxzd5ytDxfB3XYRb7/oIX657RDzx3Tqzz3IeC3L7UcavP+AXXjTPgcz+8C3stMbvsKpd9dQ3XHq9RiGZohExsmJI8ViIl1Knro//cqKmxgs9HPup3biPfssZL/X7cfr9n0NOx1yLKc8XGQno5exp0IsP/m1fPHjn2Cv1/6ci97zKS758cEUymvZJpLAXAkP/PSdfONT/81bXv8H/rDoI9x0+vsZq402BU2d/u3kC5sv1bZtS3tYzeMsDi7jN8dcwfvmL2H7FZfxrm1GUKMNeiafkXNWa4pdM7Tjr8DRCgEBAQGbGcFvvlcp3vJTWTq4gG8es17oDj5hMQsGl+I/u7AtT3Dz0kEGFn34bx7k8JmSr/U9gP7nEzbSw/fMKslj7wOmP710Xqx+rwT/yFQs23I1dy4b2OQ9g3pyV+z6OMXVz5PLDBAePpjPnNRNzRHRM/oI+Q9VRHJEoxHisTLjFV+sbFQRD6VmUUuNoCQ1iuMifx3z2DLXQbfImd7I8eyECEdmDnb1WaLlUZGwCA35SSupSUr1NPHQJEZYJEb/ICd87HbO+12GUXMtMa1AtkuEMF+i2qgST/QQS4hkuaOsXN2QRneJhV3CqoERSxJNzkKPxzEiJUYKCrrikNQsciGN0ISIa/wOfvSnW9jnte/lTbsZnPqnG8k9n+bpeIWseg/33lnm4C99ioKiMkfpI97hr8gxgp3ropHKEkVr9uZp/hJuNYN6pI8KJq5bJKHfytKb1vD6xUczbnWSqYTZJlai0xOjDc9ntQhurauDud7WPDT6MG7vrTz4NQ+3soZEFtY2SnL8/uobvdyz4jpKHZfy+E9rJBsmc7ea1Rwmt+V4XflqN4dhRd78B3RVf9UM3/07IxS4DbM7i3br48zv2g5ncIBVqk5nbCpNK916/F93rRAQEBCweRGspftvwh+SPea801kkUrYBbQv/NyXtFpGo5idhcAlHH3naBr1d/oMZp7dl4j+A0XpwY+qhjvWSt+SkJSw6nL/Jw3/4Yl0WbeVvsL3FS6ifzxOiXP7x+Q9UtO6xa9bn8FV/U/6maB7b7As2eJCkHb9+m8rfp1WHDY5huv7p+Q308EXc/wubJ50FxDMP8/1Tr+Cog+ay6LDFZDpfwyk/u4juLUzGIr28hjt5Lq/y9BNX8pNvn8kTdY9sPksqtyMf+f0NvC25grXPL2OL/J9YePw95CdT/OhXp1L7w7v56XX+yh4iSe87gz8s0vjkwZ9gLB3njR95hA/37MsPTzH58+Q4ainOrH6bkVJEnKTC2Wdcw/wdY5S0LdnZupdVlQ4efPIGjvvSyYxoOU7+xaVssaOOGephz+qNjIy6PLf8Ck786m943OrHUtZg9nRy5ul/Zrb5M37w7ju4ZeDPdE0kROBKbJP9INuf93b23eYtLBhbzYOTD7Ll4w/ywW+dwfPR7fnx6SdTPe/NnHJDioZmUz/oy1ywqMbiD/4vY7bOrJ7PsOPZ+3Po/IXMqT3G2vzD7PrMcxzw1ZN52tqNUy/6JnvPMag6OcqJtezzyBPsfvivebQ4jte3BRdd+HWSSoiUPgsz3WD7J3/P4cfexo2rVxDLNJq9ergeuvhZc4hW3iuI+Ml7R+9Eia4glH8nXz/jHTzx8+NY8lANy0g176P0YlP3/DWZXmvXT+d5U+vvtnoPAwICAjYXAuELeFUyJZP+E77rH/p4JbHcMo3IHDJOlUJhDNWAjGyPdGzDuLWaRqFKLpVlojKJF++lo16gWEsRoYTh9sLsIuOr8yRSOVL1ErZbYySqk9Y8rMm5dOTKrCpWCIcrhJRuNH2EspKjU69RMyPE3IP5r6v3Y+Trn+PU23OE+iZI1FXGJ2NEO+pSPwXN66VYegriXfRboxTsMFq4gd2IkvFqRFO9DNaGqPsrfZTHqHhZtEQN7B7ZX6Lo18VzSBY8KqkSsUKMpIjVhNdBNByiKMfoxnUSag2tVKFP6rU8WiMb7sYqW5QjDdK6xCn0oRlrMRMZ4kqRYjWNmoxSKw8TqzkYCSnSjRGqZZhUR0mHBqhEx0iKFE42LBQbuiIVIvXZrIyuoisORXc2HeVx1qiSrjJBR0jFM1SGKyaxVBRdi+G6U0/UttzMc+zmNp+oE2dc8UjH+zni/E/S/9XvcvJjdvP+xlGrk7A62BS9lvS15vQLhC8gIGBzJRC+gM0SLRqmXhmnUY/Rn62yxo7R68YZaowR0j1yyR4qJQXHa1Crm80nd1UthKE20KwIjVqIhphMyhphTaqLuJunkkvRPzEmQgEFU20OtxbVBBkzL5roknYkbbab0ZFxOjLdjNtFdqorPOKvToZFLBRGDWuglmRDllpNaS5nVi6V6Qj70qKihmxMy18VQ6Nc82/wk8SmQypioCtSR5E3qy5iFNUomXPoCg+h1yOsDZXp0jqplteK3PZLpi7V2AjJTJLC2gKeSFvUNejS5zHqDsl+aaR4UeQ0Tn9Y0oWKRKxJzGifCF+FZFmnlinQLZK4ul4h1dlN3m3QK1I8GV9DpjIHr/EcVtdWVK2naeTlkBIpjFpRrFqErhChw5hkbXwLOfYhypNJKW+Mbs1FoqKLQDZ79YSpV1/+1j9lG5bjnNSlqSa6+e+TBulc+xpOPOtx+vQwT9SSxGR/K66Pn8eU8LUE8G9vgwgICAj4T0YzDOPb0+8DAjYbymYVtdpFOpNmNF8Az2puS+cgqftrX8QpV4YJKWJcdl1kJSKSVW6KVsXKY8dErCSfishX3JzEcV0iXpZxs1MkTUTJ6CLqSDqzgq5b1L0cVVPkzLHpDJlMilDlOk1WlHLyV5dKR70XEgVMt4hV1LBcKVasKx7NUCtMUrP8hzQsokYHlkioFspSr4/5N6uhWB5GOIri2VJWEltrUGmI9ISGKeUNHJFFo1IjH6kTqUTx4hZx3aWUieEVXZHMPmIirImGhh5qMIl/H2MPaa2I6poikS4T9bBs84dUNZJ2FUcEshyXdiyIhIa3JNqYIFT06+VQrNep1PKoyRgFeU2Et6ahj5EuWfTkMpQbOo6pU0naIrAiyM58LHUl3bWwSLJItpnBalSn5Mz3s+n78DxVpE1T5dXDNXOk7Tlk7BVcN1rk09/5KccecxQ9Y7/m6cm6SLIctD+U2/Q6X/Z8yfMzmwq+PAcEBARsTgQ9fAGbJf7TrkiolPtwRN7S5CnYGZE3ESStCjERC5EvKnESGkxQx9AcQmq37B8nYifIixh69gS6CEtCfY56LYqRckVgFGoigDElQUjEalLSxkVytLCHVa+gimzYIoBJL8FI3/NQTDO7qLBGfhJTKYOIVaaiJag5IyKIWVKGInWrElFtEdAeEU2RJFdE0BqW/ZANhyhYKlFddExEs6atRrf6ZN8aGmqPyJjUM7IGQ+8hnx8mkksRqtWbT706KZ16MUM2NiJSuCPDsUfJuR1URXJDIkaqZlGLikSO2iQyjnixCCw9FBWbWLlMtdNC9adaiY3Tkd+atb1P0TUkopdTMa2EtEEJvVCR9u1lVf8QakUkW/KuegYNkcO+kLS7eGuaeaztyouL1eitWRRECBVNk/Mk50GEz/H9zO+haz6/7GFL2/aKnA5Lm3v1EjmnQdf8Dp6sjcNQlGjUaJ5nz3Ob07G0lmVrTcmi+AsjBwQEBGxGBMIXsFmi6En0UgMlPMGEkyQUdTAa4ncieol6mbIbpytcETHJEa6LZIRNClWRRJGUDi9DKZonqvWKM4pgeDZVtwtHaZAwqjj1BK5Snypn3dDhVI/SzGHGda9qK940rj/BsIiO/1Sw7PfFpyk/kt4P6/N9YdrL82ml8/PeoHyhFXdm/jPz8PHr8kI05Wr6frnp2+6EqTKnetqm0reX4zOz3JllT6VXsDW72UZ+GYor7SMKpzK1/q78X4Twbydv9ml9nlluQEBAwH86wbhGwGZJ3RtlMjNBSK77kYSIiJvGVKtsOT5fZFCn1/AYFQG03Q7CIhQO/lQrSbaxOimH8+JnMSxziJCaxnUy8pM0SkhvUC0ZohtTsvditMtIS25aocU/S0xeSKxaUtViZh1ebp02Fn9mGS021gYz8fc1nXEaP59WGl9k/elcXiyPgICAgM2NQPgCNku8mk1HJMGwGaderhCzKxihmMicIgJnU1KqzI3306jUWEsVXJWOSp2SNkaUGPFqAtsGM6lS8B/GKHt0E8dfptUMixy+DDYmJi912z+TdiFrCdrGJO2l8o+k3Rit3ryp9/6ELb7kOc1e0ZbwzQz/6DEEBAQE/F8lEL6Af4hDTryV84+dWjf31YY/tcuJbUvLtdfTs8OYlTIHnnk9t1+5lusfupblX3wbW/ZMUjFzYEWZqA6jR0ziWx7AFXffx8W/+BY79GYJd3RSF2lIqBnyIyNkOhU6MgOM5k0SGZW4q02X8uL4EtJ6bQ8t/lmC0p7nxsps8feW3Z6fTyuf9teN5T2zLptiaih3vcC1gi99/tDxS80nICAgYHMhEL6A/1j8lT84aWpptf2PXgKLvsmx201JxhuMCG/+3ioWG1dy0hF7sOceH+LkXb/AD//nbaRzBbxwAqoKdmaM73zvTO677BrUzjqrR6AytJJKuIFXbdBBluokTJhD0GVScRyytXizjL+Xlqz8pwhLS+xar68E/rK4U0xNqDwV/Pn15FfazPshAwICAgIC4duc8Vey8Hu9/NeN9YL5+D14rX23nn/s9NaptP42fyGPgUWnr49z4iHTMaZWwjjxkPUXX38lDD+P7aYv/C9W/lT6DXvpWsL2UrjquP3WrcIxtRTcAHsfMLUU3NLUNrxrwVr+8Ktfc9/IajqcZ/jR/4wy/oZd+Gq6E2NCw9tJ4YAPX8P7aydw3soBSk6EPncSO54ibdXRIjXG1T7OvOR+rr/wR6TLDXS3k3Et1izjpTBTglqS13ptyYzPKymB7fm0l+HTvu8fKW9mGe34+zaWd6surf2tzzO3+z18/q+vmXm0nsZtxQ8ICAgImCIQvs0cX9ZO33spR++//9/0gvmyt5iTmj1kfjhp5aJ1Qrf81COmti2bWs6tFWdTy6Btik2V7y8957Ngsb/axlQv3dFLBje5Nu6L4Q/vtq8tbOz1BV6j3kP0jhHqc9LUd/wcl54uZQ4fQminCm7XKJnQ8XzmyGf4+U+v5qGxMfo9m9EQhP0JmBvG1IpdHSrDVh4rX6ZHF5EhQll/8Yc2NiUkL0VS/lUi0y5T60XrpQngxuK1jvmVqL//0EYrNJ9o9u/fk2xbob2s9vByjiEgICDgP4lA+DZ32tfnfWIFK6c3+4K0cMEgS869enoLXH3uEgYXLOQQuXC+GC1he1E2UX6LZSetX1rtiRWyd87cdT2ELwd/eHeBlNU6nIFwnudXP8+D23+NU258kOt+tjs3H/5xHvb86VY0ytUedj96Ickzz+Qnz44QjxlEnGESVheFcIXRSJKwraPmH+fLHzqAQz/2TZ5VMjgxi75GdaqQVwhfVF5p2qWnJUMtZkrRTEF6ucI0M3+fmWW02FjcjdGK08qnPfi81HwCAgICNhcC4dtMMXGpmhbOquU8rpjUbHCsP/K/b/kMv3i0jDZnF7qTE3zxJ3dz6R23c8dt93PzGYfRF5lD724xiVwnFbfx9FEqI2uJZedTcyOUHQv8VRiqKlmzQTkeIhKdQ7RcphTbET1XAFvD1v05T0zU5UWeNSPooSiO90e+8eZ3ccaTJRypoU6CQaOBK2kjbjfh2AhVhkW0enBsVYLSnOPNfzLTU6QuqsRVqs0VKgx7LuWapGtk2OOTp3DsGwuc962f87hn0kgmqNczdPbvxcmXb0PhsE/y5rcdw8m1JM+ufowuM4R21H/x37Fz+cEfq8TMGr2lKOPREIXeENkVGh1emIJrk+mdT7xUQw+HKSoOsfFJxpOmtLA/3DhVP8fxmk+OTq0Nu3FZau+xas4pNz3vXktaWgLzciWmPV172lbe7dtan9v3tT7PDC9Ga+1aP/gPUUyFFn9bdouWtG1q/8ztrc/NNmsL7fLXzsz0AQEBAZsLgfBtphiiU3pCIWlkcOUC7moKCblIj9VFlpQQpVWPM+Rsxa/+344c9KbdeMeCvXnDG/Zizzd+jHPummyu6LAmL3Jn5ki+ph931cNEQ2Mk1T4ioS1I9MJzxRSpiE119DG03KEw+XNG15giSx1YbghdyjS6SxCpUK7XQVepN7pE9jQatteccqNHZNSIJVDcGpNeCl03iEZcFK0uQaRR9k9d3OUiLhKG5y8xFmMi/Cj7DexE35d/yvfftRVLjzqEn483iCRihNY6TDYeZHRie2758uf5yvIbiExoGNvtzH/tPofrnp3gQ9vsy7a7/JwvXHwZTz15C7/56gK0We/nR1fexw+PqNDgWdSkSN+qp6mGd2Sy3GALVcTZiGJ43c02bolFu2QEshEQEBAQ8O8gEL7NlLgRwbMKVMo6tohVJBonrSXAMYloBh3cyHV/Xs1eX/osblltrhO7rREiPTlOMdEp4iXCpc9nZcWje2B/+iRp1neZuEd5ZIx64WmeG6ux5e4H05MW4cl2c/6JnydmzGWoPk44nIRGgaI6jhfye+UUVD2MZWdF+EIiczpRz0F8sfm5IXEdT7YbKepUm0t+oVgietNTcLiaBL0peypJOqpw90Hf4ufvKnDed/bmpNWzSK7OYgxNkkyP03H9RfxIZG3Bhz7HzpmtiMbKvOtDH2Z86a+44hGFs/93T/oPivC+N7+WubP25x2n3cD44B855TUH86Xzc+iGL3VbEGvM4ocXXczdj32XbRoNGpE89fpks419WrLXLn0BAQEBAQH/agLh20zx1yNN1yeoxXuwKg1U22WkXCKeSlOq1WmUanj/fRHndh/CmY8Pc+XNN3Pi5adw5TnvY3tvDfm8yRb1Mo/98gSu6f0uZ93yPKefdwpXfX8P5m9hkvQm+OvVf4Ctv8zSB//KGed1ct3iIqtGx0nukALXImqP42pbinQ2B/koj9dExlSsuoXhVTFqE6yqxIlHIxhJg2x9mIIZ59n8uMQW+Wuuh+oP300N4U3hL9/l0Rn9Ese9c4xY5558dPEtXHX5r7hh+ZVce++pvDaRYSjyLNoXT+Nc/S187YYruPwvt/HlB77Bfl/4LfZWexO2M0SrGYxQUmQ1Q6yaJhd3GPYeRM1Gydsj6DxDJuNwy/1llPJb+dC7BlCrfXgx6wXlLhC/gICAgIB/NcFaupsplpz1RrifTOlJ3GiKRtUhlU1QGM0TTocIG3HGKsOkqylCiRITdhdJ0bKCMkTc6KWSGiE76CK7SZY6MBLjVGp9FLy1RJQdSeqTKHGNEd1BG15DNCT5hIqEtB5qjNCoe5ipucwaXUEp2oEl/1JRg6HiGL1Zvz5RJhsus3OjlItxStjY2R7SzkqqIzqRRBLXs5v3xTVpLpCvTN9f5sr2ClVyxG0Fx2wQ604wMTZEV2YbUmMlno+HSGnDTNYN4hlRR6VBvZLCNUbpLkekhnWSTobxCGSzBoXVVYkfodJhQyWPlelm9miVolFmy4/exClH38Evd/0113gFJjIm8erUPWwbw5fTQPoCAgICAv6VBMK3mVJ3beJqHDtWgYJscDQquseccIJBcxLdyWJ6I3QbcxlWVpBVYkwmqsxxtsS0SyJ3qqQfwaq4jKdjhEVgGkmdxEiRZMhjbR3m2AmGe7Yiaz1GyTSxtZyI3gQd4ZjkUcNLZugc7WLEy4tUmjjlGnauQaSh4TkGdamTlzbImS55TSRK8jCjushguHkP4tS9eyJgikif6qCo6x8OaMTmkBsao2A4JOhFMW2KuSHZLRWTb7xGmogXo2KXcZQSjhxvOjFJLZ8mqpfQoi6KCKNZz6E4BfnsYDYmcFM6NTXNnIJFPXUiJ92yNT35Wzjp0B+xbNKims4wW4R0Ij61vNpMsWv1RAbCFxAQEBDwryQQvs0UR0RJtetU9RhR1xHJidFwPQyRJ1PkSbcr5EVuGI2hi6CF1QmilknGm8Pz4THmijA965bwbJPOhslYFgxtNqZpMNd9hiE9TqeVpKRbKFYJMxKWPBs05NsWt0IokYgIZYVINUNNq6EbUlbNpBgrEXd0bNUgqhhUFQetoeDoIpJuAicWERm0sPyp7nzRa+IL39SEu80Z2USqIvUoE0k5DjroLzWoWUOMpgwImaScEEakk7HhUbLSDmZHN05pBCc5h159mFI5Rs2eJBLLSJvUscp1Ik4Pjcw4thMh4eo4URuvUAY9ST1SRxEB7HUNOuZtw6piA7uxplmzQPgCAgICAl4NaIZhfHv6fcDmhGWhRVxCWhZTpEZRVaK2xni9QNQI4zgJsnkdt7OIWRFpk78L4t48ViaGyNGgQoy6WhTX8sVxNkaHSWzYJa5YrA3VSTbEFUXAFPJE4rMo1kboLIdEzBKStoBtxlHVBuG0ieXVqIgJRkIGdTcpdbIQBcRQFfR6kYZIVSxcxaQfqQxWrSDfXF+cHBEnV+ruy54/lCsS5d/PJ/5nhFQMEVTTK5KPF/1V0ujywjQqWVQs7EmpV1+cgpsiWqyhGqbUp0Cp3tHc7xgdNIoWkWhZ6rQl0dwqFDsKxRzJ+Ai2yJ0jbaZXXSyRQT0eJRUqsqY4ItIZljpIm05LXeu1JXv+ayB8AQEBAQH/SoIevoAXpV1UWrSkpRVatMdpZ6bgbCpeixfb38pvU/m2XjdVP/+1ta+139/WCq255lrxW7THbb1v39ai9d7ft7HtL2Uuu4CAgICAgFeK4KoT8HfhC0tLdP4Z+Hm/UHgpvFC81j5fwNqDz0vNvxW/PW37e5/29wEBAQEBAf8uAuH7N6IcciK33nprM7yU5cr+lWxMiHz87TNDe5yN7fdDexw//LPxy2x/bdGqTzv/SJ3a071YHv+K4w4ICAgICNgYwZDuq4BDTryVxZzEfsddNb3l38/GJK0lS37we/ja97WYKVMt2uO8kswsb2Y5rfq2aN/fqntrWyvupuL7tPbN3O6zsW2byisY0g0ICAgI+FcSXHVeBVx95zKYM5ft2uTgP512udpY+L+EL3Ibk72Z/F88toCAgICA/wwC4QvYKDMFZqas+BMevxTJeTXQErJN1ffvEbGXEr89TnsZL7esgICAgICAf5RA+F4NPLNq+s2rh3ZBapcVn3aB8kNrvx9m7muF9jh++Gfjl9n+2qJVnxZ/b71eLH5r38x4L5YuICAgICDgn0EgfK8SBgf25oBtpz/8H+Cf3cPXEqNNhZfCi9VvY/m81LzbeSlpWvX+e/IPCAgICAj4Rwke2niVoCiHcMIti1kwuISjjzyN5f9EmWqnJUXetIe0hMR/bfWGqUzLikRtbRPdWxevlWZdXvLank87rTgzt/8NrpQjUfx46+o2Xb7/iro+fSvPdprp2urj016n9jSt7e3x2+O23vu03juO03zdFK082tP729aXO7VKiKJozdf1TIl0+/b1adbXp7WGcCvvFu1xfV5o/8x9Lfy8W/s2lb61/cXKa2dm2TPTtnixMtt5sfI3ltbftrG8AgICAv6TCYTvVYCy3bGcd/psLtj/a1y1iYvgP4P2i2VLqnxaF8N1F0t58bf54reuZ69NuF6Mmfn5vNgF94Xi+vs2lmc7/v7WvtZrK43/uimpmRl3U7SXu7H0/usL5e95U8K4MeGbYsPO95n5tZf/QrSX7dOerrWvtW3mZ59NpX+hOrSn2VScFq90/pvKz2fmvoCAgIDNiWBI99XAlrMZGFzFM9Mf/xW80IV4g4tkW7RWr57Py7l4+vm9UHkbw8+/VUYrfSuPjV3U2/e/HFp5tb+2Qjut/H1RXCe9Qnv8maFFK20rzRT+j97Uj5+/BvBU8NOs3+7Tnq79dWP5t2ivQ2tfK2xsX4v2OC9Ge7qZzNzXynfm9va6tId2/DQz2/zv5R9NHxAQEPB/mUD4NnNaF+JWWIcrF375+DcXYb9nb7p3r7V9o+n/Udp7EKUuzSHeVjltu2byj9Sjdax+WFfWjNBi5ucN2qiNVryWsLSCH39qtZIN3/uvrTn62uO30/65PU779vb6vNi+Fu3x/Dh+aG1rhdb2FjP3t2jF2dg+n9Z+/7V1zO3bWrSnn5nHC9GK255XQEBAwOZMIHwBG8W/UM4MLWZ+/mfRvIev7Rrvv/e3+RfzmeW/XCF4MWYKWot/5Ng3rN/Uj14zP1W2K62hXD/exvP3476Sxzgzr9axvpJlvBAz23Lm51eKVp6tY/tnlBEQEBDwaicQvlcB286dAytX/Mse1GindZFthRa+XK17WKNte6uHr10K2vfPFIZW+r/J50Vw2vLwv6StL6qft7/vhfJ7OeW006r7xoJPq8xWb1R7Oa04M2nFab3OzNcP7UOW/sMg/vv2+O3429u3+Z/bQ4uNxWnh72v/3Hrvb2/V5aXSyrsVWrTK39g+n9bn9nq2p2nfPjN9+74XY2PlBAQEBGyOBML3b6S1lu7piwZYcu7V01v/NbRfQGfSfsFt9qrJ+2aQJDMvnK2LcSv4+HHaP7ezqe0vxMz47XVo3/dy8/Vp5dX+2qr/C9Ha34o/M7Tjx20Fn+Z+r/1Hz4+/Pq27kQeA29P7tJexsX2t0NrXCq3trXg+7fta4vli+PE3xcx9rfzbt7fXoSWZ7dtar+1p/dDa92K81HgBAQEBmwvBU7qbOesurtPX4tZFWXGmLrZ+b5Zcipvx/Nd1F15nfS9UCz9OK2ja1NOnG4vzUrDENDWJqro0X31sKd+R7Y5kGdONqTrN6JFqldes43RZrdeN7fNpbZ8Z36c9bXtoL/OFaM+7PWhquDmUq6iWxGntR2RPx3MV9NDU1C9+OX4erV5FP56/zf/s08q/hb+/nU3t99Pbtt3cr+tSpmxvNBrr8g6Hw81tG8uvVQ+fje3fFO1x2+O1tm9s26byb71uan/rOPzPfhz/s//qb/PDzHQBAQEB/+kEPXybKZ4VJaTVJBhUzAqmFyGjVqhVqriGTSgUoqo2qFkGuZJC1EhCuUIlXId6CVeV/RIvaZeJl6PobpmUlcLSPWrhGpZXxjYihNQSMRRKToOwliXeKIu5OSJyjlRiKrSmKPGl05dKy3NpGCIdXgWr6mEoIbr0HNWaFJ2riSQl5EJeo6LG6JDyG7UqdqwH1aqKKKYl/zgRylS0BI4ZIo2DGa5SMTQcyxWBtKUKteYxaCJVerlGOewSdVXJs05YUssBE6rViCRrNGI66WocxZYmkOO0vDhVxUKLVHBsVdpIdqhZko7Ut1bH1U2i4QSVSoLZkTDJihxzOI0SqWKaBvVYUtpGRFYpUq+JsIrR5kJpv1mpZatE6RDhc6hGq2h1m2yjg3rIoqzXCDsRXCVGSs5ZJRQnVlVJ+HXxqpTjMTk+muel2jwHcbRGnVC1TFmOR9NCVKIVQmacui3t6sZFnhNo4aK0aZi4KRKa1KZEyYuh6TYRS35FVCvoqRBmTcpsmIRtHbdRkQNIEJJzFJfzVlEakk8Ow6lSdzQ5hobUN43d0MnK+0ZYzofUwTNd+a642FKGZifImmVqITk3bpSkKec3KuXLNoko3zVdvgMxqnqVqnxfIqZ8AaRN0hVf6nyBm/7eiLxN3ffoi5y8ejqq/GHgn6uQU6JsKfIdlDKNMIa8dyPS0AEBAQGbGZphGN+efh+wGeHZRdSwKpJk4sbkQihiUbIskjGRC08uum4NXcQrHfMYFEHrrE7ymm0O47mxR4ilBnC9cazJMKWwSFSnjlkFXQRSi5h0VbIiMZpYABTrIlAiE07Eo1EYp+aLjuGJUMgbuTh7zR4Zv9dItvk9iX4vogREopJ2B/RWqFcMRp0RwsquzFMHKRbkol93KIa7KHRX6Z6cjWrkRUIyIg9rSekVqoSIO3UcPUveqhGN2mgVEZjkPCxnGFNkMetXkJwIWIpkdYIJQ0TN7JTyRQAbFom+bankR7G1KOH6BOneuSKDkkYVWRIR1rQ4IRGiuhyqUilR1RxiySQVPYRemWi206quIdyxHmwrL3LXQzhXYM54iZIWxlM76A7nGStpFOyC1HcHYrkhShN5akqntE8dNRYXaapjxLPYUkZOxM4OqYxL+rA5SV0kr1ASsYlJu46L/KXnoNeHMCsis4ojkpPFS8aI5ccoKnU6LJHVuE2PUmbEl6uKRb1uirhVKaTeQE9xnK6eHIX6Wir1CPW0JqKnMrtUZ6/ed/GE8qj8IVAnmu3HLJnU5fuTFFlTQ3LeykXyqsh8QhWhFmGvyR8GoQ4mavJHQdSFfJ14Zgsa9jBGVJUyfPmHeKKDqBKVY6qTrSrk5fvRK4pWFANWtYr8IWKQDc9mRBdZdGJMRgsicnrze+x/d5r/b75M9T769yGU4zqzTDlPNZH+Xvme5Mfp7EtSLVl4RVO+L/L9CwgICNiMCHr4/o1sd+z5zXv4muHEQ6a3/mtwdIOCE6WmxzA0m5AYm6JGyYn8xRyX7lpXswenNrYTH774Ks7782LqzyxDy0KkMEjcypIScUCJ4VpFEagQptEg6nXiJRrYukpapLEz0sNEqEHCVujKRrEa4oGeKrKjNcNMVJFMP6SUHmKxEQqTvVRdkbl0lP86/uec97G3MLtnHk78bXzxj2dz+kEZhjtWEC/m6TXk61wOMS7CldEiVDSRslBdjKKTnPhGUsQibOblc5IeNctIzWVC5K9WqOHI9b9bnUMuGYaE/BdPs/A9R3LnTXdw4VU3c9l5X2Xl4DCRiQa1WlGEtkjRFZnNxUkkXNHLBlqsX1578SZzON4BHH7+jznltTbVzrUY4iddahwKOWrJNA0zQUhZw2R+nsi1BZ0JPvvDX3LKRxcQ7U3T5zroie2wVWnjcAndDJEIp1krxxFTG0REmFwjiWlb6FGRL8sjl8ni1Mak3dIkM0kR4AamM0R1stS8FzMtdXMTusi9bC+lQIRNEWHs6NoJORS2eveu3Hzbf6GNjNBXEyFNlDG8Pfj8hfdw2lWfZGztMrH6FAOejiNi2GFXcdwYa5P1Zu9ZLKmTtHTSZYecrtGIxqReJWnMAcJF6BBJ1GrjhLJJGqUaSkQTSe6lPirfCXMVii+AaoWoCPjaSEFOWAeVaErSpsizlngtL4LtiKhL3afZcGh2/TC7UakwHpor+RdQV+v8bsX9XHrORXz2HV1onQumYwUEBARsPgTC929k+alHsN9++3H0ksHpLf86Gk6YTOdcPvW9s/nvIw8kEk4S9mpMlCblol3g2dwIadulGE5wiITxR5azxl1LaHQrxlMKteo4kdQ2dJZFHupZcmaRksiS44wwaOtURYomM5YISB4llaAaguGJGvPczubwpqv4Xz0Rv7avoNK8YPtbPGx7NeVGF0ZPiZS6PYk9P887976En5z5JMPjaylq95Cu5xga88iKxBSyfTwdLZE1LGYVdsCqi1AqJpWqCJ4IVUW8Q3csqmKcfk+ZVy2hJgxSXbMgFSXpqOTLa3HHS6JuNIe6Lz/7Vxz6joP46XlXkmyMoYq1xeNR0tEclrEFHb2v5fCv/4qj37t3s/7U1lCzRuiPT2A3Hienbke80Uu/Ix5qdDHRYcqhD1H2uzmNNehFaYfuMXrcrYnu+GkW7nMx5/30aUrjBfTGOPbIMyJ6FTG1bibLJRKevM/NkvcGcRH0kCntJW3vVTXEbxlVV1KK2uQrISJ1SZ+2yYl0aZouYhelopr0jhlYoU7snjL9MRGyks3I+CNo4RSTxSSTk3V6TJVnRJT7jHnURcz2HnBFEkM8agwRGdfkO6KINNuMZWt0i+ISzzSHUutVi14nxngiimeHsKW+nuqPMZvyR4WOXa3jqG6z/TW1n4xYtmIUROr8+xRVkdh+4v59dowRcvvos1Vitkk+pCBHgJHuJSLHUBd7nBrGnZK91n17U/jfIRdd6SKnPCUnXeWtv/sL+s+P4s3vfBu/vOI53NITU1EDAgICNiMC4dtMmRUH69knqcS3ZBf1KYYbYgy6Rj4xR4RAJVRIsaaeIpS7iaPe9WY+/PErRFgSxCPjZGs6jUSG4fIjhOmi20lSzMiXya5TryUZqBTR4n0ihWEmOyNEhibwJqqkUzGKAyo9+fJ0LdbT3lPjX8B1Nc64MYr5vC3S5BDfdRbjS67kiqikjYepRfbAVPL0quM0Vlqok1mRhxLdeoLVxrOMWSEcEY3uhIiEN0kx1U2p7BJ3TP/2PIbDZUINneLqIv2KzmAijBm1KHoFMuKIjtkgE602h4+t1FaoE5N4ep2Vdo1KOUrMHWHsifsYFHnaq2MVVrwbv8OykuzDc2zsWW8RyxvCcoeYbKjMKfWh559HsqXUOUkqFcdMF6hOekRFZjr22hbz8jt5OBplbqSXtfEOumM1GloH1aJHR8amYlpESnVSmrSNnAN/GHxr3SHVKwKuSP01hehkgXDYoRgTT6wkmCh4JHwRdw0iyiQr1FEylSrjZkjygNneBKHODrSebsblfHdXJ4mlRRjl/K4dN4knnmTRvvtw8EdORp+1PRkvSX+HSJybJeRkGRGpTI3V0ET8vZCI/pYxuscKrJW2DYnodkhdOrMea0R4XamDWio0ezvruTWERfws6nLGVZE4l3BN6tXQyI1vJec3T6MwTM2tU47XKShVMkX5Y6Fm0VGb20zjhynZm5I8P/j39flhIDzBYC1OMftatrSv46o7H8et1TASEA0Hv/YCAgI2P4LffK9yjj1/esh3OhyyQW+GyNH01C6tcP6x203vmeKQEzeeft4nz+Dau5fz8R0cuj5/Bav+egc3XnoO9x03n7KRI5ytsu83z2Lk7Nu5/Pc3cc0ZR9EYhXERi3rSwtILvLbUzfuX38V5y//MxJLruPmy03h7tpOaCKAdn8evzr2LU9/xAU576AaWL72LP95+J4u2zlCN1lHc6Yc1mhfoKdlzmzfe+/18Co1ISC7MOZGFOOXOXo5f2MH1qzuoTdqU0kWi1gTjaxUS9hv43rVPccHdJ7Hspvs58DWgJUtEk3X2nZXggMWXct5Nf+GiC0+j9Kfj6OjfiUItLHLosKtb5aNn3MwZ99zC2G+vYNnzv2KvgX3J6/7N/w0i9hjxjM5IQSGmR9AUE6OrF89V2em/f8HNf32AI7YaI/HpP/DU0uu5+nen8thxO6EmtyQxcgd5Gxrx3fjKLcv5zQMn8ODtD/DFHfqJFhVsEaS6puM/JL+6L8v/LExy72MZRofqFOsjklDCCY9x43trHPLFU/n1pTfxyKMPcePH5zKh5Igmomw/y2XfE8/hpBv+xM0XX4511nfZrmd3CtUympyDbSMJjv3Vo1x4+7088rs/ctXy77N/51yG5NypxQTbKAUOPGUpf7j+IS4+/dd45x3Ec9kO1vr3NdoJ9vqKHM9Fx3PbDZdw3alHknj2cYa74Bmzl0qjjx8cfwmnHHoE3/vLRSy742Yu/OufeVtXCE9kM56o8voOnUO+dRWnXXET1159LmPnH03nrJ2YrKr0DvbTn/ggx970O6578D6evu467vrTGRz/oQNZmXxa2r+LWV2HcfLvruTO+x7hkVuv5uw7T+IH792TyeKKpuitl702FP+xH4d6owcxW8Jlk4wTJaWmaCRFKkMaTs3vww0ICAjYvAiE71WML3t7Lz26OezbGvpdfN4x03unZO+WxXNYcvT+6+Iccery6b1T9wguvHP9vpOW0Uy/nVwoHz/lA3xwvx356e2rmTjt7ey215t4/Ts+xV6nPEujDvZYlTvPeSe7fXAfzrjOxhYJU7qLpIoeRnU74ryOPS+/g11+sjsH7tpJ9v0f4xu/35Fv/+i9bJ0r0r26yoot+tn+iO14+E3HMP89+/Pd867k3R87hO1TsabwTUnf1NBcS/pa9/ZVbZvKSF7EaILdPv4ldnnyck6+9j5SpgZFsKwIO8/Zmtmf/iXPnLI1Hz/oaI47fYj3Hv1+ckYSq2qjfeFP/CT+az72xr048qNf5p2rDuCPR8bIJXrIeWnM/3cBu1/0Ot7xlp3pfOeh/OQPB3Daz3Zg64hC3SpSdhwaag+d8QzjZgHNdnCk7GTW5rETP8UH9tiLXy9TKJ/xYfbY953s9/5j2fnntzFSfFyEMsGWs7Zg1rG/pnjqNnz0fR/lU2c+xPve/ibSXg+JWA9uVdJSZedPfo49n7yYH994H/NJ4MTidM+aTfqxazG+fi/feM3T/OjgPdjxQz9n/LAf89XXDqJOiFT99xV8KfEDPvemhbzz/Z/lyFXv4Q9HRJnVnRMhk3N4xK953e9ew0Fv3pE57/kAJ172Vk46a1f2DEE26zDrf67mk41f8Jm3DPDmRZ9AOeov7Do5jBFKiCCt5q5T3sP2By/mR2fEqJRFErM6yYKHkhoiWdUZXbgHuxyxAxNv/gK7v+PNfOeXS3jHMe8lldBolDzCX7qG72k/k/wXcugHPsa7Rt/CBR+M0J3sp2a4jC5+A5964BwOeu189tn7aF572A/4/G9vZcDrYIvhEUKfeSf7r7iChXvO5YDdP8i79/8In7jwLpy038M31RO8Xvz8DVNTr/iUyCKNi5YSQ3Wq2I0YGQtGaw6xTKIZJyAgIGBzIhC+VynKdsey98AyLjht/f1GT5x2AcsG9ubY7aYucAcvXMDgku9y6vL1w6Ht+PcIHnfV+n1X3ynGN00jmWKNaFuoswd0hVijgKJGYGI1nVaBRDpFaq3NuDWPvLqcibrJ3KLWvO+toj0rNrkHR8zNc92FayRNls6eGnde8m0unrM3O++eptFTIn//X3nggp9x4chTZCZ1VhfTaLGMXHxzKH7PHq0ePn96DRVv+r4+V4JmuZB2yUa72Xrnt3P3ny+iw25Q7Kgwp9JPPDbMI6tv48o/7sbd1+7PcKXO3WOrZfsc+uoipdnXc9DrVE688BJ6/A6dwQmuuObXIimHcUB9mLGMhv2jr/PZJ8EYjTG/S+G+a7/PanMuqajWfIq0LNVqOJ0Ytkk9ZiOb0Ms6prMWLw5DNiSk/RoNeVMQIYz34uUrdGsRqukSa+69m/uW7MvN5+7J2mdX8kBkFaWBHAMxg/yEKX4iBpLIseMOh/DIvRfR6RVZaQzhlbJMjk4wO5qgf+X5HH3ccax2tqP4yF9YkchSkXMzkNqVD+ygcvxlN9M7IiJamOSPl/+MNW8/goURqU+2JCL6OT62uoyRTzC/M87zV4t8lvakHslglQ7gze/Zkt/9/g84a1UiEUtEdpK12jxiPIdeUUj68qSEWJN8hIqdZtyxmz27A7UMjVyFwTuXcv+Skzl7/FGiEzZrKpnm1DvJ+iyiXQt5y25w0qVXkC5VpI3z/OnKMyge8CHe6paYTOloz8+jfsDb+Ho1QVHyq2cepqffpijnfjwiVvrktqx85258YXIeIzlp/9AwuRTUlcn1ktdig6XpXOrOQxiRPagPbs3QgkuI3p8TAexgINrHGmvtdMyAgICAzYdA+F6tbDmbgcFVPDP90cfzrmLV4ACzt/R7N7ZjakW2Td+A7kvj+W3DubcsXv90Yq0eod+fp8weQTHLTEblYu3WsAzxN8Og6k9pEumkrtak3NnkjDEGIy6V6IRccLtx5s4n/NQvWaF10TNLYXhlgb1WhVgusrOdITIjUte75ZYU1bWUQ/OoxD2eKa4lHV9LX1WXfD1MuWhbyIVb9ed+873Tf0LXQnekTKdBxJzN6nd8hR8mvsL3L7CZ7EyQrTTIJy1MK01H976knTQr1VvIxMLUzJV4qUn6zDR2z9uZPVDmS8ev4CcPX8adf7mIP3/p+yIUc9h2iwY9Ew4P7fIB7v/tLfz18Xv4yR8v45JvfhIl+ThKOYblJZo9XVXrURJid5FUJ47bJW0zSsmJMIlJl+FP1+Lh+vMFqim8soKixxg2yoTLFomBQwmPq9JG95LKdVBc46H15em1DVy1gU6ayJ7H8IP49zn+93Ea6T4qkarsE/kOxxm2e2ksX8EzQ0lW+Hqu/pWvHfAmfn3nGka2fDfR3gJfO+55fvvXG/nLvdfwwLd+yVaRefRt7ZEwVZ7a4RPcddp93P3AHfz82gs4/4efw449R12H6E5z2HnFPTw7oot4hwjHJ6Daga0/iWp1URQptbQ0VW+CiN1HX7KBV09imiYl+UMhU+xg/pbdjNtrKXpb0UjUWTlepyceYcCbxO3al+x2Nl/8xjBnLLuJa5dfzbKvnUhXqpvI9nLWG2uo3PAuvvCzfXnvPQ9z8bU/46pPvZVcfbbUQaEQc3n23tfzldPnctjNt/LwdWdzwdeOpOIqdFXT6CH/vsTm7D3NPxRULSxfeH9+HA1ND9MZfRMfO/kYbnpuN/J7/pEzRaTVjgIl+f4ocnwBAQEBmxuB8L1aeWYVgwOzpz9MoSiHiMQMsqrNAufM3Xb63d9yzDcXwZL1Q8L7+2O60/RaI6z2Ohiq7IjdtT2hymrqcVNsr0Kf4uHYJg2rKPKRR9PkAi6SV877d9uHUCoR4mueoTTrMGaXRIBWjxDSOrgrm2WP8CTD1azIgchhzZ/qRfIJqXQ4CqnQbBRbEamx/T48Cf4KEvr06ge6xJ16j6YSi2cJzxvmoK5DueL23yGKhjuiYMSgVBsVUZzEa1h0uRG5wKeIa2VIRmVbA82K4q68nJHiXM756O4cus8BvGfft7D/G7dhhzd/khMGYdSbw/GnfYYnr/sGO87fgvcteief+oaIpC46I3X0hwF1RY5XtanX11CWpqk2iiRiClEtRFcxwqhIxqTUNbRVJzF3FW5mCGeizlxvCzSRzpo7KfXNI9UhUbeIMQ+7HmZMHcL2ynRsU+Wtsz/LpTddQEPtY3x4DN2XsUQcs1RBMWzchiryaeFpHlFbpSTvIyI4lYevZcjblos+tyMHLtybvffak90P3IZZB3+Mn941QVmk5kc/fTeDd/0/dt1hO9751rfw8c9ZxI0IXbUws/X5PNy7nMa4yF4qxeSKKLtt/QyuvYUcspRbFAGvJgkpcQlVbKJU7RLhrC1CVhORH6FWDpOz5Psg7RD1myxlUHdHcUXC9WduZPVEH+d+eicO3Xchb9pjXxbstwuvefv/41ePVNnW68ccU7nn1H3578M/wFv3PI0LDvsKF5y4h/wxMiHSKH+UPBfi4R+/la9/+iPsvevpnHPIMdx22icZQ9p6euUM/9UP/qokreB/rudv5A//9RMO2+Jc5j55G++aO4oXkvPmz1kof7QEBAQEbG4EwvcqxVt+KksHF/DNY9YL3cEnLGbB4FJufgK25QluXjrIwKIP/82DHD5Tcri+B9D/fEJbD9+ain/qVcYnhujqms2c7CxmOx7xeJKSiI7jaIQjvYQTYVLpGqV6ByFE9KiSsPOMP/44t4908+4v7kJERCvj6Cw69hvsMDTMXXetoZqQ9CIOXSIOXqWOY1rYiRSmv+6GYxNSQ82g+8O4nioXaREGuVjb8saWeqiGKSW9n28cfiNnnRVDzXhoRpWxSQjHY+hOCkOsJOqNN+eisyuW5NWHbUewlXFmOXex9M5BXv/VD2DVokTcbqIZG6U6Ts7MEVH3IREeZtXjS+ntmkeq8E4+eFw3arhLpE+RNBZhLUMikaSj06HqJFEVEa9GncZkiXqy5j+ZwOSoQl/39mzZk6bD9FAsh2cmRignLELeJD3VHFq1g5LIYl3a0VY6ROI0oimduv0+vvO5+zj37DSr6qswshY9YRHaiomor4jTJBPjZnNJOSMaIexqIt5Tsuxkrua2W1dw8Cc+KYKkEjbCdCVFOM1BjFAfyci+dHVUeP6vy+ju6CbrHMRHvyXHZUnb1pPc/9yJPPPQUXz96N0YDBdIv+ezXPHu/UQuVVY4Int6Q/JU5fug0CHHmi9G0b24tLGGVY1gqXIe5VjDUse6NYRX1uQPgx45vzYVrURSv4WlN67iDV86mrzZRa4SY5tohW6vDsYc1tTlD4z01nRpSR567jG8zju4+wcFnLxNIguTZoZazCJlh1n29K0Uczfz1CkVMuYY87ecL+3gf20UCW33gMpGf75BXI9ap8in+QhWt/yRsewxtp/Vh7kmxtOhCDmvs/kzEBAQELA5EQjfvwl/SLb1BO7pi8TMFiyeGnptm4D5tCNPYuWi09cNyS6es4SjjzyN5XJxa4ZTj+DoJXNYfMst6+K0ntL1h3+/dtIyyXZq3y23LGbVSUua+3y6t40zQJlnTz2WW7t/yql3Xc25fziZ2394EBW2x06+ke//6nb+cPVSFh12EK993Zv5y/WX8dvvf5xtImPMcv/Mdz9yFKWDzuFPyx/lzovP58v73sz/+/AJPGL34clFP+3UGC/G6TAU9HCKaGGFXPwTrC3V/MUqmhdo//Y9PzR7avzhXREKRdUo1Qrsve/xDN12KqV4gZHqCHojTbYjjO1PIWPWiYnsPVUFLaLjLzWRLgxTtBKsNkuMizyO/+9NnNd/ML99dDWX3/xb/njuF3jwxA9jhkoMzDqF4z/xKEd+9QYuW/IIS+95N/deciL5yW15sD7Klr2v45zTrudPl97JUe97B69ZcCC33HYFJ5/8aebOVihJkdnCM6w889Pc1nUmP77mL/z6V+fzwKnvJjO3W8QzTkJZxWjVJhP1xQSS5QoNZQ55ZxxNjbDXG7/Nw9d+iUZ2BDPmYha6USoiwRGtOedfxpzA7hjAqjdQpX3GRULj8RSVukVnAZ7/7mX8ZIuFnPPEOFdfv4zf/vqn3POzo9g+thalsYRvfPQ5Pvrta7no8ge57Z7Dufv3P6Bcnkexcy29oWH++JNTGDr0JO79/Rnc8uEuXnfm08wNh6lKu+rzd+CEsy9jyfW384mPv4u99n4Hf73pCn57/GJ2jjaaghXzRlklohcPQcSQc1McpOSlWO3kqRfCTHz3Os6dtzuXPL6cy+66jpMu/SHLfvAxtqitomAs5Ie/Op5LnlrCzQ/cyXXXXMzSDz7Hp056gtrwLKqZrbno6sv5/Z0XcNN997D0roe56qD7+eS3hnj28RH5zSVyrcm51/zbAaamZ/FfNfljxQ9mbSfist+WNgxF84wUneYfEf59oZXi6NQPQUBAQMBmhJLw54UI2OzwREKqozbh7iS91VFG5AJedTOk/LVcGzHU8TypzDzWOs9TjnaRrfk9bj0QXkOt6E+OG2YHM8vqxDOY4Qw10URN97CLBjGJGdM7GRep6Qqvbi7BpntJKtEEUf158pW0vPpDckpT9PwvoKYrcvGeCv6F3K4s5Lt3Hs2zn/0YpyzziAyMkagZlKt9lL0VxNUYFTVFZ3iIcimFHapjJxJkvQnciT70dJxi9WnCkrkeg3LDwNb6xSxXs1UlwVgoTz4yQCw2ijNqorvx5pQd5JJYlKhPFkmmOpgojkO0kw6zTLWeQVdL4HSj9Xnk106QymWIV/NYbpGxBGREfqojXYQi0iJ6hJ6YhTkhAmKNS/0yZKMuEyJ1CeVA/uf6t/LgcR/noqWzUedMSJlVEvlOSikRPSeMo3bRWX+GRjhC3XJJ92SYWDlJOhehGgnTKE4wp+oyEpXDqqToVjpZHX+WOU4GL+myqjKHZGJc5HktcoLolrbQMllG8xU51l7s8DiNahVD7SbRVccZLuLE5dyWIyhWnWi4nwlzDV62n1x9iAk3iRsr4JTjRI0YNaUm34gKtVIPdmyIajxBzitjlpI46TR1kfRYxcRISf38tXlraSYYJaH2UAtPknSlDWNZMpMWmjVKWZ2HmVlJb1RnbTFHhzXGeDhK2J90WvWH15OMNwpSV/nTwM40e4R98Wz91drs3fNfffnTGyKd/UQyc3nP7w9n6y99m5OeXIvbfGh3KxRzaCpyQEBAwGZCsJbuZkrEKRMTOYmVG6w25uCFXdxMmGSxiFq3sFM5Bit5GpqNV6yjOTohy5ILr0c2bOCvkeb5c/KFCpQjdSL0YU8W6IzEKIQbaPU6IXQmLZ2uiItlZAnVVuDFRBQsg7Bcv73pf/47fxjOX1i1OXGuXMj1WIlL/3AFk0+NMapUMJwE5UIU2600e9h86dQMl6LjkoyI4EQMco28CEuYsi31K48073vrln/DVZNoyBYJyDMvMo9nckViroOrmyJZUebl6iJnUiG7QUFk1S3VSEVzVKshQuG4yGeNsAhWKAJGWOpmeDiTJiGRt3RxhDXhtEiqitUpkuLfIybHUhVhC4UqFMwGuYglvhUjUi3hSF0bzgTRyAiXXHAp5Wc81vr3S1b9IeAIcTFUxzBxlQhRkS69I4RZrOG5CmUxmi41SkHqOTCRk7oWMDIpim6DXjUk58IUAZ7P6mhB8lNxoqtpTNbo71cpOZ2Eqh5jItZRUSRLqROrqST0HKXEEOl8Cj0jMlSPYMZFvJNzyMtxKHENqziJoWnEpT2zuk1ac0RAI+h6gbyVImNE8BIq8VpJvkddVEwR/oIqf1TU6RDpH6/ZRDMiz5EGfV4H1dQastUscfkOVWMGpjki37MUVkcFZUy+CiF/+pcYUTkOS0+KkCrk6yKJkWH6Ix5FaRt/OFkaxZ8sqCl4TZov/jotfo+ynNu4P+H3OG987R9JdPyGq+4eFYnsFOGW4wn97W0QAQEBAf/JBMK3mVKq6oSTBrYIUq4yRKHiIddnuZgmiMUqNDyNRr1KSC6uuiuCGI+JiJXR1BimyEJV4kyW04RiRbz6XBxvFXpdIxKuYZT6KcWrJMwQYUfBoULe03HDtkhChITlYqqSqT+C2+yfceXa3byJT/4zsS1bfFIlpI5ipbbGitbQJmMk0yKKIoK1UVMEq5+QUaSuWqiuiGC1TkZN4+kiOmqFhD+FS0ajUBBp0udKESKvIkGaSKU5Uca2RbyqDrm5PYysmaQhZZoiGiGpTm9S5FfrpFwdEwEN4VlVKU+RNP7EblJWqCG5qNRdW+RSI2YVJJ4Ij0jfuCmCEi5QETFMumKI1TCKWqekmKgx0Vs5zrQVp2FaNNIlzFo/nohavNFDOmsyVhnHskX2wqJldpGq5T/c4op4GuLE8k4kR1M06olxOUcu1YKLEZ9PknFKdamXY+HWpWH9+jZMerOzWLu6ipwcIppF3a6TjesU63Gp9wRlkcFsvUvUcYLiZB3XlPwNHV1tUBMR03QRY9OW85/DrIu41xOY/r2Wmgi8VsDRRfz9B1sacQxFJEzaUJHzrahVqgmFUl7qH9maqDlKqGhJ3haFRl3yEonNWFRHNZH1HtyeSfqH0oQTBYqN5FRPaCKMasl3zuuhEVtJd93vGQ5RlDZRRJJ9FP+PBRE+X/r86Xz8ubsdEWPLTBGzc/Q3xrh+tMDHfvptPnLUImavuIjlQzEa7lT6gICAgM2FQPg2Uwy3jqV0UpJLvdOYhxIbIyYXWiNlUi+ZIiaJpiQojYz/mFnEL98AAPPpSURBVAUFs0As7qAYMYpOHsV/eCIVoapJXiVHLv7QGeliyC0RV0Jy8ZV/tmQRMSkaIiw1RWQqgdsoizDWRDxE8PxrtaqIRPpP6TYdpal/qlyw/d67dH1LRkNPieRozPZqrCnXiRtdqCKitZCoomdJWQ4Wc6Weg+j+Yv21cRE0nUI4QXLSwExKvLrUr6NCd6WHYRGlDkUkyxMB6VQpjodxYy49klfZ72FDjqkQEpER+dTK0jYKWRGghgiqIXXylCSmViRlpymrIruqiIO6LamwyFupSiRaAiuHIyLozwfn6kWkWYmKEEX0tMQpoIYtPNOQY+6hGlqFgU5KxHW8YBLL+nMUVkSsPJFbW8r3H0Kpo0oDhxoaZUWOWY9SjKjMy4fI93s4ozXcuAhdZDsmE6voK0WaS5bZSZG/sRh2Lk2qNiEC7xHKKVRLHkk7Sl7aJFPz73erNqfIyYWyzWXrjEqFsCcyHy5Tq7hE5ORU5Tzpco4dwjgi3Q1MtIYubROSYwjL8XiY0YbIZhm9lqAczRKfkPp32nJubBG2Ain5ng13rKUzL9Is9ShXMvSLDCveOOmxOQxFBqm63STDdeqWSS2s0quJrE5UMep9jHeOynfPRrQPy2o0vzuqL3u+Evu9fFJPv5/Yf6DDDMl3SES6omWwVt7Otaefww2XX8VNK0apTuqoci4DAgICNicC4dtMseMGTn6MrT2H8WwGp5THEseLldNUIiWRrxpWOE7K0kjKhb4U9u/hMwjXVOpKGF1Xm6KWcqsUReSSegXPTlERMTRE5nR/Og+5yFdNRwSgl4hcxKv+MLJn0PDNTjQy6lRxjLBYhIiBnSCiRahHouiSpytiYWqF5pOphoOIjoK4BbaIqq2H0LMutfEaHSId44a/7JmIq9TQruZopJTmXHYpJ4PrVkTOyhTDfVgiUIpdRXX9HiyVSi3EgOlSzBapVHV6XAs7bWLXpf5eWeqZpCPWSV6tyLaIyJFDvbNGesihEtYxJA9D8+eAk7bzbzwU8fHl1FGqhMM5qpUEUa+AZCnyJWJVEfHMdpG3VcKayJEzTqYk4ieyORaLiczmoRYR0QlhSRv69zXWRdIcR1oj2k1WGcUScSZsE4qksEuTZEVs7FQPVqEgklVj1ngvq0VqNTlHYUfkUcRYc1eLBc1GS5SwRcLDkYwIs0OfVWfYDomIZunTdQZF7mLSRpgi5hQlX5uInRSR7KVDq4mQisv2V5k1nKaWKWJp3Ri1SWq+vKdEsGoZTBG+jC1/SKTLqHJ+e6R98yH5Q8Lv1RMBDY0lKOTKaIU0nWkRRTm3nTWTMf/BG0/Ou0hopCrli+SGTJu6iLElwu0adQzLIOS3r/zT3DDpsMGEUSXtdlBMTBCR8uuWRU5EG68kgjyfSOh5NCdCsSsuX2KXslMj48o5lu9QQEBAwOZEIHybKVW1wVx1Dk8pZboKDegScSl3iLisIVzX8Rr9mNFxaqkQlaJCJhIhXKqQ8RpMxvTmfXx5kbuqkqMfjxGjQcx/qrQpehEsNy/yliZetCl3iChW1OZN/g3dxnBzJNU6k3oEveHRKXWZkDT+HHoZyxM584VLBMq/G8t3Q8EfsvN7bxR/GhcJpXKFfm2AVakGs/z7/3QT05pFNjqMWZILuhITIRUFjGWkPmly5VEmReJ6yzp1EcJQ2J/gOEzZ82eYS9OdSFBWS6iTMSqxLhE1Ecuw1MkZag5Lz8r0szokIjcewkyJqDQ7iPz/+UHqJPVtziUo9fWraNglrEwEO1vGGxcBEqFU4wniXpGYSFFZT9AQkVFF6Exfnv1Jr0XssohwhVyRXAtFt9DkXFhReRXRK0mdwuEOSRemPjlCNjaftXaFRLWOkpD4+SxmeK2UEfcXyMALiUDaaamQ1ZxmxfVMEcacfHYJSXupSoZkBAr5EhNukbDXRzY5Rr5YFmGPynGJjEY8SuOj5OsSX74vndES+XKJWj2Bhpis29V8qrhrXPKQ9kuJqE90muilOh3GbNaoNWKKJ98FqeNkAiMyTrKgEEkbjNbH8bI1hlyFjlqFA7Y8jOeHH8Op9cuxl6fOtbStf+6ngv8NmKIaquP4f6E4FZFkh6g5V873JEh710U4PRF9Rc5XLSzfG5HpxFiDgl0UuRxAyakivs0TGBAQELDZ4P9GDdgM6Q5lGTQmidRCDCVsQpUEYWuQqubP6eb3bHmEM11oTpGQVsOzRSIyUQblG9Nhi7y5cgF3M2DmGYpOYORjFEP+XG0V/9ELSdeBWc1Ti9kk/IcYRGqIigyW5WIdKVLTa6iNTjpEFlaFVTor40RyA6hSl5RI5NRkzJLGn89kGkUUo/kqF/+ORD9Fd8RfMoS17gSlelJEaoQxKyLy5JFL5VDqjgjPGhGaUVETi4TSTU0kzK3a5KV+ODncsE6uEGJ1oygCIZmnPGLxVSJHUTmKCKquN2V1vPocWGURoBimiFpzYTjPaw4fTs0Hp4n6yavf06eGMMp78d/nnMfiXaGSrTeHx73KKKNKv8hgkqglcmI1MOIxomELcWi8ZFykTqMo0f18S/UM4VycZLSTqCvxQxmRybw4TplEpgdXhBtHhFyz0Z0sYX2EmhyDv+6x6/iTV/tKVmjOcej54+umP4VKWsS4JqEPwxulmLeknUX4O3WO/e4SfvKJ7Qn3xlA1fyi/SqEk4idiHO/T+MoPl/CrY7YnNKuf+eF+EU2ReWeCcm2SNZEoyVAcNxuhW+SwO5NDL49LZRQsW6SvHhfpHEfxeyhFCpMibF5UKrZmdz570aNcePkPGHvyTlTx0UxitZxjvwfOF+jWQxnTguavlyutn1DSUrtRVCtOXP6wULRx2Vomlg/T0MpEoh041aocs0m1NCECK+c5nKEhsl4r+2vtBfyrOeTE9dNG+cz8/H8df23zW88/trlW+cuhOT3X35HuX8VLrd/LPZ/+Wu+t6cTapyML+OcRCN9mipUfo1EskDHi9CsWE1pIrs0as8QLxuIDIi6DNAYrZOTaGM3FmKj4w7RiIl1ZTJGAeqWOkTOIm3G5FsfJxBzcjE1GZBDboRT3iHu96BW5bI+XsPzrd0ikrNdf5lUjHBKRSusiFJJGZKkRg/zQ0yJwYcrV0vRFvk32/M8iVoqmN2/MD9UmcFx/smXJy3/ANp5lIqmwnQhgpXtbYsOrqaXq9Ielfp5JPaJQEcHI1UUUIp0S38MwR0hadfnsd4eJEqb6SIvoGJUwVjJMzBRhdDJUkp2iGzZx2ZYTUVXsxlR92tZvnaqvz5Skrk09Srw+h4XVN5CMldHtTsJbRDGcp1mTjlBOzsWY81re/51f8+n3799ME6tXJF6NWVqVeqiLrrmz+Mg3/8hnFm0r9ciiNPLUax4DRo14ocAwE/QoScJxm4InohNS2cKDstEh7Rul1LwXsST7XRKhTkJuCtMeIZEQ6Y08g1KaJYKVo9e/b27n49j3wB9x7skrqExEcFRpv1I3WrJE0o2hbfdVDtz9TE7+yZPkR8aoK6uZTFokEykSjZCUF24Kc2Y8wkSog0JR5DZSIW0bxPyVO0Ti3YhOv0jyWM8cBmtZti7MpqLEeHO8woT6OE+lh6iuCTNpSUbSHr7gK75AC+va1/8DQIIqohkK9dNQDWpxSUdevtT+Ay5SH5H1yHgFU2S63+gh6ogARy1KsSoZv3dVvgst/tOk49WKv8zj4Qs2XBs84D+Hv+f8+vPI+itAHb1kcHrLK0/w870hgfBtpriRCKS2RnM81vj3rOWHcDvDIn07k64/wqiXoCdSZTw6l7xp0p0o4kx4hCdEXpIift19aMNDiBoQtWZTU0uEyjZr4gm2kvgddkokSS6uKZiMZOmuFon695zZURppjXLNQK2uoZ7qElGo0zChM2xTFgEIq75ITX01m6souHLBFsvzL/r+Hr8XbcypoWnzsEVuav7Ds/XnUON1uexvRbf5XHNOvHglwZpREbVMTNJGRe4mWeEM0lMRkauJpJg2k2qDMXUEDI+OfIbxyTVEQzE5ngKxyghFZYyqPUox3kH/yB7kRbRmaZFm72NLQlqvfl1d1+/fdOhLvokJM89T3Y8QHepGiRTRRuq4lkNKq9PtDGM+eS8Tqdm8sXuUkipCJt5Z6NuRokh3xB6i8OQKxpMx9ko4/m110i4hGtk+Gg1FBM9DMbalEVYpF6RVqnIuRHzLoZ3oUp6nWq2i6Glcp4NqOS6iNyj6NElM2tifvy5hZRnX81QmV4tYRYi8fjaN34xxd8ijT42JpEZFesflnCvE9BDJN25D45JbeTBsyPdigLWJKrlampKId9TIyTGbxMTTVstxZcdcKhIvFN9BZCxE3X8gtroKNawwztak1SdwEy6rDY1s5g6O2mdvPvGO8ylGs0SyKpGwv9ZtS8r8Mz4l1n47+wLoh4J8PRRlDfFYg8aYTlTJkhC5K7tyDho1Ctkw2Uonz41WUP2HZZwqRs1kjZzrnCXf/YB/KdsesDcsOZer5HsbsCGnHrEf+x1xanMy/VcjL6V+wfn9v0EgfJsphY6FfO/ci/mfN/Xxh7U29z5wO3decCsH7/mMiJJOo17G/u6z3PY2j3d+7gJOv+Ii7nnkfq4+ajdKtkK6spY+kYmvPfQotz24hOfOvovfXnUKi5QED4pMujtuyXm/vZ8rP7Un0b6dCGdsPvSpC/n6Dd/k/cYczN0+yW9OO4vFWz6P6o+COp0U33IS51z0cz65Y6g5ie7UOqn+5X7ql4g/7UZTrlQFu3cPvnLehfxyrzmcPe5x33WXc/PFN3LkwjEaExp2IktHMsTHzvgLl977ME///gpuvP+7vDUmZStDRBsVBjrezAkXX8NNDyzn2Ruv4Pe3nMQJHzqItWURQlVn6/S7+fFZt3L/3UPce+uFnLVsMf975OtYMTY+Y7h5Skpcz2reJ+d5NmvHH6IaHscY35ZP3/MAN970O+790zKO38mgWLHZ67O/5Lb7HuJT2xZJH72Eh265mkvO+y1P/u9Cirkd2f7zf+Dmhx7h8HkRosf+nOW33s81S37IY8ftgZfsp971Bn58zoX8zz6d/HbM4cmlt3HZtUv5xM7PoPvDpoqF5flDvrP5/e/u58JLjkccDEyRHTdEyKngZHW6o1szOn82J755Lo8NVSlM5ET6bUZqVaJOnExXg8n+HfnWAQ7XrZiLPWxSkvaLmQrbxQ0+es59/OYvf+WBC8/n8ud/xjs7txIZG4Xc/nzr5N/yrf16OLXqcu89t3Lh1XdwzB7DhEZ13GKVrT7/M5648VouWHolF579HkJDdTnDc1DqFTnPUld/+HaDC4h//jU5/QZ9oS14PYfy7eMu48xnn+TSe87krBvv4L6HLud/DylhphxyiRKHn7mUi/78CE9c+Aeu/svPOTjage1a64aT/NUGB9pWs5k5tOT3EKzbd/6x01unh6M2Mgw1s0dhg/QSWssg+j0i5996Psdu1xLbjW97IfyhthMPOYQT2/JvT+vX0a9L+9DZzN6O1mo/rbBh/TZ2LCc247yc+vvLOn54ESz114R8AabqsmH6TdXP58WO32dmej+ceMiGcV6ITZ2/Fu37b2lburI5vHvisevKX1/P9cf3YkOaL+X4XowXqv+L5f9i9WvxQue32Q5t+b+c3rap+q2vz8aGzGee31b8Vt3/3p9vn5fy8+PTrMOreEi+nUD4NlMSa55jeczhoO/cyFOf0tltryP55s3P87HPv4+dMh2E5s0n9dASYl+4mW9vtZIT3v42tj76NCbe/1O+I5LScPbi7Zdewzbn784hr9uPzqPfyi/O2YvFp32abWIFSo88zuKfHU/yIz/k6M6bGO74Egd+oZ+nDz2e39RWk1h2LY/N2p7d3rqAaqUXSy7y++88i21X3cEpy4tTPXueMt1r5uLfM+fjNW/klx/icpXncjoHfu8qhj6ssNsBn+bU6wq87xsf5jXpDHa1gXbkOezz2905cP9d6Dn4A/zgskM44dzXskcI5pQ6WH3MgSwcPoM37TOPfV/7Md638Kt8+XfXk06YbFkOM/y5gzhg7bm87i1ZDtruUA5d+Bm+et79RKM5VKmbXxPF9ZrLxKnNmfn84IiQmPSEetglsjXdPziNwi/6+cAHP8EXL17L7u/ehx3tHDf+6Gjett9+/PSvDuNnvY999j+Y/d9xFAv+92rUsadZ/vP3sej1O3Hm/c9Q+dXHef2bF7L3e77Bjj/9K6MTDt1DK3kwZXLw16/m+Y9obHPgRzn7T4Mc/NXDeC1xXFvq5T/eHK5RqfkPODRIietFjTSmWSfk9WGJdBWdp5j/gS+z/UOncPzFz9At7VsOjWJHuvDKeexijB2O+ig7PXIdP73tWmYxgG00qMoxVz9yBgeduSfvOWA+r33rUfzwmv34/gWvY7tug1nPruSeqMW7vnAVz39YZWep3wWXreHN33g/r1MTOG6Sh8/6ONsc8HZOOTOJXk0R7a7RG3oaOyYVbQ6XTwW/x9Sn2bvnrzKshBmpT2CcuD9vTV7M17bYhgN2/x5/npxk8Kz/YfGfJNVkCfXwk1lw3r687eDt6X/Px/n+dQfx/bN3ZVfPXTecdNIyGFxydPN9Mxx3VbMsH/9isJiT1u07aeWidReMJ1aslC/R3I3+km+tX+1fKBbeuf/69FLW4vOOmUrzxM0sHRxg7wPWr5Xt95IMLLuAU5e3S+4Ls2DxYvj/7J0HnFxV2f+/d26ZXrdnUwlCqIIUjYDSFAXsmlcBAREVsL5qVFR8VXxBRcWCEEFUOoQqHaUTiPQOCZBAstlks7uzO73cueX/nNkdskSq+kdeM798Tu7MLec8p8ye7z31pIkwVNfYguOOnrwyIVXZLdrtTo7aay/2khcLueH5Sl1VVLvduSHu6nlln5Lay/uQKfcrmDto/iCLj/p2sxVnYq/vV2f/lkcfxPxXiJeyZcFqldYHP3/fy9nX0vyFBzFw1JT4H7b/5JWJ/Jvwc+J51XOo8vrYa15d+r5s/ok2Lh97qRumav4CZpy/V/O5CTuPEhv6mTF34vKr6dJ8ufi9kl7OfrW1p9LLlZ9X2+X6UvmrAO2WhTOlzGyw4eBTl01e/eel4jc1f5Vr5e0/+/tu6eV+P/8X1Qa+TVSZRJLukVGu/v0MLrhuRwxzNVdd8DvGtv0sM3u78dYP0x1MEFzzSz75nS8xVt8b7ZEnGcpYrE9uTXnLebx/dp3LLhlhfbVAwgpx2+XfZWnPW1mwRSddAnAr84v50ilZjjn+bL78448Q/dUCzil241cFi3yLmy+7nMT2u7Bjchg3/UHeOSfNlXdeTSIanwS+CdhrfVZj91pySjqhkUH+8pse/nTDPGKRIRaf/nse7/4YczbLSI1fIfKrr/C5gRraYJD+jjArbz+PwcDbWRmJ8lRqFZ2rt6H2jr355lAXa2ZUyfc8RjRjEqp1UGmYdDw3n7F9duKo4Q6q00r4mTWEg1CKhjfYJG5iTy9lpwITR/6YelTCa1nz5DM8ePI7uPusbRhaPc5N3j3Eut5BtUNgQVSpm8TS3VSrZYxqFiOUYGxogM6oRSAaZW3FI5Sage0W0Isl9HgQfzxLd8hHN+SP0cAgV58zhwtv2JlQfSXnXvBr7FmfoX96L+FQCntcoDf+HId9cnc++bEfkAq+mWp5nFBYw647BAVsjczm7Pjm97P8gSvpj6xnXVxsqafVCin4YegQm7bZ6pPc++hFdDjCKdEhQuNxhBixf3U0H19pi18NZmc6eOiWn5Ib35l6UG275jGrWOSWMzbjsou3p8d7lvPOPY110w6mZ94cQpJfHQWxRe3obD3B2mAMpyiwVI/iTEyBbkrB3vPpLGp16fruLHbb/D0sve5PFDd3SNpPccUD99M/ex7bJd+iHiR+6jf44nNV+YtfJ5OM8eSSkxky3sKqtETkFaRaLXZXgHPWtZNn4NqzFjM4f/eJVpIVA5NnN7QEKM2a2Tw0pSqdqXBx7ZINQLAlyznt/KX077b35BnYe7d+li7ZEN6r0VKprFthLD/tfJb27/bCCmlwYv/tppavmjiKFMDt1v/CMVcbP6+g7vhmHXcCJxy3ABYf/4JK/dXa/0rxeh72plTGr2RfC1iWnnTI8zZNhXB1XeXF1HBvvnOQ/hZtvQq9XP69WPn4O0naq8sr5HeKAFErKjNnbYDkV9JLxe/V6OXsb+kVy8+r0Evl7/67z5ckeGGZ+Zer9Xt8jXrF33dLL/H7mao3epf8VLWBbxPVOqdKwNoMxhs8EXyOpLclc8ox7nRKzPOfJGpFyGsZ8o/lWZkLsS52Fwn/Ln747ndxzt2DGNN3JvasAFZuGlYwTqEyzPxRmzsFfGbP8hhLSCCPmgxd9CV+XJnDBwJX8us/mhTGh+jqcPECz3Kv/KF/uu9DbLu5Rnp2mK1nD3Lj2auoaw51p0E12sA2BEr8BlgGukBKOCfgY0iF7bmYia2JSX3+VH0ZwcBW9NkWD3hV3pJfSTJs8vB2n+a2Py7loeW3cPr1f+JPJ3yOTGMtQTJonsHILe/myF+8nQV33MBtV5/FuV/7ML1eB44p6RMN8NR9O/CV38/l8Btv4sHLr+eSrxyKbSZIl9UsT1f+aKhWPgUfAqYCe4HmytFBuRJBq1uYc9+KI9eeCD5FKKpRH7aw5w7TVd+CktGg3xfoWq/W4xPIjM0hKPEy4mHqrkvNrZKOSBypYTcsnOAsgd+Q1MIFqsFRauE0gdjuRCT/now9QNKay5uqIa4PjPMmZy0BIbZgGhKlNP1Jl4IW5d7Bh6l7SaqBEOPRKn2OwOTbvsBPrS9xwgUGA51bYxgjmGowoVsjFOhkZP+F/Cr+LRYtylCMJOR6BSess3mplyd2/aq8JCzhkTue4owrL+HaE7+JHnuY8NqSkKLasWMLdF0qvMRKiryZmaR4whthG+dRgqUUftQja6zC9meRMlZSCJk4ksdqoz4aFarhhkC+QLSkd1XSMSiglxGgruojGLEs9zy2nL33+CL5lSbhjtns9479uWP1rWQbT5IIRLh/q29wz6I7eOCBe/jTVWdz7ff+m4iXI+SI/6+kLWeJvf0sWHTL8905tyxaIGfm06yv5Y//0v4ZzBV023vGalbP2Fsq4gkIGVjRPEx2cU52F6nnp3T5NXXtkg0AowCHCUD4l2r1qmZFpJzvX8PBrRa0uTPoHxxg0tSm1PWBKS1QSgoaFkuc58v/x288IP9V2K9aeRa8TLxUC8qCfjX8a6MbXqV9LyUF1IqP5u++oUVMgclgK3NEG+ePclMr+5fNv2b5WM1kY+6/Rf+U/f8ivVz+KuButXb//5Aqm0ctnsnCWyZ/oy/T7fx3eqXfd0sv9fv5P6o28G2iCgtkuJYrUJUmmh8nW3yOQryTvfOPc3u9Byou4ViUDoEFN+BTa5hEfZ2Rqo5hlkiOPMv6zP68yV5PIJ8VH5Ms7e5kr3SdZ9eb2DWHHfvk3oN/ySdGbueSFbvxk5Pn0tndRW69AF1nScDL4Obrghz8zm5mfuJd2Gd+jtXx7Sg4QZK2RtyzSOkCTnKf2iK/JtA3bvgUqkXy0Q65J8FYKEmP/P6y4ytZNzvEB4PPcK/wYL66GT/76cEM3PoNdthyOw54774c8ZWyxKlOpl5gq8As7FGL1aftzJc+upD9dj+eyz/yRc754YfI2oNs5TWoLwvw6Cnv5Stf/gI77HYyf/zIF7j5Fx+nXhuV+AaaS5+4agaoHAO+hS4gZehq/b8wtqPh1yr0aXVh1QRxQ/4QR3qbu04I9jFXQGjQLzGmCxjNnoEz/gxFgSm/6JMqdBEv9QmLp8nlIrBtilr5MYGftXQGoqTpJeAVKSerFNTKd3mP9YURAaZ+9uQxbvOiOFoStUmFG3AZLoSJGWW23GwWejKIVxlr7tO7zhrgvdu9n+sfuAyvIdeGs3g1n2pimEQmQCUxyvtnHMLlN11PWfLArYRQ26jpusmo2c83/2cPVt92DLtsvxn7HbAvH/10QdjMpi/YgV4Ds7eTalFNtClTyw+SlTTZM7yeO8Zi1CMGhXoS10kRDZWIWRaGwGtK7O0LDAlsdkv6SXpqETKdHYTjJuOVLEOFMXlZsKFaJZFaRWH+sVz1xDP8+brT+dQ9x3L0KSsolgICxdM56WfvYdWdX+LtO+3ABz/4fj7+2RqmVIh9brz5G3hZCdCtRnVhbuiOarkX/MHfcm9mDJzFEsGdvbecy4z+pc9DwNHNVrEN3UlTu/xaFciSpRPdos1B73fe3Dz/D+u1QMiKAQYFWKdKtXrM6B98HliVWt1mqrtr0Qkv7E58NfY3W3leJl6qu02ly4JF576wZelV2veKmr/w+QpdxWNql6JqwTx4Sr4qN3XSwcvl34tpy6nNu6+D/tX2/yMQ+0r5+1paM/8RKehrxW/xTMnrVwt9r/b3/R+mNvBtoipUDCIJk0a9BF6I6dM8PnDMp9GXLOWaVeOEdYVjVdTuFW7AE9iIYvlBuV8nYDiMPvwgd5dm8oGvvpVoooPpVpRDjvkec1eu5m+3r2+2gq3Z47859zMp/vfY4zjzR6dy17bf5Gu7VgirwWRqTbnxm7j6ksspLjiDH818lIuXmAwV78cK29TjFhXPpeZ5BKxQc3cMt2QTckw6Yp0E7BBjyWXofooR02BGT51jjvgZQ49eyXUDkLB2pTM5xsr77qIz1Uen9wE+/T9Gc8FdBRIrSyuopnuY4WzH0+VbqXY9yOPH1anI+VBG6pu6Ry1tEbdNHn/yAQHUa1j2sxG6Q6N0bDaHQEB1LSrYUxWf6kKamEygxpjhC6JqBmGvQlzg03HkD0hNgZ8FjaDcU2OgLJngdTG63qC7Y3OmR9JIFoitOuXoAE5kUCKRZH0px+zYW9gyqZFpIDBpMTJWI+tphPRxSlYYtxajr8vivd88Fv0vV3LtyAh1oyiAHqeQT3PGn27nnD8tJJtfhRcsEfaj6MEawe4j+ObHr+NnJ9mMBYYFunJEgjqugL0lNnqhBXzxg5ey6Ayxuw9CoQKqsVU3QhQKs5k9I8DaBx9hWs9sutmPw47T0MMx1pRqAqL9aMWnCWe2xCv4pLuzfPUbv+KZvyxi6ZBOsF4jbeqkwwK4msfY+i7CQVPCqFMaV13mw5hOXl4cCowXs5QrNk5AANHsoNHooTO9FzvvPMoP/2sOH9pnCw552yFs8cPLhHAdom4HwcD2zJrRYO0zDxOL9ghA78fRP4ljBoJUcxO/ASXV3Ta1W7KlFsy81Jipidammex+mICO1JDXLlnNboftzszBia7eCTjZ0MKhvp/wIi0sqhtJjQs6brfV//SSJfsftoD+pUte1UzJiTF48znu6A0V8v4nLGT+4J20xt6r1ptFC1Zz0rev5dpvn8RSgaeNJzy8nP2qhenVLNXhX3MszeFRU6Dv1dj3clrO/uwuYZ+015QKfUqX8SvpFfOvOQZzPgdN2jeRVvLAG0SvtvxN1WspP0qvlL/NLvQFh/1DXa5KU1toVVjnvoL9KryN9Y/+vl+LmpM2JiczvdHVBr5NVH2eQENhJYd+/VIefG4Np191GV8YO519v3MRXZu/FQ+beGUt5eAMGqUGOg3WlwXWUhGKVejV7uN/P/dpCvueziUP3MedF53LN3e7if/+5P/KH9teOj5yEr//0f5k/+fD3BF6M5nitRx15KPMWHQ3l+xrE8i6jOtJYoM3cmc2SWD8Du4LzSbdmaFrsCJcpGMYhtihUW04mGJBOp5WK7NRHRqlpz4Opc3ZY+H3ePK5BhdesYRPZg/iv758C2yjulTP4XtHPsynf3gFl175MLcuPYyl553CeGE78p0Vqp178JPfnsdVj3yfq2+/j+uvuoB7Pvgsx/z6KWrrNsOethlnLl7MFXddwl9uuoe/3Xgjt3/oCQ76xnIGVpbQVEuXgLDaoas5Ydd3BexsgZEGjt3Ad4qE3CyrSkkstaNGMEq88DQlJ8pQpUxm1nRmWAGe+s0nuDbxbc64937OOutirjnundSTFsU6xATQBn//c26OCzD/ZS3nXbyIa3+wG9PnBumrjzAU0DjiyJ/w4Noxzrj+Jr668lje9ZO76ZixrUBZlYoTIJPqJ50WwLYSAnJQLYwQCXVSFNvf+o6vMX7Z2aSnQy5eJFdOE0sEcIZN8qN19n7/DxlecgqFzBMM5Ep4pQi9HRnK5SxdnX/hmwue5IvHXc15593G1Tftz30X/pLh0elEttZIVp/F86az36e/wAPrq1x3+T3sPvZxPv+dAfy5s6BrDj/+3UVcev2NfOqQD7LrWxdw/x1Xc+YvvsyskEE2lMKVFwk9HccVEDQlfaMBl7hfI1EYY+26m7n9xkP5w7UPcOY553DV3Wfw9JU3cf9pn2X9zNVojUv46oKH+fA3L+WKq59g6QNHctM5PyE3PoPqTCk7k5roslzwfCvQ1BaCa46dbDVoXdvo+qrV/cyfv5rm8KVrl7B6/nz6V6+amNQgFcq3T1rK/IUTXUa33LKQgZOEajbSBNj0y3OvvqKdqpb/yjUHoL8GqDntkJNYPWUG48KZG8YrTQy4n8/SkyYnaUyJz1Toezn7JyZxvLp4TXTPKejb4P/L2fdK2pJrOWtqd1/LvcoWoFfKv+YYzOYAxwn7bjlogKNeqQVtitQYwwlQuHUCFFstka+lW/Jl9GrL38uVn1ey75Xy9++6XMVNneX6Sv5PjKlb2OyWvmXRDM5XBWRSU9Ov5ZqTK+TlZKr+md/3q5UCU4kAU0YPvGGlxWKx1/5Xpq3/86qE3saJZ/+K0KJt+PLtmxFzV2IWwc5MEyqQyt0XKDK7iRXXoiVUF6UtMJCmMDpGNNkrEGYxp2AzHF+LF+oXWBgkHNEJejMJ1J5lLBmje7jEcIfyI0QysJp1dOKVHbZK5Hg2mKCvWudZf2sOvvR2dj+9k2MuS9NhZHEjAXw3hF+rCfC5NEwLxxcQkTeogO4SUnvepnflO+d8i47fLOBrV8cwwiP4jS5qXo60nyQSH2WgPpdMrEquOiThmnRTR0/2MVzI4Yl9RnmERq2LSKBGXCsTJMXqqE4oJH6VY/TqIVa5ZQKqezkkEFqy8HWbYDiEJ7ClJhK0dvtyfbFUDS0UIFVLugT9mECVgHFoPSWJv61b2JEwSW09bj4mP7wUxfH1AtA6sWpNPcVwIExErxFjC4qpZ6mt8enoDGLnNKxIkbrfQ6CyHp/tKHX3csKvf4F26a5885oYqcYIhtjS0A1sI0VIfBxXu3nYJjGrjqvF5GIByw3jpy1ioffxpYv2pfKNE/n5XVnKnaOkvDjVvEk8KflY2Zdjrp9P4fgfcMoSSftOiXcpTznfQbSzilV2GTW3lXxdheWP0qhb6LbcM62HtWvXY3QcwI/P+F/sc/blf68NUA4N0zkuaZASKK53yb0jeK6ER5Fgt+STxCvnRcT+YUnnLkIRtc+JGhdpU9NcKrYkrit/sAwBf3kRKLzlE3znZx8l+sH38F3VMlqcSVZ7Dz+944tEvrAd33laF/icg5YpolWG8etBopK2HcGMlIsSEdXa+gaRqrjUbM6pA+xfjf7R5/7VejE7mi1Kt6gZphsmHbyearYILdqNO6eEP2HTxKzUf3ea/bulgOnocxf9w+Xn352/bySpYQ8KWlVr8j/y0vZ6qt3Ct4nKqw+RKNaoRqZJ5f4cppWh0hknI4BTk1IRMA3izii1SDeO7RIMuGSLRboSJoWyVOyNHKWgg1TDzXXZQsEU7rhLl6kzrrZhrfjkUybB4WGq9mpqsbcIRI0yzagw6GYwRgqMdM1gxsJj+f6yb3D2rQkBmTTJng681Eyp/AWCDI1gNELA0tFcFyvgkQoZ9AUCNNaNEjWkkq/rRJwRwtG+5t6zvUGfipljpJTGsNYwNl5gZncU4ilqrsWQxCkcahDN+mRsyPQIGsVq5KIew8kIWlFBYIhYOUJZ7E3E00SsMPlSD5WUR1wXHtZNbIEbtYCxWj5ECwj4Cer5zdQQp9kChBXCep4hOyzwEsSIJonVBPbMEGU9QEjSP2Q26MrXGEnMpYTagmQGGYmbay8nNpYhHrEwR8sUukwqToZiokJvOk7IeBJvZFTsEhguJDG9EcxYUizoorNDl7yNUy9mCahwLQdD9/C0boLBuIBemIKESe5avvX+73Hpo2vEnhoZp0uAX03W8KgK8JYD1/CdQ0/kpvtKlOsN6tk8ut9HRNI2IHBb8AKEzcebrZmmlJdcwycenMtw1Sesdj4prhKU00g6QaruMBGti3xXjI6GpJ9qHe1IUgmaRHp6qOWHyTsmplEkKRyWiQmc6jmB5iJeoyZpLZBvxAlnBHjDUcqFCtM334uDBdyf3vxNTFs7nbVqC7/pY8wsPMbKmR0MFw3SyVUCenl6kvICYcZxvA5yaszlhknA/3Y1x8i9zKSGN7peyn7VwnTsv3OA+9wXjv9rqjlG7TWOAWzrRfVvz983gFqTYprDHv4PwJ5Su4VvU5VUzl8+45fseubBLLhPIKUyQp1d0AP30y2VckkqWFVZlnQBDLkSEgC0nQCG2oJM06kKuFHvFagZwq7PJhh/Dn9cIyOVa7XSzZia5ZmqY3hyn3hfKvWTNEeIug7Zjg7mH3wOPzwkzDxzGZ888OvcMCx4IJV9JJzBzB3AyTcdwrywwIwA5GihQMI16evroTy2lsHb7uTQn5zBIWf8gTl/3odvXt9JdCTPSHo7rPFVxDpKlCpp6n6B/vR0BodWEYi7JOoOOSntffEg2VydpADESG6MQDAkEFAjVWvQ0SVA5HULFI3TyHiY4yXSej9D2iC95QTRjhArGgWC9QnIU925uq7LH0Cvubeu+jGpfXV1PYoRyFLxooQ8STsFSNq4RDBJvSKg3CjLs9NIB3oEmJYzVLTR4gKmwYhA7Tq0WpBhR8g5X2Ka7qCG/JVTmxMIJUkWHqUUmssXT7qcna7aioNujhEsOgKk04iUxuT5qsCtS1FtNaYF5W28jC9AFfAF9Hw5hjrpdSsMhCrYFYHAuAYjAueRYTQ/wKjboDPYyWhgFK0cJZ3qxh6V/InXJb+LjBWjOCHJ1DrMDHczUB4gpPbfHRUbqdAVkeIU2IxjzryKt/1uGw65P01VbZdW7YbEenoL8lLhSqkS0Ex3xxha6wggd4hdg5ImQZzK9vzxvjOYLXkuqNZsPe0NGIQsm9zQcuzHHuXjX/4RgR88zCm7h+i2RkDKXY+RY9Fh7+d/n/SJRnpwh4fw+6dRH1wvyW4INFfRJSEzvWJPSez5N6rVKqC0cWXRaol6yRFLSye63v6dLXwvZ/8bRVNtbEkN0t/UW6SU/tkWvrb+b6oNfJuo3IZDJJrB8odZNx6hL1ltVvRBfxsqAmF+ziIaF4AR5iiryRJegrjAzUi9TiZRpVIQT2JSaWsaqVIXZX813eE+1ghExPIudiKJlx3FDMfQ7SwltaabQMx4PI2VG6LWadEXtlm3NsGuvX0sW78cLdBJPu3R48xhvbec6FgJKxwkkI7hFmoUBJKiYsQ8dB4qJjCiNqZbolAzmeXZDOlgp+cSKaxAcwzKcYnjeIpqJiyQtE7A1ERPhbDzFn68hESFWMQgWCoTaqQY7MsRqs7AyA8IrPWQS48zXW9QWu/TYHvKvcuwiiG6Ag5jDQNfzdgQ6DNUO7mErX5IqktXTeaoBqKEvWGSAoNFOnCqAl1BAcSGS0Bsbe4kkurHrq7FKU+nIz4g9gXxLIFHJy3AWJU0VRk1huf2koqPSzrGKHkCqPEwrqSxmZC0rJYYL9eZJvHI2WJLPEOBPNFKDLORI2dIGoW6yfhjVModVCM1LKdI2BGY1aezPupgFIZIC6QN+xHS9SoBV6cm+R0IGRR7C4TW10iUkoyZAmh6hqqexdVciY+k39g0RtMF9Epe0jxBsMPHKxep+jr9fppKuMB4wWYzw2ClAH3Y66Qm0BiqW83JQIahZmGPka8Y8jIhLxaBlLw0zGaN9zSZnEdDQK8aChH0NOpWlVC0wpsEAB+paeiFmZiSpvXQanwBuYZtsG1HF8+olwexPRYsMtLowjR8sX89WbF3mtixthaQa2+cLt222mqrrddDbeDbRNVayFZJAYpySq1Fblvf/1GpSQxNP9S+aX4Aqa8FiNRxYuyb2aijtidTTn1X3aNqkeXWHrVacKLbVF1TkzfUOcdxmk59DuoTFfaEna0+uolFmpUmZs5OxKF1bKl5j7ch/lMXdG59bo3NU89Ofb71uRWO0oYwN5zbYJOiwZY2fNYmA9jY75YfKi1aYU8Ns+VUq2Lr3Isdpz4zVa3zreM/qo3DUVLnWk4t3bJBE2mhysSG5yZmObfUeq610LalZsOIVEf51KN6Rvmm9oBWnyfKi2phbT0/4VdADWgUqc9T9c/Gu6222mrr/6qm1kZtbaJqVZb/aj3vb3ObrAkF5LuqdJsVt9TOCuBacKPArrlHrahV8bfUeqYFiS1NvWfj+19OLf9eyrXu2VjPx+kVtLF/G7uWXo39G4eprqn0aaVR69rUe15vbWxfy66N3VS1vrfSpJW3yqlrCvKmXmv5q03xZ2N/FUir+9pqq6222nqh2sD3b5Ra+qA1Hfz1XsOnVSlOrSxbn/+VFWarQlZOtc0ovw1xrUpdtewpp76rVqtW2KpSV4VzqtPVs3Kfcuq+iXunQs+G81Nd63rLqXOvpNY9G9/b8uPF9Gr8bWmqHxt/fin/p6p131T3ekrFVbmNw974vGrVa8Hp1PzZ2N7WeVUGlGu16Cm1rimnNPXZVhitc+oeKR5ttdVWW21tpPafxn+j1IKjakFQtXzTwo1WsX89NVFpvrAC/mfVqpyVlN/aZKXc7JCTzy21wm0dX7pSf+H1iW7CiZbDqddbeDg1/H9E6vmN/Zhq01RNve/FnnspTbX7hXHY4E/rfMu9Fv//HWrZN9FlvaFld4Na+P7S2jh+U+Ov1LwekO+aYKF8VHColu9Rn5td8oEXPt9WW2211dYr/eVt63VRc1Pr17Ap9v8FtSp+NcuyJQV9eE7z2Oyu0wMEDL1ZQavvjuc2Z2Sq7xvDzdTuy1bFP/Wz0sbf/3/p9QjjldTq+mx1dbbS6Y2gZr5vZFvLvlbaTbW3lW9TnSobLZhTZcJ3PSk3qpU30HQb/J6a/xMvFcq11VZbbbX1QrWBr60XVMj/SrX8nAp9qjJuwZtSCww2Pq/qcanSm645wWLSqfPKqcpd4cDfS/n1912G/7/VSsP/X2m5saaGs/Hx36Gp9ihNjKXbAO2ta2qCxdQ/OyqfXsy19GLnpoYzoanlQJWhDS3IbbXVVlttTagNfG8ErZjYf/P1VKsCfWElPfF5auX6j2rjSlpBn3Kar1pq/h7UpkLBVNumnpv6vaUXQsXEzFWlVvhTn2u5lv//qJQf/yr9M35NjUfLn1Yc/3/rxdK2pda1CfumzjbekD+vpIlnJ7Sx/wr4/64Lt9nFO/G9ea6tttpqq60XqA18bxAN9u/G3hv2CX9dtXGF+q/Q1C7YqZoaztTr6nyrm+6lnmu5Vovgxvcotc6/2LWpmurfi7kX80Odf7Xa2L+N3SupFf7Gz7XOv1j6Tr3v/7c2DnfqUWlqa21LL2db61rLqUWslWt9b5UN1cqr/J7wf8NkDaXWvc372mqrrbbaeoHa6/C9QfT86vqDExuEL9uosvxXq1VRtirIVqtI67yqbJXUzFgl1arSVGv9usmB8VMrV/Vs63l1bPm98T2vRq2xWap79oWaaB30tZd/V1GPt8KaakMLFlrr2LXVVltttdXWpqA28L0BNLHR9wzO3+vbr9sWRQp6poLQxlylgG8qUj0PfKLm55eYCbkx0E2FvZZaMPhy2jAOa2Owm+wOVgs6v4xeDPjU95ZTLUZttdVWW221tamoXeu9ETR3Bv2DA7yee3o/D3qTUDRVTSCa8nmqa56TRzcGttb1Fly13NRrLffqpCyYsGLqBICp519JrfCVXn24bbXVVltttfWfp1dXc7b1H60XA7KNoU3pxc4pvRxMta5N9fvVqBWOaojbEO5Ey9xraZ2bauvUuLXVVltttdXWpqQ28LX1olLLoahuUeWaS6OotfHk0Oz6ndKdOxXoph7/eU0pmmprtsnt2ZT/fz+u75X1r7Orrbbaaquttv7vqQ18bwBtOWsmrF71/32ixlS1Ws1eTq17NnZKGwNU67zS1Gut81OffTWamIX5wpbH1oQLtRXbP6KWXa/Fjrbaaqutttr6T1Ab+P6Nau2lu2hBP4vPunby7OujqSC2sZrnvBfvglXn1ISOFoSpe6f60Trfckqteza+92XlTy2ayq8pAOi9Sj9ErfBatrTVVltttdXWpqj2LN1NVFNBqOkmGap1XnMni8Vk923rurpXda7qk5enAlzLr5bUtZZraer1l5VviAceWqChvkz6LRzqGk3g062J215Kqiu6eZSwmzZ7E13C6ntrHb+22mqrrbba2lTUbuHbROXZIYxARZxJ2S5j+yFSgTLVcgXPcjBNk6puYzshOkoBImYcv1iiEqpjyP2ePFcNusSdEtFSGMMrkWgkaBg+FauCq4kLhrH0EhE0im6doJ4mWi+BoxbM3cgpJpwcJ+gJ4JWMuvhdwKloNHSDmNVBoxTBinmEvB4MhPhcXQBQDuqZgC9Htf/CxJZrYd+j5NfFzyKlRpQEFSnsCcKNBnak2EyDttpqq6222tpU1Aa+TVS+lxVI0tCcokBUmGCjykgVEtEMDSdMw6sS8n3SsSqrrAbh3DretuVHoexgJPvR9AL+mME6PUy+z6PihrH1cQHDOtMrGULE0PMOYwXEP7CCOoX8auQRfMuWkqcL3AWed83t1oTeWluvhdyA8Fw/bl8Vbdxm/dhabHMGHXqVqqMWsNkwkWNin11FfRoBX7XeaYxYGr3yPVQMEexMMlSDVKeGHRADxiYea6utttpqq61NRW3g+zdq3jHnNcfwNd2JB0yefX3kGhZ5gbSqEcHSHUy7ghYIk4kEibge3dUu0GNUR7flsEuv4dz7F1JbsRQ9DaH8INFGWuBQSE6L4DUKAlImtlUn7Hfix+o4RoCkQGNnqIcxgcCYo9GVFpCsCzMKlHlS9JT7O6kFl8UZjQy1yCD20Ezx2ybYEeIbx/+MEz63A5H+qNw4uSevQKkmYNdyCvo0zyBcr5MPTqcRqGEMupz77CNc8qdzOXr/fozU/Imw2mqrrbbaamsTURv4/o1adurB7Lnnnhy1eHDyzOunuhsk1TmLz/7oD3z1kHcTCsYJ+lXGiuPEG3lWZoZJOh6FYIwDxGUfW8Zabx3myOZkExrVSpZQYgs6S3XsWpqMXaAYD+K6www6BpVqgfFUA7eaQ0vEqJiwfqzKbK8TgkmxQBW9DdCnxtRpqtUONbbOpx4Zwix0EO0YJ8rW6Dt/gQ/vfAXn/epZxqvlidY9cc3lY5QHk7CnJnsENA1T76PbWIlpJNn/PAHVX3+OfT60L7++8mm8/BPqibbaaqutttraZNQGvk1U06PQWPkU5ehc3hx4mvX1EBg6udhMGmYAM59gbS2BmbmJQz+wL4d9+irGOmJEQ1nSVYN6LMX60mME6aLbjVNISWFyatSqcfrLBfRon0BhkPHOEKGhMfyxCslEhEJ/gJ5cadIKxWwbJnqosXtKamKFHrBwvCzlMQgL28V22Jw1l9/CI7ZBwk/jN4FPAC+gdgXRm5CnwE85da3LGGZVUaeY2JbNnRu49s7HcW2fUEonHhH6bKutttpqq61NSG3ge4PrmPMmu3wn3QEKcqaotbRLy513zLzJKxM64MQXf372Z37H9X9bxqe3dun68lUMPHgHN17+R+49dg4lK0MwXeGdx/2e4T/czp8vuInrfnco9RHIakFq8QYNI88OxW7+a9ldnLvsfsYW38DNV5zGgelOqgKATnQ2p591F6e+7+Oc9shfWXbnXVx0+xIWvClFJVwj4LlN1+zCVWPwlNRSLGoGrdgYKXvkO6KkEhJefz8/fVcPdw/OZFXFIFQv4Sg8lKi8cBawJ/8aApANKvVuiLuEilXSjSTRQIhaDEw9gFuoTN7fVltttdVWW5uG2sD3BpaCvd3uPKrZ7dvq+l147tGTVydg75aFM1l81F7P33Pwqcsmr06MEdx9yYZrJy2l+fw8AaQnf/txPrHnNpx8+xrGTjuQt7x9H976vs/y9t+upF4DZ7TCkj++n7d84h387gZHAEvAqrtAouBjVeYRZWd2/fMdvPkXO/HuHTtJ/9cRfPeCbfj+zz7CmzIFutdUWLXZNLY6eB6P7nM0cz60F8efezUfPOIAtkpEnp+c0VKzdS+g4WoBvIAu3BeBUhVzbITNDzqczR7/EyddfStWWMdxJu5XM3InZvcqYJyAPU+zm65opqEKVjpKwPaxGx5RW2O42iAcTzTDbKutttpqq61NRW3ge4NKm3cMu/Uv5fzTlk+egeWnnc/S/t04Zt5Ei9b+u89ncPHxnLpssoVsI6kxgsdes+HatUuE+CZVF+hZK9hmdvaAoRGp59ECIRhbQ2cjTyyZILHOIduYTS6wjLGazayCgFjMoqyvFJrchYNn5bjh4rXyTJrOnipLLvs+l87cje12SlLvKZK770EeOv+XXDz8NKlxgzWFJHokhVPPCOypGbmTLXyCaqooNsfzaXrTjcr5tEBasLObHd5yAA89+mcSajKINUbd78IRWGx1AStNdPHKGXlO/as6jxA051NbO5Pht11D7KEUenk6/fEO1vhDk0+11VZbbbXV1qahNvC9UTV3Bv2DA6gFSFry/WsYGOxnxlxhG20eEzuybQDCjaWg8bwp3bm3LNwwO7VaCzHNK2E6w2h2ifFwiqBXpWEJv1kWFbeGG+qkFqhKuDPIWKMMhjzK4TFqWjfurDkEnz6FVXoXPdM11q/O8/YBk2V6iHmWjSZQ1zt3LoXAOkrmbMpRnxWFdSSj6+irGDR0nbqAnevrEhcTI6BjCsBZTkNsqhO0DbzgdNa+64v8KnEyJ58XoWik6LVrhEwHwwmge2oJFsE7Xy3z4qMbFoYexiBMf+gdHPabT3P9c/uydtcz+ZNVgOQAZdWb60yb0g2s0vWFC0a/lFr3vZZ7W1vETVXzmgTfcgpcN3YttfxpuZY2Pr+xe616MT+U2yAF5RvcC69NqPVMa5Hrl1Pr3pZrqfX8xtc3di0blFPBKfdi115ML3W+rbbaaus/WW3ge6NqxQCD/TMmv0xI0w5gRv8gA1MocOasLSc//b2OPm4BLN7QJbyX6tOdVG9jmDV+B0PlbXC6tsIsr6EWFXAaK9On+biOTb1RwAvk0PVxPIG8Us6AmolWDhFdu4Li9I8yozhCcc0wpt7BXek0uwTHWV9J49cEDqtqqRfxxwzQ4WokzBlojkY55DSBS1CvuevFVIc+cUx1hamm13BA92e58No/UXEyBKW4+kGBVa/xPLCpHTWau2o01+Lb4CrZ+7noaz/nI5v/ks1W3sD7+nME9AyduTJGfO0LQOyF4wBfqBY4vFZIeN6+l/C3pVfyt2Vby72Y/hH7XkktP18Kvqbes/G5f0RT/dg4ni8X95fS1Gdafrfca/Wrrbbaaus/QW3ge4PKX3Yqdw7O57ijNwDd/icsZP7gndy8HLZkOTffOUj/gsP+biKH0gQcbmgBVN9PmNLCt7assj5AdmyIrq4ZzExPZ4brE43GKWoGrqsTDPUSjAVJJKsUax2YCOhRIebkyD75JLcPd/PBr72ZUDxMyjVYcMx32XpoPXfdtZZKTJ53HLoKEpdyDddu4MQS2GrfDdfB1ALCdhNLqCgpsHBcl4Zcsz2XfHmYSMcRfO+QmzjltwGqoSpRSwBSbbARsJqwqNzUmE+t1CtddRr2kzTSW2LcvYotpqVoZOEZ0yLj9jXvmaoXg4DWPVP9fbWaChwvphakbgysz3+fVMufl/Jvqm2vxb6Nn/l7/yda8rQJ48QF5LNqjdUnP0/cO9Wfll+vRi8Wl5ZatrRcSy927qW08X2vxba22mqrrf9EtffS/TdJdckefe4iFgiUvUBLT2LPY69pfmxC2i0Cec1vosHFHHXIaSybUnmpiRmLpngyuPio5yduTEzq2AB5i09azIKDaPoxMA2MlQbV+Ay+cu5tvHvOAJVnbyU5eDvzvzqAHQ5z6m/PZsYWecp+N2+37yafi/Ls05fww2+cxlAoxhqvnzOuuICtNk/R9fgqijzKYR8/njV5g3Jnkp/++vdUztqP392cwrHq2Ad+hbM/0uBrH/sl66I+jjMxDm+icp4ACzUWT1iQqu2zz2eW8Znp+/LzU+vcPbYerRijd5pNvp7CqKpWx4l4TZU3CR6Ovhmp4JNU6/vzPxfuz8rjvs2FT9uMCzDGSgE8tVXvJBS0XAsKph5brqWp978atZ5t3T/Vr5Ze7NzUcKY+23Itbdx92mwlFbWeeSmp51r3TL235fdEfky99sJ3w6m2TLVH3d9yr0atZ1tHZb96tvV9Y382hKVaHieutY4bbPbFH6N5r3JT0+i12NZWW2219Z+kNvBtovLDGpURh2B3nN7KCMNSMVa8FIl0hXA9QiCbI5GazTr3OUrhLtJVmwo9EFxLtaDWvguytZ1mTWwFdjBFlTK6IaBVsIjInRGjk2wgRFdwDY3xIIYfpxyOETaeI1dOEjFdXNfH9b1mJa84pekMDcPUofI+vn7dPox/70ucdnuaQN8oeqHBWCGOnhD/GxtgwA9MHpv/T0CBqRnYtQ4C0QyfuOwzzPr8j/jlqhL1TB7fnolXHm0+3wKMllpA0YKFqa4FCy33cmo909LGYWz8fWNNDad1b8vPqff/K4Gv5a86BnTx15+aNhP+TtyjPr+wq7cldX/LvVpN9WOiLAiQT8ZrY382hNUGvrbaaqut1yLdsqzvT35uaxNSyC0JdEGkVGeNNRM/6OGlgsQLBQK1Bk4iw2A5R1138As1dNfAbDSIBXzSQQu1R5qv1uQz85RCNUL04Yzn6QxFyAfr6LUaJgbjDYOukEfDSmNWV+FHIlQbFpah2vYmpCpgX8269dzm0VcVtLGGa/78V/JPiX1OGUPC98QvW8AynhAgtCefm4Q9+TLxXX2Voxm0qUXG8MfHecebLyXa8SeuuXuADruDbLkg4b8QTCZs2AAuG2vqfVOPL6UWbCipeze+X1fNmHJZnZWrz3+eWEBa/k3G68XCeamwp4bzUve0pGyben9LLbsVNDUvTcKUsm7imtYEqIDah3nKsy2/Wuc29ndjbRy++q7UOjf1+4tLXW9da4XZPEwe//65ll8v7WdbbbXV1n+u2sC3iapYMQjGLZxokEx5iHzZJ1yDghYjEilT93XqtQqmFkLYjFA0gi+QqAci2FqNitwzXkpiRgr4tVm4/gBGTScUrGIVp1GMVojZJkFXwxVIy/lq1q2DYYSINTxqau08BTlS+U5U8B6uI6DZEMB0HBoNTaAsx7DTQagrgjZm4oWLRNM+pfUQtALNLt3msxIfxSXq2NxhTT65jtpPt4/pjXFuWFvm07/5Joce/j5mDVzFk2s6hBdfuPhyCzBamvq9ZaNyLU39/GJ6qedbz8mnF/gx9VpTUz+/jJ73b6PnX+DXy2jqfcrmltP1yfPNVjOVP+r6BOxNXN/QkjjVtTT184tJ+aHuabVItvRiz7XOqWc2aMKuCU0cW49OHFvXJvRabGurrbba+k9Uu0t3E5VWr+KG+qgYI0RK03FCK4hWOnEzdRqFIpqeoaGNo9U6iFAnT5F0TN4QjE7yjVG0gnxO9FA1yoRyFoFwlbQ8s8YbpMPNUDaq6HUdK9SgaNgYpQimFRYaywuUNag5llS8OoYWwNB1qcxdPLeBkFpzDJ+mxYk4IUZ6hO7KQWYUTQakwo/EBUDtYnNxZlVxq8LbaoRy5Zsaw6dk6wmiWgXLC1MsZEmGk1iJsGDeWuyRCHpELeny2or+1Ps3BpWN1QIjJWWnun8quEz2Pjb1ona0uqk3ujbVj5fTK0FN04Yp96jvyrXstoLq2iTE+aqLVd0zCXxC1ab19/63bNrY7xfTRCvh5Mxskeuq1t0NENjy66Wl7JwI48W6dDece3E7X8m+ttpqq63/NL18rdXWf6yqyQTB4hpmujaBVAOvBuOZKsmxJNWggJo2RiOcJhUw6ApIZRyHMS9BoKBhaxE800THIVWrUA0H0f2aVMFBhA1xGxUyegg3UBKgtDGrKUxX4MErY/oCe4EEphkmpGalGnF51qHhy9O6VNShtBTKMI7eoBDKExaYDDd8siGbSLiB5lSEPwQw00YznHTJpuJ3Sv1fxRRnlEJgWRihYcxCUMwZoc/UGLfSjJZrVItxQmGNoIStWgEVEJZjFcpene5ylUCy0VwLOkAZX+Ko+RHKgRrlsif408AyKyTEHk+AoskUAmbq6AluKqfWBGy4NfRACtfrIC1gEXcrmCEfx/Wp6DaloC/pIfdK+ugNtROwI4AcxXLLBOwAJUuco2EYki5WhEpZdU8nyNTLzeVyfLFVixmEqmXifpmylqJm16mKvcFygrJlN1tVfQwxMCS+l/DsDkm3uqSHZJCkuRsIYRql5q4qHjEyEo5XsfAyQZK6wLEek2SsUnR0KlqQDoFyqyywlISwLukfrWC7ks4SblA8KQZDcl7yP1QiUdYohR0C1RIpr0TNDzfv80M6wUqIUkzS2JO0D5lYlSrxQomwxKEigF4OSxr4KRx5KVDODQjYSfpO8pvAmgJDl4akQUxeRcrywpF2g1QkPLMel1hXCAug1sXYpDNdcqwkJsnZsI5tWFJ26+iS72211VZbm5raXbqbqGpunc7gDAbqJWKVMlZaQy93UdXXCEiY2F4GXctSSIcZqzWYphmYpZpAglTKQY/ueIpsKUtN72C6QM1ITCCmOIzthwjFo2TdMSLpPiLDReqpiFTiIYp+jrrwWLKcxjeKeLra4swXTMxTCYQFBgMCmhp1T2BBQEo1cqmGmOa4tkkXUM1/gl5FqcS73D4GMx7T6rZAniPnZxMKrMO3XQEgnXDQwM7Ic2Yn8bFxCkae6ZU0udg4nkCHYB+Bik1Qi5OKxRgUWAkNh3GDXYT0AAW7TMMs0mcZJK1OsqZPpBKlEKw17ZjaSqQ1v0+cU8eAPw6xGdT616IPzWasIlgVsTDtGplGjZwbxUkkBPg0Kqq1yy6gBXxSAr01gTLBL4FGtd9wEE8TeLM1qo06VryLhmFQLeTo8noZjHv0aKq7u45tp8mYa/HrBrqZwlOLZjcyYp2DIaDqaTUaNckAgSRdwNsLdNBj1ciWffLeGFFnJqHUWorZcnP7OsfMkAiMUa5b5P08scYWRDuGGR8rU/M0AfGagHkKLRyjc2yUnF7BCnSRjwfwpKxM1ztZFfFICWDVwgL/lTgZRjFqvkB3jGxNznX4FKVQGHaF/We9jxUjy3BdeZkINDfzE/BWy8CI1LI1kiZKKtVt3aHuW03YHBd47Kr2Uo2ME43YAu8pGlVJU00+y0uCGUuTztclDgX6Kx1U0yWJ3KS/bbXVVlubiNrAt4kqFEsIwFUEwqQi1QQsiOE5wwKCAYLBOGlTx+9I07CHMRs2IS2NFzEY9qr0CmDk3Zr40oFu2OQEFqx8FDemEzVqlIS/QuUoxcgYtYYa7xXBMATkcOU+h1JHnaSEWagl6dRyVEJBCb0sMDiHVD2Llkw01+1THbYTYKVa3FT136qkBTYEaDQEGOplKrpqVhSwKa+lFonhV2pN2BQuoxbKUxqtEzMESIP9AnOuxEm1pKWpaEkBOptwOUy9kUe3HWICiYX0iPgl0BnqlrBs0uMm6+NZ8a9O0RAwtVLCHvWJJWDkjmZHohip5i6rbeG0gMBxcTeOvObbvPvpC7lmPEekHKThC0BKmJmaRMiqU7ZtAaQg8QhEdJ28YdKQcGumpJfvUqrHiHaGiPoRAb4xgeQYpkBprWyTSqfI1Yu4VYm63kBtkZKqjrBe8ijgqDQLEUmIHxW5Jn7patu5hkNQ4Lfi5PG92cTMNZTzCRwjJ3md4CvfvpjDtn2A65aNSdpOQ2usoVGcJXavF3g1+MYPL+bj8+7j9tU6M8pJcpIetUCBas2lGG+I3zOIm5JuAtwpuT9X1bBrVcmTEprXTUbsGwmLV5LvRlJgUQDUzW/N5666ihMOnsb1v7qElf1l+qsxaqp7Vl4AUOVTFVGBvSZeq+ZXOZFxe6QMDku0E3TKS8doeoBorYZV7RS8LQpQZvBLRck9m3q1StAV0A0JCMeSOJKWCCy21VZbbW1KanfpbqIysyOs9ceZIagVjLlSeQalkg0wy9XIh3sFOIbJDZdI1zwyQiRDctT0CtFkD+NVqTxdDycklXvewwyn6euwqIbLBIs+8XCESjws0BcmKIym5WoUnBJGpINATCr8ikZVwkl3xKhKpe4KPNWF2Wq58WaXbm50eLKlbALwVN0/8X0C+tQx6ZQpV8sCaGF0uV4xo5Q748wqlKhOm0dsZC35aIlOx2ped2NBcgKn4WKAanwapbQvgDBMT90WsLOoWA6VrmlEBSQz4yFcsw8z4BH2PNaF1VhDg1Swk7hWxdIEgCa1YdyaAN/kZ2X3eOY+OrO7sj3bMk0YpRqw6OqXyJsjrImbZI0uYlvO51M/PZ+DD9iZYrVOOlAhIUDaXS9hh7ronTmdTx57Psd8fAu8RgyjIYBb8ulXXbb1Am7UYZoZJ+aV8fUMtYTF7JIAY98sLKHdYqmKa+WwonUB8S4MpxO7XiEW7iSQWEG4MBevW6PHnklouyPYbe/fc94pyyiNC35rK+n03oTTuYY52mw6d/8uO7ztAi49fYDhNaNkBd8bsRiZcIeiMaZ5ArTeOF6xLmlpUchXKYWydBElVZH0k0yoCwTOLpkM93WQrVRIaRl0N80+wSAjzggPdOaxVsVYrQv0S7nY4JrJ2pRKW+WGIuMQ7yZUMwU0n6NvVMqigK6nR6XspUmMr6WeadAdTkrmB6hHJN+DGolagKLkcUsHnHgr5x0zb/JbW2211dZ/rtrAt4nKjoTQQ1tQMnyKOalR6+uJJ0IUg9tKpfgkI75FOlRlNLw5ObtBMpHHGbOxshVMAYhqOCEV+ThJDPRyD+sKw3QEIoxmOugbHydlpbFrZQxLgM7qIS4VPPY43UYHhql61FLURp4mL8+ETV01NZNwxhiquAgHSsEU2PMmJxIomGq2nqmmPjVmLsCgwF4qvhUl2xIYUiPVVuF7BWpsSbr8FMNqnF7eYu2wiRkxcAQcIrVRBrS19JXFn7pF3HZYa9bIusMChNA/kmIwv5aIERY4GcDOrqPmNLCDBhVPJ5Gbhl5v0Gl3PT/ZYIPUJILWpAeXGdZ7GfYGGAmuwS5HSHsG2WoWYU70YIXp4RKlR5YIdKfZf1ZZ4GkmVQeGklvjWRphAaD8igHWxyLskfCpxTQsibud6qJehVKxgcXmVKJq6RtJT/c5AeqAgNoWzfhXKmUJSCLlxqmWY9TtAUnRUSJBD1dgPdLoImeuoTQmcEWRyA47Ujh/GfdqcXqNIFGB4IH609glS0CqivHmfrzrlvLXUpFpukC/VZA8MRkVwOuwDPHLwvJKAuEFQgWBzlCDiPU2KWca9ZpLYLyApRuS3z1knNWSpnOp2TNIpe9gwd7b8PUDfikgruP02KQCXZKXk8mqunG1578IWau2Xh3flnLo5AgmKgwVJTtDHVjyotLw8yTGXHLCeclaN8M5m0iqF4IC+3WHVf5zZAT622qrrbY2NbX/8m2iKqbfyk//cBE/3LOXs0cdnrnrDi695nY+vf1KDEen7EgFedwz3HoA7PPVcznn0su495FHuegzbxZ4gB6tSLqa5iv33sv9K65l3flLWXTxSRwgnPF4Oo2/5UwWX/gQ5x6+A9E52wpMwsGfOJsf/+1HHGhMx978YM48fzH/s22WQMGmUEtQ//AvufbyM/nQ3CY+TTip6xVEqc8K9BTwKfBzp+/M5049k9PftTWnD3n87eor+duNS/jwrgPiXxQnnqY7ZXL4osdZvPR+Hj/7Am5/5KcckOoTsFpDoliiP7EPC6+6hlsfeoLlN/yZa677Kf/7yXezuu4KKHWwbcf7+e05f+HWO5fxyK03c8rSn/Gj/9qZVaV1k6m4oYVPQYlP43k3kH0ULTBMrbg537htNRfe92MeP/cZjtsdagWLHY78CXc/9Chf3bGB8ck/8LdrL+G6yy/muZ/vw6iA+NZfuYibH36Uj880CB9zCstvvYcbFp/EQ9/aFT/eg5F6J9895U/88O0ZflXzuWXJTVx22c189q3ryIyKPV4Ex5H0crbkgnMe4tI//4hQWM47qitejQkcwY8m6ErNIDdrJ35yQIzH10UoZw2qasas7RGfliZhNRiZOZvj901y66NRNLsbxxpD02u8NVDg8LMl3x+7j+VnXcH1y05h95634NYreIn38e3f/YwT5vfz27LP0vuu4M9X3synd3WJZBto5RVM//r3eejmG7nxL3fxq/M/ReRZAV27H6exXtJTpesG0GumsmrdE2hEM+mOzGQP9yC+ftxlLF7+COffexYXXH0Xtz9+Md9/3zB2PEMmFuCw3z3E5fc+xjOLz+PGB07kXYk0bmCsuUPNrbfeitqIpn/BoubnpjtRCvwUqRbA56+dd8zk2Ykdbja+V2njFsMXPC+utQ2iNu8Yzrv1PI6ZN/Fd6cXOvZyOOe9WTjzgAE6c4v/UZ5WNypZWXJXbuDVT+dG6ptwL7XuxuJzYvOe12N8MQ9Ju3qTfbbXV1r9HbeDbRBUefJYHki4Hfu+vrDrCYPN9DmXRZc/y3mM/xlsjabRZfcQeuZjwl27ke3NXc8KB7+dNR51K9mO/5Adb1ChUduIjV9/MDpfvwV5b70rHZ97F787bk/8567+ZGxjFfvBBvvnb3xL4zIkc0nEl+Y5v8cHPT2f5+xdyrpMl+sRNrIrPZcu93s6Y1U/EzrHHm8LEB2/g/CetZgWvWvbUThzKOeJU9e9JkfV0je58gXXT4+z2nYsZOTLADu/+PCdfPsSnfnQU28VjKCoNHLqIvc6dz/v324X+Az/OT/78fk46f0d20gySjU6e+/y7+dCzv2PP3eewx/ZHsMd+3+IbAnhdZp3pxQKNL36QXdZfxZ7zuzlglw/zkb0+ybHn/I1ItA9ddS17GrpUYob8inSxOIAaC9mQcw7d4QxzojvQ/+OTWXtmJ0e+7zg+d+0dvHO/j/MmL8ySU77A3m+fz4/vLFE+5yD2fc8HeOd7P8aO37qcYHGAZb/6MB/bZVsW3f0U5dM/xVv3eQdv+9gP2OEXDzKc85lZGWFNIsA7f3gD2YM19njnp/jNX9Zz+MJD2Tbcge8G0IOSYsEqlWodx66RCEm+W0kaTh3dm4ZdHmXMHWDOJz7Dtvefx4l/foheEuStYRp2mPzQOF7AY94hX2eHx87h17c9RKThkXVLNKTuHjviDN71xx357PwdmP7+Bfzsz/txyjnbM6dHo2fdcp52wuzyvasYPFRju3d8iZP+up4FX9+XLcxO/ECSx045hLl778tJ59TpKJmkukvEg+NIaWzmtNpmr+UmQF+NDzAEpIM0cjn46a58JHgVB2/+Ft6z4/e5oTZG6ZQT+frl0CjU8Q85hd3+OJ/99p1F7/4HSf7vzYl/2omd9QjLTj2YPffck5OWTmxHqD433eS2hkoKcBZy0vPXTlq94HnIW75qNcyc9aIQ09q/WoHW7kv22vC8hLXw3KMnnll+M3cO9rPb3hv2yt5y793oX3o+py6bfIl4FZq/cCGcNBHGUYsHWXDc0ZNXJqRgdtFud3LUXnux11GLkRueBzIFYrvduSHu6nlln5Lay/uQKfcrmDto/iCLj/o218hLzsRe3/+8/W211dbrpzbwbaJKZZLMHh7j0rNnct51b8FynuXiS0/DnvNpMj1pzLWjRAScwoO/4qhvLGS1tzs89gSVqMXqzi2ob7Mt7+7Nc9klQwzXinQl09x44UKW9ryVQ7btIeIXWTF8Mf/72yJHf+uXHHXSJwiefTi/GpTKo55Uq6hw7fXX07nDO5hvraPStR97z0ty+23XYYY7mzaq1jPHU4udqG7diRa/5hIdUvl7VQtzaDW3/G46f7huHsngABed+UceSL2fOZtlCOhFtF98jiNWrsPKxujrDLHsr3/gWectrIjEWR9bTWL9dpT33IcvZLsoTatR7n2MrnRQALOTqp8g88i2rP3g9ny90MP6rhJ+bD2JqEZBF5hotew15U2uHdjEVPnsMhodZvUzj3Pnr/flwbO2ZfW6VSwpPUds2ja4yREankvZFcjp6qVYzOOXhiGaJD86SEatcReOscb2sBL9NCQt9VKhuQYhuSx9IY9Br0ismGXJqTO5cvGO9DVWc/mZv+bxaR8ltFkP4aiHrXZNSS7j8MPmc+iC40mZO1ErQchKN9e9S0R99MxmbLf1x3jsvsvoCmYZjo8Tdrpw3BCKm914H9tv9VEevfsq4l6JfMwl7En+hHQCv/wOB69yqFbTzMjoPH7Dz1hXn4EnkFkVOOuuZ7l90RwuvPTN9GhPc8XZv2bljCPp2aqfmFkkWVGgN5NscDU5PUO+LtErlqiE1jTzualmy+mEVL774q9y48HNmL/F21hy7dmk+wNk6o9w+133Ehf426JvKzG8TPAXn+Fzz43BuhI96QTP3P471vBOnolIxF5Bah/r3RXgnHXt5Bkpr2ctZnD+7hOtYCsGJs9uaElTmjWzeWhKQeWx12woJ9cuEeKb1JYs57Tzl9K/296TZ2Dv3fpZumRDeK9GSwX2WmEsP+18lvbv9sIWtsn9t5tavmriKFIAt1v/Us4/bQJOlTZ+XkHd8U3mO4ETjlsAi49/Acy9WvtPPViA8uBTX7AHeFtttfX6qw18m6jW1Wx0fS7poQaPJ57DCG7LvGyGO7Uq2weeJmglBXrijD86zLKcRda6h4R3G9/Zfw8uvGMIY9qbSa06k8ey/USCMUbyA7xzTOMOx2XmNIdi2ILHG6y84Ev8rPEW3q9dwC8XeTh1h46OcSqBFdx71vU83fcetp6j0dXTw3b9Ra49dw0VK0+jUaIed9CCAhiqojBNPAEEK5cjYFWkxopixbYlJOC4VluG3uinzzd4FI2tcoOkjCDLd/g69565hKWPXc/pN57P5T85gqhbIubFse0k5SXvZuFPd2LBbVdy3U1nccPRhxJx+mhEa2R1h3se35Vv/7KbT9ywlLuuO5c/f+Oz1B2djB3C0300Uy3gOzFuTxGKYVhoehBbLUysdh3p35l4Q+cR50limQSVnEFx2gjTG1vIL89nWqNBYzSPbYYJp6djqXUEgz6uAGPNrdIZlrgbanyeQKi1OaVyAyJQNEYJRVLo5jZEKy73Jx4U/3Zh80qApZEKO9jLCEg8zXhaoKqDvlSdcc3knnVPUPcF0HSNUtQl7gqcvflofhI5ihMug5HMltTNYYIKXHUbo5LG3/Pz/DT+PU4825J0mS5pnxP7DN6UTfH4zgu5+ry/cO+Sv3H25dez+OdHovlDBNdrBFMN6uEdSdlSDBKPk/N2Ya6d4RFzNbtWn8KsRAhJ/o5FVhPyNpNoPdME4JofpeFmMPwq5ZCL68mfqJJHveESlXTucEoCwOvQjDwPPVrgHbsdzrohm2DHlszf6ePcuXoJ2caTZIIpHt18IY+d+SCPP/4Uv734T/z5h1+h0xzDdKTQvJK2nMVM+lmw6JbnuztvWbRAzsxnlmrUEnha2j+DuYJue89YzeoZezNPm4C+gRXNw2QX54bu0ltU//FUXStlcxKwmgDGYqbw5b9Gq1c1QUs537+Gg/c8eALa5s6gf3CASVObUtcHBvuZMXfyhEhB62KJ83z5//gpcNjU62F/W2219S9TG/g2UYU8AzvUoBxLY+THqBSfI5/qZs/cY9xS7wABiXAsSldaKgpDwxboiPoBRmsGVrBCfOQ51mf25032OsirWZUp7uhOsXe6zsoRC8f22LnPxDzkVxw0egeXr9ydk365OZ093eSHpfLurBF1Alx3rclHDuyj48j9GD/jCNYE56FVLNINk2hdwKHm4TsehhnETCcphU0Bnxp5SyMR7mq2xCnoG7fLrJuWZHf9Pp4QYBqrzOaEnx7Emju+yU5b7sD73r03h365SESAqFNgaOtYktzKKA+dvjvf/uR32HP7X3HuR77AFb/Yp7kzx+bCq+6qIA///AMce9SR7L79b/j9ew/jplM+xZi7dmJsoRuYdAa+ZxLQghh6GMuI4zQk3WoVeqmJ7TFiCqIi3WA7mAIznZEAa80CVS1MZnoXkdG12M3ZtxH0eieRQifjjR6qtQiF6THsyuOYkZwAb4lp4dmSJg2cqM6QlSFcEoCvDDKaSPLu2kpuaqRw9AxWtYanhRiu+sTNBvPmTsdIJ/CqY4TqDdaZAxzw5o9w/UNX49uboa3LNVtea8kCQQHtxBYl9k4dxqU3nUcgtBm1sSyOXxeo1ShGNuebP3gbK274PDttP5P3f/DdfPLzGnW3TGcgRbUkeZixWSf5k/JDOM5TrAsEeTd5/pL1qcXDjNfTArYJgpFxwqEAWqlBRm/QE1iH15A893xCQZ243GuFglIk1VI1rpRFo7kGoBV7isZux3P508u45tpFHLn8uxxz8jIqkh55rYMf/+4jrLjtaLbf4k184uMLOPjoGpVykVl6evJX8DISoFuN6sLc0CXbci/ostxyb2YMnMUSwZ29t5zLjP6lTPbocnSzVWxDl+leqk93Ui0AW7J0oltUdYdy583/XCtYE1JXPx/+y2rFAIMCrFOlWjVn9A8+D6xKqvVyweqTmt3Zi07Yf/LshP7l9rfVVlv/X9UGvk1UtbJFMBmkbhfQGyF6pjm87/NH4C1dyvXP5pq7JhhUcalMtGbpcUICJ46AmG46ZB95kKWlWbz/628lkuyizwjziaO/y5xnV3HPknWky3VW7/4Vzj8yxYnHfo8zf3QqS7f5Jl/fuUw4EaJsxDAqt3LbVddQfs9v+XHmPq67J85Q/WGqoTJuKoZrGgQiIYJR+SwVfWk4h19xSAQT6MEw2eoSquFunFAfvWaRIz/zcyIrbmXxqiIJaxd6EjlWPHA3HaleAcj3cdj3ArgCEr4TZECgzk6n6dV25LnCrfh9N/O3EwdxxwpEQgZjtiVA7NLhdbD02Tuodd7MM4uyxL1RZs4WKPV0gTyBPU8tx6K2ApOfkhcU6AtjaBFMzSDiVggJrNoSpicUousWfkPgUCBwZFSIsT6L9WN1Il07kY5r9Epd2Zt28YwhnMh6SQOddeMOM5ObsVVHjB5NjRWMMzhcJFdP4EbXobk9AkDyXG+Fj33lR1RuO48b19SxzSqxQIzi+DTO+NPNnH/W8YwXn8a1BOQFUgNGlVDPURz7iZv45c88xvxRYmaeiKSrHwiTjJmszb+X7x78V86+IENOYDMcr2JOLoU4OjqT2TMbjD76NDN6Z9Pp78NB3xDojZiMVHW8cD9uRV4MEgJ2RZ/OUJ7PfO+brL3uKu4tGhiSn0nTIh62BYYrrB+JYZlghCuM5yXP5SUjoNb5K5UoC8zXnTpVSbJyIIKvp+ju3IP5267jW4dsxYL5W7H/XgvY/n/Pl79odTLVfmLWjvR1FVj7zMNkUn1Y4+/ksydGSEYSlEbVIt0TWjEw+IJuyZZaMLPgsBdCTksTrWEz2f0wAR0hrGuXrGa3w3Zn5uBEV+8EPG0Yz6e+n7BxC59IdROrcXLH7bb6Bd2r/4j2P2wB/UuXNMfYvZImxuDN57ijN4zB2/+EhcwfvJObJ83QDjiRRQtWc9K3r+Xab5/E0vkLOfGAKd3Foldj/8TEkInJHm211da/T23g20TV4dcYEgA4aOFiHlmzmj9ceQXH5E5n7+9eRMfct+H6deKVtVRCM7HLtkCMw3CpTCQVoVCBDPdxwlGfZnyfM7jwwXu5/cKz+epuf+WLnzyeJ5lOx0dO4g//ewCj3/8wt4W2J1O8lqOOfJSZv7uHi/exoWqy3osRWHYVj5f6yNQe4k6/j0g6xbScxqhU8rbjNl214WAJQHWkOklacZyRAj3jWan438y7v/Rt7lq2lotvupujhv6L/T5/HbHtM2jOufzPpx/ksOMv59IrHubWpZ/i9vN/Sym3HbmOMsXM5vz27LM57/Gfc+mVq7nt+otZ8l8DfOqEe7FzvYxlZnDxVX/m3Nsv4i/3PMCdd93HDe9dyud+OMTqp8YJCAQ3XUBDkwpWNeB5vtMcG9doNAg0ikT8YVaWolhBIRk9TCr/NPlaiDX1Cp19s5gTqrP8N1/izx1HctrdawSszuOG7xzYbLkri3+JsRwrT1/I/d1/5LS/3M/vzvw99yzam+6ZBj2sxq5m+OAXv8ajA+P88c9LOXz9Z3nfd54kOne2gGG1uT1bKtVNRzKBJjaozSqquSzhYKa5v/Gue3yZ7CV/IDXNo5AoUKx0EEtqeOt1RgfHec+HfsnovT9hvfE0651hzPp0ASnlT4108i9882MP8cXv3ca5593ClX99N3efewpDI12Et7MI556jrgd47+G/ZVl2BRfcei8Lnv4J//WLG9C7diHQsQU/WXQxl113I5865P3suvMHuPe2S/jDz7/MnGCIbGQmTmw6gWQ3WjQqAOgjrwmEnXEpS8M899y13HT7oVxw2f385JILue3mM3jw+it58FeHsW7mECaX8NWPPshHjr2Eq/6ynCX3HsbN5/yYYmEm1elqGvOEJrosFzzf7Tp15u01x+7J4pkLN1zb6Pqq1f3Mn7+a5rC1a5ewev58+levmpjUIED47ZOWMn/hRJfwLbcsZOAkgaON1Jr80L/61YHaxmr5r1xzgsmUSSevpNMOOYnVU2YoL5y5Ybyfgj3VBb30pMlJGlPiMxX6Xo39an6LWMruL87ObbXV1uskLRaLvfa/Mm39n1fJnM+PzvsZoUVv5utLZpJwV6PnBQg6+tBK41Kp29TNbmLlIfRUVMDLJpZIkx/JEkn0UKwZzKk0GEmswzH7KJfWoUcg5M/AsgcYj8XoXV9iqLOLeClMMrCatVonXtlhq0SO59wIs80AywNbc+A5N7D777s49sp+ppljVNwqVrITu5iXcOvYhkCGZtEISFF1bfS6jdmzN99a/E26f/4+Pn+VSTRVRhNgKXolerUezORqBspzScQE7iQOftWiS7PF3x6GCgWMZASr1qDYiBG219IXhFwoxFg9QE84yDAuPVWbIbOLUHmQhO7hGpCtImFJRJVcb2LjB9HEgsAT6wWqSSaWbVEwdLqDwwIZOo4epBENEw9kcQthbElLJ1si1SVgOG6hmXUG6SUSGsJwtsXOPIuzqkww1UFKAHFcrxKwQ4SCPuXiTLTezfjWGd8hefpBfPn2nNhYJe34jCY8LC+NqTvkbEkvgb6o+O2ZLoFqUK6JLUk1Y3cBX7hwb8oLf8Qv/jZOpStHigS1nNqhQyr07B58754P8uxXD+PM+/vRpmexB8o4tQTRTodoxWSdLoDuFAmbg5IOJkYtgD4jzLpVOYzOPfn2Hy6g6w8z+eJtHRhukUS5TD2iSxYmCdbGJNU6KJHF6uklWRxitB5Ci9RolHslPbKkBfx01X0sZaDesAXwBST1KBHJiOKO7+GHJx9M9SP78VNb0t7txi3vzU8fOJb0ETvyzacarKvPk3QYplEdQzejZBpqf+QIZYFyXRcIf4NItYDNOH/D5ItXq3/0uX+1XskO1S28aEE/J+211z8EtW211da/Ru0Wvk1V9rDAXI1SJEWsuJqw0UmhO0XKlUo9ECBgGsTcLLVIN7aAkaU5jAgodSVMCmWboFOgbDk4AjxlBFKsuBAT9Jgm44qHqj6FjElodIRqfTW16I745VGmGRXWOGkiNYdn4930HPMVfvXc//Dnu3pwBQKJm/jT5rIuN0xFIFMX+NIstTetQ0QBVCrG5skojbEK0UInawUCurQyViBK0SqzXTTKsD9GtpwhbA1SGC8xszsGsbRU9AJy9hhWsEpSwg+WC0QyUYICl2t8g5zVScSvkLeLxMcNgdcaIcPFiCYZbvSR1aE3g8I5ARxHoFgir7moPXDVzFzlfOrg1dCoSZoWJDwBqGRc4pEkVRPYC5hUJB6p6jihUIHUqMnazjTj/kzoCgq0RdCqjxEeDpOwJG9yWQYlbrYeppRJobt10qEBKoVV9Nlp1jUaBOslosFZjMUs5pgxap6PXSpixsIEQxJPwwEzLvHuJB6KCwA30ArXcOwHvsMlj66mEihLuAKJRR1PwKocXE8gfhtf+fCXuf0RCbe2juKzZYGnMB0pg4YAaF7q7XBwpSSGpJH8FRmzDfm+GVkBwXBQoFLKR6yxjpyRITg2JPHWyUveTXNi2JLNgXSaetAQeMxQzeUpOSHJrxqZoEZXNIZpNjAbddy6wKqnlpNJEImncQUAy+Uc02fvxwJnjPWz+kmMz6KiCcDNybFN8QmemqugPkAi8ozAXoFMc7ONCA2nk6Lks6NA+A2i5hi5/8OTHV7O/taklWa3cBv22mrr3652C98mKsvamsP+cDxvO+NjfOZvAiy1InljV9DvZ3rFJS+w4delIjYSE+AjAGg7AUwa2PKeUDUrUJsmQLQWuzoLI7YKLQ+pBNSr3RQFREKpOgGvgtaAQlUqZkMg03PJdnTw5k+ewy8Oj7OdtoyD9v4SN4yUmxtDaPEO7JF3c8Yth7FdvJOQQMF6gZ6QBNfT1SFwMML6O+/l0B/9joMWn8/W5+3GkVeH6HN1xngT9fJqpnfYjNhxYZECid5+RgcGBH4cDL9BtQbdaYGumgBOqMy4gKOZSNNojNFTFvv7Z8mzAnKlHA3LoyFx97Vp1L01TK9n0BMO4zVNzk8szaK6cgOa1myJUmvFuUIn6rzuxdCDOXJOkJiAUr3skbLGqQgYV12faFmBdT+hSFTSfIDxokQwGBeoMugyx2m4AtZ+hLrkxXS7JLCpE0hMF2gNM01bRdHYnM/88o/scv47OeRBD23Yws104+fXME0gr6Z5VAmiBzIC0gUaXgHdtsQugc9kg25Jh9WhIo1KSkBK0n3EJBgdb45NzDo1OkNdjIZG0HMZzLCNVZH0SmcpjVYIBFPidxlNIG2zZAerc2vQu8K4I1UakgZ9GZfhyhZ87ZxT2OW0/+KwRw28+ii16g4Ccg/Li4Yj4UhJEqgLp0xGhwN48sJBcBDTEpgvbM25D11Et6SZKTAdDEGnJvBnr2d83VOYK57jo1/6CZET7uYn73CZ6UpcM3E2C6znlGMO5PhHNNJ6N7nRASKdfZRHRzGTQqUCj8KzdCcTVBpCkf9GtVq9lDaGoeZ4v1sW8vcj/ia1dKLr9t/Zwvdy9rfVVltvTLWBbxOVaQew4yEsb5jKuMmMmMuKgIfFNmg8jl2ICAhIpRjRKBXrhLwEcakzR6TSzCSqVEvyJRKmKod0sYOStpquUA9rQ1WiOSE8ATdnbAQjFMOwsxTDkKkHGY+lCeaHcNIWGQGJoeEUb+nrYdn65QJKaaoJjX53Mwb1pwmN5jGCOkZHDK1kU3JrxCI6b3IDPCZ++VpNrhsUCyazBGhWiS3hnrn4YyskDgGMsCfw2UUgGiKWG2DMNeiMiA21oBgjMFfX6atnBcokDs6bWJ9ag+vHibjDOI0otjw/XeJTGJLoMJvBrkHwHPrk+bzAlNpCTf6TkNRYvkBzXWDBveb5RiNJUF8vAKcLOPbjjmYx4wKalQq+IQAVMHDjXbildQQaPaSj61HMZxuW+NlNzKjhCMRWBWJC9uY44WeI5iPYGdWqquFJgobSYRqlcaoCpT1WhJwvcO3NpKaPEW1ECOvDjGtCcyGLpORBpZzAtjrl/EqsuvCVOZP1URtd8iMpSZL1EyTV+EPfQvBK0i9BIb6WcMkkXvQZFkib1dHNuuI6gpI2thaVvBbQTmkYVbVFm4Ul+e5W19EwoMOeK2GvYFhAerqk64hVxLWmYTgCjQL+jtCy3dCIWTVKqmXTzRNRXejhTrLuk3RKGXP1KGW1bZsj91q2ALLP5o7BY2rmryRYKlqn4NkYRXn/MBNsI2nytARoShmJdzsMZ+N4VoNpRoFxL0BY7i27MQHLyR9CW2211dYmIt2yrO9Pfm5rE1ItEcAaGWt2l1XCGeqNOn40TOd4hXxMoE4qyZwVIzgapkcAZixWoiIVep9UzOOmTwSTKmnhpiwlEliWwIZmCNz56IE6lhpzFbKxpWatNGJE5HojGkcXQqympLa1dVI51TJmsMoeQgvGiNYL1CoCS9YYIWEpR2BJ7Q7mNtTadAEBK4taLcBQPUDCtam7YbprGXI9LvlykG5fMC84il7yaQhMVKwZRAUUktURRi0PL5YQ+zxMgSn8iPiWFViKUXXEzliQ6QGBp4LAWNhsAmNQXoXqDQvfMqlbZYEOHVNgo+pJ/ANpCoEQ07Qswo0TUFKuYCd0PAGVuPiVC6WJFQSK9ACNQI6CwKNVdgU2etCiAn5Ohs56jgYOxYikiZZptsRFqzoFU6fXaGAHNKrBYeLVzbDcKuNWlXhB0liMK6j9PpwyMwWmx3Q197db/M8S16oIRTKeUmP2BFYbkn+6oKgl6eXWKQXrAqYJGrot8XGa4w8dL0RIIFQIWtJcI2xWyYltAVsKi5yuaEnx1xAwKzd38NALGTQpQ2YgKwws6aomVNBHsT6EmfTpLc9gbWBMoDmMF6pREICeo/I+OU68UqMoeRvUK1KKIpTrNcKhLnr0AvmSKyBfJeAKUJthNMOQewSofaFysbUhz66v1qSsiF/TioTWuWTExHHJg1kdHTxdMZjmaJBIMVwoMcPKCYhXqUQEZutRsrqApZbD0NrE11ZbbW1aagPfJqpqrU5HrJespdHtCNAYRYxSEj02hlYUHnO7pJodoyZwVhBI6tEFHgoCckaJasjHEHjwKqMUzT66DUfurJARmKjGQhgNnTGnTjjRTTw7itslFbadpuI00OIuYanULdenGo4IsBSJSWVeiCYxylL9e3WKAiRhqZgDAm2agJ4ucKCc6jUKNLdg8ClmwhiuTqC+Xipyn3i8gxGBFPKmQJdFKCh2FMco22GKnk0m7RIoNSA6HVsbJWQ7BNREBmE/Lw7BWlBsrhAMdlMUwDW81tIdAQEEoU5BwNYxEBBAKo1ixAX6Inli2QROOCFgGqFeHiMTaVAN9GFVRihavsBolXBSgHVMQCkzg2p9LU7NF0ASiLa6BL51ekYFsCQP4k4cNwqd9hiD0QZe1SZiGyT1LGtTuxApDjKvbzar6hKuoKIV7WeoUCQRk7jk60SScyjVJM3dNEE3L5AXabbGJkNqaZssQYGpOlF0zZP4SIJqKp6exEkgUldxk1OahmS5oFhEwq3hC6jZgTB+Wl2TslIvokXK1AoVysJNSUOOWg9dtZoAnkmommYsuJZgKEloRF4T5KaurjSrYqNEiwKaVYFjtS2dEUKrCuDJi0ZYyktOnBUOUjPFHlfySsqF58l1yQt5DWjOijYtgcxggLpXxfWD6P5MMuHZZCXNQ0MCxrUCa+MNgnaWUPe2rFcLQedj1PQwFbXHrwBgtz4N26+rzG2rrbba2mSkarC2NkEFI7rAhFT4fkAAo4RWy0j9OoqwmLwFdJAJ+oSSfcICOTlRlYo3RiAdY62UmC4nICBVwTCCQoY11gXXC4gYwlpdmFquuTBu3NbJV8YYFyAQVJTKuoFpBgmPChxI5ezGS9TzYUKNNCORFNOcEZyUKzDiENNmNmFEdZOaAa3pAn5zF93mBAl1PiZwGJBwhgWO6kInawOrMJwyEQGvpGcQEVCq+LoAnBCdEUcrCKwYcnNVtTpFEd6gaAukBT2BoDh6fUSQIk0y4Yi1E12zag9fdVRO9ddKyBK+2svVIhx7F58961xOO0CnklAzbQcEcCQsdzrFumq3kucsC9esY0Q7aZRrAtjd+LU80Y44aflcrDtUGsN4w2OMhAwyWoJQJChxrVAS24KS5kmBmobVx7AXoG/vrbj6zMMYzY2TUE1v8YTklYnWtWVzwkw8JcBujxLuyTDLr1HJJCR7igjrChiJ/xEBJTXL2FBbiynQcyQukq6TS8yoSSeB5ncPxy2Rrzmsl5cA28+Q9vOSd2M07BxGJEbQyQhwZiT/O8n6AoYS7nh8nEiwgh4cF4iXpB7PU9IdwUvxo1KGcShVHerdAQG7EPWA5EMwRsgU+JZ0cQyNeNSQ8qJsE9AT8PYlV9SMcfVdTZCRxGmCaS0+m/5CP16mxlPjZb7zi3P4wlt0hgy5ze8TyJ/HQWf8lFP2N3GTNqlCiHS3FHevj5yAaVtttdXWpqY28G2iCmVthgJr6asGUbtFVJIBGiZ0lAXU0l0YnsDfaJmUAEJXPMpIXTWvVYmmesiVQ+gVG2dahGgtQLAi34Uh6oky0/IWwluUhDKCtQ4sKWG++FOkghmLYGQcEnK/r8CjV62sVhPoq5KXOr5aVIsqxykVVzfXs/PVsieqz1mOE0ugyFEtJidyggKsXgPMJNVYB0k1qcMKNfdoHTGKNLwgwZRFLVBHC6uZpQJEhkCiwGK44ZK3gyS6O/js8Zez8IgdBFSmEdXGyeUbdAjsKPm+WlR5IryW1DnVAjZuPUdPPk1x7WwS0135PpuCOcY0aw3pxjRJ07KarytK4Up4aim+Sn2oOc5PLuHYJQKmSTDWJXGwCFkGNU/AuzrRNa7HCpgSv7whacaA3BOkZE0TaJlDV8lBLSpSsYtkK1X8cYm8pHPNHhfAlCSq1sgLULNGKFfSr9Ibw815pOryua8XPSdGNH/6AUlfOTRbTcUJ/KvkVuftrfbj4rvP4QOze+hP2xQ18cPdistuup7/ftv2WALzem+YdF3gqVGmoOsUhZSjOZ9RNyzpESXuh+kL9lM1E5ScLMG+OB1hub+YJydlKdXbwWd+/Bu+duheRAT6Qw2f3FiDeEW1PqqWVV2sUq27ArWSJmpGuIL7Wt2lu/EcqUYHH/rTw6wZupBd3xxj65+s4PJv7UFfbRi9K0nv2HQBzSRapy1AvYphyYdpkl4dmuoE/tfogBNvfX4f3bbaaqutN7LawLeJSssECOhvZqSRI1coYRTKJBJRClovqdJyRrFIhivkom+iIDVtKp7HzVYxRgoEojUCfRm0tWNI1U7YnYtj1dGLRZ7VO5nn2UT0WTiBHF5E6vdgUCpnF0e4JOwkBGbyAj4hAcoVFBQYmAaWAE9aIGA8EKI7FW4Cn+O5eBK2+qz2q1VYombCKmirCpxFG+MCKXkq7gh5M45b2I6h8RJpgb2sQEYtXyLo1THlXru7n0KuRrCUJ9Ko0R33KD87xFgqxfYUGBF/zECMUiKDrvbEVbAxuTNA86h5wprORKuTOLe+DbVOEy+1ksoTAhe2pItqXRLoWRcREJP0UxZ3SFjRjE3FSuLHOokVJe0Ef22zQtBNUi+O0xtIUgzbGAJehbqAcdUiZ5mUKr4AynhzaZp6WJ7KmcwQWEoJuI4SxytLfMpZgaU6WfFbF/jVSjk01UIon5MJCTOUIVIZhEyEVZL+kfEhGkLHmpp00twtRAjRt5pH19HFBZoumn6bwPgyYs89xdhYHj/RRTp2IGtMm9qqh8hGu6iMD+L4JQl/Bo7ae7eeYsCIspnYgC/wH9FY4w6Qt8apJiy6n4sSkHzstPrIGFWyTz/GaGgm2wWeItuINLdRqyU2wzLD8qKguvQtcSHJgeCEEzvxTeFTS8rJfrznshM5cMnb2erAS7CfvJD/+ehsDv7RHdSjM5szxcudo2gJB21lVCBwM8lfgWIvJ3F4ppmvbbXVVlubktrAt4kq17EfJ/zx1/zkvZtz9jqfh268gIuvuZkvz5cKX0Cj5NiEv/cstxzos+9Xz+WcSy7lnocfYfGRO2I3As0Wns0rM1n40EPcsPzPFM58lHOv/jHvCoR5UA/gz5vGxRc/ybmH7kJo5s7E0y6fOHgRP7rjePY3+qnM+xDn/OkivrHNOqoCLuVxk+pHfsjiG87k0OkxgaWJ1qZmo95kq5NqHgtoQlW6wbQxg1kdH2Th5Uu48NG1LLvxUq64/duccsTbGberBOM28+ck+cDx13PB7Y9y6SWLKF3/P0yftSMj9SCzP3s219/zMEfMS9H51T8wcM/j3HLFyTzy9e2oCpw1w1HbpU2qBXpqlwm11l7KeJbCwEoy9b351p33c8bfTuOpa57mv+YJQCV8oqbPzgKEH/r+Jfz6umu44YqLyJ71P/T379rsNm8Iv7zV8jjyD3fwh4ceZPDMi7nh6T8wf/r2goMS1UiGPad1cMCv/sYvr7+bG6+4Av/M/Xiw7lPrm01Es3lr2uSj/3s9f/jrHVxz9TkM//6zJPvmkbcFREct+o67gb8dqPP2r9zI2Vf9kr899ShnHnUA+bCAchOfVfwmXbN1zxe49hHOJlJwCTYaRAQYFbSbhkvDrjBuOrjpCG60QHetk8/cP8RVD/+NwjlXc+Md3+HwaIaVAvjRyBz0yts44bp7uH3pozx63cXcfM+pfPnANzGeqTH98Iu45o4BDpf06vzS1Qw8eCM3X/47Hvx2B5XgBNQru5RNE42sGlrAxAxGCUcSxGbsyfb7XM/qUwyKWwfozVdIWgFi6S55aVlNhkHsgQBmdobkzxOcee/3ePiy2zlmN/EqsovysCm1tElrpwnlNt7+a+PrrV0m1LIk6rvaLa1/ym4VU3fiaKnpx3nHMG8jv9tqq622Xk9tqNHa2qSUXvM4D0UTfOgHf2XN0Rrb7vMFFl32HPsf9y52jfQSmNNH4pHFRL54I9/fbLVUdAewxedOJfvxX/KDeTUq9V35wBVXsuV57+TAnXYjcfTe/PZP+7Jw0SFsEy6iPXgf3zz5x5iH/44jM7eRS32JD38+yXMf+gHn1Quk71nOfT0z2fo920lVnmrOHdh51hZMe+pWTl85gqfrTehrAYjvqa5UXbhEzgsM5DtMBr/wbj732FkcsW0379jlv3j7B7/GFy68nznaDOpri8S/fD2/TV/AQTu/hf0/+hkOWPV2zj0sTCaWYuWpH+eQ3Xfh13c8QfY3n2CH3Xdlx/ctZJffPUmppmYEq+5EkQCH5qu2OqFO3xYbGk1neEH6urek+wsnMPLrzfnUOw7hc2c9x4e+cQTxhkU5L+F/9S/8MPx7vr7PXrx3wZG8f2A/zjs4wpyOPhyhurHP/J53/uHtHPjuzen/4Kf4wXV78sdTdmWnSIhwbT21T57KQf7p/PTjO/Dh/Y9A++xDzDXzNIbHqBfCJL95Kz+Pn8oX93s7B3zkSN61dn8u+kSE6Z3ddPZY2I88Bt+4nR9stZTvvfej7HjErzE+cgT/PUfwSVMULU4SXo3da2aAGiPXHCvnMBoK4ecjFIMVhPMEunwq6RzxskmXliMQSnDAhTfwptO34b1bSjoc9hFOPnVXvrboMHY2JD+HswR/9j7e9cBXeMeePczf4Rje/NYfcvJfxojmSqxa9EkO32t7Trl9kLFT92f7+fuww/uOZKffrCBfExMCQnmTNjUbWJtO2azG93lUhhbzxI0HsO0fv8Afdt2R/DNP8PCIh2uqcYYhvGqJ2f2zeNNXL8T94yy+sNfxfOmc5Rxw9Acx1y8Xv+Y1QWy3O49izz33bLqjFg+y8Nyjxf8JNRcVXn3S89eVa615p7ZkU99PWgqDizf48Vq2Nmurrbbaej3VBr5NVIl4hs3G13HuqdM46+od6UytYfEVvyObOZwZm3WjrxkhHI8TWfMbjvr6f7PafSc8toxKVECra0vczbfnXdsWuXJxkZFclkDQ45bLf8wT3dvyga26yDgRnh74Iz89bZCvfvf3HPW/nyD8+//m9PVpNRCruXDxkmv+StcuB7JjPE89sTf7zNO59m/XEgv0Su2ugM+fGL4n0KfGznlNpxhMw62YdD77VpZ9cBeOrKUY3qxGOLKSdDRAuebTN20/DnxzgOP/eDbT1C4Q+QbX3ng2a/b4ELszih9MM6LG+SVmgtEgVK8RsHwauWHibl5SSAhjSguffJFTCjgEAOVYjxVZu34ZN/3+rdx0xW6M+h3cXbsJw5nObC1LYuZbeN92Bt+94Aa6xlz88hhX3fAb8vsdyn6VenMNw+LJ3+CTT3l4Jdgunmb5dd9nMLcZJaMq8d6TIxfsyLUXXsTQUxoFJ4uZGGM0Nhcj9hwd3Qfynp1NfnT+YszsMNZwhZtvvoT6e49gr9o6Buo5etMNEmsv5JBvncC4vR3eozcxqiWJ5LskLgqm1GQIBXyT0Nf8rHYMcSR9VjBts3347h0PcvHND3DvFX/i2rMO5R3hPol/B+nEJ/nwzCz3X5nFLtdJd3bw5wt/ypLOPZj/9jHMZAH34V4qH3gXx4x14nZrhLoeolDIMmJFcWM+IwLSoY64pL8c65IIRhovVyHtWpLKE7apSSS6ITbJPY6cqzsVKnYJ0xni6o98gW8/6POWHXuIfPCr3P6bH5B3w8zskJeDSJxVzz7MHedsz8Vn7sTK6hoebQxglXfjLR0F2HJvdutf+oIN/5efdj5L+3fjmHlTWuLm7/5Pb/p/6sECggefyrKNxoO21VZbbb2eagPfJqp11SoNay5dUs8uC6/Cqc9js1Ind8QrbF9dRtRMUvOijD86zBO5EKPWUlLarXzvwL254M71GJttS+KxC3gknyIaC1MpldgtW+JOI8xmvZqAiVS6z5gsv+hofljdUirNyzjp9CzFygCdGRMntIIHzryCtTMOYOYch/Rm/ewyo8Fff7+KQtAWBisIb0lFb1rNMXW+QFbArWA2SmhuiZoT4Nn7duK4M7o45La7WHLlH7jg6MOoCdg5lkt52jbE5wzw8ZOH+dmjS3j2xst46vML6ZjezZv7YlRqw0xT4wIF+ip2lcGILrCmWhETVD0D187jGXUMI4DuWXh2WBgpgR4I44QNAQedWOdbCAkArzDuJZn0qWTTBDPr6a304WXeR3LOOo7+2TOc8sid3LP0Zu5feAKbxXoJbSfP6h4Dcz7FHb+/l8dufZCTr/kDl5/wbXq611FXC6dstSN9Y1fxwHCZoOETjkUJFLpIGsNiTz/hjnl09D7L136wgnMeuZu7H7mJh//7JHq7ZpPaQaPXVuvyJbGfGuKZdQ3ywafp8Qb46ns+xM8HPIHoRrMcqK5TT4BagbWmBzAsHTNoEMjH8UYe4Rvv3InDP/wW3v7uQ3nPR3/P7YVnmotvF7aaR2T1uTzhzibe1c267Fp2yzvc5jtsm7YYr/Tz7D0f5hu/exefu+5Gllx9Bhd//WOEBepiFR/HrrOZFcJwk1TLEYYjfViOatqTvNULUh4DaL6hLMRxHNyGlAnBQF1spVrHqXo81vk0K3/zS378SD9/Ofn7PLf7x/jbeZ8mPjKO7awi0TWfWH0W2fD99HSmyBaD2DPrmFUB3rkz6B8cYEUzFSbk+9cwMNjPjLkT31Ur3lGLZ7Lwlltesru2rbbaauv/itrAt4nK9ASmQinyoRCxQoVccS1jsQDvLazjlmqiuR1aLJmiK+PjqUV9G0FCAllDAohaoEBi+FmG0u/lTfYo8rCAU5I7OzLskamzYjhEtVhjxx6d4KG/4dDcXVy1am9+/ust6OjuITtYo9FdI0Scqy/SOOp9m9P3sd1xz/oMT2vTqaptytCJWEEsU6Ph1ZqAopYgUTNa1UzN2VqN2pMGD57wIb5zxGfZd4fTufD9R3Hbbw5nrLGOwsqnGR6fwS3/1cWn52/LWw/cj6323YOd3vlVfjJoE7W7WGUYjAp4RDv76cyP44cEfPIjpKMlrHAES1dLsPhN8FTrvxmWmikqYJe3qfoFvFqDblts1DqJksePBrDrVUk7E2/5bQIYs7nq0Dl8+O07844938ZO+2xG17sO5Vf3quVK+jnx5Pfx1G1H8dZdt2Lfvd/JIV9uyDN5ppkZ+vI9/M15AsYgnJhFrWCxz/wGA2MeNbfM+PADLG/M5YwvzOP9e76VPXZ5C29+x1y23uuL/OYOl6Lq+TTEtup6IkGLnGIpiU8xECGGQDPBplOTNZRTM7VdAV7lHJX3Et9CxKbhhik2dFx/nE6vIvkQpFaqE1v7OLVZH2az2irs4UGsYJo7u5PsJED63FhEXh5c5L2Bu0/ejS9+/lvsvMfP+P37vs7SM/ehUcoLimbEfpecb5OeniCZfUpAvQq2QcSZ3Rwv2Zqso/5MqYkzasauoVuYRoiolyXt2LhjO2J0PsysgSofPvxbDPt784GDBKqdPkkn8S+YJa8FsIp1eVHQadTWUQtJ4qwYYLB/hvopPC+1pdmM/kEGplBgq+tWucUzF7ahr6222vo/qzbwbaKqVNMQGcJy082Kddq0Ep/40g+o3XoR1w80sHyDgFfGEad6NnW1p24gJEBgYJgeow8/yN8Ks/jQ13chnIrRZ4T5+DHfZfaKlSy9azW9tsbaPb/G2YdH+N5Xvslvv/sL7tzqmxw7v05HbwbX7iBRu4sbrriOgXf9jJO3WskZ15TBWo3byAqE6AJUNkbAE/AME4paVMXOii8wEk5QFXDxIh6z6OPBFfdTS93C07/OYhaeob+nW8K/h3tvW8d+X34fJfG2ZvWjdZgYhRxRP8aoPgIhk9J4lP5pmzO7C7oqeQxvOiNVXeAo2BzO5qvxe2qXDk8gTy3ca5r0dvXgaRmCfom4U8KV8xQECrUuHCdIXR8jafyVe25fy3uO+RzFalAA02J6OIvmDwlYdkNxS2bMguzqJzFDGXqTH+Uj36gQSaVZN1Tn2dEzCIz9iC9/dHOea4zQ8YHPsehtm0memawNGeSty7jt+gHee/QxlHMhQgJl0/sqdEmaxCJbEIjEBcxyeHaZulrwOtFBSQDVDyUJugI/2pSlWXwBbDVGUjK65fxoD3lX0qqaFTDXqEcjOEZSykqcHrPO2JMPcttwSvJ/JxLpFJ3yzMGf/y47ZLMsXTLCaKyOE59BrzuNx5+9AT9xE0+f8jR+Lkx8sxTrC0KyrsXgSINI72ySiQjThO26ImmxR01bEZME9pqzswX2AgE1c1otq2NhWREKiRCJcBw7VOctWzzN3fd6HPbur2ByC1eeNcR4IIrhluhuqCVs0tiaTyMu5b5RQVcbKi+/mTsH53Pc0Vs2w1La/4SFzB+8k5s39PK+QDffOTj5aYNWDAzSv9vek99eXBMTP078p7uG22qrrbb+GbWBbxNVp5elJjDwoc+fzBODOc667i98au33ec/xN5Kcsx2uVyNaWkMlpNYyq6NrDtlyhZjAXakOPTzADz/zKfL7/p6L7r+XWy84m6/vcSOfP/RHPBmYTejA7/G777+L3I8WcH/nW5nh/ZWjj3qSvlPu4o9vGycsADTYEJBbdS2PNPppjNzMEx3bUBPKmlvQiac7iZshbLtCrlwQkLIxwyE8I0A5n2e9gMF5l13E2Usv4fr7HmTJHQ9z/QF389kTRhlcU6HsP8fY9//KKTOP5vQnXf56/QXc/rsjefLEBYxHS6RiffSWB3j0twdxefo8Trj9Sc66dBEP/3Zn4okUVQGFeChCRO380KihFv+NJqJqaCHrV61vgkhEG2NVSSdk+WgCQ+niIHkvxaBXaq4zOHjCVfxpxu786cG1XHzjXfz2wlO49zeHs7O/hkT8Jr518HI+/o1LuPDSe7nihvfwyFW/ZdXaDjreGsMaX8Ep3/kGfOZKnvzL77jrU9uwzyVP09eIUqmN0jOq4//0Zs7cel8WL1vPX8X/U8/+Gded8CF0nsL1HbqsErnobHTTwC/nqTkOIb0x0frXlGo9m5iQEpB4TTg1Zs6nOvYsQTtJtKeDWCiIk6uxrjSAIcAU6JjOdP9+fnj4IRT2OoMrHnmU284/l2/scTtf//TJLPP6KGS2ZPE1Z3Penb/mxtuHuPdvV3HTu9dx9C/vZHRFgp4Zm7OZkWL5r7/Elclfcfp9K/jTuRfxl++/CT+9TsBuwsKJdRAnvqiJO8rh66Q2/zgnLFrEvXcczpvdA/jwPTfy7S2v5MTP38QzjSQhAc60XmH1eFAg3qccqGMUB3CNPvRQTPxdxmmHnMTqKTNsF85czFGHnNYMqzWp4/nZt+IW7XYnR3372ub1llQL4GIWbLjvRVoAV61W/89n9/2bX9tqq622/i3SYjG1Jn5bm5pq0V05btHJdJ27I8fcOIeYt4KEDSNGT7PlSsOmaHSSKqzDT8axBXoi8TS5kWGiyW6BIIvZJYvhxEoaVpJyMU8gBkGtG7M+TCGdol9AcjDZQTBnkgwMMWykJWDYvmOcR1yTrYIhnqxuzicuvJVdf5vmm9fPJmONUfQE2AIhIlUBPQuMTJCoE2K8rnaddel0DUYFTJKlKvnETILFIVK6j2vqjNZqxDtNAZcuGuNrqanGq5g8n7cI+SZZc4y+ygy06Q7r1krc0haZcYtK2EAzpxPWR6lnhyjH4nQ0PJygRzXgYJRdqqqBJqTT50n4gSC2F6VbG6RajOBaDSqpMGmtQD3fTVhsyI4PEimDnTGJ5tS+w1GejTzLNC1BRStT0nbE0Z4iaslNdVNgqkY60cXqSgXTDuOYowLecSwBND2kYUp6aIkgulwbMxwixRJRF1y1VJ2bFOjsIGusJGV0U67kaIR76PXXM24HCIeM5ljI8dExop09+HWBUgVTatkT1ZQparb3CWkp55CQ8xXsvIMfD5DULBxJg3yyiFWUZ7QetpZ8WB1aQ93oouqPYFqm3NND1Fsj2dxBpz/OumA/WmMNaYFIRXHjZY8uieNwsASjVYKS/tOyNmUrRE7FIVoj5s+V8J8WyPeaNgYCAqxyVLO1VWuf2n850AjgSzwbB36Zh3Y6n21Puru5U0dwuIqRzKDLS0I+0EsmuQZfyqrmBCg2ZpHQnxLwDTfHK75eUrN9Fy3o56S99uKa9sSNttpq69+kdgvfJiqnvJ4+rcRwo4+Y/SzRaAfrg53MiOYpeYFmS1qikaUa7cGtO5iay1ipRG8yKDDhEHQKFLR6c9ZsWRPYswTmctCpaxQETlRlPpYQ0BjLEjCG0Lt3Ravl6dGKPFVI0N1AYM9lm+//iO88+hUuv3c6thulIZV2ZOb2AlYGUTOEJcBXtQWm8jWxw8cKm0yPB+lwu4nJNeoFvFCQ9c4MRoOCGSkoVj3yuQa6FO8evQO18F1YbRAcGmNubDbr5NTaNetJWX1sXg0yHovguzZVy0b388S7xBNLx7cdvIaPYUYkLAEvTe360BC4dAUiJA20MYbrApIxHcIpOmpiixmlpuBmTVggLEAkKeDmeoSFzIbCBaZb8xi3KjSIY/j3CckJyNVcAdMYppMWOHOJagZudJSMQGvGN7DTNvFKAzMSJWl1MFau0p/rwOpM4vUnGJPg00KFDWcN06p9kg1ZAaQGnRJOITarOe7NkbyzBaCi8osvO2qm8YRrzTxu7lurFpZ267iNKl5pCKsex4/ExE4fW9K0phclzh52KIXVKDGq2YhXVI2ccHAn3liDGeEIRQHQWKNCyNUJS5xj4emM1SOMSfgpuZatZ0mMJwh5MdLjNs+m+gTgBYw7DVLkcUsPiE0Teygr+Gyuf6jG8knYysaGmtwh8a11VekbzTKY2VeA3CBSsDE2l7Al3QMhh6heZixrCtza5OWZYGWNlK8+AUVFyP//pc07hvNUy+CC1W3Ya6uttv7tarfwbaLSYjP53C9PZY/z38dH7wyjV8ephbaG2nJ6jJowUhTNLlPS41LJNwhbJg1Xw1JLY6AJHFXxc7OIxFZRKXcLjAxjVHRiEbULxUzKfhkrXhMwKkuFK5BhTyceGCYpLDjW1cFbFvyen3+mg+nOA3zmQ9/m2jU5ws3N+TsxsgfwqxsOZn4siR0TdiqW6HNShLvTrM4+Ren2O/jUD06nKsBq21WMYBdOeITNKr0Eu3UGx4roNY/xzjKs9wX8ZmAF1lNVsBaM4ebLeN0pgq7EqV6ko1RhxExipfICXBEChXex+K7/ZutGlGLAZVQgaI6RkPDDrBp7htKSv/HR755FyBwgZyMQZQqUCsTGGjSCERp2AbdapxwSihE41qKz6C+vQ3gEMxwj2xjHCEnEakUB2AwBASFMSVWBkqLAX2ciyKhtkqiU8DfvxBzMUA48heXGqNVKGOlOnMYojVhU0srHifTR01hJveoTVGP37DqOuiZQ5oYF2EtZogJi4wKKqkvXa4KrgJACEE8tKC3wp7p2m/usieScbaRwBLRTbgU3GGzuFKIH5HqgilWrUjAdKHQJ0I3ge1viBJZjlnV6eyJkR8KUDYl7dB1mJUYoFCXXWM8MJ4adsRmpdAt8DWLq3fjRJKHGU4xI2hhaEMfsoMdfS8kX+42Jlj01S1dB3wT8TXy3I+pdtVseKmEVO9icYZ7ybMxQna5aiNUC/xlPdcc35N0hxphWkGNC7DcwimrLFzUDuK222mpr01Eb+DZRqVmvoUi0CXqjlSjTUzXW1R3C+uaUzBUExoNE4gICIY1SoSGglyCOLyBSJR2vUxeIq+sp/HCDeD5M1RulPzmdZ/Uhknmp2KMhvFy2CTamAE4pAulqhDGBuGB+HbXOJF3BKuuH4uzc3cmKseXUnCjVboOuxkxGBGA6inXxJ0AlFCE5pgsEVAkkKuws3HFPpUdg0CZdGScgtqSZwzPR5zDiUTpzLmXPbK5n55uIPX1UO1cTKfaSSw6RLnaiCzCVvW2oJZcT93up+iUQEDR7BHJq81lrPkrPmE81aAoIB8UWh7JZxJcwd2zA0nqGqDYmEGZQtrqoV4aId8bwiwKYjkY2FmTLsQorOgQusgKL6QJ2ZSvqiSfpy4coib/1QFGgcyYV3SeRH6AkMNzZFWT9mE3c6aYwY5xMtoeGwJIt0BSQdKwZUSICoHX53jfuMpIR+K4kBWDWYOX7sfsGmbYOhqJpkroAkJrpqgcZa5jo8pwj0NRDXkBW6Fq17Hk+AdXSp8bxqTF9k128VYlDIx6gty6AKqcb/gi9akuzYFrAXmBT/DUzMcoNm1hO4NAapsPsYtAsNPc1dgXeSkGfbqtIbgzi3jyyXcuk0KQF8qsMeTVCiV5Kkm7h0gyCiQHx1yCXkPBrcUyBN7XdnlKjUW+CnhWcAEBbAa0foqceJB/xqEcF2kc8cvEt6WCcdXpZyrWkkzGKJpBacqdDdQ2xZCcNKaeulA2zuV1bW2211damI92yrO9Pfm5rE1IlY9E1lmPcTeLGDYEy1fpjUK0VyRDBiUqlaXcS9IoY9V5ca0zgR2p+gatEMEFFKmep73ENAcJADjc4HashoKUHyHh14jWfXFqA0S0SNuZi++NSxXYSwyEX04gULAGYEmk/zHKngu5VcUyp1Mci1MMDAlIWtqH2eg1gOYIghguGj+cYDKoKW65FBET9nhRluTQSGBbogVglJnYX0YICjwE1OcUhEhW7XDXLNIA+VsZNCEQI8Hj6c/LBpKpa3CwBUIGV/JghcR0mLHbZloevNzDE5ro86/hqfT6Dtb6EXfWoZjJUSkXqsRLh0EysrEtMQGkoUaf3/7V3JvB5VPX+fmbm3fckTbqkSaEFy6Iogmhu67VhuQpVEZcoLSL613vbci+uUUFRFKVq3Ze2KqJc2qJBUdQWL1srUAPK5gatUKBJ0yXrm3df5p35nzPv+zZvQ1dooZDz8Dm8M3NmzjanOd/5nS0ZZGtkhOasF38g5Iy58xomxZEi6bAQdCKcZNRDOGGRNgcIRsNomki7KIucJ4LljHFzYUVLeHw5IVJ8QphqWFodwfyoEC55kXS/EGKmyHeJcBJ0cV8hY5IpefFEdOxCgbTuwbQMgvYwht5CSQigkpYWn3qiEmims76hdFL82XJGiiGcHDMnhLIhPgQK3hF8Qk7n7QS63kBjsl+IzBh+3Y0tu7tLIh5PQTziEQLWxCPKxhLvxi/qQkmWvV2iaDaIL8tR8YEwifrRDLvCGXymeD4n9KU/z9SsJoRbgyhfnXwgQzAt8m0H8YaHSdsBNHGei6QJpYok3THCoh74CmH6m7JEs0kKafFsvSg3IULrs0I0aiM0BVwM5XxCpJqi/mqivouySRvio6Uo6loTli4XdlYoFIqJgxrDN1HZnsbUG8nHIsQKI2Rt0RT6IqK9z5OSC98aDeTMIYYKQnh5hQDSJ4sGOs8xsRgjqRFCYTf9pTz2kEnI8NHgLpGwLYIJISJ9YXrCo4RcjXgyMCqej2oBBt2DpF2j1CUj5EQ8ISFs9EIJXdyU9kfxZE1iQnzksiVn/JZLFwJNq6zBJpfmECpFVlh5XBSCJllfwJ0apC5f4GXeVuETIZ/OExdCKqMLReMWeQw00hcvEdPTuIRYITaNWKqAtxjH79eFtNUwwjouEfeA0E6BcKMQGd7da8BJi5KkmgaJ7F7MTMrjS00m2OjGM+jFO9RDPAg9RpyouGc0bAjxBjuCUXYmckREujLJQWKRaTTlNFEWOeoTGnlxT0SIzVEzS9KTEOLST8AS+Uzl8bZEKAnRNzIixJgQ3P3GCYQzw0w5qRmPOyiEnBB+eoDSqEXUa2Kls9DQyiS3CDcu8piPOV3WeXOEoOt40vktTHJlKAgBaMsxcSIeadyT5YooL5FbEWbJcTkhiBqFsLdTJUZ9/TSaURKFlBCjInNCdFcnd0hXWzZVTFE/8vU+EiJJft3G7RNqfHCQ4UCJ5iHxTKienBDRpaJB1igQy8exhJD1FD3ivQTwCvE6nKzHkyuKuhKndQheM7MDrybCEKItJcS5a6dGIeTD7Rb5y9eJSHNsde+iNR9mJJNlmt/Pdrd4r4E4LemgEPhCkBohEi4l9hQKxcRDCb4JSkMgSlw0+I12L6ORSfizNoV8imwpgOXWqc8WCbUcDx45NdIkoFv43B6eTLkIC0WTdJni3ETz+CgON2CO7MAvxJovLBryXBZ/Mkgi34c/LPzdSWdSR8QMk8papEMJmsRzW1MJRkMGLaYQLK56LHHvsJalPlAnhF5Z4EkhURZ6e4q++tSAOPIx6D2OfCnCv1zbCSYT6KEMYbOVkFwXRQ+KtKVFHiZhJQsYdX4Kie3OtmqmEKfpYh0lv43LErIvN0RJrycWtfAIkTde8MkuT6lp5ELMTjoGXstl13+FD7/dQ2PAT849FdM3jNfdTH44j8caoaSFcRWKeISIlLNp6yZHKaW3inTVQzCAPxUjK4RcIp+RWoXJ6RjpaJ6wYVFvNQjhuZOCELyTY8cwSQjDho538tPbLmXo7zmibjeZgBCbQtARFmK8aBKZ1EggkSQUa2C2KNPhVqHOikEh1iDtteVubuIgidsQ4ki8e5G5ctYcyuPjSsKZIt+GeFdDei9TXQHk0D076sXvdrGr4CdqZ54h+CTVX0m8mCE0lCdvhEnrSYojafQwQsgJkSfeXOOAENmhEi6tEX1SAzvNDP7pAWLpSWRzcaY73c3D2NmXcWnXk/zq158nsflPZGI6r5BrRIoyCtdFSQ8WsMVHw7ApLcAmU5sbyIi8yY1EtmspppVEpj02mdAkAoafHaK8AnK670Egl2VZOn9PIavYO0tWr95zSzqBKj+F4uhCCb4JypBriEgxz4DQBJOzBkP1Bu6kj8miMc9bMzEKCeJ9/UJ8FTH8jezK7aRBNP5yWZIUMTzuohBaMdz5ohAaGn5vgBEGRJgGIY/XEUeuYozpJR1fBnZZQky4vQjVhzdnM+KyafAH8Yl7ZWOdFI28N1cS4fgZTY1ilypiS44pE7/VY4m0SuWEetCFmHHZRTINfqYKIdroa6DesEXeejC8PprzHnRNzpYtyEF+QjwJIer2MeQpkir6Rbrr+eBVv6LzklPxeyYLXSDE12iRRhJOPJJq3LvTIBAaDH/sUaFeGnEPeikGspiuZsgEqc/04Q1OcyyHkYwHb9Imn+4nLso5nxiV+ou4XqJOCLxdImkuuX2Y4SIUCjtLkrQKIdSnZ9jRnKa+V5SjnWZXdjsJt1BLyQH0nUGmR012FAv4hJh0lhfJJMj6NWcyQ2PexY74DlJhkdbebSKhOUYappMceoLJxcnsisZEmgwMkT7pys1x+c+ALV+aLhedFmkyi0L4+/AIgevJ58U7KhAqivuE4PIK8ey8i8q7qVI9lh3EYTuE19Sp00L4fRajLhGeEFqBwTQ7G0MUwwMi3QEhvnQ8iUFavTMY3Z5iKDJCKhJkq5mkwfNKMpqbt0zezKh3gB2uQZr66nlCpEMXHwjZbB9hrZ582KDkSog4DRJPDDEcLGJ7IsRKSfqF2AsXwhRKg5jig8SL7M4de78vNPOXbmD1khMqZy8+qmsVdjQ307Fy/fOelxd7+SkUzydK8E1UvHLrrCjsqGdnYRf1I0Jw1efIeY9lSuYJErEWgqZoPLUZCH0iDVIk8xl82na0bIG06SOSMPD5UozmDXYZeYJuPzv8MVpHB/GG6nGLBrcXD1EjjDvVT1of5JjsJGzR+BdLJqlsUfYOCvFWR8wUIk/oBT2oExVCUIoX6aqWtqq1rSoq4r4kTUmRjcRWCvkRhvxybTw3mVGR1mydEKgmetrEJZdqCeYZKnnJFz005HO4tSTTJon8PNXLSDTKq4wsQ6RxWUJsBqO4heh0CeHjWBVFXFZJiBXhbMt0ZrLqCMGaPhU9EkMLZTEG80zzDzEzr7Ej6hJiNc4OIWrDJRcRj8XkeouMO0pG9xIV6TP8WUZKaRrMNHm7Dn+wTpRBjqFkkifNPFMLbqxRneGYn+PDRTxSaOUsIWRbeZkQhS2mgekJM6kkRKvbFCI3zlDWy5DlJiryF67XGDS8BI2IEOh12JkduOt89BQyeEfj6NH0mGVO7qpRKVO53p2cGSudz/CL8k+y1fLgN6bizcTFx0Gc48zJpMT7k+/FeTdCrFffjRR60kkC0mrqCzIaKjKSEhXI4+LEXBMjMSEGMyVGxPvxeHaR0IdIlqYzIoRfMDSZ0mCRpkQGT2wW+aRIZ+s/eNM5b+Pt71hOaUojeRH3dH+eXNYWnx1B4s0eLBGeS7z7Sbk60kIX14njOvFhksaPlRR58fnkNHGKxTgtXplONWHjcCDF3pyNi2hf1EVfXxeL2ttZuHxTxVehUBxtqFm6E5TUtNP5zqevQl+3jKYVv+eUx26mr/F47nj/KXztEQ9arkB0+QA3db+Oa0/6DO/4tzM4MZYg85MFvOaHCSYHh2kcPp3593+Lc6KzOCO+nf/z3sn/nr6M34V9+F97Ej/+yA8xb5zPZ7qbSI9s4K0X/oYPfWCINXM/x3WveBPXXvFO/nTNufzxz/BkcBa5toXc9tV53Pa+N/P9J4S4kzv6C6rj+OQYM4ktdIqWCzLP/S6OX/cG3jL1tQS0p/GN9HP/td9nSdc96HUR5gjBEfrkb7n0lQHqCls4PfEw533oTu7c2c2/XX4TX3zrbLRiHmOmzvG7ovTsWIv372t509f/IgSFEJuWXGew4MQtt3qTaEL96rpNiFfzvm99i+Nu/Cg7v3w7J7l/QZ11Ivdf+Qa++pepxAvbmOdtwPWl39H56pCIfxuzEt287aJbuCf1GM3hIM3+ODOXPc2S40ym555kdPp2rp77Y24evB9v02ROy/dx3GW38La3nUGrELanTtG5897fc8Xim3hA38w8l5vGL93Bf79+KuFCL8cObOS1F93Ev9J/xcjFeNX3NvC1P76bZWdcyaVz6miKHs+Oro/ztpW/I5IJV0RapUyFjJUiEKNc1ubsM/nxF64icMMb6PzzcexI3s9ZC+7lA5du4/evfA8/NwPOs44Il4ZB8ay0EDplJc5znia+d/UXSN1zG/5vvItzd06nODCV1VfPZemDW/C7JnFi8D287XPvYcZ8HzPjTzE6+lpOqN/KX698Pe/4Yx2nXvZr7n1DgodcYYq9q7jgwlUY01oZFh8oaI1847NL8f7tDozPn8VpAyeip0T4nSfyrd4sU5ov4NovdbLtd+dy5bpjMYY38h/v3ciixSNcdc6b+VMi5OR7f0hB07JmEb0LVtLRXL7Wtaid5ZvG/mTKe6p+kvHr7Y33717WzuVr7d2LMT+D7mXMu3ytc1iOfxl0dtLmXHlm/NLC1Vn1FFTj1+YvZf3cXrpaO5z4u5dVw+kTYVy0O4w9nheibd7C5ZWT/SPXGFy1cg4bRVgrZl0j4rp3d7qrqPIr4+SB8i4um2ryplA83ygL3wSlrqeXxyNR3rq0i83/6eHEf38/n7v1SS689C28utFPJBqj4ambsDof4qMzn2bZBa/hZPGHe+Ccr/O504Yp6rM4987/43U/WMDZZ5zEtDedwQ9vmcc3Vr+LkzyjFB96lMuXfg3ffy3lHeEN5Cdfyjs+fDwPvfNT/Mzegda7jifTx3LS685jIBzFqw9zVkuI0GNr+eHjplQQwpUFhPytHksxIYVFVojPpz51HB966BcsPOVY5pz+Nt561hUs+dXDzHA14tteIv3RX/Nl86tc8ua5vOmCD/GeTW9l+SV+moIe/vXdt3PRnNP57t2b6P/We3h522m0ze8UYvafcnUWIWTK5eTEX/ProFkMeiNEYwFet/Rm/F+I8P+EiP3szY9y/sI3ksrEcaWFSLn6d1xVWsa7zmrjP972Xt77r7fysw9MZUZjEGuoyPCl1zHn5/N41/wTmNl+AZ/65dv4zo+mc1p4BoXePqZd+S86m/+Xj847kdeceRGGEK+n+4q49ceJaWH8n7uXq/Lf401zXsVZ57yT92w+ix9cGuL4aS20Tq4n/VQ3vo//nW/PXM9n33I+r71kFbG3v5PLjvM5Yq0q9uSfgd35lGP7ShD+5y/56Neux7rsbs4LP4Br0kVc9vEsj7zzEn5iTynfu5cyku9HMq00jb9O9fOGz13AP87+GLPPfDWfufMeLnr3fF4drMM2k3g/P4/TrR/z6WNP5/X/vow/p+Js+d5lfOYPctkcm4e/3s6s+ZfwhZ8E8KR24m/O4814iGpFpqTq6DmmkVMumcP97/gsZ8x/PZ9e81vOvvSt1O1Is7NvFf/vy120n7eed+kb2Xn8/+Otn0nx+/86n/u3Ty4n8iBo61wpREM78+bNY1FXHx3vG9sfTTbk0sIl/ar+nasWV3zLO2x09AgBUvGXTooVidySTZ4v65Y6YSyM8aKprXMBvUKkSL/x8cvw595b9quGJeM/oVpX2zqctMvr5XAW0dXXTMussrcjVhhL37Kejr1uDbc37E3L2SjC6li5imvmttLXu6Xisyeq/BSKowcl+CYq7iiaN85Nnwny9dvq8MVc/P3zn+L3r/0kb63z4jGLuBL9TO1dzgc/9k02m/VCpGUYirQw6tYYPu6DnB35GTf8LkGdHiePhz9/96vcNfM9nD87SSCbpPTAKr5xk8Fln7iWTy+7gJ03X8I120rkvCE8/Tv45q1/4d/OPI1YQTTkWpDXvfUd/OmOn1AoBB2LkWbI8WRjkwOk6KtakRpTXgr2dKyzT+UMqw4jZJNxbaXOLtFTHODYUDvvOMXgl6t/hdc0ySSz/PqmNfSc/wFmh9KYrjDDBAjUH4vtyuHLFZBbd2ipUcLWyB4TNqrxl4VN+VqouIsRw839X5/OJ9b7iQcTbH20D6ILmBfI0+iaw5zXFvjNz34tHnGRLWVYf8MqHp3/AV5txElE3fR8+wv8zx+fxjdQojns5bZHfkIyHsQwPTTXL+TE12zkuu/fip5wY0eGwDuDJ/S0KBOTnOdkzjnNzZqbby+nM5njjptvYNcbF/LKRC+9QnTa7ixTBr/DB96/im1mDPfjdzM6MgOfeJclW+RPZMcRaLJMZaZEOE4XrRxTaTcy+MjP+M4tj/GRj3+Zj31hMTtWfZVvPpZjmsi7LIuqk1R/qwznSjT5J/GXK77MtZufoNkT5PbNW8nODOHP5zCtUzjz5CZ23P4rErqXE7Lb+NVf78J3yusYcotnsxpey2anp4G0q49hrRF3P+RyCXz5LKPSeuor8NCKn7DqL48zlTR3jwwzSVyf1aDjzU5l18Pf5cPrN/GBz3+VL1xzKdYPlvKDv4uqXz9YSeW+kXvpSqoWJclmuSlu6wxHEEgL15zmbtas2Oz4STavWEN385w9Jy+0zWX+uLI5GMbiH7Mm1cYvkaKnmjbJunuFMqmlr4vr18EW8fFA9xqqSW2dMVuEP5+5bX10yRsqrLu+i75DSO/yhVJEiSy2NdMs9ySuETuq/MaQ5SQtf8q6p3ihUYJvguIiRMYYwmOLxj+TwuP24w3Px87txLBHGDT8+F2nsPPRzWwVggQtgW39kg+f80Z+8Jep+FtChLf8k+3ivqInQtEq8PLhHBtEWNOnTKZg+NhuBRhYdRk3an5OdG1g5Sf/SjFvEfDG8BanUbr1O9x3zBm8/hU2uSkX8sq6B/nNdXEa61PYpaQQdCURrhurqFMysxilNP6SEKKaiwGXlx1r3ssn1p7Cpb9fy1/u7OLOy94NKbm0yonkmk6h4RWDvHN5P6vW9bD57vv48zffwiTPMK9vCWAWSni8WayC4QigZNAiZBXxpeUyIF403SwLPc3jCDZJ+dwLlp+SJcShniWrhQi5DEI5uaXcJDL234gXfKROOYU5Voj3rHiAuzbcycbb7+GeH76XqWEfxzeF0Uom3pZ3c8sdD/Crv/yFW26/jQc++gZnNqlV2sbozGZOd6XY/i+DAU+WUKZI2Myhu30USmHcx8xlVsDkgm/fzr0b/sjt9/2R+7/5AU7wNjPzmDA+u0DYnsXI0w/wN9tN3srhLT3Awre8meWPJpxuciFhHSc7y8uj7yyny1o6gyxBIawe+e5X+GHwbN5s3MJ3r74fWy5r4g464ls/+b/5+T33cO/d93C3SMM965dyvlCQLhGU21XEzIVEev9FyBdiNK05E2komuRFefpcj/HEIwFeedZ88eHhps8zjfknziX+9F+EOC6S9BZxy7It7qBYZzAtm2VEfCgUXSOkRbm6SkMYuQZRJx7GFwqRTPnER4MPwy8aW/HB4DaToobbbPzh1XRFz2J+9ud87TsPUir5yRXkdGVRpStbn8lJB2W39ODFxawWmvt62dOutYXeGguQFBSLulrpXL++HP5htv6MT//62r7JAzF7Bq2UJ1rsfn5lh7jSitAzB43Mo7SAyS7P7rZONqxeMmYh2x+q/BSK5x0l+CYo+ZJFszvG1kDMWWajMNzHYMjgzble7kxG8Vmi0Rft86RYFttXIiWEWkwInoxLCENPHF/vk6SmX8jM7E6K/Qk8Qux0Tw3zWv82diR1Z3uxWdEU/g+s5B39D/O7Lefywx+3EQh6SPePkKvbhU800Bt+H+HiedM45sJ/p/Cji9kaPZH+glcIPA2f4cbrdmHLWSNCYHh9PmyPm1yuwOkFi+wWN7df/Tb++z8v5tWnfpMfv/1j3PHt80kPPMbOrduFUI1x+4WNvPcNdbzq7NdwRvtbef05X+arm5+HL+3NW+lxxvuMdRmV3cLdFofFV3bIQUW7/dply7kfZs+Qaw1WOIjwDwezF1/pdKvJ7qqV14x1h0lkt97CPeK+/ND3i5UiQTaW61c68RzuQf9HLP1beulrbqmcjNHS3Edt76YULdXwu1pFXg+jaDnU+rMHh7H+zGiVeV7HFXLyRvMczjwYwaPKT6F43lGCb4KSyxnEjSCtepY4fqZN0Vj04Q+y+Y93cv/TcUIujxBtg1hmHOQuF3K2re6l4Pbi9+YY+Zf4sh12ccEnTyZU56ah6OE9H/oiL+/Jce8dO5hqZtn275fxk4sCfPJjX+eGz67kL6+8mitenyY4RYQdqsPqv5d1a/5A5p3XsfSYB/nl3SV2jT7mzNT1ecPopojWKiKNbHKj/1TBpCTS0DhpCsO+Omgs0FSYyfZtT0D9bTzyjUFC4W00TTkWI3gvD//hcc7/f+ezzYJUSNwe9XDcaA47e5xTBhLZXdM858zK2eFjNuu4t7t5jzFDtcguoZZm6Nla7ieS59fUWhg238XGvjYWLC63nnIQee0g9QOFfzgox9nDsivWse6KsgXncK2rVu4S63YGye9uLMeNv3quHMn0V9/PlZX3IznvmpW09W3krrFeyj24a2Nf5WiMZ1v/Dlh/DoBtrz0s9aecjh5kMmafOYfm/eR/DyZQ+cmxiodkPVYojhBK8E1QGqwRCtkM5162nC1P7+K63/6BCweW8u7PrCVw/KlQyhItDpL3ziCbLjkb5w/GxbWQm0zaYpq9jWsu+TjJM2/ilr9t5o9rfkrnnLV84kOf5TGtAeOcK7nhax1s++wbua/1dFr4FZd+8O/M/NlDXHtGnEI8ybAWIvjkH9k4HMGVuItHPK1E64PUby+ie/z45RZflknBLuL1+glEIuTtEjt3bOepcD1fueEGbvnrb+n+00M8fOvfWf+uB3nP53rp70uhpwfY/pV1XPOyD3DjP0e4X+Rv7Y+/yB+/9VbsyFOVUihbELro2N0tczgtCOuuWFS2SlTDrglfNhhXLOumrbPcJbR+fSe9y7ocP8lsNrPianHesdLpdlq/oJdF4ywQ+wv/ueLMUhQNYPeyKxyrV216D4dokoL1+truur2kv9xQbigL3Yol8GDzd+TTL97PRcvokWPXKmnvbC3PxJTIMWTV9FfdyjkbWSTEZy3Ptv7J8ttf/TkY1l5esZpV4z6E+KvdoTLeNvGffI9O/ir5PxATqfzk0EFRgZl75L7NFIqDQi3LMkEp8Vo+9vvriH5zBl++cyZ591as0RKx6HRGCztwlzQywWZiw1spRUKYlhBdnjDDw4OEolPImAlOLjTSF9hKwagnU8zidnkhV0/IHmQoZtOU1On3FgjmPPi0UYZKYfxFF9OjBZ7wFGketdnBGbz3l7fT9uMwl/6mjoAex64LkisZeIQozBsmesRHwHKRKsp1+zSm235G0klsTx0Zv0aomCRScJMojDqWvGZTJx0NUxgdxcw3Umgo4TXzxLJedhnDTCkeS8o7UCkJxQuBFAzVZT2qXWCOlUU0vNQM9Fcc3TjCei9LsijGqC4hM37JGYXi+UZZ+CYoemGAZHKEYGAyevpJcno9kclTMbM70IwwJkJIWXEK/ulksxYel4uRRJqA0HTZtEUgFyBuBSkJAZc1kviMRiEY40wNpxkKJGC4SL9hE85myXpHcUVehkuEGi2NsDUzCVd/geGGYzn2U5/m8sc/zLV3yzin0DCpiUJdA0Uzh0fXCQR8aG4PmhBxmq3jMiwiWo5Jnsn48v3UuYtouoedhRkUGyHshowQntYuLwWPm0DYI9KSoiWrMSjSFYnW0T/Z+eRWvJDMeub4rfJA+D3HcCkUL1aqVlBnWIESe4qjAGXhm6C49WP54K9/ysnXzOWT/3QznJab5r+KcOBP+OJusm4fWSuFYdVhSSudx4edKgoxlcZTclOMZJ2FdAOhHdjmsRSsp3DlPUxpshnqb6KkjVKIBgi6+0kUwDXaSFRUNV9qkKHmGZx64Y/5xjuDvDz4GPPf8kHu2Ql+w4fLXUep8Fp+9IdFnOFrJOPR6E2maC4FCU6NsH3kCRJ3380FV31PqFY/wdQAJV+YjC/JySKO5AyLXXEX/sIu4v4IxlBGRD4dQ3+agqjpdf5G8okB9NC+F96tWpr2OaKnZnFXxbOnavmoZfzCuAqFQqE4PCjBN0GRe+CONE6iJdlHbxaaPAEsl49Bl4twJoNd0kj5MzS4PQzbGnbWI0SXTZ+7SMzOUBQizgg3kTDjBJNBLPco9f4G+nwDhJMeSi4TM9WAqQ1BSAi/TAofTWTqR8gPFDEn+Znhttjab3Biq49N24Zpsl9JPBLHL0RevLid+rhFwech7w9SF9dJkUATQvN0E+4vTiXnSTM7n+AJkZaYdjyZ0ChZVz8zCq30u0Q8Ix7hMYR3pI5seIQpuSkkGnN4hg1MV75SEgqFQqFQvPRRgm+C4myJJdz4hXOr16uMX1C3irMQ8n4oh1PavfOC3MABzRC/cuU3A1chv3tBY7nIcXXP3Oo1t9dDoVBwrsu9XeU10zSdcOWxTJf8lchrtc9Lv32luzafCoVCoVBMFNQYvgnKeFF0qAKoLOj272qrVzU+Qy70K36lMJP3SBEnhZq8VhV2kupOF9Xnqk5eq/qV4yhT9a8ej/evsq/rCoVCoVC8lFGCb4JSK5CqAuhICyG596qMU4q+WsEnrXPOdcPYfV2KOueZcWmUjE9nNS9V655CoVAoFIo9UYJvgjJeGB1+sbdn1dJF8E4cljwod/Xuy8ldNWqRz1WdRKa99lxSFX1HPl8KhUKhULz4UIJPcUQoiy/DWUpF4nTbCqGHZUKpbL2TFrlaq5609Mnfqmir/spnpZ9E3itdlaqg25vYq6JEn0KhUCgmOkrwTVDGi6B9iaVnTUXoOUirnkDG6TjKwk4iBV817qp/9Xz8dYm8VnVVav0ltcdV9nZNoVAoFIqJghJ8E5RakTReYB0uakWWHL8n5+dKJ48tIfv26MKtOHnu+FWerY7LGy/yqsfVfFTd/jiQv0KhUCgUL1WU4JugjBdIhyr2akXY3tz4sMdceVkVSW0apF9V3MlrtZM2qterSP/qeW0Ykupx7bVa9nVdoVAoFIqXMmodvgmKM6ZOiKaqk1TFk3RSZFXFUfW3el/1V1J7LKnee6QZn6bxaa2yr/RVRadCoVAoFBMB1epNUGqFkBRBtUJpvEjaH7XPjRdbR5Jaobe3eKX/3vKxr+sKhUKhULyUURY+xW7BVCuE9ibkav2PtGjam4irpRq/vG9/6RsfzpFOt0KhUCgURyPKwjfBqRVEexNZ+/KXx/u6f2/Xx/Ncn98b1eekqNufsFOiT6FQKBQTDSX4FEclVdG2LycZLw5r/SQHOlcoFAqFYqKgBN8EZ7wgqmVvlrYDWdH2dX1f1Maxt/j2RW069sX+0q9QKBQKxURCjeGboOxLMNUKourx+HvHi7rq8aGIqUO5d2+MT1OV8ecKhUKhUCiUhW/CUiu4xgu4QxFjtc+9kGKrmgeZ9lo3nn1dVygUCoXipYwSfBMUK+DDTKdpNvMUfI0kc0kKBvhKEXJGBpeRJu/yYGe8THK5yXqyZNw+9IIXU7co5SwytgfdSmOVwuI4SVRvoFBKoRWLBPJ+ikYK+Z9pNKBlRZgiLj8GKXcR08rjsk2KdlBUQjem7cKlmWj+IJZdwJJ77gr2FJFyD46i8BfP6hk8bg0rP5V0AVJeH83pEJTSpH0ivGIWSwsIhSdSUAjhsVK4ihZpy4PhVtVeoVAoFBMLw+PxXFU5VkwgMqUcze5WnrQSRFIZfHUaZl4IM3s77qKBlm8UIm8IM+QllbWJeb14kznqhcAbimjUh8KkEkOUjEa8fotiMYdtjWC7IkKI+UhacTRfjPpRk1RQE0LSx6gQkTnyRItN+MMl4imdYCCAtzREynDj1VxkE6O4PG50x2JXFWbyV+6uoTsLJuuGTlJrICfut7PbaJ3sw5MR6SKBx1eP1xLC1G2TFc/kXQGm2iMMuGM02yJMIVzzeRG+rqx8CoVCoZg4KFPHBKXeG2JIGxHCzkXCUyRXClKf6SPhBq8ujgM2ruhk0BK4SAsBFkOPhNjhgslFnaH8CPWuRkqRAolUP6WMRwi9EK5wgVw6RygXI18YJR0xMfJ5IQoD+PQw/jSMhlPkk+Ig0ow3u5O0RyeiJcm4JzGrIYbl9u7eCcN2NtuVlj4hQoXTdReG7mWGt0RjcQSLGFuzHpKuIn6R9maRn0xpAKPgxicEJkk3O3WNwOgIQ4YHjRIlEd9EYsnqDWxYvYQTXsAud4VCoVC8sCjBN1EZHSJdiDPDFSDsN8kVPAz7dI7JwmBwKiYDmNvT1Js23jofQ+K6bqfQpkwlk/ARLFgMTyoS2lnE7Q8xud7NYCjN5O0WLiEME2GDCFOx8uBJZxjWihTcQfyNEE6CKxDBW8qTkVvmukxpwKMYH2YwJS7kxA1CpFW0njh0OU7DAEtcFK5n2CMEXYhmb4agOUSgVMeg71ge8/VTb3txZZOEgnXESincPg2fp564S3ZFlyj6hWo9Spi/dAOrl5xQOTt0nuvzLzQv9vQfCE07oSy4Nyxl/l4Et8z/hg0VJ0S5QqFQHCmU4JugFAI+8B9HymWTjIsL+X5CYQ9J9ylEspsZxM0kX47h4IkkCybTggmseB7vSBZXKEsmVIc/HSckHtWzkxnIJAgLobUzFKMllSLgq6NYGhViTmi5cDO+1C4sRgm7Qhhem0zRhzu3k1JsMloBcQ6N7gwjIgzDKjmWPWeChQxfduNKi584L5VKwhWJhS16c3F2WBbefJRUMUF9ahuljLitmGYwFsJOD+APZdCsBpJ2Em8xRtx3AlN3DcoimDAsXziPeQuXs0lNVnle0eYvZf36K2Fjd+XKnkix19naxaL2dtrbF9FFBxuWzq/4KhQKxeFFCb4JSir2b1y16pd8c+5UroubPHrf3dx68z286zVPE8i7yeaK2Euf4p43Wbztf27kBzf/nPv/8Q/WXXQKo7ZOzJ3i+Hgd73/gAR7ZcisDXfdxww1LOc3M8Wgoin3SLH56/X3c/F+n4Z/xSowAvP8/u/jsHZ/jfO90zBMX8JMbf85/N+0gooHpEaJx3ue59TfXctHLDSEOhXCzyqLPQZNXTGfSBpZJUt/JGcfXU7rwK/z6d/fx4IZbeOyhh7n3g2+nX68XgvAY0vGX8/a129j4zx7yt/+JG2/7DxYUnmZX65jlZen8+SytWliEW3LCmBXmQP6SA1loZKO/21+4qjXrhCWrnfPONmjuWDl2z0E2+AfzfPWevYXrpGvpkor1qTafq/fI44HyV32+6mqtWOXyGzt34qx0LT/X/L8YWLwAlrVfxIqtlQs1aNp85rb10XX1CkeI2/YmVlzdRV/bAqf8D/b9SJx7VJe9QqE4AErwTVAC27fylNfm3758B9svdnHSG97LV27tYcFH3s2rIpNwHzuN6N9/he9/7uCLL+vli+eey8sWr2TXu74pzrOkR09j/rq7ae+axymveg2tC8/m678+i69c+xFmu3aQf/BvfPq7S/F88Gu8N7yWTNNlnL9oCk+8+Qv8zOzD+7c/sNmYytyOs9mZnYw3McT5c2cR6P09a/4lq6VOScg7y7KwbDljV87QLTlXNV0Iv5LGQy/7Gg98aTY3fOENtL/uMk4+9eWce+3NHOs/jtH8U1yy9hZe86uzeG1zE/rb5/Cr317Md27+PK8YlnbJMm2dC+hd1M68efNY1NVHx/vOq/iU2Z+/Y6FhmeMn3bKePS00joWns5WuyvPSLVy+yfHbtHxh+Zlu6OtatNt/3uVrHf8DcTDPV++R6d4rbR20rGl3wijncxFdfc20zCp7Hyh/UmjM2TgWt4ync9Xiiu/+ea75fzGwfOHlrN2XVfW8ubTRw9bN5VPthCWsWtkhjsbK/0DvR6FQKA4FJfgmKJNiddQPD3Hbj1v52f+dim5v5eafryR+woeY1tRIaVc/U/wxPNu+xcWf+QiDqX/D+PsmdkZdDMROIH/8iZzVmuLGW3ZRHMmgTQ1z75pP8vDkM3jXyY34cqM8Hb+ZL359hEs/sZzO778X8/sXcP1wPZ5RN7ppcefdd+GddRpzIklyk9/Gq6fa/One29E9YWeCRrlbt9K1a5dEqoXY02x0w2Jq4WW87lV1PLbyFzzc089gYJB8PUIUxthhb6F++tu5aMpfuePGzZTcRSbHIqy+7tvcFDyFN77KVy4EQfeyi1i+qdwob97aA60zHEuJtABK9u1fsdBcv87xk6y7Xlpo5u62cp03t02Imat3P3/U0deFTP6WXiEIu9ewoiI+WmfMPmD+pECZ09zNmupDgs0r1tDdPKdsoaqUn2I/9PWyZfZiVm/Y4Ii9jULQbazV5vt5P7WoLnuFQnEwKME3QRnI53BrM7FHimwO9hJzzWZGysefrCSv1P9FyFXHsO0j/o9dbB7w0B95gKB5B18+dx43bNxJuPUNRP/xbTYPRYnWBUnt3MWc4QB3u4NMnZYgV+eGvxtsvvm/+Yp9IudmfsGPf+QlmR4k1GyS0p7k/p/+jqdn/Acvn1VgyuQGXjPD4tbrB8jLcX9CEBb9RYruNJgJMmRxCREYw4/lDbLdaOKCk5swn17Fg9kZtJg6ycwx5DQLkzyel/0brv5f8U9jEpPrfAyPDHJaf4K7rCDH1BuVUngOzJ5BK810rFy/uztyvWi0m2lDtsdS8MxohZ6qCefFxgHyx6wWmqVgKd/tYNtr6VUWqIOnuYOVjtBrZ+G8eeLDoGz9VSgUiiOBEnwTFJ/tougtkgnUE4wPMpx4mmSsibNG/86GfCNa1sIfCjIpZlHSbfJFN0FbZyBr4PakyQ/8ix3HXkxzYZTsYJyAbxIPNQY509hOcleIQiLLq6bouC/+Lu+Nd3PL1na+8b3ZNDQ1MtyXJ1hvEjKD3Lo2wDvOa6HhQ+cwcu172eY7Bi1XwpMWoi0PIUtDLpknO3OzHoNhwyJRTONO7yTxirlYvum0DvfRa+lE833o0QShZB2pvkcY9r2dV40Oktw5RLHk4cFpPt48qcSW4UylFJ4Dm7fSQ98e3bVVV2vRG2+NedFwoPxt6aWvuaVycxlpFWxpFu+iVgUq9o4oP0n3svbd9aVsNVXlp1AojgxK8E1Q4hkX/qgbs5AUasqPbLvftvj/oW3s5vdbh/HpHlxkhdDKILQhGGE8tpdi3kAziuT+eRv39fvp+NhriUQbiYo264Iln+HYnVn+8MchZ62+7W/4ODdcEubKj17B96/8Fvec+Ak+3VagYUo9aaMJI7WBDb/5P9Lnfp+ldX9h3Z/97Mj9jax/FHdTlJJXiFKXgeEPOkux5IbT5BJpgrqffJ3JjdevYv5/vpvXR0sQnoLcFdpIuXHbDSQf+AfdiTDnfPT15KI+6g0PSy75Gic9fR93/E3k+Tkym3Xc2938jDF/VeQg/Ls29tHc8b69LsdRRXbXNc85s3J26DzX5/eFtNbtN3+blrOxr40rF48J2vOu6aStbyN3bZblsxnZA942t/y8M0ZNztAYx5FK/9GOLD9nbN6CsTGP572vg+buNYc8BKA8sWPvy74oFApFFSX4JiiThZAbSD7Bezt/xSPbtvGT3/2a/47/iLM/+wvqjz+Dkp0nnNkuxNcMiumis+3ZQCaLPxYgmYXW0hauuegjJOf9kpv/+ih3rl7OZW/4Of+z6JM84pqK/7yr+PFVbyT+pQ4ebHgNLfYdLF60icnfv5frzxhGaEl2WiH0f/2afyQnU597iD/ZzQQbIjTHdYZNITZNISyLJuligaAnRH1sEhFvEEsIv4bMCHx7CQvufyUfuuUxfvebVWx5vIfr3nsG5qSnCMXu5wvv/wTF1y/ljr88zb2/uY2Lz7qJS96xnJFSuFIKz411Vyyiq7Vzd5en42omNciJCYu6WulcP9YtOn7NOXmPsxzHXp4/GPb3fHWG58qOZjnq/5DDX3v5vP3mb8VFy+ipmWHrLDFyUXnWqXTlMX+dzhi19StbWLOoq/LkGM81/0cz1RnO6x2h21apB2PCzCnfmrw7E2SexaQVKaxl+BVtrVAoFHtFC4WkXUQx0Uj5z+DL138X/4qX87E/zSRiPYlLaKhcwzTszCgIwZd1NxFObkePBckX84QidYwODBGITGbUHmBWsZ7tej+m3kSx1O/sdGGkZhK1R+ibotG8fZi+aAPeuEHU6KffFUPLapwyKcG/cjrHut1s1k/mLatvY86Pmrjit61MdY+QMTOYfi92NouplbA9PvK27qy/h2EScWukS/W4crvIm9DQOgNrNEtdfJRdIj5zdAeR0DEEcv30BLOEPK3kRp/GcNeLtOq4S4MY+thMXYXixYxc4kaK+mXt7fueFaxQKCY8ysI3USnsJJpIk/U14ks9jcfdQKYxRF0pRU7X0N0uwuYgueBkikJVefUSg8kkTVEPiXQBbzpGyvQjFBRF16Czf25R6MSmWI7tUaEcB7MMhQ38w0Pg7kdrOl2IvThNWoLHR/1CjBV5MlzH5CUf5ttPfZ5bNk6lKMML+aD5BOLZUQpWCZfbS0nTcZXA7/UyKRSgxetnSiFPIDwZI3wK6e1Z/HaW/vo8+cJ2wlEhEM0dFL2NNBiWEI4ifb4Z5IxhGjzHIHJXKQSF4sWL7CaX1tOVHT1K7CkUigOiLHwTFNs/k/9euYy2Hy/gwgdFRcgPkbFOxzAeZFIRMq4odn6UlCuCz87hEwKwIMSdyy5QlHvaujKkR2OEg3GKVqsQiT1oaTdNU/0MDHpwW0LnRbLYpbSzvVo2P5WwMUBMxB1vbOLEhdfyjYsjnKJvZuFZ/8Mf+jO4wrJCNlEceiPXbXgfrwg3OUuybB8cpF7z0zQ5RnzX0+y4ZyNv+eoysKZRl32aiAwzEsIK2hTsFryDfRT8SXJaM0HvKJnhGLHoNoxEHZpvBNM8XojUHU45HI3IyQ/XrO/kmSPeKnQ/u64/hUKhUExclOCboFilPF5vDK85wK5UkOnRPP0lE5d1ImnPY2hxP8GwLYQhpFMFfFaEsC6Xc8lTL4RcPB7F02CQs4YJxhvAE6fJaOEpzy4a0lmyvmlYiSF0fwDDHCEVgMasl+FgPd6RHRRiIRoCeXYORHj11CY27RJxalGyUZtp5jFsKzxOLGlie1yUgkE8pk3KSuDzFXkZOv80DYyURiEaolTwUwoMM60/wqCIPyriSuXCeDUXpjuHno+R8+6g2Y7yVDFJnS9E0ZQ7dygUCoVCMTEwPB7PVZVjxQSiGPZiDA1TEMd5f1SIphxmyE/9aJZ0ME+Dp0jcE8I36GeyXWI4lCKDh6lmgBG3LcSfRbYUpr6UJKtNwnClnOVbXKaGrZfwlorYvgIFt5dsPkTQlaEQCKNndDIxD648BFM2bs2gL7eDkl/ck0tSTNpkvaMEdTcZzaKgie8REa7lEl8nto5ZdDFoumgSwjOpe8j7AkIUZoUS9RA0hLirs8iNWtjuAqlQPeGMC68/iVYosjPgF2K0hK0VsIQYVCgUCoVioqAGM01Q5Dp5oVgzyWCEJkvHcpt4RvwUIyME4jaZbKMQZXGSTUV6DZ3JpRB1CSGo9EF0Q4i5gBBthe0M6VNp8BZIC2HmKyWwgjq65meoVMAIThYCMo6vIQ1WI5lcCTOSI5guYtgWpiskxFfaGR9oaT7MUhQXFnkzLeLR8bhcuKTTDQxNR9PKo+/kb9+kMMWgj9DwLqYPZWkNhdkZE2JxwIseCKL7gsSSg6RdfnbFi7hiiPMMduNMkqbcqk2hUCgUiomDEnwTFG/AwMraIGe/BlNouXpsc5BUSZp9G6j3CgEXnSqEWlxcyGLJJVTqQmwXNabR1EkXMkKMeYVyzLHDu4tA0sWouxG3FqdQchEuGIxmhhnxiLjwOCLR7fbiH8yQDhTx+lL05/0E83Xk9Bgx1wCFuhIBTHyeViHqbAxDwy2cS8QpJKnjRIIcVz/soyREYi6sMYxBj7kV0mlC/hAh3U2oYJOz3ORM2a08GbmKi98VJTUsZx0/uxm6tZv/H07U5vcKhUKhONIowTdB8Q0V2KlvZ2rWi1XSyUR1im5oSAuhVteIyxLibzBNLCsEXjjIQF52rWYJxiYTT/swMgXMaQGCOR1vRpwLDZWPpJk26nG6X1NCvHlzDXhEDbNFOEkyuEMBXPUmEXF/rgiTGnwk9BwaWUwRTy5hCnEWJjfSg2ma2CUh7iwRr/i1zRKWcPJcTuTojxhoeZMpKZFWX5MQmhAMGRiBJNnCKLoWpuQ2pdoU4RcJe8T/81khJv0ERDDPF3IttvFr772YeLGn/4VGbrG3v4WRq2v1OU6IfoVCoThSKME3QdHqdXTjlQwU48QTKVyJNJFIkIQ2hVhqM4N4iPozxIPHkxBCKxYepTSUxTWQQA/m0KfWo20fxs8I/tIsTE8eI5nkKWMSJ1gFAsYMTD2OFYCk10usWMLMgN+MCHE4imb4hKDcQsITJOR24fG4qDeyjOg+pkb9lErifkuIPPErjy3LEsJNiMdqmylEXTg9QJ+vX6RvO0VviJbBU+kfzuAV4e0ouSmaebzptEhvhhGrgaIrSCA1jJ5PVQI5OlCb3780kRbh9euvhI3dlSt7IsWes1h1ezvt7YvKizC/hBaeVigURxdK8E1Q4g1v5Jqffpevnnsc/7vD5pE7buSmtXfx4TadUsYmZRbwf+4p1r/Z5uyPreKGX/6KP//1b3R98FQKRR1PZpjjMq10PvII/7f5FhI/+Turfv8VztH9PGzo2CdM46abHmPVxa/B13o64boSFy5cyZfuuZrzXM3kj7uAFTf+gk+ftAM9nmMg5Sb1ji9y629/wruPCVESys4WThr5SqaNbWlougvDcIta6yKS03h5+G189pf38JsHt3HPvb/mxrs/w4oPvo5d2SKRmMVpLWEWfOVOfnzn/Wy4/efEb/4wM1tOZ7jg3W15WTp/PkurFhbhlpywpxWm1gJT3jHh4JCL4cpn5CPNNbtR1Dbo1XvGX5c43cdLl+zeLWMsnav3SOOBLETV56uu1spUzv/YeW2X9cGkX7F/Fi+AZe0XsWJr5UINcumduW19dF1d3plEbsW34mq5M8kC5/0e7PuXOPeoIQEKheIAKME3Qanb9k8eCUa44Au3s22xEE9n/Tcrb36a8648hzMCU9CPnUrkb10E/ucOrprZ4zQ4L/uv5Qy959t84YQcmfwZnP+b3zJ79Rt482lziCw+kx/87Gw6V17EyXJW7MMP8KlvfQX3JT/kg/V/JB67jLdfGuXpC77A6nyCwMObeTLcyuxzX8GoN0Y0D69reRne3g3csHkAyzCcUXtS9FlC9MlfTTMcsSf97JDB9v85m44nb+CC1zXx9pPfw1lv+TiX/+xBJkWmkto+SvSydXzJs5KP/PsbaH/7+3ljzxv4/rtNmuomVUpB7ji2gN5F7cybN49FXX177B3rWGDkdlfCT7p2ufnpQSK3DJPPyEf6uhbtDqN2/bzqPTLevdLWQcua9vKeq046F9HV10zLrLL3+PQt69nTQiSFwJyNY3HLeDpXje3duj8OJv2K/bN84eX7Xgz5vLm00cPWzeVTZ6/hlR3iaOz9Huj9KxQKxaGgBN8EJRKuZ+bIDlYtn8b1vz+VSbFtdP3mhwzVX0LLzCaMbQP4w2EC277Hok98lJ7SG+Afm8gE3fQ1zqZ03Cmc8/Ikv+1KMhAfQvdarP/1V3i06eWcf2Ij9WaAx3t/ytdW9PGxz17Loi9fiP/aj/KjXXWQL2CU8tx6++1MPv3NzPWNMho9k3knGdxz9zo8ninYompaFQtfVfAhBF/1er7gommraDLf9houTtWTaM1SqH+S6V6d0YJG05R23vUKF1ff/EumjeawMhluu+16dpy3gNfmxwRW97KLdm9Wv1luSto6w7GU7LbAXL/O8XtB6OtCRr+lV6S3ew0rKuKgdcbsvaavvHftXMeKJwXEnOZu1lQfEmxesYbu5jllC5KmxuW94PT1smX2Yme3DCn2NgpBt7FW++/n/deihgQoFIqDQQm+CcqObJaiZxaNKdjk34qZP4GZqUncE85wSnYTQXeUnBVk5O/9PBr3MejpJqZt4HNvPpMbN+7CNfPlRP5xI38bjREM+cmkUswZSrHR5WfmFI3BkBAVT7jZ/IvFfDE7W4iQm1n2oyGSmV4m1btJhB/loetuZuf085k5Q2dq67G0TbdYe93TDIVSzu4elm4Kp2O4XOguIfWsNB4z4+z2UcgYPPbAaXzu+9P4nz/+jvW3/Iab/vNCdmZNYnmDkZbTiR33BP/11e187h+P8PQf1tF36RJmNkU4sXVKpRT2w+wZtNZYYI46nPQ107FSbshf7vZbL0RDM204emBWC81SUJTvdrDttfQqC9HRQ3MHKx2h187CefPEh8emiodCoVAcfpTgm6C4rRKaL8aoz0cokSGe3M5wSOfcxA7WZyNoRQhFYzTW21iGTa7oxWfq7BQCUdMTRPqfYmfduRxfGEQ8jGZF2dhQz+vr82zp95FN5jh1soH34u9xcfxP/G7rmXzjuy+joWkyQ3059LCXYKmBX/8yz/veMYnowpeTX/1entRmYRcnCXECAbcXr8egaOUwSzkMtwfb5SZfMJnlzZJ5PMCDX5vPZ/7zw5z5muX8/IKPsGHF+xgs9VJ6vIe+7LH84eKpLDljFnPPOYfpZ5/Nie0f4ZtbRJqfBbNntFaOjgI2bxVytI+uSnd0rXMsllt66WtuqdxcRloFW5r76K1VgYoXBvF+JN3L2ndbmMtWWfV+FArFkUEJvglKJlsnFNVOPKU6ZxbstGkpLrzsC+Q2/II/9Bbx2C7HomYKZ4taYsg9dXUfJdOFy20x+NeHuS8xgws+8Rr8sRBTXX7es+SzHLPlSbr/1MOUgsb2eR/nfy8J8LmPfIoffPabbDzxU1zelqdhSj1WwUdd7m5uveV2nnjjSr5y0i5W/L6A7v4XduFpEY+BlSvg0k0hPP14/V7SxTwZ2yIUiJLUvZSCBtONBu574u/k6n/DY99JQvJRpk6ZQSi3lu61vZzzwbcwnHGTDk8iMLVEKJsl5ju2Ugr7YfNdbOxrY8HicveZHES/sqPZOT4UZHdc85wzK2eHD2mtu7e7eY8xh7XYm5Y76b+ykn7Jedd00ta3kbs2C/HKZmQPdtvc8vPOGLK9TEo5Uumf6Mj344zNWzA2pvK893XQ3L1mtwA8WMoTO/a+7ItCoVBUUYJvgjLJGiJXSHPBpd/i0b441996G+/ffhVvuvoOose+gpKVI5jaRsY3nUImj6GZDKUzhIS4S+VhMg/xxQ+9n9Gzr+UXD/6FDTf+L594/R1cevGXeEw/Bt+bP8cPrzqH+Jc6eHDSa2mxbmfxoseY+v0/8dPXjRCyLHpMN4Gnb+PR7EzYcR+b619FRisyKy2ti/WEPT6KhSzxdIKiEHsun5+SYZAejdPvi7Lqpl+y+r5fcPufH+OejQ9x67kP8V9Ld7C9L0MdaXZ+9x6+/qqLueWfKR64+Tf8avkn2fDld5GyHq+Uwr6RgkjOmqQyQ3X9gl4WyRb6EJGTH5zlNirdruMnVchrjpBs63yG/4FYe/k8ulorz+0l/BUXLaOnZoatswTIReVZodKVx/x1OmPI1q9sYc0ikd9x7C/9iv1TnUFdnt3dRud62f0+Jsyc91dTts4EnGcxKUYKdxl+RbsrFArFXtFCoZAa6TsByQXP4MqV36Jx1aksueNYIcC2ECnAgGsyXjuFRoGkaxKxxA7saJhCMUcgXEd8oJ9gtIlc0cMxKQ/9kScpeqKkk6PoIfBqTbjz/STqYjQLIdkXbcAbdxPVd9LvqhMRwykNI/ytFOEEr87j2VYW/vw2zvjeFD7+hxYi3jRxShSFIAnkE5gecNV78Rc8jOSLWJpFo+0S6cxRPxphpMGNbzRDzJBj/hrYVeinvi5KTstRGMjjbKI2KUwkUyCoudhhpZlVfAW7fE855aBQvNiRS+jIj4Zl7e37nhWsUCgmPMrCN0Ex07uYqqXoL04lVHiKYFCIJe8kWoKjpOTeui6dSHGIbHAypbyJWysxnEoxJeolnTHxmgkSWt7ZCCOtCbHnEWIuLrSVoZHwaTCYZTii4x8eQnftxGg6Ay03ymQtyb8SESJ2nk25Iid9/st8/uFP8ds/Tydvx4R41PAde4JQji4CLi8ej062UCSbEHEVLdx+F9PDXiYXmgi74tiZDLZPZ1fxeHZ5RPgxSKRL6IkmjJCbhvoIpJLEcnlG7DSTA8eyJaDEnuLFj+yGl9bZlR09SuwpFIoDoix8ExQt1Mp/fXs5r1/zFt650Y+RHSHnOwlym5nsypEqBdEKaVJGGK9WxO9xUyxpeCiQl5uhebLY8RkEQlvJpJtwB/pxZQxCgZIQiK2khbjyhHPYxTRC25EuTCes9xMVWnC4sYFXXfgdvvnBqczIPcb/O/+LrOvbia/eQjOCGCP/wffWLeZ1oQj5gM32TIqpZgx/U4ye4c2k7r6H939+ORksimYS3e/Hcmc5JjcZX6NN35BFwRwk79XxjuritxG3ewdWVmOyt4FEZhiR0EpJHDpy8sM16zvZ5zLM3c+ua06hUCgUiiOFEnwTlFKpiC8gxJUQeoOZINNjOXbkTfzGcaTcW9BHvATCNppPI5UoCqEXIYzNYCFLXThPXoi4vBHD9hcJj/rJWoM0R6fzlLGT6GiIQtCHFR/C5QvhLo6QEvqqLhtgOBQVImwHdmwSMX+KHYM+Tp4a5cmhrZg5P6UGL1Nzs+jTH6d+NOsIvqw/SF3cTcrOokfSvNqE+/INlEIakcwgujivK57BU7E/iwodZtKQ0K1GkULOwPRBIBUi17yLWN8MBqJbiRHEFOJVoVAoFIqJguHxeK6qHCsmEJl6D43DcUZKUUphlxBlWXyGi2wuST0BzGAaozAJr5XElZ9CyTNM1msJlQcRb4RMxkV9SAhHlxCEepySdzqeYom0oVNv5QnnbOJ1QjCWkvhdsyjYI3iZRAiTuBBqvrRbCLUEdVaQLYUCXjOL5Qb3iJ908CmCJRd5zRbCFDyW+HWbmELZlYo6O3CL8ySBvIuwJ0ZJyNEdxhbwu3ElbDwiHy5DI6m5adJE/NEQo0LUuoXA1NIuEUkGbE+lJBQKhUKheOmjxvBNVLanhYBqJB+LECuMkLXDFH0RDCNPykhgGg3kzCGGCh4K3n78+mTsXJ5jYjFGUiOEwm76S3nsIZOQ4aPBXSJhWwQTQkT6wvSERwm5GvEIbTUqno9qAQbdg6Rdo9QlI+REPEF3BL1QQnenSfujQoeZxDSLfM5C113PdFrZaRjYRiNuj8ZAPkVCuGgoJiIqUafnSGUSZEs2ej5OMhhh50CWBiFc49kEWnAKuhCjCoVCoVBMJJTgm6A0BKLELY1Gu5fRyCT8WZuCEE7ZUgDLrVOfLRJqOR48JdBMArqFz+3hyZSLcBSSLlOcm2hy6ZThBsyRHfiFWPOF68nlsviTQSHE+vCHhb876UzqiJhhUlmLdChBk3huazpBPKjTYlpEXfXYER9DZKgP1Dlp1OQWYYYuxF7ZuQ2jfE24upwQpULMmaUsHlcRb8nC753EiFFHU6NBWFzTg2H0tInum4qezRJs8FJM7sQbGNtL91BwNrQ/ApvUq83vFQqFQnGkUYJvgjLkGiJSzDPggclZg6F6A3fSx2Q7Q96aiVEQYqyvX4ivIoa/kV25nTS4AuAzSBHD4y6SL8Vw54tEJmlCbAUYYUCEaRDyeIUoA1cxxvSSji8Du5xuWS9C9eHN2Yy4bBp8QfGcj2GzRDIXx5M1xbmfeDJe3kNX7p9r69hCmEonjw3xny5+G7xCOO7qZXLQhy8aoz+eIlhKY9o+dqY0cuJ2HyZG2kOxmKQYFukZkesJ2uTlAMTnCbkW2+olL959a1/s6T8a2N/CyNW1+hwnRL9CoVAcKZTgm6h4dRKBKOyoZ2dhF/Ujcbz1OXLeY5mSeYJErIWgOcSwNgO9BEGh9ZL5DD5tO1q2QNr0EUkY+HwpRvMGu5wuWj87/DFaRwfxhupxl5L04iFqhHGn+knrgxyTnYTtKlIwi6RzJkW5bZteR8wcFYnS0IM6UX8Q0zSdHUCqzrKEAqxhixkkINK1KzOV1EiSupibom3hKu0QQjLCaEGnTojNWMBFY6zAiCdM1ghRX8rgDokHjyLU5vcvTRyL8IbVsHHvC3ZLsecsht3eTnv7ovIizGpha4VCcYRQgm+iEv13vvL9/+V772zjF702G//4K36+8QEWn/IU/bqH/GAv3u8PcOd/uHjzp77Kdbf8g3vv28A9l0wnZ/uYTJwWq5X3r7+HdX/pZvT2+/nZ+qs4Z3iER2PinjNO5Me/3syyd07D1XQawTqTiy++iRvu/SrvtZpwnfhOfvzL3/CemTt4WXaQjOtY4m/4NL+445d8oEWIvMp/tvy/VcSyTedYQwg/u4QnF6fuh0Pc/U6dd33uOn50yx9Zf899/PEDIXaNGvh9cFqdwUnL/sD1t9zOxl/+L9t++RmOmfZqhtJjgm8PC4tw460wtf7lHRMODrkYrnxGPtJcs9tFbYNevWf8dYkjFpYu2b0bx9L581nq3LuaJSeMpfFAFqLq81VXmz/pt3T+2Hltl/XBpF+xfxYvgGXtF7Fia+VCDXJpn7ltfXRdXd75xLY3OTu79LUtcN7vwb5/iXOPGhKgUCgOgBJ8E5S6nl4ej0R569IuNv+nhxP//f187tYnufDSt/DqRj+RaIyGp27C6nyIj858mmUXvIaTF6xk4Jyv87nThinqszj3zv/jdT9YwNlnnMS0N53BD2+ZxzdWv4uTPKMUH3qUy5d+Dd9/LeUd4Q3kJ1/KOz58PA+981P8zN6Bvu1WnsrM5OS2+fTLpVr0Yc5qDRN89Pf88HFz97g9u9KI2aJR1GzZUJbH8IXD0/H+czXGZx/mM6/o48vnv45Xv/9HmB0/5YuvG8Q9bJD87O/4Et/hkvNfz/nvuZT3b3kX133AT12kvAafFDVz721n3rx5jpM7p3WuWry74XQsMHK7q4p/+yFsrSa3JKuG2de1aHcYtevzVe9Z1NVXuTKOtg5a1rSX91ztXEDvokV09TXTMqvsPT59y3r2tBBJITBn41jcMh6Zv4PhYNKv2D/LF16+78WQz5tLGz1s3Vw+dfYyXtkhjsbe74Hev0KhUBwKSvBNVNxRNG+cmz4T5Ou31eGLufj75z/F71/7Sd5a58VjFnEl+pnau5wPfuybbDbr0XozDEVaGHVrDB/3Qc6O/IwbfpegTo+Tx8Ofv/tV7pr5Hs6fnSSQTVJ6YBXfuMngsk9cy6eXXcDOmy/hmm0lct4Q7l3b+eatf6Gt/dXECnm8WpDXvfUddN95HcViCMOlOU43ZGJld27ZaVL1yeOMnJE7yuStP+fCJVfwlN0Ivb08YTYxrLmJ1J3Fqf+mceP1vyJv5Ugm0tzzk1Vsn/9e/t0ckYE6oubytWMN8rp7xwTdbgvM9esqV14A+rqQ0W/pFYKwew0rKuKgdcbsvaavvDfuXMeKJwXEnOZu1lQfEmxesYbu5jllC5KmxuW94PT1smX24spexnPYKATdxlrtv5/3X4saEqBQKA4GJfgmKKZ49X5L7qIRxtIyuMyCuPoqIolhUp4saSEagtFTyT35CE+OivutUYLWH1g8/yx+8mCQ8IwQDdt30WPK3S5CeE0XdrGHJ3cEmTZNhEmJhG6z6SdX8aPgq5hfvI0fX72JtLtIsGhhCdFXuvl3/Gna6VxwspvscQs4gx/y85tKuP1FOTEYw9Jx48JteDA0l0ifjm1LsWKQcyfRPKcQf+J2nkyIsMwsIfMuPvyW+Vz7sIfRmSfw+kKA9/zgbu68/T42briTu370ZiLuqcw+JuyUQXVrqmp35R5dtrNn0FpjgTnqcNLXTMdKuSF/Jf0rO8SVVhw9MKuFZikoyndX2EKvshAdPTR3sNIRetLKvHC3oFMoFIojgRJ8ijEOReRs6aWvuaVyMkZLcx+9NSpj9uIr6ehZ5nQ3rrzmvMrVMra9lnu7m5lz5mxmnzkHNt51+KwUm7eKnPTR5TSmle5Ixy1k+aZyHIuv7EDcsNvvQF22s2e0Vo6OAg6Uv4N8P4oXCPF+JN3LLtpdH8U/Auao96NQKI4QSvApdnPe+zpo7r73oDZhtzctZ2NfG1cuHuteOu+albT1beSuimCUA8+djd2vWMe6K5bR3da5xyQBieyGpONKrpzTs0f343OlKiY73renyKwiu0RbmqGnom6d/XFrLXyb73Lyt6CSv3JexAOHiOyOa55zZuXs8HGg/B3o/cxmM1t7oG1u+XlnDNleJqUcqfRPdOT7ccbmLRgbU1n+97dmTAAeJOWJHXtf9kWhUCiqKME3wWnrHOsSdCYAHMKg/BUXLaOnZgans8TERSscPymQZBdp97IrHAEpBcoVooWT8dWKvrIwaaa55+CE5qGw9vJ5dLV27k6f4yqTGmrTI6+vX99J7zIhPitIQSRnTSLy54yxWtDLogNYAPeGHCfoLLcxLn5JdQamIySFGB7vfyD2lz/Jvt6PtKJKVx7z11kZQ9bCmkVj+a+yv/Qr9k91BnV5qEAbnevLda0qzJz3V1O2h/rvr4oU7jL8inZXKBSKvaKFQqHD28oqXhTIQfuLV610ZgHWTlx4IZDC52hIh0LxYkTONpcfDcva2w/7R5NCoXjpoCx8ihcU2Vh1UJ6NqFAoDp7qpCNn2IQSewqF4gAoC98E5YW28FWtEpLxjZUznm59J88cUVah+9l1fR0ujvb0KRQKhUIxHiX4FAqFQqFQKF7iqC5dhUKhUCgUipc4SvApFAqFQqFQvMRRgk/xvFG7Of/hRG0er1AoFArF/lGCT3FUI9cyW73kxbvv64s9/Yrnzv4WRq6u1ec48dGiUCgURwol+BQvetTm8YqjEceivWE1bNz7gt1S7DmLYbe3096+qLwIs1rYWqFQHCHULN0JjrQ+1O4Y1r1sz2VanEapuv5IX5cjrKqUF0xeBp1jS5TIvV1rt4ba43mJCKO628P+qF22ZQ9qljzZ455xS6E4O33M7aWrtcPJX/eyajrl/rNj+5fuL3+S8eVTu4RMOf9j5eXEKXfkkLuNLF51wPQrXtosWb2UrRddwbrzrmF9p6w75V1nJOWlfRbQW1MXne3tVs5ho7i2YpZ45iDqr8Spo0IuHsy/K4VCMXFRFr4JjLPocY8QIDWb7z9D7Mntnip+y3qeaYFo65SNVnkD/0VdfXvs7Tr++fZD2JpMbunlxCke6etatDuMWrFUvUfGu1faOhxBJsMop3MRXX3NtMwqex8of7IhnbNxLG4ZT+eqsb1P98fBpF/x0mb5wsv3vRjyeXOFeOuhspVzRex1iKOx+nmg+qtQKBSHghJ8E522uXsdWyQtEHPb+uiq2QKjvPdq+X65cLOke9mYtWGz3NSzdYYzeWJvzz/v9JV38NjSKwRh9xpWVBrX1hmzD5w/0QDPae5mTfUhweYVa+hunsOSE8byr1A8a/p62TJ7sbNbhhR7G4Wg21j77bKf+luLGtKgUCgOBiX4JjDSCrWoq3X3pu57WO9mz6CVZjpWVvyEWy8apWbaGNfe7B3n+TELxlHHgfI3q4Vm2SCX73aw7bX0KguL4nDR3MFKR+i1s3DePPHhtKnioVAoFIcfJfgmONWuR+m6WjvHRN/mrUKuyfFC5e7aWlc7fuhQmD2jtXJ0FHCg/G3ppa+5pXJzGWkVbGnuo7dWBSoUzwZRvyRyzGztGL45qn4pFIojhBJ8it3cVdOfJK1Z93Y37zEm75DYfBcb+9pYsLhsDpQTGvY6ieEAyO6s5jlnVs4OHwfKn71puZP+Kyvpl5x3TSdtfRu5a7MQr2xG9mC3zS0/74zB2mN2SpkjlX7FixtZv5yxeQvGxoSe974OmrvXHPIHlRxruq9lXxQKhaKKEnwTmHJDMeZWztnIoivGxrStvbxi9au552CXjZCCaMXVXdCx0hmj5MxelS3cISItkM5yFXuJv5p+R0i2VdJ5kOmTHCh/Ky5aRo9If9XPWUKjMhNSuvKYv85y/la2sGaRyO849pd+xUsbOSlIvvP1zodA2+6hE1Vh5tS/mrrhTCB6FpN65IeHDL/y7aFQKBR7RS3LolAoFC9iqssT1S4ZpFAoFONRFj6FQqF4ESKHEUjr8sqOHiX2FArFAVEWPsXzTnnR2bHFmp+BWpxYoVAoFIrDihJ8CoVCoVAoFC9xVJeuQqFQKBQKxUscJfgUCoVCoVAoXuIowfcCItemqy7JoNbQUigUCoVCcaRQY/iOAnZv4q8mKigUCoVCoTgCKAvfUcC6e7vljuicoKx8CoVCoVAojgBK8CkUCoVCoVC8xFGC72igspG6QqFQKBQKxZFACb6jhL7mOZw5tk+/QqFQKBQKxWFDCb6jAHvTci5qX0PLyvVsWL1EjeVTKBQKhUJxWFGzdI8C5J6Yq1a2sKb9CrUfpkKhUCgUisOOsvAdDcxqobmvly2VU4VCoVAoFIrDiRJ8CoVCoVAoFC9xlOBTKBQKhUKheImjBN9RwOwZrdCzlU1q/J5CoVAoFIojgBJ8LyDVvXRXdjTTdf26ylWFQqFQKBSKw4uapatQKBQKhULxEkdZ+BQKhUKhUChe4ijBp1AoFAqFQvES5wUVfNUxbNLNV7tLKBQKhUKhUBwRjooxfPOXbqCTZcy7fG3likKhUCgUCoXicHFUdOmuu7cbWmeoPWQVCoVCoVAojgBqDJ9CoVAoFArFS5yjQ/Bt6a0cKBQKhUKhUCgON0eNha+veQ5nzq6cKBQKhUKhUCgOG0eF4LM3Leei9jW0rFzPhtVL1Fg+hUKhUCgUisPIUTFLVzthCatWtrCm/QrWqv1kFQqFQqFQKA4rR0eX7qwWmvt62VI5VSgUCoVCoVAcPtQsXYVCoVAoFIqXOErwKRQKhUKhULzEOSoE3+wZrdCzlU1q/J5CoVAoFArFYecFFXzVvXRXdjTTdf26ylWFQqFQKBQKxeHkqJil+0KiaVblaE9s+xC08P4skwdcYea5LEEz/tl9p8O2zcrRnmiaa3coz6YiyGerz9njy+Egs6YdxI0aRuVIxleqHJWx7T3fobZ7WZ/acMeeL7NnGOKh8m8lD3vkpCZfY2E/k3G53yfPCGEv9cfex7eYph1sLEeAvdXzw7SEkjbuHdZiazqlfWTb2Gf0VY+9P7i3OmfX3iu9D7Wo93f/4Smmg6Y2KWN5LV+V/073V48VCsVLkwkv+GqxrX03OuCq/NagjRMN46j9m1rbwDgNiyz1ff7NPdg/xuPv2/+r3Jfo04XokzybiiBTUH3uGYKvgn0AkaIfhKF5X4JvvNiT7FXwVfK4m3Floel7psGqrQsHIfisyj0H05COv0OrPFtbSpbIr7aXN2Lsp85ZNeWoHyCdz4q9PXsQ+T0YDiT4TOG9r6j2LvqeefFgU2rv78b9lV/Vq+aenB5wfn1knd/ni2oK9hS25atK8CkUE5NDMGO9xDBcovGzKJl55xfR4Mu/gbolGlRxYBtuIQKMSsOpiz+VNrqh4/G4MEQLo4mGV/pUnS6fFffudiI8y7IpmqYIX8YnwhB/aEvFolQTIizZnGuYonVxGmERr0uE4TcM8SsORJJKRoqiliOVyhOzNE5tPFGkNyXuF2GItMnwLLMkfi1s3RbpEulziXSL/4riekm2XJo4t4WkKllCshp4pEXPFtfkb8VVkek2RLp1kZlyEkQ44ilp7HQZJimOwSda3tmR48TNJeEv8ifSWRYRFm6Rdr/Hi1ukAc0Q8VsUSrJ8RU5lei1d5F+ELX7d4jzjnY5blKMZiIr7sgSntqLbedEiFR3xLcutJCKXv5ZlitSIPIi0aEIASHkg8+0IBRG+TIKmu9A9Pnkgni8LOk2+R5EWTZxb4l0XC2kRVlHktRx+UaZJPFwS6ZShekUenHcu46i8v+q7d7tcePcoXxGByIfMu2EXREmVhPiQpSbTIzyl/24nwhRO1Awn7HL52OTNAqaMToSNy4Pt8onbRBpEGg3dEvVNvBND1hRR3uK+nO4hL+IsiHdkFkQaUyKcvDiWwYs6YMtKJI9F2GZJF+G7MYWnXSqRsFuJIsrRylGfLpByRwmExXvNizzKApUiV9Z/4ZyPH1kX3N5KWZTru7QHy7ouLY0yneKtixxpol7J+nEs3pLGy8Kzy+9cxOV26q+XBi1CzFsv0uJlup4SAYlyF7WrWEyLtIr3If89ivwX3D6KbjdF6V8SdSYt6p94lbpHvAORN128H1nPDZEIKfTkHzCnqJ3ylXVBvnfxDoS/rKEFUY6mOJJlY8nyEa4k0p4V97pEXS64LfFvrOi8f5EF3AWvuC7/pYi6J/KcKxVEcZRwl4uFjHgJMm8e+c7FPeUUCMQ1mQT5jpxyE2Umq5HfTmGmBvCFp4q/KSncuSgp8W9Avn9ZU0yRDvGkuL9cUeSHhi3qncyTrC2GCMcQARsia6mU+PcSzIrflPh3IqIRfrqo3zINJVEZrZL4dyP+Hdkiz/J5We+celiugMIpFIqJjPbAAw+IvwTdLDtKFz0uL8rcUTmDjYvaWb5J/fGqZcnqDXTQxaKLVrygE1/kmMz1C3oPWzpOWLLaGd/p0L2MeZevLR8rjgi1728zs1m8aiUta9q5fO3hqVP7qh/Vf+OVN01f1yIWLt9UOZsYzF+6gc625/Z3WIaxoHfilZ1CoTg49Hnz5rGsu43Oa86rXHp+kX+kVi85oXK2J+WGYI4j8haKdF60qIs5K69hvvx0PkzsL/6JwNGc/03LFyLr56KuvsqVFx+Ho3yloJeTm6TbW1j78peCuXp9b/5HA5o2n2uE2OtZ1u68a+nGC5YjlT8Z99L9PDveX7olJ+z5t6c2bRuWzq9cff6RfysXCMG4ZsXmypUysoyWzpcW+xOctMpjhUIxMXH6I9bd2w2tM466PWwXXykbgot2W/TknrtXd7WyYPFs51xRZvlC0VAuXK6WtXmJIRvx1UJISCvb3sTQgfwl0lpW9dub/wvO7Bm00s29e5mkf6Tzd941nVARmu3iY5KOK/cQdItXddJaE7788Oi4cnHFtyz25mwc8+9q7XzWgnrt5TKMy5+1dW/2mXOg6/pnPD+rpWo3LdOrtjNSKCYslQEoe0d+Hco/YLVf0uP/oO3xhSvceOvbvvyrYXa2QXPHyrF7Kl/Jsvuno2fZM7qTNm/tobllVuWsbEHZ/ezqJZWrZcpftHt+pVf/oB8ofsn+8l9ujFbv0UDs7dr+2F/6quyvfGvTtTfrwnPN/8FQW/7rZWDjeLbv52DZV/kc6P04SwItXbL7+bF07PnMkaxfB+K893WIRnzRPrtUD+R/MBzo/QkpsUcZj38/TjlW/KQb//fhwOHvm8ORv/0hRVY1bPkxubGvmTlnlj8mpXVPaqWerWMWs813baSvucWpY7IuzWne06K2Yk03zXPOrJyVGV8/pau1uI33G//3U+LcJ+revj7IZVplUW28aywt1fcii7ytcz3r169Ejo7oWLn+Ge9IoVBMDMqCb0uv87M3ZGO1cs5GFrW3P+MrWP4hqv3ClV/Anav2/QVc61/trlvWPe4rvTJOSy7G3C0++8d3q5wn0trXOsO5RzYmnSzb/eyyno5nNKhtnQvoXVT+ine+0N9X7ro+UPxV9pn/zXft0UBI5Fd2c/eaQxpj2NY5ZmU4kAVhfPkeTJfnc83//hhf/u0ysBoO7v3sO/8HYn/lM74Blzzj/bR1ONYjmexyOS2iSzxT/Z54PurXvpD1fm5bHxt53+66L131396B/A+GA70/SVtneRxf1b+jZkiFMyavs1VosrK/dLUWtv2FXxXE652xe210rl+/Ow+OoDoM+TsUZHy1As+213K9eJ9tnaucOKW/7HrebUWb1eLctwfyb1NFEEpk/uVHazX/IjinLkiRadubypb5atmIvy19PLP8D4bZixfQNu7vjr328kqcfc77qYa/TPwdO+qsvAqF4nkA/j+pxS3MqZotQgAAAABJRU5ErkJggg==;" vertex="1" parent="1">
          <mxGeometry x="1000" y="53.38" width="416" height="331.62" as="geometry" />
        </mxCell>
        <mxCell id="t08y1QO3zHGYFeZgEVLe-45" style="edgeStyle=orthogonalEdgeStyle;shape=flexArrow;rounded=0;orthogonalLoop=1;jettySize=auto;html=1;" edge="1" parent="1" source="t08y1QO3zHGYFeZgEVLe-44">
          <mxGeometry relative="1" as="geometry">
            <mxPoint x="510" y="285" as="targetPoint" />
          </mxGeometry>
        </mxCell>
        <mxCell id="t08y1QO3zHGYFeZgEVLe-44" value="NGINX using the reverse proxy redirect all the traffic to kong API gateway" style="shape=note2;boundedLbl=1;whiteSpace=wrap;html=1;size=12;verticalAlign=top;align=center;fillColor=#fff2cc;strokeColor=#d6b656;" vertex="1" parent="1">
          <mxGeometry x="680" y="255" width="260" height="60" as="geometry" />
        </mxCell>
        <mxCell id="t08y1QO3zHGYFeZgEVLe-47" style="edgeStyle=orthogonalEdgeStyle;shape=flexArrow;rounded=0;orthogonalLoop=1;jettySize=auto;html=1;entryX=1;entryY=0.75;entryDx=0;entryDy=0;" edge="1" parent="1" source="t08y1QO3zHGYFeZgEVLe-46" target="t08y1QO3zHGYFeZgEVLe-6">
          <mxGeometry relative="1" as="geometry" />
        </mxCell>
        <mxCell id="t08y1QO3zHGYFeZgEVLe-46" value="Once KONG gets the request it check the request path in Cassandra database and decide which application service the request needs to go." style="shape=note2;boundedLbl=1;whiteSpace=wrap;html=1;size=12;verticalAlign=top;align=center;fillColor=#fff2cc;strokeColor=#d6b656;" vertex="1" parent="1">
          <mxGeometry x="680" y="360" width="260" height="90" as="geometry" />
        </mxCell>
      </root>
    </mxGraphModel>
  </diagram>
</mxfile>
